<svg width="70" height="47" viewBox="0 0 70 47" fill="none" xmlns="http://www.w3.org/2000/svg">
<path fill-rule="evenodd" clip-rule="evenodd" d="M2.70356 27.5473H9.32266C9.52563 27.5488 9.71976 27.6305 9.86275 27.7746C10.0057 27.9186 10.086 28.1134 10.086 28.3163V45.4508C10.086 45.6532 10.0055 45.8474 9.8624 45.9905C9.71925 46.1337 9.5251 46.2141 9.32266 46.2141H2.70356C2.50059 46.2141 2.30585 46.1339 2.1618 45.9909C2.01774 45.8479 1.93606 45.6538 1.93456 45.4508V28.3163C1.93605 28.1128 2.01755 27.9181 2.16144 27.7742C2.30533 27.6303 2.50007 27.5488 2.70356 27.5473ZM66.0863 10.0141C66.8507 10.0129 67.5987 10.236 68.2376 10.6556C68.8765 11.0752 69.3783 11.673 69.6808 12.375C69.9834 13.0769 70.0734 13.8522 69.9398 14.6048C69.8062 15.3574 69.4548 16.0543 68.9291 16.6092C68.4034 17.1641 67.7265 17.5527 66.9822 17.7268C66.2379 17.9008 65.4589 17.8528 64.7416 17.5886C64.0244 17.3243 63.4003 16.8556 62.9468 16.2403C62.4933 15.625 62.2302 14.8902 62.1901 14.1268L52.0962 7.03493C51.4212 7.53198 50.6047 7.79951 49.7664 7.79824C48.8899 7.80002 48.0385 7.50486 47.3512 6.96088L38.8751 13.4091C38.898 13.5771 38.9094 13.7465 38.9093 13.9161C38.909 14.4592 38.7953 14.9963 38.5756 15.4929C38.3558 15.9896 38.0348 16.4349 37.633 16.8004C37.2313 17.1659 36.7577 17.4435 36.2425 17.6154C35.7273 17.7873 35.1819 17.8498 34.6411 17.7989C34.1004 17.7479 33.5763 17.5846 33.1023 17.3194C32.6283 17.0543 32.2149 16.6931 31.8885 16.259C31.5621 15.8249 31.3299 15.3274 31.2068 14.7984C31.0838 14.2694 31.0725 13.7205 31.1737 13.1869L22.5267 6.92101C21.8459 7.46409 21.0034 7.76457 20.1326 7.77489C19.2618 7.78521 18.4125 7.50477 17.719 6.97797L7.81314 14.0528C7.78327 14.9455 7.44848 15.801 6.86453 16.4768C6.28058 17.1527 5.48272 17.6081 4.60382 17.7672C3.72492 17.9264 2.81803 17.7796 2.03419 17.3514C1.25035 16.9231 0.636863 16.2393 0.295909 15.4137C-0.0450455 14.5882 -0.0928919 13.6708 0.160338 12.8142C0.413568 11.9577 0.95259 11.2137 1.68763 10.7063C2.42268 10.1989 3.30938 9.95854 4.20006 10.0254C5.09075 10.0922 5.93166 10.4622 6.58274 11.0736L16.1981 4.23805C16.1981 4.12412 16.1981 4.01589 16.1981 3.90197C16.1981 2.8671 16.6092 1.87462 17.341 1.14286C18.0727 0.411099 19.0652 0 20.1001 0C21.1349 0 22.1274 0.411099 22.8592 1.14286C23.5909 1.87462 24.002 2.8671 24.002 3.90197C24.002 3.98172 24.002 4.06146 24.002 4.13552L32.9452 10.6008C33.5662 10.2228 34.2803 10.0256 35.0073 10.0312C35.8042 10.0294 36.5822 10.2741 37.2345 10.7318L45.8758 4.13552C45.8758 4.05577 45.8758 3.97602 45.8758 3.89627C45.9144 2.88646 46.3427 1.93085 47.0708 1.23006C47.7989 0.529264 48.7701 0.137776 49.7807 0.137776C50.7912 0.137776 51.7625 0.529264 52.4905 1.23006C53.2186 1.93085 53.6469 2.88646 53.6855 3.89627C53.6943 4.02714 53.6943 4.15845 53.6855 4.28932L63.4205 11.1249C64.1327 10.4248 65.0877 10.0269 66.0863 10.0141ZM60.6748 25.9638H67.2939C67.3991 25.9621 67.5034 25.9819 67.6007 26.0219C67.6979 26.062 67.786 26.1213 67.8595 26.1965C67.9331 26.2716 67.9905 26.361 68.0284 26.459C68.0664 26.5571 68.0839 26.6619 68.08 26.7669V45.4508C68.0785 45.6538 67.9968 45.8479 67.8528 45.9909C67.7087 46.1339 67.514 46.2141 67.311 46.2141H60.6919C60.4895 46.2141 60.2953 46.1337 60.1522 45.9905C60.009 45.8474 59.9286 45.6532 59.9286 45.4508V26.7669C59.9286 26.564 60.0089 26.3692 60.1518 26.2252C60.2948 26.0811 60.489 25.9994 60.6919 25.9979L60.6748 25.9638ZM46.1948 16.2231H52.8139C53.0174 16.2246 53.2122 16.3061 53.3561 16.45C53.5 16.5938 53.5815 16.7886 53.5829 16.9921V45.4736C53.5814 45.6765 53.4998 45.8707 53.3557 46.0137C53.2116 46.1567 53.0169 46.2369 52.8139 46.2369H46.1948C46.0946 46.2369 45.9953 46.2171 45.9027 46.1788C45.8101 46.1404 45.726 46.0842 45.6551 46.0133C45.5842 45.9424 45.528 45.8583 45.4896 45.7657C45.4513 45.6731 45.4315 45.5738 45.4315 45.4736V16.9921C45.4308 16.8914 45.45 16.7915 45.488 16.6982C45.526 16.605 45.5821 16.5201 45.6531 16.4486C45.724 16.3772 45.8084 16.3204 45.9014 16.2817C45.9944 16.243 46.0941 16.2231 46.1948 16.2231ZM31.6977 25.9751H38.3168C38.4193 25.9759 38.5206 25.997 38.6147 26.0374C38.7089 26.0778 38.794 26.1366 38.8651 26.2104C38.9362 26.2842 38.9919 26.3714 39.0288 26.467C39.0657 26.5625 39.0832 26.6645 39.0802 26.7669V45.4508C39.0802 45.6532 38.9997 45.8474 38.8566 45.9905C38.7134 46.1337 38.5193 46.2141 38.3168 46.2141H31.6977C31.4953 46.2141 31.3012 46.1337 31.158 45.9905C31.0149 45.8474 30.9344 45.6532 30.9344 45.4508V26.7669C30.9344 26.564 31.0147 26.3692 31.1577 26.2252C31.3006 26.0811 31.4948 25.9994 31.6977 25.9979V25.9751ZM17.2007 16.2231H23.8198C24.0227 16.2246 24.2169 16.3063 24.3598 16.4503C24.5028 16.5944 24.5831 16.7891 24.5831 16.9921V45.4736C24.5831 45.5738 24.5633 45.6731 24.525 45.7657C24.4866 45.8583 24.4304 45.9424 24.3595 46.0133C24.2886 46.0842 24.2045 46.1404 24.1119 46.1788C24.0193 46.2171 23.92 46.2369 23.8198 46.2369H17.2007C16.9977 46.2369 16.8029 46.1567 16.6589 46.0137C16.5148 45.8707 16.4332 45.6765 16.4317 45.4736V16.9921C16.4317 16.7881 16.5127 16.5925 16.6569 16.4483C16.8011 16.3041 16.9967 16.2231 17.2007 16.2231Z" fill="#FFC107"/>
</svg>
