<svg width="30" height="23" viewBox="0 0 30 23" fill="none" xmlns="http://www.w3.org/2000/svg">
<path fill-rule="evenodd" clip-rule="evenodd" d="M23.9863 0.25881C25.2779 0.25881 26.3254 1.30626 26.3254 2.59787C26.3254 3.88948 25.2779 4.93692 23.9863 4.93692C23.5249 4.93692 23.0927 4.80264 22.7289 4.57068C22.7142 4.59022 22.6972 4.60975 22.6776 4.62684L20.9416 6.29934C22.099 7.59339 22.8339 9.27322 22.9267 11.1215H25.3536C25.5367 10.013 26.5012 9.16823 27.6609 9.16823C28.9526 9.16823 30 10.2157 30 11.5073C30 12.7989 28.9526 13.8463 27.6609 13.8463C26.5647 13.8463 25.6442 13.0919 25.3902 12.0713C25.378 12.0713 25.3658 12.0737 25.3536 12.0737H22.9145C22.7851 13.8976 22.033 15.5481 20.8684 16.8129L22.7069 18.522C22.724 18.5391 22.7411 18.5562 22.7558 18.5757C23.1122 18.356 23.5322 18.229 23.9839 18.229C25.2755 18.229 26.3229 19.2765 26.3229 20.5681C26.3229 21.8597 25.2755 22.9071 23.9839 22.9071C22.6923 22.9071 21.6448 21.8597 21.6448 20.5681C21.6448 20.07 21.8011 19.6085 22.0672 19.2276L22.0599 19.2203L20.1823 17.477C18.8174 18.6392 17.0473 19.34 15.116 19.34C13.1187 19.34 11.2973 18.5928 9.91536 17.3623L8.02067 19.2081L8.01823 19.2105C8.27704 19.5866 8.42598 20.0407 8.42598 20.5315C8.42598 21.8231 7.37853 22.8705 6.08692 22.8705C4.79531 22.8705 3.74786 21.8231 3.74786 20.5315C3.74786 19.2398 4.79531 18.1924 6.08692 18.1924C6.5435 18.1924 6.97078 18.3242 7.33214 18.5513C7.33946 18.5415 7.34679 18.5342 7.35656 18.5269L9.24392 16.6884C8.13299 15.4261 7.42248 13.8048 7.31016 12.0176L4.64882 12.0444H4.63417C4.4193 13.1163 3.4744 13.9245 2.33906 13.9245C1.04745 13.9245 0 12.877 0 11.5854C0 10.2938 1.04745 9.24636 2.33906 9.24636C3.4622 9.24636 4.40221 10.0374 4.62684 11.0947H4.63905L7.30528 11.0678C7.40783 9.26345 8.12322 7.62513 9.24392 6.35061L7.25889 4.45349C7.24424 4.43884 7.22959 4.42419 7.21738 4.4071C6.89265 4.58045 6.51908 4.67567 6.12599 4.67567C4.83438 4.67567 3.78693 3.62822 3.78693 2.33662C3.78693 1.04745 4.83438 0 6.12599 0C7.4176 0 8.46504 1.04745 8.46504 2.33906C8.46504 2.89086 8.2746 3.39871 7.95231 3.79914L9.91536 5.67429C11.2973 4.44372 13.1187 3.69659 15.1135 3.69659C17.0864 3.69659 18.8883 4.42663 20.2653 5.63278L22.0184 3.94319C22.0282 3.93343 22.0404 3.92366 22.0526 3.91389C21.7962 3.53789 21.6473 3.08619 21.6473 2.59787C21.6473 1.30626 22.6947 0.25881 23.9863 0.25881ZM14.0173 12.3252L14.6692 14.2419L14.9963 13.1041L14.8352 12.9283C14.7619 12.8233 14.7473 12.7305 14.7864 12.65C14.8743 12.4766 15.0525 12.5108 15.221 12.5108C15.3968 12.5108 15.6141 12.4766 15.6702 12.6988C15.6898 12.772 15.6653 12.8502 15.6141 12.9283L15.4529 13.1041L15.7801 14.2419L16.371 12.3252C16.7958 12.7086 18.0581 12.7842 18.5269 13.0479C18.6758 13.131 18.8101 13.2359 18.9176 13.3776C19.0811 13.5924 19.1812 13.8756 19.2081 14.2321L19.3058 15.1819C19.2814 15.4358 19.1373 15.5823 18.8565 15.6019H15.2283H11.5341C11.2509 15.5799 11.1069 15.4334 11.0849 15.1819L11.1826 14.2321C11.2094 13.8732 11.3095 13.5924 11.4731 13.3776C11.5805 13.2359 11.7148 13.131 11.8638 13.0479C12.3325 12.7842 13.5924 12.7086 14.0173 12.3252ZM13.8415 9.42704C13.8488 9.44169 13.8512 9.45634 13.8512 9.47343C13.8512 9.48075 13.8512 9.48808 13.8488 9.49784L13.861 9.58818C13.8293 9.59551 13.8 9.59551 13.7707 9.59551C13.7584 9.60039 13.7438 9.60283 13.7316 9.60283C13.651 9.60527 13.5924 9.61992 13.5533 9.64678C13.5338 9.66143 13.5167 9.67852 13.5094 9.69806C13.4972 9.72247 13.4923 9.75177 13.4948 9.78595C13.4972 9.89338 13.5558 10.0326 13.6657 10.1961L13.6681 10.1986L14.0319 10.7772C14.1784 11.0092 14.3298 11.2436 14.5178 11.4169C14.696 11.5805 14.9158 11.6928 15.2014 11.6928C15.514 11.6928 15.741 11.5781 15.9266 11.4047C16.1219 11.2241 16.2757 10.9726 16.4271 10.7211L16.8373 10.0472C16.9203 9.8592 16.9447 9.74444 16.9179 9.69073C16.9008 9.65411 16.8275 9.64678 16.7055 9.65655C16.6688 9.65899 16.6322 9.64678 16.6078 9.62236C16.598 9.62236 16.5883 9.62236 16.5785 9.61992L16.5834 9.59062C16.5761 9.57597 16.5712 9.56133 16.5687 9.54423C16.5638 9.50273 16.5834 9.46366 16.6127 9.4368L16.6981 9.00464C15.9486 8.99487 15.4358 8.86547 14.8279 8.47725C14.6277 8.35029 14.5691 8.20379 14.3688 8.21844C14.2175 8.24774 14.0905 8.31611 13.9904 8.42354C13.8927 8.52853 13.8219 8.67014 13.7731 8.85082L13.8415 9.42704ZM16.9447 9.42948C17.0326 9.45634 17.0961 9.50517 17.1352 9.5833C17.1962 9.70782 17.1718 9.89338 17.0571 10.1571C17.0546 10.162 17.0522 10.1668 17.0497 10.1717L16.6347 10.8554C16.4735 11.1191 16.3099 11.3852 16.0926 11.5903C15.8655 11.8052 15.5823 11.9468 15.199 11.9443C14.8401 11.9443 14.5691 11.8052 14.3469 11.6025C14.1344 11.4072 13.9709 11.1581 13.817 10.914L13.4532 10.3353C13.3165 10.1327 13.2481 9.9471 13.2433 9.79572C13.2408 9.72247 13.253 9.65411 13.2799 9.59551C13.3092 9.53447 13.3531 9.48075 13.4117 9.44169C13.441 9.42215 13.4728 9.40506 13.5094 9.39285C13.4874 9.08277 13.4801 8.697 13.4948 8.3747C13.5021 8.29657 13.5167 8.21844 13.5387 8.13787C13.6315 7.80581 13.8659 7.53723 14.154 7.35411C14.2565 7.28819 14.3664 7.23448 14.486 7.19297C15.1868 6.93904 16.1122 7.07821 16.6102 7.61537C16.8129 7.83511 16.9399 8.12322 16.9667 8.50899L16.9447 9.42948ZM19.9674 6.65826C19.9528 6.64605 19.9406 6.63384 19.9284 6.62163C19.9211 6.61431 19.9162 6.60698 19.9088 6.59966C18.671 5.39351 16.9814 4.65126 15.1184 4.65126C13.2506 4.65126 11.5586 5.39595 10.3207 6.60454C10.306 6.62652 10.2889 6.64605 10.2718 6.66558C10.2474 6.69 10.223 6.71197 10.1937 6.7315C8.99243 7.9694 8.25018 9.65655 8.25018 11.517C8.25018 13.4142 9.01929 15.1306 10.2621 16.3734C11.5048 17.6162 13.2213 18.3853 15.1184 18.3853C17.0155 18.3853 18.732 17.6162 19.9748 16.3734C21.2175 15.1306 21.9867 13.4142 21.9867 11.517C21.9867 9.61992 21.2175 7.90348 19.9748 6.6607L19.9674 6.65826Z" fill="#FFC107"/>
</svg>
