<svg width="30" height="36" viewBox="0 0 30 36" fill="none" xmlns="http://www.w3.org/2000/svg">
<path fill-rule="evenodd" clip-rule="evenodd" d="M23.2165 20.0345C23.6393 20.3013 24.1151 20.8317 24.7027 21.1669C25.5289 21.6393 27.06 20.9876 27.8434 22.1531C28.3 22.831 28.322 23.3641 28.3551 23.8903C28.3924 24.4572 28.491 24.98 29.0724 25.7475C30.0337 27.0193 30.2337 27.8655 29.7379 28.7475C29.4 29.3489 28.6896 29.6827 28.5241 30.0634C28.1751 30.8737 28.5613 31.4841 28.0827 32.4289C27.7496 33.0848 27.2365 33.5158 26.5531 33.7358C25.9765 33.922 25.3972 33.653 24.9358 33.8475C24.1241 34.1882 23.5262 34.9806 22.88 35.1813C22.391 35.3324 21.8786 35.3351 21.3896 35.1813C20.7448 34.9806 20.1455 34.1896 19.3338 33.8475C18.871 33.653 18.2931 33.922 17.7165 33.7358C17.0331 33.5158 16.52 33.0848 16.1869 32.4289C15.7069 31.4841 16.0951 30.8737 15.7441 30.0634C15.5786 29.6827 14.8683 29.3489 14.5303 28.7468C14.0351 27.8655 14.2358 27.0193 15.1958 25.7475C15.7772 24.9793 15.8758 24.4572 15.9131 23.8903C15.9476 23.3641 15.9682 22.831 16.4255 22.1531C17.2082 20.9876 18.74 21.6393 19.5655 21.1669C20.1531 20.8317 20.6282 20.3013 21.0517 20.0345C21.7765 19.5758 22.4924 19.5745 23.2165 20.0345ZM16.4834 3.18965L22.0938 9.08688L16.3889 9.18137L16.4834 3.18965ZM4.93585 26.8669H12.0634V25.7958H4.93585V26.8669ZM4.93585 22.7538H13.962C14.0241 22.4227 14.1289 22.0717 14.3172 21.6827H4.93585V22.7538ZM4.93585 18.6407H19.4758C19.6324 18.5138 19.7889 18.3951 19.9545 18.291C20.0296 18.2434 20.1062 18.1965 20.1841 18.1524V17.5696H4.93585V18.6407ZM4.93585 6.30344H9.95791V5.23172H4.93585V6.30344ZM4.93585 10.4158H12.0634V9.34481H4.93585V10.4158ZM4.93585 14.5283H20.1641V13.4572H4.93585V14.5283ZM25.12 10.0669C25.12 10.0669 24.8358 9.41999 24.44 9.03378L16.1758 0.344138C16.0891 0.236529 15.9793 0.14975 15.8546 0.0901917C15.7299 0.0306332 15.5934 -0.000187047 15.4551 8.54036e-07H1.67931C0.750344 8.54036e-07 0 0.750344 0 1.67931V30.4193C0 31.3462 0.751723 32.0979 1.67931 32.0979H13.9234C13.8669 31.7496 13.8607 31.4013 13.8572 31.0496C13.6979 30.9131 13.531 30.7675 13.3655 30.5979H1.5V1.49172H14.7027V9.92619C14.7027 10.4421 15.12 10.8683 15.6448 10.8683H23.62V17.9179C23.8717 18.0234 24.1007 18.151 24.322 18.291L24.4703 18.3951C24.7069 18.5586 24.9082 18.7289 25.12 18.9096V10.0669ZM20.7765 26.5937L21.7827 27.5517L23.5151 25.791C23.6862 25.6172 23.7938 25.4779 24.0055 25.6951L24.6917 26.3979C24.9165 26.6206 24.9055 26.751 24.6931 26.9586L22.1744 29.431C21.7269 29.8696 21.8048 29.8972 21.3503 29.4462L19.622 27.7269C19.5269 27.6248 19.5372 27.5206 19.6413 27.4186L20.4372 26.5924C20.5565 26.4669 20.6524 26.4751 20.7765 26.5937ZM22.1117 23.2227C24.5379 23.2227 26.5027 25.1896 26.5027 27.6144C26.5027 30.04 24.5365 32.0055 22.1117 32.0055C19.6862 32.0055 17.7207 30.0386 17.7207 27.6144C17.7207 25.1882 19.6869 23.2227 22.1117 23.2227Z" fill="#FFC107"/>
</svg>
