<svg width="30" height="44" viewBox="0 0 30 44" fill="none" xmlns="http://www.w3.org/2000/svg">
<path d="M21.4344 15.3162C20.9089 15.6018 20.253 15.4079 19.9709 14.8859C19.6852 14.3605 19.8792 13.7045 20.4046 13.4224C22.8873 12.0753 24.044 10.3332 24.2768 8.62983C24.4002 7.71998 24.2591 6.80661 23.9171 5.96023C23.5679 5.10328 23.0143 4.32391 22.3125 3.69619C20.9477 2.476 19.0328 1.83417 17.0332 2.33141C16.2221 2.53243 15.5204 2.93798 14.9067 3.50928C14.2543 4.11585 13.6901 4.90932 13.1964 5.84738C12.9178 6.37637 12.2653 6.57738 11.7399 6.30231C11.2109 6.02371 11.0099 5.3713 11.285 4.84584C11.8915 3.69619 12.6004 2.70875 13.4397 1.92586C14.3178 1.11123 15.337 0.525818 16.5219 0.233115C19.2726 -0.44751 21.8928 0.420022 23.7548 2.08455C24.7 2.93093 25.4511 3.98537 25.9237 5.14913C26.3998 6.32347 26.5937 7.61419 26.4139 8.92254C26.093 11.2571 24.5977 13.5987 21.4344 15.3162ZM13.1611 23.8398C9.07029 18.3455 8.97155 13.1403 13.9369 8.30186L10.361 6.327C7.49745 5.21261 2.24289 13.4259 4.27418 15.6195L7.06016 19.7526L6.48533 20.9516C6.32663 21.3078 6.4818 21.5582 6.86972 21.731L7.24706 21.8332L0 36.1757L1.46705 39.3038L4.40114 38.4398L5.15582 36.9727L4.43287 35.6185L6.02688 35.2765L6.39716 34.557L5.5649 33.2875L6.11151 32.226L7.70199 32.025L8.22039 31.0199L7.3317 29.8597L7.89947 28.7594L9.52169 28.4949L11.7293 24.2807L12.1031 24.4852C12.752 24.8802 13.087 24.6263 13.1611 23.8398ZM20.8596 27.2853L19.7804 31.3126L18.2816 31.9051L17.9678 33.0794L19.061 34.0069L18.7754 35.0754L17.2942 35.5974L16.9909 36.7259L18.0524 37.7662L17.8479 38.5315L16.3914 39.1909L17.3647 40.3371L16.9451 41.8993L14.3178 43.3346L12.2653 40.6439L16.1798 26.0334L15.2312 25.7795C15.0372 25.7266 14.9173 25.5255 14.9702 25.3281L15.3687 23.8434C12.4981 21.6675 11.0769 17.9011 12.0643 14.2088C13.3339 9.46563 18.1229 6.60207 22.8697 7.66709C22.8908 7.921 22.8873 8.17844 22.8521 8.43587C22.7639 9.07771 22.4853 9.73717 21.9704 10.3755C21.8999 10.4601 21.8258 10.5483 21.7482 10.6329C20.2318 10.5342 18.8106 11.5146 18.4015 13.038C18.2252 13.694 18.264 14.357 18.4721 14.9529C18.5214 15.1645 18.6026 15.3691 18.7084 15.5701C18.9587 16.0285 19.3255 16.3777 19.7557 16.5998C20.0379 16.7867 20.3553 16.9278 20.6973 17.023C22.4007 17.478 24.1463 16.4976 24.6541 14.8225C25.169 14.3675 25.6169 13.8879 26.0013 13.3942C26.7489 12.4315 27.2602 11.4088 27.5635 10.3684C29.623 12.5902 30.5294 15.7887 29.6865 18.9344C28.6991 22.6267 25.5781 25.1799 22.0092 25.6278L21.6107 27.1125C21.5578 27.3064 21.3568 27.4264 21.1593 27.3735L20.8596 27.2853Z" fill="#FFC107"/>
</svg>
