<svg width="30" height="31" viewBox="0 0 30 31" fill="none" xmlns="http://www.w3.org/2000/svg">
<path fill-rule="evenodd" clip-rule="evenodd" d="M4.28322 0H19.795C20.9301 0.00263077 22.0181 0.454742 22.8208 1.25743C23.6234 2.06012 24.0756 3.14805 24.0782 4.28322V13.8333C24.0756 14.9685 23.6234 16.0564 22.8208 16.8591C22.0181 17.6618 20.9301 18.1139 19.795 18.1165H11.6842L5.1822 23.7071C5.07454 23.8021 4.94104 23.8628 4.79873 23.8815C4.65643 23.9002 4.51177 23.8761 4.38323 23.8122C4.25469 23.7483 4.1481 23.6476 4.07706 23.5229C4.00602 23.3982 3.97376 23.2551 3.98439 23.112L4.33054 18.1141H4.28322C3.14848 18.1114 2.06093 17.6597 1.25831 16.8575C0.45569 16.0553 0.00328798 14.9681 0 13.8333L0 4.28322C0.00263077 3.14805 0.454742 2.06012 1.25743 1.25743C2.06012 0.454742 3.14805 0.00263077 4.28322 0ZM13.0987 11.119H10.2822V11.0044C10.2689 10.6087 10.3237 10.2136 10.4441 9.83647C10.5576 9.53473 10.7265 9.25687 10.9421 9.01718C11.3931 8.55374 11.8739 8.12034 12.3815 7.71976C12.7816 7.38773 12.9817 7.0889 12.9817 6.82328C12.9872 6.70586 12.9679 6.58859 12.925 6.47915C12.8821 6.36972 12.8165 6.27059 12.7326 6.18826C12.5262 6.02259 12.2645 5.94158 12.0005 5.96165C11.8392 5.95667 11.6786 5.98532 11.529 6.04577C11.3794 6.10622 11.244 6.19715 11.1314 6.31277C10.8998 6.54188 10.7529 6.95028 10.6906 7.52552L7.81937 7.15946C7.87523 6.1962 8.28287 5.28699 8.96489 4.60447C9.62895 3.96032 10.6574 3.63825 12.0503 3.63825C13.1286 3.63825 13.9952 3.86237 14.6601 4.31062C15.0766 4.5644 15.42 4.92209 15.6567 5.34862C15.8933 5.77515 16.015 6.25585 16.0098 6.74359C16.0103 7.1762 15.8905 7.60042 15.6637 7.96879C15.2756 8.52434 14.7945 9.00875 14.2417 9.40068C13.8728 9.6606 13.5524 9.98345 13.2954 10.3544C13.1558 10.587 13.0874 10.8554 13.0987 11.1264V11.119ZM10.1851 12.0329H13.1983V14.1944H10.1851V12.0329ZM26.5933 6.97269C27.5503 7.15939 28.413 7.67222 29.0342 8.42376C29.6554 9.17529 29.9967 10.119 30 11.094V20.6392C29.9967 21.751 29.5536 22.8164 28.7674 23.6026C27.9812 24.3888 26.9158 24.8319 25.8039 24.8352H25.6495L26.0032 29.9253C26.0112 30.0493 25.9826 30.1729 25.9208 30.2807C25.8591 30.3885 25.7669 30.4758 25.6559 30.5316C25.5449 30.5874 25.4199 30.6092 25.2965 30.5944C25.1732 30.5796 25.0569 30.5287 24.9622 30.4482L18.4278 24.6709H9.83398L14.0674 20.3627H23.0323C23.9759 20.3601 24.8802 19.9841 25.5474 19.3168C26.2147 18.6496 26.5907 17.7453 26.5933 16.8017V7.24911C26.5933 7.15448 26.5933 7.05985 26.5933 6.96771V6.97269ZM19.7925 1.44434H4.28322C3.53111 1.44697 2.81056 1.74691 2.27873 2.27873C1.74691 2.81056 1.44697 3.53111 1.44434 4.28322V13.8333C1.44368 14.5876 1.74216 15.3113 2.27435 15.8458C2.80653 16.3804 3.52896 16.682 4.28322 16.6847H5.16228C5.35261 16.6981 5.5299 16.7863 5.65542 16.93C5.78093 17.0737 5.84447 17.2612 5.83216 17.4516L5.55076 21.4933L10.9148 16.8814C11.047 16.7492 11.2258 16.6741 11.4128 16.6722H19.7925C20.5446 16.6696 21.2651 16.3696 21.797 15.8378C22.3288 15.306 22.6287 14.5854 22.6314 13.8333V4.28322C22.6287 3.53111 22.3288 2.81056 21.797 2.27873C21.2651 1.74691 20.5446 1.44697 19.7925 1.44434Z" fill="#FFC107"/>
</svg>
