<svg width="30" height="24" viewBox="0 0 30 24" fill="none" xmlns="http://www.w3.org/2000/svg">
<path fill-rule="evenodd" clip-rule="evenodd" d="M0 7.31017L7.05868 2.30243L14.154 7.31017H0ZM6.27492 18.5879L10.7821 17.4331L9.93489 18.8468C11.4902 20.2775 13.1358 20.7121 15.011 19.9992C13.1627 22.6679 10.4623 22.8705 8.2453 21.6668L7.38097 23.1073L6.27492 18.5879ZM15.846 11.4951L22.9047 6.48734L30 11.4951H15.846ZM16.2757 19.6818V18.041H16.7616L17.2255 17.6772V13.3141H16.2782V12.2691H29.5337V13.3141H28.5888V17.6772L29.0527 18.041H29.5483V19.6818H16.2757ZM19.4327 18.0386H19.9674L20.4313 17.6748V13.3141H18.9713V17.6772L19.4327 18.0386ZM22.6386 18.0386H23.1733L23.6372 17.6748V13.3141H22.1771V17.6772L22.6386 18.0386ZM25.8444 18.0386H26.3791L26.843 17.6748V13.3141H25.3829V17.6772L25.8444 18.0386ZM20.9929 4.56824L16.432 5.50094L17.3476 4.1312C15.8631 2.62473 14.2419 2.10955 12.335 2.72971C14.3127 0.156263 17.0204 0.0854562 19.1739 1.39904L20.1066 0L20.9929 4.56824ZM0.429722 15.4969V13.8561H0.915602L1.37951 13.4923V9.12916H0.432164V8.08415H13.6876V9.12916H12.7427V13.4899L13.2066 13.8537H13.7023V15.4944H0.429722V15.4969ZM3.58672 13.8537H4.12143L4.58533 13.4899V9.12916H3.12525V13.4899L3.58672 13.8537ZM6.79254 13.8537H7.32726L7.79116 13.4899V9.12916H6.33108V13.4899L6.79254 13.8537ZM9.99837 13.8537H10.5331L10.997 13.4899V9.12916H9.53691V13.4899L9.99837 13.8537Z" fill="#FFC107"/>
</svg>
