<svg width="30" height="18" viewBox="0 0 30 18" fill="none" xmlns="http://www.w3.org/2000/svg">
<path fill-rule="evenodd" clip-rule="evenodd" d="M18.8836 12.6253L20.3416 16.4536L21.0745 14.3667L20.7153 13.9741C20.4451 13.5793 20.5379 13.1313 21.0385 13.0504C21.2073 13.0229 21.3972 13.04 21.5811 13.04C21.7755 13.04 21.9923 13.022 22.1767 13.0627C22.6414 13.1652 22.6898 13.6157 22.4583 13.9741L22.0989 14.3667L22.8319 16.4536L24.1505 12.6253C25.1021 13.4817 27.222 13.6543 28.2698 14.2384C29.7221 15.0513 29.6824 16.3543 30 17.8083L19.5049 17.8082C19.5048 17.7119 19.4921 17.616 19.4672 17.5229C19.3593 17.1196 19.2996 16.6905 19.2404 16.2637C19.1176 15.3794 18.9952 14.5005 18.51 13.5901C18.4102 13.4031 18.2852 13.2437 18.1419 13.1039C18.4131 12.977 18.664 12.823 18.8836 12.6253ZM13.669 13.8117C13.203 12.8765 13.0441 12.5154 12.3565 11.7702C13.6524 12.2715 14.7548 12.3349 15.7353 12.95C16.3591 13.341 17.2848 13.6355 17.5372 14.1088C18.1584 15.2742 18.0671 16.5687 18.3992 17.8083H0C0.331992 16.5687 0.240527 15.2742 0.86209 14.1088C1.11445 13.6355 2.07059 13.341 2.69473 12.95C3.67488 12.3349 4.77732 12.2715 6.07353 11.7702C5.38594 12.5154 5.2268 12.8765 4.76074 13.8117L6.11033 13.7787L9.13992 16.1984L12.3194 13.7787L13.669 13.8117ZM7.01021 10.462V11.2767L6.37934 12.6253L9.21322 14.8251L12.0507 12.6039L11.1709 11.1987V10.4408C12.2518 10.3832 13.1803 10.2869 13.6942 10.1613C14.3583 9.99937 14.9121 9.75703 15.2942 9.39152C14.6981 9.10517 14.3165 8.61392 14.0977 7.97455C13.5888 6.48633 14.0706 5.07334 13.8434 3.45814C13.5392 1.29434 12.1238 0.569648 10.7203 0.719296C8.92992 -0.752051 5.71629 0.108105 4.84816 2.62219C4.40965 3.89144 4.67549 4.86141 4.62908 6.14754C4.5668 7.87851 4.11504 8.86822 3.13588 9.23719C3.47479 9.64043 3.95947 9.95039 4.59797 10.1587C5.07457 10.3143 5.96209 10.4124 7.01021 10.462ZM18.6144 10.0585C18.4824 10.0608 18.3747 10.0446 18.2573 9.97939C18.1008 9.89279 17.9909 9.74391 17.9164 9.57609C17.759 9.224 17.6343 8.29769 18.0304 8.03256L17.9563 7.98457L17.9479 7.88209C17.9327 7.69558 17.9287 7.47 17.9251 7.23322C17.9106 6.36205 17.8924 5.30684 17.1732 5.09508L16.8646 5.00426L17.0678 4.75939C17.6492 4.06014 18.2562 3.44859 18.8685 2.97908C19.5612 2.44799 20.2651 2.09432 20.954 1.99266C21.6622 1.88754 22.3483 2.04615 22.982 2.54496C23.1691 2.69238 23.3508 2.86916 23.526 3.07676C24.2021 3.14027 24.755 3.49494 25.1496 4.00125C25.385 4.30324 25.5639 4.66049 25.6779 5.04041C25.7923 5.4219 25.8403 5.82018 25.82 6.21791C25.7815 6.92789 25.5149 7.62146 24.9777 8.1273C25.0721 8.13053 25.1612 8.15174 25.2399 8.19281C25.5396 8.34914 25.5493 8.6884 25.4705 8.97281C25.3927 9.2107 25.2937 9.48674 25.2005 9.71848C25.087 10.0313 24.9211 10.0895 24.6004 10.0558C23.8802 13.2075 19.5248 13.315 18.6144 10.0585Z" fill="#FFC107"/>
</svg>
