<svg width="30" height="25" viewBox="0 0 30 25" fill="none" xmlns="http://www.w3.org/2000/svg">
<path d="M1.51031 7.19317H4.78849C4.85025 7.05446 4.92889 6.92391 5.02264 6.80447L9.75961 0.765601C10.0611 0.379327 10.5037 0.128646 10.99 0.0687057C11.4764 0.0087649 11.9666 0.144474 12.3529 0.445979C12.7392 0.747483 12.9898 1.19009 13.0498 1.67642C13.1097 2.16275 12.974 2.65298 12.6725 3.03925L9.41774 7.19317H20.6244L17.3275 2.99476C17.0248 2.60756 16.8882 2.11594 16.948 1.62807C17.0077 1.1402 17.2588 0.69604 17.646 0.393294C18.0332 0.090547 18.5248 -0.0459832 19.0126 0.013738C19.5005 0.0734592 19.9447 0.32454 20.2474 0.711745L24.9727 6.75295C25.0782 6.88726 25.1649 7.03537 25.2303 7.19317H28.4897C28.8903 7.19317 29.2744 7.35229 29.5576 7.63552C29.8409 7.91876 30 8.30291 30 8.70347V11.9512C29.9993 12.3509 29.8401 12.734 29.5574 13.0166C29.4181 13.1567 29.2525 13.2679 29.07 13.3439C28.8876 13.4198 28.692 13.459 28.4944 13.4592H27.3962L26.8647 23.5583C26.8487 23.91 26.7037 24.2435 26.4572 24.4949C26.3347 24.6189 26.1888 24.7174 26.0281 24.7849C25.8674 24.8524 25.6949 24.8875 25.5206 24.8883H5.05074C4.7224 24.8894 4.40594 24.7655 4.16563 24.5417L4.1188 24.5019C3.88069 24.255 3.733 23.9348 3.69966 23.5934L2.63426 13.4662H1.51031C1.31158 13.4662 1.1148 13.427 0.931258 13.3508C0.747714 13.2746 0.581011 13.1629 0.440705 13.0222C0.3004 12.8814 0.189249 12.7144 0.113625 12.5306C0.0380014 12.3468 -0.000608957 12.1499 7.2613e-06 11.9512V8.70347C7.2613e-06 8.30291 0.159128 7.91876 0.442365 7.63552C0.725601 7.35229 1.10975 7.19317 1.51031 7.19317ZM18.5779 15.0561H20.4909C20.5458 15.0567 20.5982 15.079 20.6368 15.118C20.6754 15.157 20.697 15.2096 20.697 15.2645V21.575C20.697 21.6299 20.6754 21.6825 20.6368 21.7215C20.5982 21.7605 20.5458 21.7828 20.4909 21.7834H18.5779C18.5506 21.7834 18.5237 21.778 18.4985 21.7675C18.4733 21.757 18.4505 21.7416 18.4314 21.7222C18.4122 21.7028 18.3971 21.6798 18.3869 21.6546C18.3766 21.6293 18.3715 21.6022 18.3718 21.575V15.2645C18.3715 15.2372 18.3766 15.2102 18.3869 15.1849C18.3971 15.1597 18.4122 15.1367 18.4314 15.1173C18.4505 15.0979 18.4733 15.0825 18.4985 15.072C18.5237 15.0615 18.5506 15.0561 18.5779 15.0561ZM14.0493 15.0561H15.96C16.0153 15.0561 16.0683 15.0781 16.1074 15.1171C16.1465 15.1562 16.1684 15.2092 16.1684 15.2645V21.575C16.1684 21.6303 16.1465 21.6833 16.1074 21.7224C16.0683 21.7614 16.0153 21.7834 15.96 21.7834H14.0493C13.9941 21.7834 13.9411 21.7614 13.902 21.7224C13.8629 21.6833 13.8409 21.6303 13.8409 21.575V15.2645C13.8409 15.2092 13.8629 15.1562 13.902 15.1171C13.9411 15.0781 13.9941 15.0561 14.0493 15.0561ZM9.51374 15.0561H11.4268C11.4541 15.0561 11.481 15.0615 11.5062 15.072C11.5313 15.0825 11.5542 15.0979 11.5733 15.1173C11.5925 15.1367 11.6076 15.1597 11.6178 15.1849C11.6281 15.2102 11.6332 15.2372 11.6328 15.2645V21.575C11.6332 21.6022 11.6281 21.6293 11.6178 21.6546C11.6076 21.6798 11.5925 21.7028 11.5733 21.7222C11.5542 21.7416 11.5313 21.757 11.5062 21.7675C11.481 21.778 11.4541 21.7834 11.4268 21.7834H9.50906C9.4542 21.7828 9.40179 21.7605 9.36321 21.7215C9.32463 21.6825 9.303 21.6299 9.303 21.575V15.2645C9.303 15.2096 9.32463 15.157 9.36321 15.118C9.40179 15.079 9.4542 15.0567 9.50906 15.0561H9.51374ZM26.1669 13.4662H3.87294L4.91727 23.4717C4.92175 23.5301 4.94565 23.5853 4.98518 23.6285H4.99688C5.00976 23.638 5.0254 23.6429 5.04137 23.6426H25.5229C25.5491 23.6427 25.5743 23.6326 25.5932 23.6145C25.625 23.5818 25.6433 23.5383 25.6447 23.4927L26.1739 13.4568L26.1669 13.4662ZM28.4897 8.43887H1.51031C1.43784 8.43949 1.36851 8.46855 1.31727 8.51979C1.26602 8.57104 1.23696 8.64037 1.23635 8.71284V11.9512C1.23813 12.0233 1.26756 12.092 1.31856 12.143C1.36956 12.194 1.43821 12.2234 1.51031 12.2252H28.4897C28.5254 12.2254 28.5608 12.2185 28.5938 12.2048C28.6268 12.1911 28.6567 12.171 28.6817 12.1456C28.7071 12.1205 28.7273 12.0906 28.741 12.0576C28.7546 12.0246 28.7616 11.9892 28.7613 11.9535V8.70347C28.7583 8.63304 28.7286 8.56641 28.6781 8.51722C28.6276 8.46803 28.5602 8.44001 28.4897 8.43887Z" fill="#FFC107"/>
</svg>
