<svg width="30" height="31" viewBox="0 0 30 31" fill="none" xmlns="http://www.w3.org/2000/svg">
<path fill-rule="evenodd" clip-rule="evenodd" d="M24.8916 12.369L27.8286 15.1968L23.3538 19.8966L19.7586 20.8608C19.6296 20.886 19.5786 20.8344 19.5996 20.7132L20.4144 17.0688L24.8916 12.369ZM17.742 20.8542C18.1812 20.8422 18.5484 21.1896 18.5604 21.6288C18.5724 22.068 18.225 22.4346 17.7858 22.4466C16.98 22.4688 16.419 22.8882 16.1838 23.3838C16.0884 23.5848 16.0482 23.7972 16.0698 23.991C16.0884 24.1554 16.1568 24.3096 16.2798 24.4314C16.6356 24.7854 17.4078 24.9402 18.7128 24.624C18.9192 24.5736 19.3356 24.4344 19.8576 24.2598C22.335 23.4312 26.8866 21.909 27.5958 24.024C27.7344 24.4404 27.51 24.8928 27.093 25.032C26.6766 25.1712 26.2242 24.9462 26.0856 24.5298C25.8828 23.9244 22.3086 25.1196 20.3628 25.77C19.8054 25.9566 19.3602 26.106 19.0872 26.172C17.154 26.6406 15.8676 26.2698 15.156 25.5612C14.7612 25.1682 14.5416 24.6804 14.484 24.1656C14.4288 23.6802 14.5194 23.1714 14.7414 22.704C15.2076 21.7212 16.263 20.895 17.742 20.8542ZM6.2142 13.551C5.79 13.551 5.4462 13.2072 5.4462 12.783C5.4462 12.3594 5.79 12.0156 6.2142 12.0156H15.8844C16.3086 12.0156 16.6524 12.3594 16.6524 12.783C16.6524 13.2072 16.3086 13.551 15.8844 13.551H6.2142ZM6.2142 18.5124C5.79 18.5124 5.4462 18.1692 5.4462 17.745C5.4462 17.3208 5.79 16.977 6.2142 16.977H15.0576C15.4818 16.977 15.825 17.3208 15.825 17.745C15.825 18.1692 15.4818 18.5124 15.0576 18.5124H6.2142ZM6.2142 23.4744C5.79 23.4744 5.4462 23.1306 5.4462 22.7064C5.4462 22.2828 5.79 21.939 6.2142 21.939H11.4648C11.8884 21.939 12.2322 22.2828 12.2322 22.7064C12.2322 23.1306 11.8884 23.4744 11.4648 23.4744H6.2142ZM14.7606 2.2038V4.7982C14.8206 5.583 15.0942 6.1998 15.5742 6.6102C16.0728 7.0356 16.8168 7.2744 17.802 7.2918L20.0382 7.2894L14.7606 2.2038ZM20.5632 8.8242L17.79 8.8212C16.4244 8.7996 15.3498 8.4324 14.5788 7.7742C13.776 7.0878 13.3236 6.1134 13.2318 4.9074L13.2252 4.8018V1.5354H3.8166C2.5602 1.5354 1.5354 2.5602 1.5354 3.8166V26.916C1.5354 28.167 2.565 29.1972 3.8166 29.1972H18.2832C19.2252 29.1972 20.085 28.5984 20.418 27.7182C20.5662 27.3228 21.009 27.123 21.4044 27.2712C21.7998 27.42 21.9996 27.8622 21.8508 28.2576C21.2916 29.733 19.8642 30.7332 18.2832 30.7332H3.8166C1.7214 30.7332 0 29.0106 0 26.916V3.8166C0 1.7202 1.7202 0 3.8166 0H14.373C14.6004 0 14.8056 0.099 14.9454 0.2568L21.8616 6.9204C22.0176 7.0704 22.0962 7.2714 22.0962 7.4724L22.0986 11.9124C22.0986 12.3366 21.7548 12.6804 21.3312 12.6804C20.907 12.6804 20.5632 12.3366 20.5632 11.9124V8.8242ZM27.8154 10.2942C27.6792 10.1634 27.5202 10.1022 27.3378 10.1046C27.156 10.1076 27.0006 10.179 26.8716 10.3134L25.824 11.4042L28.764 14.2422L29.8224 13.1406C29.949 13.0128 30.0018 12.8466 30 12.6636C29.997 12.4836 29.9322 12.3204 29.8044 12.1968L27.8154 10.2942ZM22.4208 19.7262L20.2158 20.3172C20.136 20.3328 20.1048 20.3016 20.1186 20.2272L20.6178 17.9916L22.4208 19.7262Z" fill="#FFC107"/>
</svg>
