<svg width="30" height="33" viewBox="0 0 30 33" fill="none" xmlns="http://www.w3.org/2000/svg">
<path fill-rule="evenodd" clip-rule="evenodd" d="M3.85131 25.6775C4.20953 25.6775 4.49993 25.9679 4.49993 26.3261C4.49993 26.6843 4.20953 26.9747 3.85131 26.9747C3.4931 26.9747 3.20206 26.6843 3.20206 26.3261C3.20206 25.9679 3.4931 25.6775 3.85131 25.6775ZM15.5354 13.8232H15.8047C16.0497 13.8232 16.2493 13.6236 16.2493 13.3786V12.6558C16.2493 12.4115 16.0497 12.2119 15.8047 12.2119H14.1953C13.9503 12.2119 13.7507 12.4115 13.7507 12.6558V13.3786C13.7507 13.6236 13.9503 13.8232 14.1953 13.8232H14.4691L14.3386 14.9784C14.7345 14.807 15.1593 14.6823 15.6192 14.5978L15.5354 13.8232ZM5.89504 16.481C5.94365 14.8486 6.10805 13.6876 7.76158 13.0678C8.89122 12.6437 10.3362 12.1064 11.3757 11.4603L12.671 16.1509C12.5808 16.2443 12.4919 16.3428 12.4049 16.4458C11.116 16.4657 10.0119 16.8718 8.92448 17.5397H8.07053C7.49036 16.9141 6.72084 16.5891 5.89504 16.481ZM12.7215 9.90847C12.7708 9.49269 11.5401 7.90824 11.3155 7.14832C10.8339 6.38072 10.6631 5.16472 11.1883 4.35363C11.3981 4.03252 11.3072 3.74979 11.3072 3.30714C11.3072 -1.10142 19.0318 -1.10334 19.0318 3.30714C19.0318 3.86493 18.9039 3.99734 19.2064 4.43615C19.7131 5.16856 19.4514 6.46708 19.0254 7.14832C18.7516 7.94726 17.4595 9.45559 17.5497 9.90847C17.6258 12.1722 12.7075 12.0961 12.7215 9.90847ZM18.7145 11.2275C19.6638 11.8345 21.0096 12.3334 22.0862 12.6929C23.7141 13.2366 24.0845 14.5959 24.1619 16.5667C23.766 16.6006 23.3802 16.6831 23.0092 16.8347C21.0314 15.549 19.7949 14.6292 17.8158 14.4795L18.7145 11.2275ZM22.7297 20.0177C22.7297 19.8949 22.7374 19.7778 22.7527 19.6678L21.4772 18.8164C21.293 18.6936 21.0928 18.5529 20.8913 18.4122C20.1659 17.9036 19.4188 17.3804 18.6141 17.1686C18.14 17.0456 17.6531 16.9784 17.1634 16.9684C16.7156 16.9601 16.2582 17.0023 15.829 17.1136C15.5725 17.1795 15.325 17.2723 15.0947 17.3932C14.8906 17.5013 14.7 17.6337 14.5305 17.7917L13.674 18.8107C13.6483 18.8605 13.6118 18.904 13.5672 18.938L11.2049 21.7493C11.2401 21.9284 11.3104 22.0787 11.4077 22.1996C11.5202 22.3384 11.6699 22.442 11.8433 22.5073C12.0256 22.5757 12.2367 22.6019 12.4599 22.5834C12.8162 22.554 13.1962 22.4081 13.5384 22.1369L14.1947 21.5945C14.361 21.4576 14.4985 21.3309 14.636 21.2056C14.9386 20.9286 15.2418 20.6523 15.5597 20.4629C16.296 20.0235 17.0277 20.0094 17.7525 21.2248L21.4664 27.9233H22.7291L22.7297 20.0177ZM23.0291 18.9456C23.086 18.8657 23.1519 18.7928 23.2254 18.7262C23.5504 18.4345 24.0141 18.2919 24.609 18.2913V18.29L27.8381 18.2913C28.5129 18.2887 29.063 18.4122 29.4436 18.7045C29.8664 19.0307 30.0654 19.5277 29.9809 20.239L29.2671 27.6156C29.2153 28.2738 29.0406 28.7901 28.731 29.1463C28.401 29.5257 27.9417 29.7124 27.3398 29.6875L24.4363 29.6881C24.0301 29.7092 23.6854 29.5986 23.3969 29.3683C23.1851 29.2001 23.0105 28.9692 22.8704 28.6813H21.8668C22.0018 29.0766 21.9947 29.4521 21.8873 29.7854C21.776 30.1282 21.5591 30.4206 21.2834 30.6393C21.0135 30.8536 20.6834 31.0001 20.3393 31.057C20.0022 31.112 19.6497 31.082 19.3222 30.9457C18.9416 31.3436 18.5405 31.595 18.1216 31.7101C17.7019 31.8253 17.2766 31.8022 16.8461 31.6513C16.4373 32.1041 15.9851 32.3882 15.4874 32.4963C14.9808 32.6056 14.4422 32.5302 13.871 32.2609C13.6938 32.4003 13.507 32.5103 13.3132 32.5903C13.0386 32.7041 12.7429 32.7579 12.4458 32.7483C11.7224 32.7272 11.2349 32.5129 10.8467 32.1662C10.4769 31.8355 10.2281 31.4108 9.94795 30.9221L8.34687 28.1306H7.10592C7.03684 28.4798 6.91594 28.7779 6.73811 29.0159L6.72084 29.0408C6.40421 29.4476 5.93918 29.6638 5.29695 29.6504L2.5899 29.651C2.05322 29.738 1.5933 29.6063 1.23317 29.1892C0.914619 28.8201 0.696493 28.222 0.603742 27.3419L0.599904 27.3099L0.0401985 20.3785C-0.0704633 19.6301 0.0517124 19.1017 0.352994 18.7403C0.656194 18.3757 1.11355 18.2107 1.6771 18.1844L1.72315 18.1819H5.15111V18.1832C5.6929 18.1774 6.15794 18.2663 6.5104 18.494V18.4953C6.79441 18.6789 6.99782 18.938 7.10336 19.2898H9.43558C10.0215 18.8945 10.5703 18.5836 11.178 18.3949C11.7735 18.2094 12.4132 18.1435 13.1763 18.235L13.9746 17.2857L14.0041 17.2537C14.2267 17.0426 14.4761 16.8686 14.7441 16.7273C15.025 16.5789 15.3275 16.4663 15.6403 16.3851C16.1386 16.2565 16.6638 16.2079 17.1749 16.2168C17.7544 16.2277 18.3173 16.3134 18.8041 16.4407H18.8054C19.7361 16.6851 20.5408 17.2486 21.3212 17.7955C21.5086 17.9267 21.6941 18.0565 21.8949 18.1908L23.0291 18.9456ZM6.42468 19.774C6.41471 19.7395 6.40954 19.7037 6.40933 19.6678C6.40933 19.6576 6.40997 19.6473 6.41061 19.6377C6.36903 19.394 6.26221 19.229 6.10485 19.1267C5.88352 18.9853 5.55602 18.9303 5.15559 18.9348H5.15111V18.9367L1.70908 18.936C1.35471 18.9527 1.08285 19.0377 0.93061 19.2207C0.767496 19.4164 0.708647 19.7548 0.787965 20.2787L0.791803 20.3126L1.35279 27.2625C1.42827 27.9809 1.58307 28.4427 1.80247 28.6973C1.97582 28.8982 2.2125 28.9551 2.49651 28.9033C2.51953 28.8994 2.54192 28.8975 2.56431 28.8975L5.27584 28.8962L5.31614 28.8982C5.69546 28.9052 5.959 28.7913 6.12468 28.5777L6.13811 28.5617C6.32169 28.3129 6.41189 27.9284 6.42596 27.4359L6.42468 19.774ZM7.17948 27.3758H8.56563C8.71212 27.3758 8.83877 27.4596 8.90146 27.5811L10.6023 30.5472C10.8512 30.9822 11.0712 31.3583 11.3482 31.6059C11.6072 31.8374 11.9463 31.9813 12.4669 31.9967C12.662 32.0024 12.8488 31.9679 13.0273 31.8943C13.136 31.8496 13.2435 31.7888 13.3484 31.7127L12.2399 29.6389C12.1426 29.4559 12.2117 29.2276 12.3947 29.1304C12.4382 29.1071 12.486 29.0926 12.5352 29.0877C12.5844 29.0829 12.634 29.0878 12.6813 29.1022C12.7286 29.1166 12.7726 29.1401 12.8108 29.1715C12.849 29.2029 12.8806 29.2415 12.9038 29.2852L14.1083 31.5387C14.5567 31.767 14.9629 31.8381 15.3288 31.7587C15.6627 31.6864 15.9781 31.4856 16.2742 31.1619L14.5382 28.437C14.4269 28.2623 14.4787 28.0295 14.6533 27.9182C14.8286 27.8069 15.0614 27.8581 15.1727 28.0333L17.0022 30.9054C17.3226 31.0353 17.6309 31.0653 17.9246 30.9847C18.2047 30.9073 18.4855 30.7282 18.7657 30.4378L17.1077 27.3175C17.0609 27.2291 17.0511 27.1256 17.0805 27.0299C17.1099 26.9342 17.176 26.8541 17.2644 26.8071C17.3528 26.7603 17.4562 26.7506 17.5517 26.78C17.6473 26.8094 17.7274 26.8755 17.7742 26.9638L19.4892 30.1909C19.7118 30.3208 19.9702 30.354 20.2184 30.3137C20.4352 30.2779 20.6438 30.1852 20.8146 30.0496C20.9796 29.9184 21.1075 29.7489 21.1702 29.5551C21.2393 29.3427 21.2323 29.0926 21.1139 28.8208C21.089 28.7638 21.0794 28.7043 21.0832 28.6468C21.0311 28.6241 20.9847 28.5899 20.9476 28.5469C20.9105 28.5038 20.8836 28.4529 20.8689 28.3979L17.1058 21.6092C16.6874 20.9094 16.31 20.8915 15.9461 21.1083C15.687 21.2625 15.4152 21.5113 15.1433 21.7602C14.9783 21.9105 14.8126 22.0621 14.6751 22.1753L14.0079 22.7254C13.5422 23.0951 13.0183 23.2941 12.522 23.335C12.1912 23.3625 11.8695 23.3203 11.5804 23.2115C11.2816 23.0996 11.02 22.9179 10.8211 22.671C10.6068 22.4049 10.4667 22.0678 10.4335 21.6668C10.4239 21.5516 10.4667 21.4448 10.5428 21.3693L12.5763 18.9495C12.1439 18.9431 11.7614 19.0019 11.4019 19.1139C10.8543 19.2847 10.3433 19.5821 9.78355 19.964C9.71959 20.0145 9.63835 20.0446 9.55008 20.0446H7.17948V27.3758ZM26.0457 25.6775C26.4039 25.6775 26.695 25.9679 26.695 26.3261C26.695 26.6843 26.4039 26.9747 26.0457 26.9747C25.6875 26.9747 25.3971 26.6843 25.3971 26.3261C25.3971 25.9679 25.6875 25.6775 26.0457 25.6775Z" fill="#FFC107"/>
</svg>
