<svg width="30" height="25" viewBox="0 0 30 25" fill="none" xmlns="http://www.w3.org/2000/svg">
<g clip-path="url(#clip0_1467_8076)">
<path fill-rule="evenodd" clip-rule="evenodd" d="M5.18379 0C5.70703 0 6.18223 0.212695 6.525 0.555469C6.68496 0.716016 6.8168 0.904102 6.91172 1.11328H10.0002C10.0951 0.904688 10.227 0.716016 10.3863 0.556055C10.7297 0.213281 11.2043 0 11.7281 0C12.2514 0 12.7266 0.213281 13.0693 0.555469C13.2293 0.716016 13.3611 0.904688 13.4561 1.11328H16.5445C16.6395 0.904688 16.7713 0.716016 16.9312 0.556055C17.2746 0.213281 17.7492 0 18.2725 0C18.7963 0 19.2709 0.213281 19.6137 0.555469C19.7742 0.716016 19.9055 0.904688 20.0004 1.11328H23.0883C23.1832 0.904688 23.315 0.716016 23.4744 0.556055C23.8178 0.213281 24.293 0 24.8168 0C25.34 0 25.8146 0.213281 26.1574 0.555469C26.3174 0.716016 26.4492 0.904688 26.5441 1.11328H29.216C29.649 1.11328 30 1.46426 30 1.89727V21.6732C29.9982 21.9715 29.8266 22.2563 29.5377 22.3863C25.9318 24.0234 20.4879 24.835 15.0557 24.835C9.62813 24.835 4.17129 24.0234 0.530859 22.4156C0.22207 22.3102 0 22.0178 0 21.6732V1.89727C0 1.46426 0.350977 1.11328 0.783398 1.11328H3.45586C3.55078 0.904688 3.68262 0.716016 3.84258 0.556055C4.18594 0.213281 4.66055 0 5.18379 0ZM12.6832 16.2475C13.1566 16.2475 13.5404 16.6318 13.5404 17.1047C13.5404 17.5775 13.1566 17.9619 12.6832 17.9619C12.2104 17.9619 11.8266 17.5775 11.8266 17.1047C11.8266 16.6318 12.2104 16.2475 12.6832 16.2475ZM12.6832 12.0527C13.1566 12.0527 13.5404 12.4359 13.5404 12.9094C13.5404 13.3828 13.1566 13.7666 12.6832 13.7666C12.2104 13.7666 11.8266 13.3828 11.8266 12.9094C11.8266 12.4359 12.2104 12.0527 12.6832 12.0527ZM12.6832 7.90078C13.1566 7.90078 13.5404 8.28516 13.5404 8.75801C13.5404 9.23086 13.1566 9.61523 12.6832 9.61523C12.2104 9.61523 11.8266 9.23086 11.8266 8.75801C11.8266 8.28516 12.2104 7.90078 12.6832 7.90078ZM21.8127 16.3418C22.234 16.3418 22.5756 16.6834 22.5756 17.1047C22.5756 17.526 22.234 17.8676 21.8127 17.8676H15.5098C15.0885 17.8676 14.7469 17.526 14.7469 17.1047C14.7469 16.6834 15.0885 16.3418 15.5098 16.3418H21.8127ZM25.2041 12.1459C25.6254 12.1459 25.967 12.4881 25.967 12.9094C25.967 13.3307 25.6254 13.6723 25.2041 13.6723H15.5098C15.0885 13.6723 14.7469 13.3307 14.7469 12.9094C14.7469 12.4881 15.0885 12.1459 15.5098 12.1459H25.2041ZM25.4988 7.99512C25.9201 7.99512 26.2623 8.33672 26.2623 8.75801C26.2623 9.1793 25.9201 9.5209 25.4988 9.5209H15.5098C15.0885 9.5209 14.7469 9.1793 14.7469 8.75801C14.7469 8.33672 15.0885 7.99512 15.5098 7.99512H25.4988ZM6.31113 17.2248C5.77383 17.1867 5.08945 17.0549 4.5627 16.9131V15.0357L5.09355 15.0791C5.7791 15.1195 6.70957 15.1916 7.38223 15.1312C7.51289 15.1195 7.66523 15.0973 7.78418 15.0393C8.01035 14.9309 8.00742 14.1604 7.85801 14.0543C7.77187 13.9934 7.67402 13.9699 7.56973 13.9699H7.02187C6.60879 13.9699 6.24316 13.9236 5.92441 13.8311C5.5998 13.7367 5.32617 13.5949 5.10293 13.4057C4.875 13.2111 4.70449 12.9539 4.59199 12.6334C4.48359 12.3217 4.42793 11.9508 4.42793 11.5207V10.8053C4.42793 10.4068 4.48887 10.0564 4.61016 9.7541C4.81172 9.25313 5.23008 8.85176 5.71582 8.62383C5.88574 8.54414 6.07617 8.48379 6.31113 8.44453V7.61191H8.04199V8.41172C8.32852 8.43398 8.55059 8.47383 8.83125 8.52481C9.15234 8.58047 9.46348 8.64375 9.78047 8.72051V10.6008L9.61348 10.5861C8.90284 10.5245 8.18987 10.4936 7.47656 10.4936C7.26914 10.4936 6.87363 10.4988 6.71719 10.6553C6.58887 10.783 6.60762 11.5477 6.7459 11.6607C6.85019 11.7451 7.02773 11.7598 7.15547 11.7598H7.83809C8.27754 11.7598 8.73223 11.8348 9.11777 12.0545C9.46523 12.252 9.72715 12.5215 9.90234 12.8613C9.98848 13.0289 10.0541 13.2088 10.0975 13.401C10.1924 13.8199 10.1631 14.2881 10.1631 14.7182C10.1631 15.0545 10.1326 15.3545 10.0734 15.6164C10.0125 15.8842 9.91934 16.1127 9.7957 16.3008C9.40898 16.8873 8.71523 17.1422 8.04199 17.216V18.1178H6.31113V17.2248ZM6.91172 2.68066C6.81719 2.88805 6.68621 3.07678 6.525 3.23789C6.18164 3.58125 5.70703 3.79453 5.18379 3.79453C4.66055 3.79453 4.18535 3.58125 3.84258 3.23789C3.68111 3.077 3.5501 2.88821 3.45586 2.68066H1.56738V21.1588C4.99629 22.5609 10.0207 23.2676 15.0557 23.2676C20.0572 23.2676 25.0354 22.5691 28.4326 21.1605V2.68066H26.5441C26.4496 2.88805 26.3186 3.07678 26.1574 3.23789C25.8141 3.58125 25.3389 3.79453 24.8168 3.79453C24.293 3.79453 23.8184 3.58125 23.4756 3.23848C23.3141 3.07729 23.1829 2.88834 23.0883 2.68066H20.0004C19.9062 2.88843 19.7752 3.07742 19.6137 3.23848C19.2703 3.58125 18.7957 3.79453 18.2725 3.79453C17.7492 3.79453 17.274 3.58125 16.9312 3.23789C16.7698 3.077 16.6388 2.88821 16.5445 2.68066H13.4561C13.3617 2.88831 13.2307 3.07726 13.0693 3.23848C12.726 3.58125 12.2514 3.79453 11.7281 3.79453C11.2043 3.79453 10.7297 3.58125 10.3863 3.23789C10.2252 3.07682 10.0944 2.88807 10.0002 2.68066H6.91172Z" fill="#FFC107"/>
</g>
<defs>
<clipPath id="clip0_1467_8076">
<rect width="30" height="24.835" fill="white"/>
</clipPath>
</defs>
</svg>
