<svg width="55" height="50" viewBox="0 0 55 50" fill="none" xmlns="http://www.w3.org/2000/svg">
<path fill-rule="evenodd" clip-rule="evenodd" d="M29.4814 29.6541L28.8097 26.4932C31.6889 27.0453 36.3099 33.0727 37.8055 35.8104C38.6111 37.3001 39.2724 38.8673 39.7802 40.4897C40.8683 44.6583 39.8205 48.56 35.4189 49.4664C32.6651 50.037 27.5202 50.0738 24.6231 49.9265C21.4887 49.7609 16.6796 49.7655 15.4213 46.4757C13.3885 41.1431 17.1139 34.8212 20.5125 30.9516C20.9499 30.4524 21.4117 29.9763 21.8961 29.5253C23.132 28.4118 24.4663 27.0867 26.0559 26.5346L24.5201 29.4747L26.7589 26.4334H27.9321L29.4859 29.6541H29.4814ZM12.5377 40.1446C12.5027 40.0739 12.4623 40.0062 12.4168 39.9422C12.2153 39.6017 12.0093 39.2612 11.8078 38.8747C11.6063 38.4882 11.3914 38.0649 11.1944 37.7291C10.9973 37.3932 10.8451 36.9193 10.6929 36.5006C10.5406 36.0819 10.4152 35.723 10.2451 35.2307C10.1464 34.8956 9.94748 34.6011 9.6766 34.3888C9.40572 34.1765 9.07664 34.0573 8.7361 34.0482H4.3524C4.21456 34.0525 4.07735 34.0274 3.94941 33.9746C3.83475 33.9184 3.73261 33.8385 3.6494 33.7399C3.55909 33.6491 3.48216 33.5453 3.42104 33.4316C3.36492 33.2999 3.33889 33.1566 3.34491 33.0129V27.3536C3.34378 27.2212 3.36189 27.0894 3.39865 26.9625C3.46208 26.8267 3.5485 26.7037 3.65388 26.599C3.73552 26.5043 3.83853 26.4316 3.95388 26.3874C4.08329 26.3341 4.22204 26.309 4.36136 26.3137H8.39131C8.77531 26.3123 9.1469 26.1739 9.44257 25.9221C9.73823 25.6704 9.9396 25.3209 10.0122 24.9334C10.1108 24.4733 10.2137 24.073 10.3123 23.7049C10.4108 23.3368 10.5675 22.8997 10.7197 22.481C10.8564 22.0736 11.0149 21.6742 11.1944 21.2847C11.3735 20.8706 11.5795 20.5072 11.7541 20.1437C11.922 19.8281 11.9857 19.4651 11.9357 19.1092C11.8856 18.7532 11.7245 18.4236 11.4765 18.1698L8.34206 14.9122C8.31967 14.9122 8.31967 14.9122 8.28832 14.9122C8.19692 14.8235 8.12117 14.7192 8.06444 14.604C8.01632 14.4896 7.99781 14.3644 8.0107 14.2405C8.00505 14.1057 8.03117 13.9715 8.08683 13.8494C8.143 13.7093 8.23043 13.5848 8.34206 13.4859L12.2153 9.52895C12.3141 9.4171 12.4346 9.32776 12.569 9.26669C12.6884 9.21115 12.8186 9.18439 12.9496 9.18847C13.0805 9.18564 13.2105 9.21234 13.3302 9.26669C13.4513 9.32779 13.5629 9.40685 13.6616 9.50135H13.684L16.5676 12.423C16.838 12.6992 17.1942 12.8689 17.574 12.9026C17.9537 12.9362 18.333 12.8316 18.6453 12.6071C18.9767 12.4 19.3035 12.193 19.6797 11.9859L20.8215 11.3832C21.2021 11.1992 21.6096 11.0197 22.0126 10.8679C22.4156 10.716 22.7738 10.5826 23.2529 10.4078C23.5772 10.2972 23.8592 10.0842 24.0586 9.79909C24.258 9.51402 24.3647 9.17147 24.3634 8.82039V4.32052C24.3578 4.17685 24.3838 4.03374 24.4395 3.90182C24.4961 3.79526 24.5589 3.69231 24.6275 3.59355C24.7112 3.50017 24.8157 3.42911 24.932 3.3865C25.0587 3.32874 25.1966 3.30197 25.335 3.30828H29.6739C29.8123 3.3031 29.95 3.32983 30.0769 3.3865C30.193 3.42708 30.2965 3.49852 30.3769 3.59355C30.4531 3.69079 30.522 3.79384 30.5829 3.90182C30.6352 4.03464 30.6597 4.17732 30.6546 4.32052V8.82039C30.6562 9.17517 30.7671 9.52032 30.9714 9.80631C31.1758 10.0923 31.463 10.3045 31.7919 10.4124C32.271 10.5642 32.6875 10.7206 33.0278 10.8495C33.3681 10.9783 33.8382 11.1899 34.2233 11.3694C34.6084 11.5488 34.9577 11.7605 35.3607 11.9675C35.7637 12.1746 36.0681 12.3862 36.3995 12.5933C36.7112 12.8196 37.0908 12.9252 37.4711 12.8916C37.8513 12.8579 38.2077 12.687 38.4772 12.4092L41.3384 9.46914C41.434 9.372 41.5464 9.29398 41.6698 9.23909C41.7883 9.18082 41.9191 9.15393 42.0504 9.16087C42.1815 9.15542 42.312 9.18224 42.431 9.23909C42.5663 9.29852 42.6872 9.38809 42.7847 9.50135L46.658 13.4583C46.7668 13.5598 46.8538 13.6836 46.9132 13.8218C46.9703 13.9435 46.9965 14.078 46.9893 14.2129C47.0018 14.3368 46.9833 14.4619 46.9356 14.5764C46.8769 14.6904 46.8013 14.7943 46.7117 14.8846C46.6848 14.8846 46.6848 14.8846 46.658 14.8846L43.5235 18.1376C43.2745 18.3917 43.1128 18.7222 43.0627 19.0791C43.0126 19.436 43.0769 19.8 43.2459 20.1161C43.425 20.475 43.631 20.8384 43.8012 21.2571C43.9999 21.6528 44.1763 22.0599 44.3295 22.4764C44.4773 22.8905 44.6072 23.2816 44.7325 23.7003C44.8579 24.119 44.9385 24.4779 45.037 24.9242C45.1089 25.3121 45.31 25.6621 45.6059 25.914C45.9017 26.1659 46.2737 26.304 46.658 26.3045H50.6879C50.8277 26.2993 50.9669 26.326 51.0954 26.3828C51.2122 26.4217 51.3161 26.4934 51.3954 26.5898C51.4964 26.6983 51.5823 26.8206 51.6506 26.9533C51.6818 27.0828 51.6984 27.2156 51.6999 27.349V33.0221C51.7041 33.1653 51.6797 33.3078 51.6282 33.4408C51.5678 33.5549 51.4908 33.6589 51.3999 33.7491C51.318 33.8481 51.2155 33.9267 51.0999 33.9792C50.9715 34.0364 50.8322 34.0631 50.6924 34.0574H46.3132C45.9659 34.0503 45.6255 34.1571 45.3412 34.3623C45.057 34.5675 44.8438 34.8603 44.7325 35.1985C44.5848 35.6954 44.4325 36.1187 44.2848 36.473C44.137 36.8272 43.9534 37.3058 43.7788 37.6968C43.3982 38.4698 43.0355 39.2014 42.5877 39.933C42.5429 40.002 42.5026 40.0664 42.4668 40.1354H46.2997C46.4609 39.8041 46.6221 39.4453 46.7923 39.0772C46.9938 38.6171 47.1953 38.157 47.3744 37.6738C47.3968 37.5956 47.4505 37.4898 47.4774 37.4116H50.7237C51.2856 37.4169 51.8433 37.3123 52.3671 37.1033C52.8887 36.8807 53.362 36.5538 53.7596 36.1417C54.1694 35.7378 54.4901 35.2483 54.7 34.7061C54.9005 34.1671 55.0022 33.5946 55 33.0175V27.349C54.9947 26.7771 54.8822 26.2115 54.6686 25.6834C54.467 25.1561 54.1622 24.6769 53.7731 24.2755C53.3917 23.8666 52.9351 23.5398 52.4297 23.3138C51.9118 23.0813 51.3515 22.9653 50.7864 22.9733H48.0237C48.02 22.9018 48.0033 22.8315 47.9744 22.7663C47.8222 22.274 47.6699 21.7771 47.4908 21.3078C47.3117 20.8384 47.1102 20.3461 46.9087 19.9274C46.8697 19.8617 46.8367 19.7924 46.8102 19.7204L49.0894 17.3508C49.5038 16.9678 49.8323 16.4968 50.0521 15.9705C50.2643 15.434 50.3752 14.861 50.3789 14.2819C50.3863 13.7017 50.275 13.1264 50.0521 12.5933C49.8264 12.0694 49.5075 11.5935 49.1118 11.1899L45.2385 7.23301C44.8379 6.82128 44.3635 6.49316 43.8415 6.26678C43.3205 6.04503 42.7621 5.93089 42.1981 5.93089C41.6342 5.93089 41.0758 6.04503 40.5548 6.26678C40.0281 6.48417 39.552 6.81343 39.1578 7.23301L37.1294 9.20228L36.9771 9.12406C36.5696 8.8894 36.1129 8.66395 35.6338 8.4431C35.1547 8.22225 34.7383 8.029 34.2905 7.84496C34.2144 7.82195 34.1114 7.76674 34.0352 7.73453V4.39414C34.0404 3.81681 33.9386 3.24375 33.7352 2.70554C33.518 2.16876 33.1983 1.68219 32.7949 1.2746C32.3888 0.861157 31.9082 0.532968 31.38 0.308367C30.8542 0.100977 30.2953 -0.0035767 29.7322 9.33701e-05H25.2947C24.7331 -0.00311123 24.1757 0.101437 23.6514 0.308367C23.1309 0.537629 22.657 0.865398 22.2544 1.2746C21.8523 1.68237 21.5341 2.16897 21.3185 2.70554C21.1119 3.24294 21.0085 3.81635 21.014 4.39414V7.72533C20.9379 7.75293 20.8349 7.80355 20.7588 7.83575C20.311 8.0198 19.8632 8.22685 19.4155 8.4339C18.9677 8.64094 18.4796 8.894 18.0722 9.11486L17.911 9.20228L15.9363 7.1962C15.542 6.77662 15.0659 6.44736 14.5392 6.22997C14.0188 6.00622 13.46 5.89201 12.8959 5.89409C12.3313 5.88651 11.7714 6.00095 11.2526 6.22997C10.7294 6.45257 10.2534 6.77762 9.85105 7.187L5.97782 11.1439H5.95543C5.56265 11.549 5.24546 12.0247 5.01958 12.5473C4.79501 13.0784 4.68209 13.6522 4.68823 14.2313C4.69126 14.8109 4.8038 15.3844 5.01958 15.9199C5.2412 16.444 5.56769 16.9143 5.97782 17.3002L8.26146 19.6652C8.23303 19.7378 8.20013 19.8085 8.16295 19.8768C7.96145 20.3139 7.77786 20.797 7.57636 21.2571C7.37487 21.7172 7.24949 22.2188 7.09725 22.7157C7.06845 22.7812 7.0503 22.8512 7.04352 22.9227H4.28076C3.71463 22.9145 3.15316 23.029 2.63296 23.2586C2.12888 23.4889 1.67278 23.817 1.28964 24.2248H1.26725C0.881656 24.6186 0.577097 25.088 0.371704 25.6052C0.133968 26.1545 0.00751874 26.7478 5.23847e-05 27.349V33.0175C-0.00264809 33.5946 0.0990827 34.1672 0.30006 34.7061C0.509913 35.2483 0.830578 35.7378 1.24038 36.1417C1.63722 36.5548 2.11078 36.8818 2.63296 37.1033C3.15829 37.3123 3.71746 37.4169 4.28076 37.4116H7.51815C7.54502 37.4898 7.59428 37.5956 7.62562 37.6738C7.80473 38.1339 8.00623 38.5941 8.20772 39.0772C8.38236 39.4545 8.53908 39.8087 8.70027 40.1354H12.5377V40.1446ZM28.0441 32.1663V33.0543C28.5482 33.1013 29.043 33.2238 29.5127 33.4178C29.9269 33.6032 30.2933 33.8852 30.5829 34.2414C30.8088 34.499 30.9973 34.7888 31.1426 35.1018C31.2646 35.3558 31.3333 35.6332 31.3441 35.9162C31.3455 36.0492 31.3204 36.1811 31.2703 36.3037C31.2203 36.4264 31.1463 36.5372 31.0531 36.6294C30.9617 36.7271 30.8517 36.8045 30.73 36.8567C30.6083 36.909 30.4775 36.9349 30.3456 36.9331C30.1009 36.9405 29.8621 36.8556 29.674 36.6946C29.486 36.5336 29.3617 36.3075 29.3247 36.0589C29.2519 35.7331 29.0956 35.4333 28.8719 35.1906C28.6483 34.9479 28.3656 34.7711 28.053 34.6785V38.0971C28.7112 38.2858 29.2441 38.456 29.6336 38.6079C30.0242 38.7586 30.383 38.9851 30.6904 39.275C31.0186 39.5744 31.2798 39.9433 31.4561 40.3563C31.6366 40.7926 31.7281 41.2625 31.7247 41.7366C31.7221 42.3519 31.5681 42.9565 31.277 43.4942C30.9822 44.0489 30.5456 44.5102 30.0142 44.8285C29.4113 45.1922 28.733 45.4035 28.0351 45.4451V46.5309C28.0475 46.7696 28.0156 47.0085 27.9411 47.2349C27.9069 47.3124 27.8491 47.3764 27.7763 47.4171C27.7036 47.4577 27.62 47.4729 27.5381 47.4604C27.4616 47.4685 27.3843 47.4563 27.3137 47.4249C27.2431 47.3935 27.1816 47.3439 27.1351 47.2809C27.0446 47.1092 27.0042 46.9143 27.0187 46.7196V45.4727C26.4523 45.416 25.8996 45.2604 25.3843 45.0126C24.9483 44.8094 24.5534 44.5237 24.2201 44.1706C23.9308 43.8575 23.6974 43.4947 23.5305 43.0985C23.3867 42.7537 23.3106 42.3832 23.3066 42.0081C23.3075 41.8753 23.3346 41.744 23.3862 41.6223C23.4377 41.5005 23.5127 41.3907 23.6066 41.2995C23.7028 41.1959 23.819 41.1141 23.9478 41.0594C24.0766 41.0048 24.2151 40.9784 24.3544 40.982C24.5694 40.9746 24.7817 41.0339 24.9634 41.1523C25.1283 41.2704 25.2498 41.4422 25.3082 41.64C25.4125 41.9906 25.5366 42.3348 25.6798 42.6706C25.7975 42.9203 25.9636 43.1426 26.1679 43.324C26.4169 43.5422 26.7108 43.6995 27.0276 43.7841V39.9468C26.4109 39.7786 25.8112 39.5506 25.2365 39.2658C24.7599 39.0214 24.3562 38.6494 24.0678 38.1892C23.7156 37.5444 23.5693 36.8023 23.6497 36.0675C23.73 35.3328 24.0329 34.6425 24.5156 34.0942C25.2118 33.4448 26.1102 33.0713 27.05 33.0405V32.1663C27.05 31.7062 27.2202 31.4762 27.556 31.4762C27.8918 31.4762 28.0664 31.7016 28.0664 32.1525L28.0441 32.1663ZM27.0276 37.8073V34.6601C26.6414 34.7583 26.2808 34.9421 25.9709 35.1985C25.737 35.4774 25.6084 35.8333 25.6084 36.2015C25.6084 36.5697 25.737 36.9256 25.9709 37.2045C26.2892 37.4728 26.6537 37.6773 27.0455 37.8073H27.0276ZM28.0441 40.2505V43.8531C28.5202 43.7768 28.9589 43.5425 29.2933 43.1859C29.5821 42.8693 29.7423 42.4512 29.7411 42.0173C29.7519 41.8105 29.7172 41.6039 29.6397 41.4127C29.5622 41.2216 29.4438 41.0508 29.2933 40.913C28.9239 40.6037 28.4952 40.378 28.0351 40.2505H28.0441ZM25.1201 21.9749C24.6141 20.4335 24.1529 18.8738 23.7768 17.291C25.2186 15.6668 30.7844 15.8831 32.3874 17.291L30.8964 20.8891C31.6934 19.8124 31.9621 19.3707 32.4367 18.7725C32.6348 18.9125 32.8233 19.0662 33.0009 19.2327C33.4596 19.5811 33.7782 20.0902 33.8964 20.6636C33.9197 20.8808 33.8961 21.1007 33.8272 21.3075C33.7583 21.5142 33.6459 21.7029 33.4979 21.8599L30.0948 25.9318C29.6605 25.8596 29.2334 25.7472 28.8187 25.596C29.0112 25.1359 29.2665 24.6205 29.4366 24.1512L28.1963 25.5316C27.0873 25.2447 25.9141 25.3923 24.9052 25.9457L21.4305 21.6712C21.2486 21.4615 21.144 21.1928 21.1349 20.9121C21.1349 19.8814 22.6305 18.9934 23.4096 18.6575L25.1201 21.9749Z" fill="#FFC107"/>
</svg>
