<svg width="30" height="28" viewBox="0 0 30 28" fill="none" xmlns="http://www.w3.org/2000/svg">
<path fill-rule="evenodd" clip-rule="evenodd" d="M12.1631 21.6064L13.7329 26.2207L14.5215 23.4814L14.1357 23.0566C13.9624 22.8027 13.9233 22.5806 14.0186 22.3877C14.2285 21.9727 14.6606 22.0508 15.0659 22.0508C15.4907 22.0508 16.0156 21.9702 16.1475 22.5024C16.1938 22.6807 16.1377 22.8662 16.0132 23.0566L15.625 23.4814L16.4136 26.2207L17.8345 21.6064C18.8599 22.5293 21.8921 22.7124 23.0225 23.3423C23.3789 23.5425 23.7012 23.7939 23.9624 24.1357C24.6655 25.0659 24.7168 25.127 24.8975 26.2817C24.8389 26.8897 24.4946 27.2412 23.8135 27.2949H6.18652C5.50537 27.2437 5.16113 26.8921 5.10254 26.2817C5.2832 25.127 5.33691 25.0659 6.0376 24.1357C6.29639 23.7915 6.61865 23.54 6.97754 23.3423C8.10547 22.7124 11.1401 22.5269 12.1631 21.6064ZM6.83105 21.3013C6.81152 21.2622 6.78955 21.228 6.76514 21.1938C6.65527 21.0132 6.54541 20.835 6.43311 20.6299C6.32324 20.4077 6.21338 20.2002 6.11328 20.0073C6.01562 19.7998 5.92041 19.5776 5.8374 19.3579C5.76904 19.165 5.68604 18.9453 5.60303 18.6816C5.48096 18.3081 5.13184 18.0762 4.76074 18.0762H2.37305C2.29004 18.0762 2.20947 18.064 2.15088 18.0347C2.09717 18.0054 2.02881 17.9663 1.9873 17.9126C1.93359 17.8564 1.88965 17.8027 1.86523 17.749C1.83594 17.6953 1.82373 17.6099 1.82373 17.5293V14.5142C1.82373 14.4312 1.83594 14.3628 1.85303 14.3066C1.88232 14.2505 1.92139 14.1846 1.99219 14.1138C2.0459 14.0601 2.10205 14.0161 2.15576 14.0039C2.21191 13.9746 2.29492 13.9624 2.37549 13.9624H4.57031C5.01221 13.9624 5.37109 13.6426 5.4541 13.23C5.50781 12.9956 5.56396 12.7759 5.61768 12.5806C5.68604 12.3584 5.75684 12.1509 5.83984 11.9312C5.92285 11.7236 6.00342 11.5015 6.11572 11.2964C6.21338 11.0742 6.32324 10.8838 6.41846 10.6909C6.61133 10.332 6.54053 9.91699 6.26709 9.64356L4.55566 7.91748C4.54346 7.90527 4.54346 7.90527 4.52637 7.90527C4.47266 7.85156 4.42871 7.79541 4.4043 7.7417C4.375 7.68799 4.375 7.63184 4.375 7.54883C4.375 7.46582 4.38721 7.39746 4.4165 7.34131C4.4458 7.27295 4.48486 7.21924 4.55566 7.14844L6.66748 5.04883C6.73584 4.98047 6.78955 4.93897 6.86035 4.90967C6.9165 4.88037 6.98242 4.86816 7.06787 4.86816C7.15088 4.86816 7.21924 4.88037 7.27539 4.90967C7.33154 4.93897 7.39746 4.97803 7.45605 5.03174H7.46826L9.02832 6.5918C9.33105 6.89453 9.81445 6.93604 10.1611 6.68945C10.3418 6.57959 10.52 6.46973 10.7251 6.35742C10.9448 6.24756 11.1548 6.1377 11.3477 6.0376C11.5552 5.93994 11.7773 5.84473 11.9971 5.76172C12.1899 5.69336 12.4097 5.61035 12.6733 5.52734C13.0469 5.40527 13.2788 5.05615 13.2788 4.68506V2.29248C13.2788 2.20947 13.291 2.12891 13.3203 2.07031C13.3496 2.0166 13.3887 1.96045 13.4302 1.90674C13.4863 1.85303 13.54 1.80908 13.5938 1.79688C13.6475 1.76758 13.7329 1.75537 13.8159 1.75537H15.9375H15.9619H16.1792C16.2622 1.75537 16.3428 1.76758 16.4014 1.79688C16.4551 1.80908 16.5112 1.85303 16.5649 1.90674C16.6064 1.96045 16.6479 2.0166 16.6748 2.07031C16.7041 2.12402 16.7163 2.20947 16.7163 2.29248V4.68262C16.7163 5.05615 16.9507 5.40039 17.3218 5.5249C17.583 5.60791 17.8052 5.68848 17.998 5.75928C18.2202 5.84229 18.4399 5.93994 18.6475 6.03516C18.8403 6.13281 19.0479 6.24268 19.27 6.35498C19.4775 6.46484 19.6558 6.57471 19.834 6.68701C20.1782 6.93604 20.6616 6.89453 20.9668 6.58936L22.5269 5.0293H22.5391C22.5928 4.97559 22.6611 4.93164 22.7197 4.90723C22.7734 4.87793 22.8418 4.86572 22.9272 4.86572C23.0103 4.86572 23.0786 4.87793 23.1348 4.90723C23.2056 4.93652 23.2568 4.97559 23.3276 5.04639L25.4395 7.146C25.5078 7.21436 25.5493 7.26807 25.5786 7.33887C25.6079 7.39258 25.6201 7.46094 25.6201 7.54639C25.6201 7.6294 25.6201 7.68555 25.5908 7.73926C25.5615 7.79541 25.5225 7.84912 25.4688 7.90283C25.4565 7.90283 25.4565 7.90283 25.4395 7.91504L23.728 9.64111C23.4521 9.91699 23.3838 10.332 23.5767 10.6885C23.6743 10.8813 23.7842 11.0742 23.8794 11.2939C23.9893 11.5015 24.0723 11.7236 24.1553 11.9287C24.2383 12.1484 24.3066 12.3584 24.3774 12.5781C24.4312 12.771 24.4873 12.9907 24.541 13.2275C24.624 13.6401 24.9829 13.96 25.4248 13.96H27.6172C27.7002 13.96 27.7808 13.9722 27.8394 14.0015C27.8931 14.0137 27.9492 14.0552 28.0029 14.1113C28.0737 14.1821 28.1128 14.2505 28.1421 14.3042C28.1543 14.3579 28.1714 14.4263 28.1714 14.5117V17.522C28.1714 17.605 28.1592 17.6855 28.1299 17.7441C28.1006 17.8003 28.0591 17.854 28.0078 17.9077C27.9663 17.9614 27.8979 18.0054 27.8442 18.0298C27.7881 18.0591 27.7051 18.0713 27.6245 18.0713H25.2344C24.8608 18.0713 24.5166 18.3057 24.3921 18.6768C24.3091 18.938 24.2285 19.1602 24.1577 19.353C24.0747 19.5752 23.9771 19.7949 23.8818 20.0024C23.6743 20.4102 23.4741 20.8008 23.2324 21.189C23.208 21.2231 23.186 21.2573 23.1665 21.2964H25.2563C25.3442 21.1206 25.4321 20.9302 25.5249 20.7349C25.6348 20.4858 25.7446 20.2393 25.8447 19.9902C25.8569 19.9487 25.8862 19.8926 25.9009 19.8511H27.6685C27.9858 19.8511 28.291 19.7974 28.5645 19.6875C28.8403 19.5776 29.104 19.397 29.3262 19.1772C29.5483 18.9575 29.7266 18.7061 29.8364 18.4155C29.9463 18.125 30 17.8345 30 17.5195V14.5117C30 14.209 29.9316 13.9063 29.8193 13.6279C29.7095 13.3521 29.5435 13.103 29.3237 12.8833L29.3115 12.8711C29.0894 12.6489 28.8403 12.4707 28.5669 12.3584C28.291 12.2363 27.9858 12.1777 27.6709 12.1777H26.1646C26.1646 12.1362 26.1523 12.1094 26.1353 12.0679C26.0522 11.8066 25.9717 11.543 25.874 11.2939C25.7642 11.0327 25.6665 10.7812 25.5566 10.5493C25.5444 10.52 25.5151 10.481 25.5029 10.4395L26.748 9.18213C26.9824 8.97461 27.1484 8.72803 27.2705 8.44971C27.3804 8.17383 27.4512 7.86865 27.4512 7.55371C27.4512 7.23389 27.3975 6.94824 27.2705 6.65772C27.1484 6.38184 26.98 6.13281 26.7603 5.91309H26.748L24.6362 3.81348C24.4165 3.59375 24.165 3.42773 23.8745 3.30322C23.584 3.18115 23.2935 3.12256 22.9785 3.12256C22.6758 3.12256 22.373 3.17627 22.0825 3.30322C21.792 3.41309 21.543 3.59375 21.3208 3.81348L20.2441 4.87793L20.1611 4.83643C19.939 4.71436 19.6899 4.60205 19.4287 4.47754C19.1797 4.36768 18.9331 4.25781 18.6841 4.15772C18.6426 4.14551 18.5864 4.11621 18.5449 4.10156V2.33154C18.5449 2.01172 18.4912 1.70898 18.3813 1.43555C18.2715 1.15723 18.0908 0.895996 17.8711 0.673828C17.6367 0.45166 17.3877 0.273438 17.1094 0.163574C16.8213 0.0537109 16.5308 0 16.2109 0H15.1221H14.8779H13.7891C13.4692 0 13.1836 0.0537109 12.8931 0.163574C12.6196 0.273438 12.3682 0.454102 12.1313 0.673828C11.9092 0.895996 11.731 1.15723 11.6211 1.43555C11.5112 1.70898 11.4575 2.0166 11.4575 2.33154V4.09912C11.416 4.11133 11.3599 4.14063 11.3184 4.15527C11.0693 4.25293 10.8228 4.36279 10.5737 4.4751C10.3125 4.59717 10.0635 4.70947 9.84131 4.83398L9.7583 4.87549L8.68164 3.81104C8.46191 3.59131 8.21045 3.41064 7.91992 3.30078C7.62939 3.17871 7.32666 3.12012 7.02393 3.12012C6.7041 3.12012 6.41846 3.17383 6.12793 3.30078C5.8374 3.42285 5.58838 3.59131 5.36621 3.81104L3.25439 5.91064H3.24219C3.02246 6.13037 2.85645 6.38184 2.73193 6.65527C2.60986 6.94336 2.55127 7.23389 2.55127 7.54883C2.55127 7.86865 2.61963 8.17139 2.73193 8.44483C2.854 8.7207 3.02246 8.96973 3.25684 9.17725L4.49951 10.4346C4.4873 10.4761 4.45801 10.5176 4.4458 10.5444C4.33594 10.7788 4.23828 11.0278 4.12598 11.2891C4.02832 11.5381 3.94531 11.7993 3.86475 12.063C3.85254 12.1045 3.83545 12.1313 3.83545 12.1729H2.33398C2.01416 12.1729 1.71143 12.229 1.43799 12.3535C1.16211 12.4634 0.913086 12.644 0.693359 12.8638L0.681152 12.876C0.458984 13.0957 0.29541 13.3472 0.185547 13.6206C0.0683594 13.9014 0 14.209 0 14.5117V17.5195C0 17.8394 0.0537109 18.125 0.163574 18.4155C0.273438 18.7061 0.454102 18.9551 0.673828 19.1772C0.893555 19.3994 1.15723 19.5776 1.43555 19.6875C1.71143 19.7974 2.0166 19.8511 2.33154 19.8511H4.09912C4.11133 19.8926 4.14062 19.9487 4.15527 19.9902C4.25293 20.2393 4.36279 20.4858 4.4751 20.7349C4.57031 20.9326 4.65576 21.123 4.74365 21.2964H6.83105V21.3013ZM11.4526 15.0049C11.2573 15.0122 11.1108 15.0537 11.0107 15.1196C10.9521 15.1587 10.9106 15.2075 10.8838 15.2661C10.8521 15.3296 10.8398 15.4102 10.8423 15.5005C10.8496 15.769 10.9912 16.1157 11.2598 16.5161L11.2622 16.5234L12.1387 17.9175C12.4902 18.4766 12.8589 19.0479 13.3154 19.4653C13.7549 19.8682 14.2896 20.1392 14.9976 20.1416C15.7617 20.144 16.3232 19.8608 16.7749 19.4336C17.2461 18.9917 17.6196 18.3862 17.9883 17.7783L18.9746 16.1523C19.1577 15.7324 19.2261 15.4517 19.1846 15.2856C19.1577 15.188 19.0503 15.1392 18.8672 15.1318C18.8281 15.1294 18.7891 15.1294 18.7476 15.1294C18.7036 15.1318 18.6572 15.1343 18.6084 15.1367C18.5815 15.1392 18.5571 15.1367 18.5327 15.1318C18.4448 15.1367 18.3545 15.1294 18.2617 15.1172L18.5986 13.6206C16.7944 13.5986 15.5566 13.2837 14.0967 12.3486C13.6157 12.0435 13.4717 11.6919 12.9907 11.7261C12.6294 11.7944 12.3242 11.958 12.0801 12.2192C11.8481 12.4683 11.6724 12.8101 11.5576 13.2471L11.7505 15.0098C11.6479 15.022 11.5479 15.0171 11.4526 15.0049ZM19.209 14.6899C19.4531 14.7632 19.6094 14.9194 19.6704 15.1685C19.7412 15.4468 19.6631 15.835 19.4312 16.3647C19.4263 16.3745 19.4214 16.3843 19.4165 16.394L18.418 18.0396C18.0322 18.6743 17.6416 19.3091 17.1191 19.7974C16.5796 20.3027 15.9131 20.6397 15.0024 20.6372C14.1528 20.6348 13.5132 20.3101 12.9883 19.8291C12.4805 19.3652 12.0923 18.7671 11.7236 18.1787L10.8472 16.7847C10.5273 16.3062 10.3613 15.8691 10.3491 15.5103C10.3442 15.3418 10.3735 15.188 10.4346 15.0537C10.5005 14.9121 10.6006 14.7949 10.7349 14.7046C10.7983 14.6631 10.8691 14.6265 10.9473 14.5972C10.8911 13.8428 10.8691 12.8882 10.9058 12.0898C10.9253 11.9019 10.9595 11.7114 11.0132 11.521C11.2378 10.7202 11.7993 10.0757 12.4951 9.63379C12.7393 9.47754 13.0078 9.34814 13.2935 9.24561C14.9756 8.63281 17.2095 8.96729 18.4058 10.2588C18.8916 10.7861 19.1992 11.4844 19.2651 12.4072L19.209 14.6899Z" fill="#FFC107"/>
</svg>
