<svg width="30" height="24" viewBox="0 0 30 24" fill="none" xmlns="http://www.w3.org/2000/svg">
<path d="M9.08517 3.75555V3.79706H17.2719V10.2771H9.02169L9.02413 10.3406V12.687C9.02413 12.7065 9.02413 12.7261 9.02169 12.7456C8.99972 13.251 8.83369 13.6099 8.51872 13.8175C8.20375 14.0274 7.78867 14.047 7.27837 13.8736C7.22222 13.8541 7.17338 13.8272 7.12944 13.7931C4.6634 11.8593 2.96403 9.92552 0.497992 7.98932L0.46381 7.96002C0.0536174 7.58889 -0.0586972 7.20068 0.0267595 6.81246C0.10245 6.47063 0.341729 6.17764 0.661581 5.92615L6.70703 0.561909C7.00247 0.329955 7.31256 0.149275 7.60311 0.0613764C7.86436 -0.0167554 8.11829 -0.0240803 8.35269 0.0613764C8.60906 0.154158 8.81171 0.342163 8.94356 0.644924C9.03634 0.862228 9.08762 1.14057 9.08762 1.48972V3.69939C9.08762 3.72137 9.08761 3.73846 9.08517 3.75555ZM20.9173 20.1999V20.1584H12.7305V13.6807H20.9808L20.9783 13.6173V11.2709C20.9783 11.2513 20.9783 11.2294 20.9808 11.2123C21.0027 10.7068 21.1688 10.3479 21.4837 10.1404C21.7987 9.93041 22.2138 9.91088 22.7241 10.0842C22.7802 10.1038 22.8291 10.1306 22.873 10.1648C25.339 12.0986 27.0384 14.0348 29.502 15.971L29.5362 16.0003C29.9464 16.3714 30.0587 16.7596 29.9732 17.1478C29.8976 17.4897 29.6583 17.7827 29.3384 18.0341L23.2954 23.3959C23 23.6279 22.6899 23.8086 22.3993 23.8965C22.1381 23.9746 21.8841 23.9819 21.6498 23.8965C21.3934 23.8037 21.1907 23.6157 21.0589 23.3129C20.9661 23.0956 20.9148 22.8173 20.9148 22.4681V20.256C20.9148 20.2365 20.9148 20.2194 20.9173 20.1999Z" fill="#FFC107"/>
</svg>
