<svg width="30" height="24" viewBox="0 0 30 24" fill="none" xmlns="http://www.w3.org/2000/svg">
<path fill-rule="evenodd" clip-rule="evenodd" d="M0.59082 8.82324L13.0347 0L25.542 8.82324H0.59082ZM28.9697 20.8594C29.7583 21.2988 29.7974 21.9922 30 22.8125H18.4204C18.623 21.9922 18.6621 21.2988 19.4507 20.8594C20.7617 20.127 22.1094 20.8643 22.7344 19.0356C22.5366 18.8013 22.3657 18.5376 22.2021 18.2788L21.665 17.4243C21.4697 17.1313 21.3672 16.8628 21.3599 16.6431C21.3574 16.5405 21.3745 16.4453 21.4136 16.3647C21.4526 16.2793 21.5161 16.2061 21.5991 16.1499C21.6382 16.123 21.6821 16.1011 21.7285 16.084C21.6943 15.6201 21.6797 15.0366 21.7041 14.5483C21.7163 14.4312 21.7383 14.3164 21.77 14.1992C21.9067 13.7085 22.251 13.313 22.6782 13.042C22.9126 12.8931 23.1714 12.7783 23.4399 12.7026C23.6108 12.6538 23.2959 12.1094 23.4717 12.0898C24.3237 12.002 25.7056 12.7808 26.3013 13.4253C26.5991 13.7476 26.7871 14.1772 26.8286 14.7437L26.7944 16.1377C26.9434 16.1841 27.0386 16.2769 27.0776 16.4307C27.1216 16.5991 27.0728 16.8384 26.9287 17.1655C26.9263 17.1704 26.9238 17.1777 26.9189 17.1826L26.3062 18.1909C26.0815 18.562 25.8521 18.9331 25.5542 19.2261C26.6602 20.8228 27.5659 20.0757 28.9697 20.8594ZM0 21.7017H1.92627V20.3589H2.20703V19.7192H3.0249V12.0288H1.35254V10.188H24.7144V11.0742C24.165 10.8643 23.5986 10.7495 23.1006 10.8008C22.356 10.8765 22.0898 11.2573 22.0703 11.8018C21.9824 11.8481 21.8945 11.9019 21.8066 11.9556C21.4722 12.168 21.1719 12.4316 20.9326 12.7368C20.293 13.5522 20.2686 14.2603 20.2832 15.2344L20.2905 15.5444C20.1221 15.7568 20.0195 15.9814 19.9707 16.2134V12.0288H17.3975V19.7168H18.2153V20.2466C18.1494 20.293 18.0835 20.3442 18.0176 20.3979C17.8491 20.5371 17.6978 20.6909 17.5684 20.8643C17.4365 21.04 17.2998 21.3159 17.1826 21.6138C17.0874 21.8555 16.9971 22.1338 16.9312 22.3804C16.8945 22.4878 16.875 22.605 16.875 22.7246C16.875 22.8589 16.8994 22.9907 16.9458 23.1079H0V21.7017ZM6.91406 20.3589H7.85645V19.7192H8.67432V12.0288H6.09863V19.7168H6.9165V20.3589H6.91406ZM12.5635 20.3589H13.5083V19.7192H14.3237V12.0288H11.748V19.7168H12.5659V20.3589H12.5635ZM19.1577 19.7925V19.7168H19.4116C19.3262 19.7412 19.2407 19.7656 19.1577 19.7925ZM19.9756 19.5703V16.9336C20.0024 17.085 20.0439 17.2363 20.0977 17.3877C20.1733 17.583 20.2808 17.7856 20.4199 17.998L20.9814 18.8916C21.0498 19.0015 21.1206 19.1113 21.1987 19.2285C20.9082 19.3433 20.4858 19.4482 20.0806 19.5459L19.9756 19.5703ZM8.84521 6.59912L13.0542 3.36914L17.2876 6.59912H8.84521Z" fill="#FFC107"/>
</svg>
