<svg width="30" height="31" viewBox="0 0 30 31" fill="none" xmlns="http://www.w3.org/2000/svg">
<path d="M21.698 26.182C21.4561 26.0841 21.1855 26.0841 20.9436 26.182C20.8224 26.2344 20.713 26.3105 20.6217 26.4058C20.571 26.4592 20.5255 26.5173 20.4859 26.5793C20.4636 26.6129 20.4443 26.6482 20.428 26.685H18.8311V25.3043C18.5899 25.4162 18.3368 25.5005 18.0767 25.5558L17.9434 25.5784V27.1251C17.944 27.2429 17.9912 27.3558 18.0745 27.4391C18.1578 27.5224 18.2707 27.5695 18.3885 27.5702H20.4356L20.4884 27.6582C20.5237 27.7115 20.5641 27.7612 20.6091 27.8066C20.7012 27.9003 20.8116 27.9739 20.9335 28.0229C21.0528 28.0735 21.1811 28.0996 21.3108 28.0996C21.4404 28.0996 21.5687 28.0735 21.688 28.0229C21.8095 27.9733 21.9199 27.8997 22.0124 27.8066C22.1053 27.7138 22.1788 27.6036 22.2287 27.4822C22.2782 27.3617 22.3038 27.2327 22.3041 27.1024C22.3033 26.9051 22.2444 26.7124 22.1348 26.5483C22.0253 26.3842 21.8699 26.2559 21.688 26.1795L21.698 26.182ZM10.1147 21.7936C9.83896 21.7903 9.56555 21.7428 9.30491 21.6528C8.74119 21.4509 8.24067 21.1039 7.85384 20.6468C7.43125 20.1678 7.15691 19.5763 7.06419 18.9443C7.01112 18.5663 7.02817 18.1819 7.11448 17.8101C6.82889 17.5652 6.58288 17.2776 6.38518 16.9576C6.07765 16.4741 5.91289 15.9135 5.90987 15.3405C5.921 14.7223 6.12791 14.1236 6.50086 13.6304C6.78048 13.2594 7.12054 12.938 7.5068 12.6798C7.5068 12.5465 7.5068 12.4283 7.5068 12.2875C7.52735 11.4994 7.8056 10.7397 8.29897 10.1247C8.73045 9.57332 9.35169 9.20219 10.0418 9.0836H10.1172C10.1409 8.95327 10.1762 8.82534 10.2228 8.70135C10.4443 8.12955 10.8553 7.65107 11.3872 7.34585C11.9239 7.02611 12.5591 6.91426 13.1727 7.0315C13.5313 7.11335 13.8676 7.27287 14.1579 7.49882C14.4481 7.72477 14.6853 8.01164 14.8526 8.33921C14.9959 8.04656 15.1966 7.78579 15.4429 7.57247C15.6892 7.35915 15.976 7.19767 16.2861 7.09767C16.5962 6.99767 16.9232 6.9612 17.2477 6.99045C17.5722 7.01969 17.8875 7.11405 18.1747 7.26789C18.6694 7.51759 19.0777 7.91009 19.3467 8.39454C19.4653 8.6073 19.5502 8.83722 19.5981 9.07606C19.9225 9.0592 20.247 9.10531 20.5538 9.21186C21.1303 9.41543 21.6411 9.77078 22.0325 10.2404C22.4599 10.7372 22.7296 11.3501 22.8071 12.0008C22.8432 12.349 22.822 12.7007 22.7442 13.042C23.0613 13.3117 23.3315 13.6321 23.5439 13.9901L23.5615 14.0278C23.8363 14.5024 23.9747 15.0437 23.9614 15.592C23.9423 16.1828 23.7421 16.7534 23.388 17.2267C23.101 17.6046 22.7504 17.9296 22.3519 18.1873C22.4093 19.0089 22.1877 19.8259 21.7232 20.506C21.5082 20.8337 21.2288 21.1141 20.9019 21.3303C20.5751 21.5465 20.2076 21.6938 19.822 21.7634C19.6686 22.4079 19.2815 22.9725 18.7356 23.3478C18.4163 23.5882 18.048 23.7555 17.6568 23.8376C17.2657 23.9197 16.8612 23.9148 16.4722 23.8231C16.1275 23.7226 15.8102 23.5449 15.5444 23.3035C15.2786 23.0621 15.0712 22.7633 14.9381 22.4299C14.776 22.7897 14.5326 23.1071 14.2272 23.3571C13.9218 23.6071 13.5626 23.783 13.1778 23.8709C12.8091 23.9428 12.4293 23.9338 12.0645 23.8443C11.6997 23.7548 11.3588 23.5871 11.0653 23.3528L11.0326 23.3251C10.5458 22.9458 10.2156 22.4007 10.1046 21.7936H10.1147ZM15.416 9.32251V20.9939C15.4726 21.0586 15.51 21.1379 15.5241 21.2227C15.7001 22.284 16.1679 22.797 16.7011 22.9429C16.9584 22.9985 17.2247 22.9971 17.4815 22.9389C17.7382 22.8807 17.9791 22.767 18.1873 22.6059C18.4015 22.4687 18.5811 22.2838 18.7119 22.0656C18.8428 21.8475 18.9215 21.602 18.9418 21.3485C18.9418 20.7952 18.552 20.174 17.5008 19.6384C17.445 19.6121 17.3951 19.5749 17.3541 19.529C17.313 19.4831 17.2815 19.4294 17.2616 19.3711C17.2416 19.3128 17.2336 19.2511 17.238 19.1896C17.2423 19.1282 17.259 19.0682 17.2869 19.0133C17.3149 18.9584 17.3536 18.9096 17.4007 18.87C17.4479 18.8303 17.5025 18.8005 17.5614 18.7823C17.6202 18.7642 17.6822 18.758 17.7435 18.7642C17.8048 18.7705 17.8642 18.7889 17.9182 18.8186C19.065 19.4045 19.6308 20.1263 19.8018 20.8304C20.2793 20.6983 20.6912 20.3948 20.9587 19.9779C21.3445 19.4081 21.5041 18.715 21.4063 18.0339V18.0012C21.396 17.9129 21.4114 17.8234 21.4507 17.7436C21.4899 17.6637 21.5514 17.5969 21.6276 17.5511C22.0178 17.3302 22.3598 17.0335 22.6336 16.6784C22.8795 16.3565 23.02 15.9666 23.0359 15.5618C23.0438 15.1823 22.9463 14.808 22.7543 14.4805L22.7342 14.4503C22.534 14.111 22.2681 13.8152 21.952 13.5801C21.8684 13.5233 21.8056 13.4407 21.7734 13.3449C21.7412 13.2491 21.7412 13.1453 21.7735 13.0495C21.8776 12.7424 21.9136 12.4163 21.8791 12.0939C21.8196 11.6288 21.6246 11.1915 21.3183 10.8364C21.0351 10.4936 20.6652 10.2331 20.247 10.082C20.0329 10.0051 19.8046 9.97593 19.578 9.99649H19.5579C19.4551 10.3756 19.2676 10.7264 19.0097 11.0225C18.9313 11.1156 18.8192 11.1737 18.698 11.1841C18.5768 11.1944 18.4564 11.1562 18.3634 11.0779C18.2703 10.9995 18.2122 10.8874 18.2018 10.7662C18.1915 10.645 18.2297 10.5246 18.308 10.4316C18.5098 10.2213 18.6398 9.95265 18.6796 9.664C18.7193 9.37535 18.6667 9.08152 18.5293 8.82458C18.352 8.50538 18.0819 8.24755 17.7548 8.08521C17.4373 7.91657 17.072 7.86071 16.7187 7.92678C16.2157 8.0324 15.7127 8.45238 15.4109 9.32503L15.416 9.32251ZM14.493 21.0115V9.89087L14.4804 9.87326V9.85566V9.83554V9.81542V9.78776C14.1988 8.64602 13.6405 8.12042 13.0596 7.99971C12.6684 7.92803 12.2645 8.00326 11.9254 8.21096C11.5826 8.40948 11.3168 8.71782 11.1709 9.08612C10.9898 9.574 11.093 10.17 11.694 10.7283C11.772 10.8224 11.8095 10.9435 11.7982 11.0652C11.7869 11.1869 11.7277 11.2991 11.6336 11.3771C11.5396 11.4552 11.4184 11.4927 11.2967 11.4813C11.1751 11.47 11.0629 11.4108 10.9848 11.3168C10.5822 10.9653 10.2911 10.5037 10.1474 9.98895C9.69406 10.079 9.28907 10.3311 9.00816 10.6981C8.63809 11.1602 8.42962 11.7309 8.41465 12.3227C8.4092 12.4992 8.41845 12.6759 8.44232 12.8508C8.45501 12.9393 8.44154 13.0295 8.40355 13.1104C8.36556 13.1913 8.30473 13.2593 8.22856 13.306C7.84703 13.5299 7.5123 13.8254 7.24274 14.1762C6.98656 14.5114 6.84228 14.9188 6.8303 15.3405C6.83129 15.7432 6.94639 16.1373 7.16226 16.4772C7.35494 16.7845 7.60412 17.0524 7.8966 17.2669C7.97799 17.3244 8.03878 17.4065 8.07002 17.5011C8.10126 17.5957 8.1013 17.6979 8.07012 17.7925C7.95559 18.1225 7.92027 18.4749 7.96701 18.8211C8.0386 19.2802 8.24119 19.709 8.55046 20.0559C8.83172 20.3848 9.19411 20.6345 9.60166 20.7801C9.78059 20.8447 9.96976 20.8762 10.16 20.8732C10.3536 20.1464 10.9421 19.4121 12.1064 18.816C12.2152 18.7603 12.3415 18.7501 12.4578 18.7876C12.5741 18.8251 12.6707 18.9072 12.7263 19.016C12.782 19.1247 12.7923 19.2511 12.7548 19.3673C12.7173 19.4836 12.6351 19.5802 12.5264 19.6359C11.4199 20.1992 11.0024 20.8606 11.0024 21.444C11.0125 21.6711 11.0724 21.8932 11.1781 22.0944C11.2837 22.2957 11.4324 22.4712 11.6135 22.6084L11.6412 22.626C11.8268 22.7775 12.0427 22.8874 12.2743 22.9486C12.5059 23.0098 12.7479 23.0207 12.9841 22.9806C13.5676 22.8599 14.1259 22.3318 14.4075 21.1875C14.422 21.1238 14.4513 21.0644 14.493 21.014V21.0115ZM10.2882 12.6899C10.3765 12.6111 10.4917 12.5694 10.6099 12.5733C10.7281 12.5773 10.8403 12.6266 10.9231 12.711C11.006 12.7955 11.0531 12.9086 11.0548 13.0269C11.0564 13.1452 11.0125 13.2595 10.932 13.3463C10.437 13.8302 10.1463 14.4854 10.1197 15.1771C10.0946 15.8946 10.3305 16.5968 10.7836 17.1537C10.8214 17.2013 10.8495 17.2558 10.8663 17.3142C10.883 17.3726 10.8881 17.4338 10.8812 17.4941C10.8743 17.5545 10.8556 17.6129 10.8261 17.6661C10.7966 17.7192 10.757 17.766 10.7094 17.8038C10.6619 17.8416 10.6073 17.8697 10.5489 17.8864C10.4905 17.9032 10.4294 17.9082 10.369 17.9014C10.3087 17.8945 10.2503 17.8758 10.1971 17.8463C10.144 17.8168 10.0972 17.7772 10.0594 17.7296C9.46662 17.0005 9.15915 16.0808 9.19425 15.1419C9.23027 14.2158 9.61893 13.3386 10.2807 12.6899H10.2882ZM18.4438 13.0772C18.3943 13.0417 18.3522 12.9968 18.3201 12.945C18.2879 12.8932 18.2662 12.8357 18.2563 12.7755C18.2464 12.7154 18.2484 12.6539 18.2622 12.5945C18.2761 12.5352 18.3015 12.4791 18.337 12.4296C18.3725 12.3801 18.4174 12.338 18.4691 12.3058C18.5209 12.2736 18.5785 12.252 18.6386 12.242C18.6987 12.2321 18.7602 12.2341 18.8196 12.248C18.8789 12.2618 18.935 12.2872 18.9845 12.3227C19.0969 12.4049 19.2025 12.4887 19.3014 12.5742C19.9959 13.1963 20.4245 14.0616 20.4985 14.991C20.5698 15.9108 20.3083 16.8256 19.7616 17.5687C19.6792 17.6836 19.5902 17.7936 19.495 17.8981C19.4546 17.943 19.4057 17.9795 19.3511 18.0056C19.2965 18.0316 19.2374 18.0466 19.177 18.0497C19.1167 18.0529 19.0563 18.0441 18.9993 18.0239C18.9423 18.0037 18.8899 17.9725 18.845 17.9321C18.8 17.8916 18.7635 17.8427 18.7375 17.7881C18.7115 17.7336 18.6965 17.6744 18.6933 17.6141C18.6902 17.5537 18.699 17.4933 18.7191 17.4363C18.7393 17.3793 18.7705 17.3269 18.811 17.282C18.8839 17.2016 18.9527 17.1177 19.0172 17.0305C19.4326 16.4636 19.6323 15.7673 19.5805 15.0664C19.5245 14.372 19.204 13.7257 18.6853 13.2608C18.6054 13.1912 18.5214 13.1265 18.4338 13.0671L18.4438 13.0772ZM12.0234 26.3656V25.6338C11.8266 25.6236 11.6311 25.5941 11.44 25.5457C11.3344 25.5181 11.2338 25.4879 11.1332 25.4527V25.9205H9.82045C9.80285 25.8853 9.78273 25.8526 9.76261 25.8199C9.72399 25.7593 9.67934 25.7029 9.62932 25.6514C9.53658 25.5585 9.4263 25.485 9.30491 25.4351C9.18441 25.3856 9.05544 25.36 8.92517 25.3596C8.79515 25.3598 8.66645 25.3856 8.54646 25.4357C8.42648 25.4857 8.31758 25.559 8.22604 25.6514C8.13453 25.7452 8.0612 25.8552 8.00976 25.9758C7.95994 26.0971 7.93431 26.2269 7.93432 26.358C7.93445 26.4894 7.96096 26.6194 8.01228 26.7403C8.06027 26.8579 8.13123 26.9648 8.22101 27.0547C8.31112 27.1466 8.41891 27.2193 8.53788 27.2684C8.77984 27.3663 9.05037 27.3663 9.29233 27.2684C9.41024 27.2196 9.51778 27.1487 9.6092 27.0597C9.65804 27.0105 9.70185 26.9566 9.73997 26.8987C9.75758 26.8711 9.7777 26.8384 9.79279 26.8082H11.5532C11.671 26.8075 11.7839 26.7604 11.8672 26.6771C11.9505 26.5938 11.9976 26.4809 11.9983 26.3631L12.0234 26.3656ZM14.1711 29.8537V24.7838C14.0649 24.888 13.9514 24.9846 13.8316 25.073C13.6613 25.2029 13.4765 25.3126 13.2809 25.3999V29.4236H10.3762L10.331 29.3482C10.2964 29.2996 10.2577 29.2542 10.2153 29.2124C10.1232 29.1187 10.0128 29.0451 9.89087 28.9961C9.77148 28.9458 9.64321 28.9198 9.51364 28.9198C9.38407 28.9198 9.2558 28.9458 9.13641 28.9961C9.01453 29.0451 8.90408 29.1187 8.812 29.2124C8.71913 29.3051 8.64562 29.4154 8.59572 29.5368C8.5452 29.657 8.51953 29.7862 8.52028 29.9165C8.51954 30.0477 8.5452 30.1777 8.59572 30.2988C8.64597 30.42 8.71944 30.5302 8.812 30.6232C8.90475 30.7161 9.01502 30.7896 9.13641 30.8395C9.25691 30.889 9.38588 30.9146 9.51615 30.9149C9.64464 30.9155 9.77198 30.8907 9.89087 30.842C10.0121 30.7918 10.1223 30.7183 10.2153 30.6257C10.2716 30.5676 10.3213 30.5035 10.3637 30.4346C10.3876 30.396 10.4086 30.3556 10.4265 30.3139H13.726C13.8438 30.3132 13.9567 30.2661 14.04 30.1828C14.1234 30.0994 14.1705 29.9866 14.1711 29.8688V29.8537ZM16.5979 29.0087V25.4879C16.2745 25.3868 15.9738 25.2237 15.7127 25.0076V29.0137L15.6146 29.069C15.5563 29.1085 15.5016 29.1531 15.4512 29.2023C15.3583 29.2951 15.2848 29.4053 15.2349 29.5267C15.1854 29.6472 15.1598 29.7762 15.1595 29.9065C15.1591 30.0349 15.1839 30.1622 15.2324 30.2812C15.3352 30.5241 15.5294 30.7169 15.7731 30.8181C16.0168 30.9192 16.2904 30.9206 16.5351 30.8219C16.6565 30.772 16.7667 30.6985 16.8595 30.6056C17.0469 30.418 17.1526 30.1641 17.1537 29.8989C17.1529 29.7714 17.1281 29.6452 17.0808 29.5267C17.0318 29.4049 16.9582 29.2944 16.8645 29.2023C16.8177 29.1536 16.7654 29.1106 16.7086 29.0741C16.6784 29.0539 16.6457 29.0363 16.613 29.0187L16.5979 29.0087ZM4.52671 18.5268H5.35661C5.33003 18.6883 5.31323 18.8512 5.30631 19.0147C5.30631 19.1505 5.30631 19.2838 5.30631 19.4171H4.9819V20.7298L5.08249 20.7852C5.14245 20.8255 5.19883 20.8709 5.25099 20.921C5.38941 21.061 5.48369 21.2386 5.52213 21.4317C5.56058 21.6248 5.5415 21.825 5.46726 22.0074C5.41778 22.1249 5.34702 22.2324 5.25853 22.3242C5.16553 22.4168 5.05532 22.4903 4.93412 22.5405C4.69216 22.6384 4.42162 22.6384 4.17966 22.5405C4.06155 22.4909 3.954 22.4192 3.86279 22.3293C3.77194 22.2383 3.69938 22.1307 3.64903 22.0124C3.59851 21.8913 3.57285 21.7613 3.57359 21.6301C3.57465 21.3699 3.6765 21.1202 3.85776 20.9335C3.90627 20.884 3.96027 20.8401 4.01871 20.8028C4.04638 20.7826 4.07907 20.765 4.10925 20.7474V18.987C4.10973 18.8691 4.15673 18.7562 4.24002 18.6727C4.31376 18.5896 4.41617 18.5375 4.52671 18.5268ZM1.04869 16.3792H4.12434C4.22229 16.687 4.35741 16.9817 4.52671 17.2568H1.4913V20.1715L1.56675 20.2193C1.61587 20.2531 1.66137 20.2919 1.70255 20.335C1.88931 20.522 1.995 20.7749 1.99678 21.0392C1.99566 21.3043 1.88992 21.5582 1.70255 21.7458C1.60911 21.8378 1.49901 21.9112 1.37813 21.9621C1.25763 22.0116 1.12866 22.0372 0.998391 22.0375C0.867324 22.037 0.737566 22.0114 0.616136 21.9621C0.495569 21.9107 0.385575 21.8373 0.291721 21.7458C0.199937 21.6522 0.126571 21.5421 0.0754452 21.4214C0.0261129 21.3 0.000502814 21.1702 0 21.0392C0.000170191 20.9107 0.024926 20.7835 0.0729304 20.6644C0.123461 20.5441 0.196918 20.4348 0.289207 20.3425C0.34601 20.2848 0.41029 20.2349 0.480334 20.1942C0.518642 20.1648 0.559947 20.1395 0.603562 20.1187V16.8218C0.603561 16.7634 0.615092 16.7057 0.637492 16.6518C0.659893 16.5979 0.69272 16.549 0.734087 16.5079C0.775454 16.4668 0.824545 16.4342 0.878536 16.4121C0.932526 16.39 0.990352 16.3788 1.04869 16.3792ZM1.89367 13.9448H4.25762C4.21487 14.0353 4.17966 14.1284 4.14697 14.2189C4.0795 14.4204 4.02985 14.6274 3.9986 14.8376H1.89367C1.87728 14.8714 1.8588 14.9041 1.83835 14.9356C1.80015 14.9949 1.75545 15.0498 1.70506 15.0991C1.61298 15.1928 1.50253 15.2664 1.38065 15.3154C1.26046 15.3659 1.13128 15.3916 1.00091 15.3908C0.872419 15.3914 0.745079 15.3666 0.626195 15.3179C0.500852 15.2655 0.387798 15.1875 0.294236 15.089C0.20137 14.9963 0.127854 14.886 0.07796 14.7646C-0.0199178 14.5227 -0.0199178 14.2521 0.07796 14.0102C0.127854 13.8888 0.20137 13.7785 0.294236 13.6858C0.387726 13.5924 0.498698 13.5183 0.620814 13.4678C0.742929 13.4174 0.873796 13.3914 1.00594 13.3915C1.13358 13.3912 1.26005 13.416 1.37813 13.4645C1.56351 13.538 1.72222 13.666 1.83332 13.8316C1.85344 13.8643 1.87104 13.897 1.88864 13.9297L1.89367 13.9448ZM4.72035 8.85224C4.76985 8.97274 4.79548 9.10171 4.7958 9.23198C4.7958 9.3631 4.77017 9.49295 4.72035 9.61424C4.6715 9.732 4.59969 9.83886 4.50911 9.92859C4.4558 9.98012 4.3977 10.0264 4.33558 10.0669C4.30152 10.0882 4.26625 10.1075 4.22996 10.1247V11.7192H5.87718V11.7971C5.87718 11.8575 5.87718 11.9203 5.87718 11.9857C5.87892 12.0138 5.87362 12.0418 5.86176 12.0673C5.84991 12.0928 5.83186 12.1149 5.80928 12.1316C5.60319 12.2772 5.4074 12.4368 5.22332 12.6094H3.77226C3.65484 12.6088 3.54238 12.562 3.45911 12.4792C3.37585 12.3964 3.32845 12.2842 3.32713 12.1668V10.1172C3.2964 10.102 3.26696 10.0844 3.23911 10.0644C3.18644 10.0292 3.13681 9.98967 3.09074 9.94619C2.99818 9.8532 2.92471 9.74299 2.87446 9.62178C2.82288 9.50095 2.79635 9.37091 2.7965 9.23953C2.79763 9.11121 2.82235 8.98419 2.86943 8.86481C2.91908 8.74403 2.99265 8.63453 3.08571 8.54291C3.17779 8.44924 3.28824 8.37561 3.41012 8.32664C3.53015 8.27532 3.65932 8.2488 3.78986 8.24868C4.05499 8.2498 4.30896 8.35554 4.49653 8.54291C4.58855 8.63635 4.66195 8.74645 4.71281 8.86733L4.72035 8.85224ZM17.5033 4.52671V5.21578C17.5963 5.21578 17.6869 5.21578 17.7774 5.24093C17.9877 5.27118 18.1942 5.32344 18.3935 5.39685V4.9819H19.7088C19.7248 5.01674 19.7432 5.05036 19.7641 5.08249C19.8045 5.14246 19.8499 5.19883 19.8999 5.25099C19.9927 5.34386 20.1029 5.41737 20.2243 5.46727C20.3448 5.51677 20.4738 5.54239 20.6041 5.54271C20.7351 5.54221 20.8649 5.5166 20.9863 5.46727C21.1039 5.41779 21.2113 5.34702 21.3032 5.25853C21.4421 5.11827 21.5367 4.94024 21.5752 4.74661C21.6136 4.55298 21.5943 4.35231 21.5195 4.16961C21.4691 4.05192 21.3975 3.94451 21.3082 3.85274C21.2181 3.76082 21.1103 3.6881 20.9914 3.63898C20.8713 3.58818 20.742 3.56251 20.6116 3.56353C20.4804 3.56279 20.3504 3.58845 20.2294 3.63898C20.1115 3.68782 20.0039 3.75866 19.9125 3.84771C19.8638 3.89629 19.8207 3.95029 19.7842 4.00866C19.7641 4.03632 19.7465 4.06901 19.7289 4.09919H17.9685C17.8502 4.09442 17.7348 4.13673 17.6476 4.21686C17.5604 4.29699 17.5085 4.40841 17.5033 4.52671ZM15.3556 1.04869V6.07837C15.4736 5.95975 15.6005 5.85044 15.7354 5.75144C15.8925 5.63705 16.061 5.53928 16.2383 5.45972V1.4913H19.1505C19.1656 1.51645 19.1807 1.5416 19.1983 1.56675C19.232 1.61525 19.2698 1.66069 19.3115 1.70255C19.404 1.79568 19.5143 1.86923 19.6359 1.91883C19.818 1.99473 20.0185 2.0147 20.212 1.97618C20.4055 1.93766 20.5831 1.84241 20.7223 1.70255C20.816 1.61047 20.8896 1.50002 20.9386 1.37814C20.9889 1.26044 21.0154 1.13394 21.0165 1.00594C21.0164 0.874586 20.9899 0.744596 20.9386 0.623684C20.889 0.502129 20.8154 0.3918 20.7223 0.299269C20.6302 0.203691 20.5199 0.127579 20.3979 0.0754486C20.2774 0.0259486 20.1484 0.000325749 20.0181 3.38426e-06C19.8897 -0.000333211 19.7624 0.0244413 19.6434 0.0729337C19.5227 0.12406 19.4126 0.197426 19.319 0.28921C19.2627 0.347317 19.213 0.411408 19.1706 0.480338C19.1493 0.520419 19.13 0.561546 19.1128 0.603565H15.8007C15.6829 0.604225 15.5701 0.651334 15.4867 0.734669C15.4034 0.818004 15.3563 0.93084 15.3556 1.04869ZM12.9238 1.89368V5.32895C13.2316 5.4174 13.5218 5.55866 13.7813 5.74641L13.809 5.76653C13.8102 5.75904 13.8102 5.75139 13.809 5.7439V1.89368L13.9071 1.83835C13.9703 1.80023 14.0293 1.75555 14.0831 1.70506C14.176 1.61232 14.2495 1.50205 14.2994 1.38065C14.3448 1.26104 14.367 1.13386 14.3648 1.00594C14.3654 0.877452 14.3406 0.750112 14.2918 0.631228C14.1914 0.385394 13.9978 0.189262 13.7533 0.0856161C13.5087 -0.0180302 13.2332 -0.0207811 12.9866 0.0779634C12.8652 0.127858 12.755 0.201373 12.6622 0.29424C12.5697 0.387238 12.4962 0.497446 12.4459 0.618654C12.3945 0.741202 12.3688 0.873034 12.3705 1.00594C12.3702 1.13359 12.3949 1.26005 12.4434 1.37814C12.4924 1.50002 12.566 1.61047 12.6597 1.70255C12.7065 1.75124 12.7588 1.79429 12.8156 1.83081C12.8471 1.85126 12.8799 1.86974 12.9137 1.88613L12.9238 1.89368ZM7.8287 4.72036C8.07066 4.81824 8.34119 4.81824 8.58315 4.72036C8.70091 4.6715 8.80777 4.59969 8.8975 4.50911C8.94822 4.45575 8.9937 4.39764 9.0333 4.33559C9.05554 4.30208 9.07489 4.26675 9.09115 4.22996H10.6805V5.60055C10.9652 5.44877 11.2713 5.34109 11.5884 5.28117V3.77226C11.5877 3.65441 11.5406 3.54158 11.4573 3.45824C11.3739 3.37491 11.2611 3.3278 11.1433 3.32714H9.09618L9.05342 3.24918C9.01816 3.19587 8.97772 3.14618 8.93271 3.1008C8.84063 3.00712 8.73018 2.93349 8.6083 2.88452C8.48827 2.8332 8.3591 2.80669 8.22856 2.80656C8.10021 2.80746 7.97315 2.83219 7.85384 2.87949C7.73264 2.92974 7.62243 3.00321 7.52943 3.09577C7.4296 3.18591 7.34917 3.29544 7.29304 3.41767C7.24354 3.53817 7.21791 3.66714 7.21759 3.79741C7.21809 3.92848 7.2437 4.05824 7.29304 4.17967C7.39507 4.42404 7.58935 4.61832 7.83373 4.72036H7.8287ZM25.4527 12.3227H24.3135C24.3441 12.1566 24.3634 11.9885 24.3713 11.8198C24.3713 11.6865 24.3713 11.5683 24.3713 11.4249H25.0101V10.1298C24.9115 10.0797 24.8208 10.0153 24.741 9.93865C24.6479 9.84703 24.5744 9.73754 24.5247 9.61675C24.4742 9.49568 24.4485 9.36568 24.4493 9.2345C24.4503 8.97428 24.5522 8.72459 24.7334 8.53788C24.8255 8.44421 24.936 8.37058 25.0579 8.32161C25.1779 8.27029 25.3071 8.24377 25.4376 8.24365C25.5698 8.24351 25.7007 8.27002 25.8224 8.32161C25.9403 8.37016 26.0472 8.44201 26.1367 8.53286C26.2265 8.62474 26.2989 8.73209 26.3505 8.84972C26.4484 9.09169 26.4484 9.36222 26.3505 9.60418C26.301 9.72175 26.2302 9.82917 26.1418 9.92105C26.0926 9.96988 26.0387 10.0137 25.9808 10.0518C25.9506 10.0694 25.9205 10.0895 25.8878 10.1046V11.865C25.8883 11.9233 25.8772 11.9811 25.8552 12.0351C25.8331 12.089 25.8006 12.1381 25.7595 12.1794C25.676 12.2627 25.5631 12.3097 25.4451 12.3101L25.4527 12.3227ZM28.9408 14.4704H25.6036C25.5161 14.1852 25.3963 13.911 25.2465 13.6531L25.2088 13.5877H28.5032V10.6856L28.4277 10.6403C28.3789 10.6051 28.3327 10.5664 28.2894 10.5246C28.1974 10.4312 28.124 10.3211 28.0732 10.2002C27.9753 9.95823 27.9753 9.6877 28.0732 9.44574C28.124 9.32486 28.1974 9.21477 28.2894 9.12133C28.4295 8.9829 28.6071 8.88862 28.8002 8.85018C28.9933 8.81173 29.1935 8.83081 29.3758 8.90505C29.6226 9.00311 29.8206 9.19476 29.9266 9.4382C30.0245 9.68016 30.0245 9.95069 29.9266 10.1926C29.8776 10.3145 29.804 10.425 29.7103 10.5171C29.6536 10.5739 29.5903 10.6237 29.5217 10.6654C29.4831 10.6894 29.4427 10.7104 29.401 10.7283V14.0353C29.4003 14.1532 29.3532 14.266 29.2699 14.3493C29.1866 14.4327 29.0737 14.4798 28.9559 14.4805L28.9408 14.4704ZM28.0958 16.9048H25.4426C25.4879 16.8067 25.5281 16.7061 25.5633 16.608C25.6327 16.4155 25.6833 16.2168 25.7142 16.0145H28.0958C28.1134 15.9818 28.131 15.9491 28.1511 15.9189C28.1891 15.8594 28.2329 15.8038 28.2819 15.753C28.3762 15.662 28.4861 15.5888 28.6063 15.5367C28.8483 15.4388 29.1188 15.4388 29.3608 15.5367C29.4853 15.5881 29.5982 15.664 29.6928 15.76C29.7874 15.8559 29.8618 15.9698 29.9115 16.095C29.9608 16.2164 29.9864 16.3462 29.9869 16.4772C29.9866 16.6086 29.9601 16.7385 29.909 16.8595C29.8592 16.9796 29.7866 17.0889 29.6952 17.1814C29.6012 17.2745 29.4902 17.3488 29.3683 17.4002C29.2478 17.4497 29.1188 17.4753 28.9886 17.4756C28.8602 17.4745 28.7332 17.4498 28.6138 17.4027C28.493 17.3507 28.383 17.2764 28.2894 17.1839C28.2423 17.1364 28.2001 17.0841 28.1637 17.028C28.1436 16.9978 28.126 16.9651 28.1084 16.9324L28.0958 16.9048ZM25.2691 22.0074C25.1712 21.7654 25.1712 21.4949 25.2691 21.2529C25.3186 21.1355 25.3903 21.0287 25.4804 20.9386C25.5323 20.8872 25.5896 20.8417 25.6514 20.8028L25.757 20.7449V19.1404H23.8105C23.8105 19.0373 23.8105 18.9317 23.8105 18.8286C23.8079 18.7995 23.8131 18.7702 23.8254 18.7437C23.8378 18.7172 23.8569 18.6944 23.8809 18.6777C24.0734 18.5462 24.2574 18.4025 24.4317 18.2477H26.2097C26.3279 18.2477 26.4414 18.2945 26.5253 18.3779C26.6092 18.4613 26.6566 18.5745 26.6573 18.6928V20.7399L26.7478 20.7927C26.8011 20.828 26.8508 20.8684 26.8962 20.9134C26.9891 21.0062 27.0626 21.1164 27.1125 21.2378C27.163 21.358 27.1887 21.4872 27.1879 21.6176C27.1885 21.7461 27.1637 21.8734 27.115 21.9923C27.013 22.2367 26.8187 22.4309 26.5743 22.533C26.3324 22.6308 26.0618 22.6308 25.8199 22.533C25.5755 22.4309 25.3812 22.2367 25.2792 21.9923L25.2691 22.0074Z" fill="#FFC107"/>
</svg>
