<svg width="30" height="16" viewBox="0 0 30 16" fill="none" xmlns="http://www.w3.org/2000/svg">
<path d="M4.67041 10.3055C4.6006 10.2287 4.53616 10.1471 4.47754 10.0614C4.33594 9.86606 4.20166 9.66343 4.07471 9.46079L3.43262 8.44761C3.22288 8.17849 3.09492 7.85477 3.06396 7.51499C3.05723 7.37265 3.0953 7.23179 3.17282 7.11223C3.25034 6.99266 3.3634 6.90042 3.49609 6.84848C3.47412 6.46518 3.45947 6.077 3.45947 5.69126C3.45947 5.46421 3.45947 5.23227 3.47168 5.00766C3.48163 4.86357 3.50784 4.72106 3.5498 4.58286C3.72842 4.00293 4.1166 3.51031 4.63867 3.20102C4.8261 3.09289 5.02305 3.00217 5.22705 2.93003C5.60059 2.79331 5.41992 2.22202 5.83008 2.21225C6.78711 2.18784 8.36182 3.00815 8.97461 3.6771C9.37599 4.10337 9.6003 4.6663 9.60205 5.2518L9.56299 6.92905C9.6466 6.94951 9.72306 6.99237 9.78414 7.05302C9.84522 7.11367 9.88862 7.18982 9.90967 7.27329C9.9458 7.57964 9.88246 7.88948 9.729 8.15708C9.729 8.17173 9.7168 8.17173 9.7168 8.18393L8.98438 9.38755C8.81836 9.65854 8.64746 9.93686 8.45459 10.1908C8.22754 10.4959 8.03955 10.4349 8.23486 10.7328C8.32671 10.8507 8.43063 10.9587 8.54492 11.055C7.14355 11.6776 6.04248 12.7396 6.04248 15.242H0C0 11.4212 3.3374 12.6371 4.73145 10.7157C4.89258 10.4715 4.85107 10.4984 4.67041 10.3055ZM13.1836 9.94663C12.7417 9.556 12.1875 9.21421 12.1143 8.40122H12.0654C11.9558 8.40144 11.848 8.37281 11.7529 8.31821C11.5961 8.21988 11.4753 8.07342 11.4087 7.90073C11.25 7.53452 11.123 6.57505 11.5234 6.29917L11.4478 6.25034V6.14292C11.4331 5.95005 11.4282 5.71567 11.4233 5.46909C11.4087 4.56577 11.3916 3.47202 10.6641 3.25229L10.354 3.15708L10.5591 2.91294C11.0955 2.23185 11.7055 1.61205 12.3779 1.06479C12.975 0.549277 13.6933 0.193921 14.4653 0.0320777C14.8279 -0.0261134 15.1988 -0.00495368 15.5525 0.0940973C15.9061 0.193148 16.2341 0.367733 16.5137 0.605808C16.7159 0.769685 16.9 0.95465 17.063 1.15757C17.3885 1.19316 17.7029 1.29702 17.9856 1.46234C18.2683 1.62767 18.513 1.85076 18.7036 2.11704C18.9463 2.44011 19.1276 2.80507 19.2383 3.1937C19.3531 3.58992 19.4017 4.00235 19.3823 4.4144C19.3609 5.15955 19.0562 5.86848 18.5303 6.39682C18.6228 6.40037 18.7136 6.42368 18.7964 6.46518C19.0991 6.62632 19.1089 6.98032 19.0405 7.27573C18.9624 7.51987 18.8623 7.80796 18.7671 8.04721C18.6523 8.37192 18.4863 8.43296 18.1616 8.39878C18.147 9.19223 17.5659 9.51694 17.0703 9.97837C18.291 12.2391 23.0322 10.7474 23.0322 15.242H7.19727C7.19727 10.7474 11.8359 12.3124 13.1787 9.94907L13.1836 9.94663ZM22.0288 10.4789C21.963 10.4056 21.9011 10.329 21.8433 10.2494C21.709 10.0614 21.5771 9.86606 21.4551 9.66831L20.8374 8.69175C20.6333 8.4324 20.5086 8.11951 20.4785 7.79087C20.4724 7.65333 20.5096 7.51735 20.585 7.40213C20.6603 7.28691 20.77 7.19828 20.8984 7.14878C20.8765 6.78013 20.8618 6.40415 20.8618 6.03305C20.8618 5.81089 20.8618 5.58872 20.8618 5.37143C20.8701 5.23313 20.8947 5.09628 20.9351 4.96372C21.1069 4.4042 21.4812 3.92888 21.9849 3.63071C22.1659 3.52108 22.3572 3.4295 22.5562 3.35727C22.915 3.22544 22.7417 2.67368 23.1372 2.66636C24.0601 2.64194 25.5786 3.43296 26.1719 4.07505C26.5592 4.48601 26.7756 5.02891 26.7773 5.5936L26.7383 7.21225C26.8193 7.23119 26.8935 7.27226 26.9526 7.33088C27.0116 7.38951 27.0532 7.46339 27.0728 7.54429C27.1085 7.83957 27.0477 8.1385 26.8994 8.39634C26.8994 8.39634 26.8872 8.39634 26.8872 8.42075L26.1841 9.58286C26.0229 9.84409 25.8594 10.1126 25.6738 10.3592C25.4517 10.6522 25.271 10.6034 25.459 10.8817C26.8066 12.7347 30 11.5653 30 15.2494H24.1699C24.1699 12.8739 23.1543 11.785 21.8433 11.1454C21.9267 11.0638 22.0035 10.9756 22.0728 10.8817C22.2266 10.6546 22.1875 10.6717 22.0117 10.4862L22.0288 10.4789Z" fill="#FFC107"/>
</svg>
