<svg width="30" height="35" viewBox="0 0 30 35" fill="none" xmlns="http://www.w3.org/2000/svg">
<path fill-rule="evenodd" clip-rule="evenodd" d="M2.22807 0H27.7692C28.3606 0.000732421 28.9276 0.236001 29.3458 0.654205C29.764 1.07241 29.9993 1.6394 30 2.23083V23.731C29.9978 24.3217 29.762 24.8876 29.344 25.305C28.9261 25.7225 28.3599 25.9576 27.7692 25.959H17.318V25.9148C17.318 25.5411 17.318 25.1758 17.3014 24.5641H28.057C28.1379 24.5641 28.2181 24.5481 28.2928 24.517C28.3675 24.486 28.4354 24.4405 28.4925 24.3831C28.5496 24.3258 28.5948 24.2577 28.6255 24.1828C28.6562 24.108 28.6718 24.0278 28.6715 23.9469V5.38611H1.4171V23.9469C1.41656 23.9992 1.42308 24.0513 1.43648 24.1019C1.40295 24.2462 1.38532 24.3938 1.38389 24.5419C1.37631 24.9396 1.45764 25.3339 1.62192 25.6961C1.65014 25.7631 1.68345 25.8279 1.72156 25.8898C1.2346 25.7742 0.800443 25.4987 0.488391 25.1074C0.176339 24.716 0.00439149 24.2315 0 23.731L0 2.23083C0.000730467 1.63988 0.235619 1.07331 0.653225 0.65518C1.07083 0.237056 1.63712 0.00146411 2.22807 0ZM7.4398 19.1171C7.56671 19.1084 7.69406 19.1258 7.81396 19.1683C7.93387 19.2107 8.04379 19.2774 8.13692 19.364C8.23006 19.4506 8.30442 19.5555 8.35542 19.672C8.40643 19.7886 8.43298 19.9143 8.43343 20.0415V25.9701H9.03404V23.0612C9.03404 21.8849 10.8885 21.9208 10.8885 23.1276V26.0338H10.9161H11.5666V23.7144C11.5666 22.5381 13.421 22.574 13.421 23.778V25.9258H14.0742V24.2901C14.0742 23.1138 15.9286 23.1497 15.9286 24.3537C15.9286 25.7099 16.0061 27.3097 15.9563 28.6632C15.9037 30.1495 15.5965 31.824 14.5198 32.7595C13.9588 33.2521 13.2952 33.6138 12.5771 33.8182C11.859 34.0226 11.1045 34.0647 10.3681 33.9413C7.81622 33.5372 7.17133 31.9734 5.95627 30.0471L2.87019 25.1591C2.67921 24.7135 2.70412 24.4118 2.8951 24.2181C3.72544 23.6867 5.04844 24.8159 6.52643 26.413H6.57902V19.9779C6.57975 19.7498 6.67067 19.5313 6.83194 19.37C6.99321 19.2087 7.21173 19.1178 7.4398 19.1171ZM4.78273 11.1542C4.65472 10.9392 4.61408 10.6832 4.6692 10.4391C4.72433 10.195 4.87101 9.9814 5.079 9.84227C5.28699 9.70313 5.54043 9.64911 5.78708 9.69133C6.03373 9.73355 6.25478 9.8688 6.40465 10.0692L6.9333 10.6504L8.48602 8.71298C8.65045 8.51332 8.88746 8.38715 9.14492 8.36223C9.40237 8.33732 9.65918 8.4157 9.85884 8.58013C10.0585 8.74456 10.1847 8.98157 10.2096 9.23902C10.2345 9.49648 10.1561 9.75328 9.9917 9.95295L7.64462 12.7733C7.57901 12.8587 7.50058 12.9334 7.41212 12.9947C7.30497 13.0658 7.18484 13.1151 7.05861 13.1397C6.93238 13.1642 6.80255 13.1637 6.67655 13.1379C6.55055 13.1122 6.43087 13.0619 6.32436 12.9898C6.21786 12.9178 6.12663 12.8254 6.05591 12.718L4.78273 11.1459V11.1542ZM24.3925 18.9787C24.6545 18.9651 24.9013 18.8514 25.082 18.6611C25.2626 18.4708 25.3633 18.2184 25.3633 17.956C25.3633 17.6936 25.2626 17.4412 25.082 17.2509C24.9013 17.0606 24.6545 16.9469 24.3925 16.9333H13.7033C13.5645 16.9261 13.4257 16.9472 13.2954 16.9953C13.165 17.0434 13.0458 17.1176 12.945 17.2133C12.8442 17.309 12.764 17.4241 12.7091 17.5518C12.6543 17.6795 12.626 17.817 12.626 17.956C12.626 18.095 12.6543 18.2325 12.7091 18.3602C12.764 18.4878 12.8442 18.603 12.945 18.6987C13.0458 18.7944 13.165 18.8685 13.2954 18.9167C13.4257 18.9648 13.5645 18.9859 13.7033 18.9787H24.3925ZM24.3925 11.7825C24.6545 11.7688 24.9013 11.6551 25.082 11.4648C25.2626 11.2745 25.3633 11.0221 25.3633 10.7598C25.3633 10.4974 25.2626 10.245 25.082 10.0547C24.9013 9.86439 24.6545 9.7507 24.3925 9.73706H13.7033C13.5645 9.72984 13.4257 9.75094 13.2954 9.79907C13.165 9.84721 13.0458 9.92137 12.945 10.017C12.8442 10.1127 12.764 10.2279 12.7091 10.3556C12.6543 10.4833 12.626 10.6208 12.626 10.7598C12.626 10.8987 12.6543 11.0362 12.7091 11.1639C12.764 11.2916 12.8442 11.4068 12.945 11.5025C13.0458 11.5981 13.165 11.6723 13.2954 11.7204C13.4257 11.7686 13.5645 11.7897 13.7033 11.7825H24.3925ZM4.88237 15.1204H9.96402C10.1483 15.1204 10.325 15.1936 10.4553 15.3239C10.5855 15.4542 10.6587 15.6309 10.6587 15.8151V20.0969C10.658 20.2809 10.5846 20.4572 10.4545 20.5873C10.3243 20.7174 10.148 20.7909 9.96402 20.7916H9.81733V20.0415C9.82266 19.4947 9.62548 18.9653 9.26377 18.5552V16.5098H5.57708V18.7517C5.33535 19.115 5.20632 19.5415 5.2062 19.9779V20.7916H4.88237C4.69834 20.7909 4.52206 20.7174 4.39194 20.5873C4.26181 20.4572 4.18838 20.2809 4.18766 20.0969V15.8151C4.18766 15.6309 4.26085 15.4542 4.39113 15.3239C4.52142 15.1936 4.69812 15.1204 4.88237 15.1204ZM25.6463 1.93745C25.8652 1.93745 26.0793 2.00238 26.2614 2.12403C26.4434 2.24568 26.5853 2.41859 26.6691 2.62089C26.7529 2.82319 26.7748 3.04579 26.7321 3.26055C26.6894 3.47531 26.584 3.67258 26.4291 3.82741C26.2743 3.98224 26.077 4.08768 25.8623 4.1304C25.6475 4.17312 25.4249 4.1512 25.2226 4.0674C25.0203 3.98361 24.8474 3.8417 24.7257 3.65964C24.6041 3.47758 24.5392 3.26353 24.5392 3.04456C24.5392 2.75094 24.6558 2.46934 24.8634 2.26171C25.0711 2.05409 25.3527 1.93745 25.6463 1.93745ZM18.1871 1.93745C18.4061 1.93745 18.6201 2.00238 18.8022 2.12403C18.9842 2.24568 19.1261 2.41859 19.2099 2.62089C19.2937 2.82319 19.3157 3.04579 19.2729 3.26055C19.2302 3.47531 19.1248 3.67258 18.9699 3.82741C18.8151 3.98224 18.6178 4.08768 18.4031 4.1304C18.1883 4.17312 17.9657 4.1512 17.7634 4.0674C17.5611 3.98361 17.3882 3.8417 17.2666 3.65964C17.1449 3.47758 17.08 3.26353 17.08 3.04456C17.08 2.75094 17.1966 2.46934 17.4043 2.26171C17.6119 2.05409 17.8935 1.93745 18.1871 1.93745ZM21.9181 1.93745C22.137 1.93745 22.3511 2.00238 22.5332 2.12403C22.7152 2.24568 22.8571 2.41859 22.9409 2.62089C23.0247 2.82319 23.0466 3.04579 23.0039 3.26055C22.9612 3.47531 22.8558 3.67258 22.7009 3.82741C22.5461 3.98224 22.3488 4.08768 22.1341 4.1304C21.9193 4.17312 21.6967 4.1512 21.4944 4.0674C21.2921 3.98361 21.1192 3.8417 20.9975 3.65964C20.8759 3.47758 20.811 3.26353 20.811 3.04456C20.811 2.75094 20.9276 2.46934 21.1352 2.26171C21.3429 2.05409 21.6245 1.93745 21.9181 1.93745Z" fill="#FFC107"/>
</svg>
