<svg width="30" height="33" viewBox="0 0 30 33" fill="none" xmlns="http://www.w3.org/2000/svg">
<path d="M7.07933 1.89298L5.61153 5.33005C5.5699 5.42814 5.501 5.51224 5.41301 5.57235C5.32502 5.63247 5.22163 5.66608 5.11511 5.66921L1.42541 6.00079L4.241 8.45954C4.31676 8.5258 4.37315 8.61136 4.40418 8.70711C4.4352 8.80286 4.43971 8.90523 4.41721 9.00333L3.58479 12.6469L6.79322 10.7288C6.8815 10.6763 6.98255 10.6491 7.08527 10.6502C7.18799 10.6513 7.28842 10.6807 7.37554 10.7351L8.90902 11.6522L8.64818 12.7941L7.07933 11.8562L3.73068 13.8577C3.63531 13.917 3.52858 13.9581 3.41742 13.9783C3.30058 13.9985 3.17994 13.9966 3.06121 13.9701C2.81868 13.9151 2.62163 13.7667 2.49973 13.5735C2.3772 13.3783 2.32857 13.1358 2.38415 12.8951L3.25636 9.07849L0.340351 6.53258C0.310035 6.50985 0.282245 6.48395 0.256982 6.45553C0.206456 6.40437 0.161613 6.34627 0.124982 6.28374L0.097192 6.23574C0.0510865 6.14479 0.0195074 6.04437 0.00687574 5.93763L0.00182308 5.88521C-0.0133349 5.64837 0.066876 5.42479 0.210877 5.253C0.353614 5.08184 0.560773 4.96436 0.796353 4.93721L4.71595 4.58731L6.25259 0.989187C6.29869 0.881818 6.36248 0.783923 6.44333 0.703712C6.51091 0.637396 6.59112 0.57929 6.68207 0.534448L6.72754 0.512974C6.95554 0.41571 7.20186 0.4195 7.41596 0.506027C7.62754 0.591922 7.80818 0.759291 7.90481 0.98666L9.17176 3.95383L8.0046 4.05804L7.07933 1.89298ZM13.6364 23.3901C13.6364 23.6838 13.3977 23.9226 13.104 23.9226C12.8103 23.9226 12.5716 23.6838 12.5716 23.3901V22.4061C12.5431 22.391 12.516 22.3733 12.4901 22.3524L11.465 21.5213L10.0831 20.3876C9.82608 20.1754 9.53492 20.0289 9.26208 19.9745C9.08713 19.9398 8.92544 19.9436 8.79913 19.9954C8.69681 20.0371 8.60839 20.1198 8.54902 20.2518C8.47134 20.423 8.43534 20.6686 8.45681 20.9983C8.47576 21.2914 8.57807 21.6135 8.71323 21.9204C8.91344 22.3752 9.18629 22.792 9.38713 23.0604L13.4627 29.2266C13.5087 29.2959 13.5375 29.3751 13.5467 29.4577C13.6276 30.1234 13.769 30.6224 13.9775 30.935C14.129 31.1618 14.3255 31.2767 14.5699 31.2704C16.6358 31.2704 18.8773 31.1851 20.9211 31.2704C21.3133 31.2641 21.6727 31.1485 21.9973 30.9249C22.3598 30.6748 22.6914 30.2864 22.9908 29.7628L23.0672 29.6321C23.8529 28.278 24.6152 26.9636 24.6954 25.403L24.655 23.5935L24.6493 23.5139L24.655 23.0876C24.6695 21.7632 24.6923 19.7358 23.5908 19.5375H22.8771C22.8986 20.1034 22.8657 20.6882 22.836 21.2194C22.8184 21.5327 22.8019 21.8238 22.8019 22.0941C22.8019 22.3878 22.5632 22.6266 22.2689 22.6266C21.9752 22.6266 21.7365 22.3878 21.7365 22.0941C21.7365 21.8434 21.7554 21.5143 21.7756 21.1607C21.8501 19.8413 21.9493 18.0766 21.0278 17.9017H20.3293C20.2832 17.9017 20.2377 17.896 20.1948 17.8846C20.2383 18.52 20.2004 19.1933 20.1663 19.7958C20.1487 20.1097 20.1322 20.4009 20.1322 20.6712C20.1322 20.9649 19.8935 21.2036 19.5998 21.2036C19.3055 21.2036 19.0668 20.9649 19.0668 20.6712C19.0668 20.4204 19.0857 20.0914 19.1059 19.7377C19.1804 18.4183 19.2796 16.6537 18.3581 16.4794H17.6596C17.6116 16.4794 17.5649 16.4731 17.5206 16.4611V19.2084C17.5206 19.5028 17.2819 19.7409 16.9882 19.7409C16.6939 19.7409 16.4558 19.5028 16.4558 19.2084V13.6802C16.4558 12.7543 16.0775 12.1695 15.5949 11.9257C15.4181 11.8366 15.2274 11.7911 15.0392 11.7911C14.8522 11.7911 14.6627 11.8353 14.4865 11.9244C14.0097 12.1669 13.6364 12.7543 13.6364 13.7023V23.3901ZM12.5716 21.0508V14.4937L10.3421 15.8263C10.2434 15.8851 10.1254 15.9024 10.014 15.8743C9.90256 15.8463 9.80682 15.7752 9.74776 15.6766C9.69013 15.5807 9.67202 15.4661 9.69724 15.357H9.69661L10.9061 10.0669L6.81785 6.49721C6.63785 6.33995 6.61954 6.06647 6.77743 5.88584C6.81548 5.84215 6.86193 5.80655 6.914 5.78116C6.96608 5.75577 7.02274 5.74111 7.08059 5.73805L12.4692 5.25489L14.6008 0.264762C14.6949 0.0437086 14.9495 -0.0592393 15.1699 0.0348664C15.2785 0.0809719 15.3587 0.166235 15.4004 0.267289L17.5307 5.25489L22.9339 5.73995C23.172 5.76016 23.3489 5.97047 23.328 6.20858C23.3186 6.32019 23.2661 6.42374 23.1815 6.49721L19.0945 10.0669L20.3034 15.357C20.3227 15.4414 20.3164 15.5296 20.2852 15.6104C20.254 15.6911 20.1995 15.7607 20.1284 15.8102C20.0574 15.8597 19.9733 15.8868 19.8867 15.8881C19.8002 15.8894 19.7152 15.8648 19.6428 15.8175L17.5206 14.5486V15.4322C17.5649 15.4202 17.6116 15.4145 17.6596 15.4145H18.3935C18.4358 15.4145 18.4762 15.4189 18.5154 15.4284C19.3971 15.5693 19.8367 16.1566 20.0444 16.9196C20.1265 16.8672 20.2251 16.8368 20.3293 16.8368H21.0632C21.1055 16.8368 21.1459 16.8419 21.1851 16.8507C22.1236 17.0011 22.5607 17.6566 22.7514 18.4916C22.7962 18.4796 22.8436 18.4726 22.8922 18.4726H23.6268C23.6685 18.4726 23.7095 18.4777 23.7487 18.4872C25.7634 18.8093 25.7344 21.4051 25.7154 23.0977C25.7129 23.8809 25.7483 24.6602 25.7565 25.4428C25.6668 27.2687 24.8388 28.6954 23.9861 30.1651L23.9141 30.2914C23.5365 30.9508 23.0988 31.4548 22.5998 31.7984C22.0952 32.1451 21.5369 32.3239 20.9261 32.3308L14.5825 32.3333C13.949 32.3441 13.4577 32.0668 13.0964 31.5255C12.8053 31.0891 12.612 30.4784 12.5078 29.7091L8.5326 23.6933C8.29828 23.3794 7.9787 22.8906 7.73996 22.3487C7.5606 21.9413 7.42417 21.4992 7.39575 21.0653C7.36228 20.5518 7.43428 20.1375 7.58017 19.8148C7.76144 19.4137 8.0507 19.1516 8.39997 19.0095C8.72586 18.8769 9.09471 18.8573 9.46608 18.9312C9.91071 19.0196 10.3699 19.2457 10.7608 19.5684L12.5716 21.0508ZM21.6 25.0468C21.6 24.8068 21.7952 24.6116 22.0352 24.6116C22.2746 24.6116 22.4697 24.8068 22.4697 25.0468V27.035C22.4678 27.149 22.4211 27.2578 22.3398 27.3377C22.2584 27.4177 22.1489 27.4625 22.0349 27.4625C21.9208 27.4625 21.8113 27.4177 21.73 27.3377C21.6486 27.2578 21.602 27.149 21.6 27.035V25.0468ZM19.0308 24.1676C19.0308 23.9282 19.2253 23.7331 19.4653 23.7331C19.7053 23.7331 19.8998 23.9282 19.8998 24.1676V27.0344C19.8998 27.2744 19.7053 27.4695 19.4653 27.4695C19.2253 27.4695 19.0308 27.2744 19.0308 27.0344V24.1676ZM23.7468 0.989187L25.284 4.58731L29.2036 4.93721C29.4392 4.96436 29.6458 5.08184 29.7891 5.253C29.9331 5.42416 30.0133 5.64837 29.9982 5.88521L29.9931 5.93763C29.9805 6.04437 29.9489 6.14479 29.9028 6.23574L29.8744 6.28437C29.8384 6.34627 29.7942 6.40374 29.7443 6.45427C29.719 6.48269 29.6906 6.50921 29.6596 6.53258L26.7436 9.07849L27.6158 12.8951C27.6714 13.1358 27.6222 13.3789 27.5003 13.5735C27.4374 13.6733 27.3554 13.7597 27.259 13.8277C27.1627 13.8958 27.0539 13.9442 26.9388 13.9701C26.8201 13.9966 26.6988 13.9985 26.5826 13.9783C26.4716 13.9579 26.3654 13.917 26.2693 13.8577L22.9207 11.8562L21.3575 12.7909L21.0929 11.6509L22.6245 10.7351C22.7116 10.6807 22.812 10.6513 22.9147 10.6502C23.0174 10.6491 23.1185 10.6763 23.2068 10.7288L26.4152 12.6469L25.5822 9.00333C25.5386 8.80943 25.5998 8.59849 25.759 8.45954L28.5746 6.00079L24.8849 5.66921C24.7784 5.66608 24.675 5.63247 24.587 5.57235C24.499 5.51224 24.4301 5.42814 24.3885 5.33005L22.9207 1.89298L21.9954 4.05931L20.8276 3.95446L22.0952 0.98666C22.1918 0.759291 22.3718 0.592553 22.5847 0.506658C22.7981 0.4195 23.0445 0.41571 23.2725 0.512974L23.3167 0.533816C23.4076 0.578658 23.4891 0.637396 23.556 0.704343C23.6375 0.783923 23.7007 0.881818 23.7468 0.989187Z" fill="#FFC107"/>
</svg>
