<svg width="30" height="30" viewBox="0 0 30 30" fill="none" xmlns="http://www.w3.org/2000/svg">
<path d="M19.9219 1.15479C19.9219 0.517578 20.5518 0 21.3306 0C22.1094 0 22.7393 0.517578 22.7393 1.15479V6.21338C22.7393 6.85059 22.1094 7.36816 21.3306 7.36816C20.5518 7.36816 19.9219 6.85059 19.9219 6.21338V1.15479ZM15.2832 14.9658L16.748 18.3618L20.4272 18.6914C20.466 18.6945 20.5037 18.7052 20.5383 18.723C20.5729 18.7408 20.6035 18.7653 20.6285 18.7951C20.6535 18.8248 20.6723 18.8593 20.6839 18.8964C20.6954 18.9335 20.6995 18.9725 20.6958 19.0112C20.693 19.0492 20.6827 19.0862 20.6655 19.1201C20.6484 19.1541 20.6246 19.1843 20.5957 19.209L17.8101 21.6504L18.6328 25.2515C18.6418 25.2893 18.6432 25.3286 18.6369 25.367C18.6305 25.4054 18.6166 25.4421 18.596 25.4751C18.5753 25.508 18.5482 25.5365 18.5164 25.5589C18.4846 25.5813 18.4486 25.5971 18.4106 25.6055C18.3317 25.622 18.2493 25.6071 18.1812 25.564L15.0073 23.6743L11.8335 25.5737C11.766 25.6133 11.6857 25.6247 11.6098 25.6055C11.534 25.5863 11.4688 25.5381 11.4282 25.4712C11.3884 25.4053 11.3761 25.3264 11.394 25.2515L12.207 21.6406L9.42383 19.1992C9.3699 19.1481 9.33701 19.0788 9.33159 19.0047C9.32617 18.9306 9.34862 18.8572 9.39453 18.7988C9.44913 18.7402 9.52446 18.7051 9.60449 18.7012L13.2666 18.374L14.7314 14.9731C14.7466 14.9374 14.7687 14.9049 14.7965 14.8777C14.8242 14.8504 14.857 14.829 14.8931 14.8144C14.9292 14.7999 14.9677 14.7927 15.0066 14.7931C15.0455 14.7935 15.0839 14.8016 15.1196 14.8169C15.1552 14.831 15.1876 14.8521 15.2148 14.8789C15.2421 14.9058 15.2637 14.9378 15.2783 14.9731L15.2832 14.9658ZM7.229 1.15479C7.229 0.517578 7.85889 0 8.6377 0C9.4165 0 10.0464 0.517578 10.0464 1.15479V6.21338C10.0464 6.85059 9.4165 7.36816 8.6377 7.36816C7.85889 7.36816 7.229 6.85059 7.229 6.21338V1.15479ZM1.5625 11.0645H28.4351V5.2417C28.433 5.05244 28.3578 4.87133 28.2251 4.73633C28.1588 4.66977 28.0801 4.61695 27.9934 4.58092C27.9066 4.54489 27.8136 4.52635 27.7197 4.52637H25.1465C25.0439 4.52637 24.9423 4.50616 24.8475 4.4669C24.7527 4.42764 24.6666 4.37009 24.5941 4.29754C24.5215 4.225 24.464 4.13887 24.4247 4.04409C24.3854 3.9493 24.3652 3.84771 24.3652 3.74512C24.3652 3.64252 24.3854 3.54093 24.4247 3.44615C24.464 3.35136 24.5215 3.26524 24.5941 3.19269C24.6666 3.12014 24.7527 3.0626 24.8475 3.02334C24.9423 2.98407 25.0439 2.96387 25.1465 2.96387H27.7222C28.3257 2.9658 28.9039 3.2064 29.3307 3.63316C29.7575 4.05992 29.9981 4.63817 30 5.2417V27.7222C29.9981 28.3257 29.7575 28.9039 29.3307 29.3307C28.9039 29.7575 28.3257 29.9981 27.7222 30H2.27783C1.67389 29.9981 1.09526 29.7571 0.668436 29.3298C0.241608 28.9026 0.00128739 28.3237 0 27.7197L0 5.2417C0.00193129 4.63817 0.242537 4.05992 0.669295 3.63316C1.09605 3.2064 1.67431 2.9658 2.27783 2.96387H5.0293C5.13189 2.96387 5.23348 2.98407 5.32827 3.02334C5.42305 3.0626 5.50918 3.12014 5.58172 3.19269C5.65427 3.26524 5.71182 3.35136 5.75108 3.44615C5.79034 3.54093 5.81055 3.64252 5.81055 3.74512C5.81055 3.84771 5.79034 3.9493 5.75108 4.04409C5.71182 4.13887 5.65427 4.225 5.58172 4.29754C5.50918 4.37009 5.42305 4.42764 5.32827 4.4669C5.23348 4.50616 5.13189 4.52637 5.0293 4.52637H2.27783C2.08857 4.52843 1.90746 4.60367 1.77246 4.73633C1.7059 4.80258 1.65309 4.88134 1.61706 4.96806C1.58102 5.05479 1.56248 5.14778 1.5625 5.2417V11.0645ZM28.4351 12.6294H1.5625V27.7197C1.56456 27.909 1.63981 28.0901 1.77246 28.2251C1.83872 28.2917 1.91747 28.3445 2.0042 28.3805C2.09092 28.4165 2.18392 28.4351 2.27783 28.4351H27.7197C27.909 28.433 28.0901 28.3578 28.2251 28.2251C28.2917 28.1588 28.3445 28.0801 28.3805 27.9934C28.4165 27.9066 28.4351 27.8136 28.4351 27.7197V12.6294ZM12.3218 4.52637C12.1146 4.52637 11.9159 4.44406 11.7694 4.29754C11.6228 4.15103 11.5405 3.95232 11.5405 3.74512C11.5405 3.53792 11.6228 3.3392 11.7694 3.19269C11.9159 3.04618 12.1146 2.96387 12.3218 2.96387H17.5562C17.7634 2.96387 17.9621 3.04618 18.1086 3.19269C18.2551 3.3392 18.3374 3.53792 18.3374 3.74512C18.3374 3.95232 18.2551 4.15103 18.1086 4.29754C17.9621 4.44406 17.7634 4.52637 17.5562 4.52637H12.3218Z" fill="#FFC107"/>
</svg>
