<svg width="30" height="37" viewBox="0 0 30 37" fill="none" xmlns="http://www.w3.org/2000/svg">
<path fill-rule="evenodd" clip-rule="evenodd" d="M23.4433 23.1844C27.0638 23.1844 30 26.1213 30 29.7418C30 33.3624 27.0638 36.2993 23.4433 36.2993C19.822 36.2993 16.8858 33.3624 16.8858 29.7418C16.8858 26.1213 19.822 23.1844 23.4433 23.1844ZM27.9014 1.64823C27.9014 0.741844 27.1582 0 26.2525 0H1.64894C0.741844 0 0 0.742553 0 1.64823V32.1652C0 33.0716 0.741844 33.8142 1.64894 33.8142H16.061C15.8539 33.4411 15.6752 33.0504 15.5255 32.6454H1.37447C1.28369 32.6454 1.20142 32.5652 1.20142 32.4723V1.49433C1.20142 1.40071 1.28369 1.32128 1.37447 1.32128H26.5716C26.6638 1.32128 26.7447 1.40567 26.7447 1.49433V21.9851C27.1468 22.1574 27.5333 22.3603 27.9014 22.5901V1.64823ZM7.09716 13.7489C6.80284 13.7489 6.56454 13.5099 6.56454 13.2156C6.56454 12.9213 6.80284 12.6823 7.09716 12.6823H17.7135C18.0078 12.6823 18.2468 12.9213 18.2468 13.2156C18.2468 13.5099 18.0078 13.7489 17.7135 13.7489H7.09716ZM7.09716 22.4844C6.80284 22.4844 6.56454 22.2461 6.56454 21.9518C6.56445 21.8818 6.57815 21.8124 6.60488 21.7477C6.6316 21.683 6.67082 21.6242 6.72029 21.5747C6.76976 21.5252 6.82851 21.4859 6.89317 21.459C6.95784 21.4322 7.02716 21.4184 7.09716 21.4184H20.0979C20.3404 21.4184 20.5447 21.5801 20.6092 21.8014C20.1014 21.983 19.6156 22.2128 19.1574 22.4844H7.09716ZM7.09716 19.2496C7.02716 19.2496 6.95784 19.2358 6.89317 19.209C6.82851 19.1822 6.76976 19.1429 6.72029 19.0934C6.67082 19.0439 6.6316 18.9851 6.60488 18.9204C6.57815 18.8557 6.56445 18.7863 6.56454 18.7163C6.56454 18.422 6.80284 18.1837 7.09716 18.1837H17.7135C18.0078 18.1837 18.2468 18.422 18.2468 18.7163C18.2468 19.0113 18.0078 19.2496 17.7135 19.2496H7.09716ZM22.744 16.5511H5.15674V27.134H15.4227C15.3106 27.4801 15.2199 27.8362 15.1525 28.2007H4.6234C4.32908 28.2007 4.09078 27.9617 4.09078 27.6674V10.5284C4.09078 10.234 4.32908 9.99503 4.6234 9.99503H23.2773C23.5716 9.99503 23.8106 10.234 23.8106 10.5284V21.3177C23.455 21.3023 23.0987 21.3094 22.744 21.339V16.5511ZM5.15674 15.4844H22.744V11.0617H5.15674V15.4844ZM21.5539 28.7163L22.6631 29.7638L25.1787 27.1688C25.3965 26.9489 25.5326 26.7716 25.8 27.0482L26.6695 27.9376C26.9546 28.2199 26.9404 28.3858 26.6709 28.6489L23.1596 32.1447C22.5915 32.7014 22.6908 32.7355 22.1149 32.1645L20.0901 30.1511C19.9702 30.022 19.983 29.8908 20.1149 29.7603L21.1234 28.7142C21.2766 28.5532 21.3979 28.5674 21.5539 28.7163Z" fill="#FFC107"/>
</svg>
