<svg width="30" height="18" viewBox="0 0 30 18" fill="none" xmlns="http://www.w3.org/2000/svg">
<path fill-rule="evenodd" clip-rule="evenodd" d="M10.1636 14.2065C10.0953 14.6359 10.1167 15.0747 10.2264 15.4954C10.336 15.9161 10.5316 16.3095 10.8008 16.6509C11.0699 16.9923 11.4069 17.2743 11.7904 17.4791C12.1738 17.6839 12.5956 17.8071 13.029 17.8409C13.4624 17.8747 13.8982 17.8184 14.3088 17.6755C14.7194 17.5327 15.096 17.3064 15.4148 17.0108C15.7337 16.7153 15.9879 16.357 16.1615 15.9584C16.335 15.5598 16.4242 15.1296 16.4233 14.6948C16.4223 14.5313 16.4092 14.3681 16.3843 14.2065H21.7969C21.7771 14.3579 21.7673 14.5104 21.7676 14.6631C21.7676 15.51 22.104 16.3223 22.7029 16.9211C23.3018 17.52 24.114 17.8564 24.9609 17.8564C25.8079 17.8564 26.6201 17.52 27.219 16.9211C27.8179 16.3223 28.1543 15.51 28.1543 14.6631C28.1547 14.4723 28.1376 14.2819 28.103 14.0942C28.6083 14.0797 29.0883 13.8699 29.442 13.5088C29.7958 13.1478 29.9958 12.6637 30 12.1582V5.89355L26.0278 1.62109H20.5859V11.1108H1.05469C0.845014 11.1075 0.64246 11.1869 0.490793 11.3317C0.339127 11.4765 0.250527 11.6752 0.244141 11.8848V13.4277C0.248631 13.6382 0.336061 13.8384 0.487405 13.9847C0.638749 14.131 0.841756 14.2116 1.05225 14.209H1.93848C1.91237 14.3704 1.89931 14.5337 1.89941 14.6973C1.88769 15.1181 1.96046 15.537 2.1134 15.9292C2.26634 16.3214 2.49635 16.6789 2.78985 16.9807C3.08334 17.2825 3.43436 17.5224 3.82215 17.6862C4.20995 17.85 4.62664 17.9344 5.04761 17.9344C5.46857 17.9344 5.88527 17.85 6.27306 17.6862C6.66085 17.5224 7.01187 17.2825 7.30537 16.9807C7.59886 16.6789 7.82888 16.3214 7.98182 15.9292C8.13476 15.537 8.20752 15.1181 8.1958 14.6973C8.19473 14.5338 8.18168 14.3706 8.15674 14.209H10.1636V14.2065ZM18.6719 0H1.00098C0.735897 0.0012837 0.48204 0.107156 0.294598 0.294598C0.107156 0.48204 0.0012837 0.735897 0 1.00098L0 10.3198H19.6729V1.00098C19.6722 0.735699 19.5665 0.481471 19.379 0.293891C19.1914 0.106311 18.9372 0.000644662 18.6719 0ZM3.83545 14.7119C3.83545 16.3062 6.25732 16.3062 6.25732 14.7119C6.25732 13.0029 3.83545 13.1812 3.83545 14.7119ZM23.7305 14.6606C23.7305 16.2744 26.1865 16.2744 26.1865 14.6606C26.1865 13.0469 23.7305 13.0371 23.7305 14.6606ZM26.0083 3.4668L28.0127 5.85938V6.72852H22.5806V3.4668H26.0083ZM12.0654 14.7119C12.0654 16.3062 14.4873 16.3062 14.4873 14.7119C14.4873 13.1177 12.0654 13.1201 12.0654 14.7119Z" fill="#FFC107"/>
</svg>
