<svg width="30" height="28" viewBox="0 0 30 28" fill="none" xmlns="http://www.w3.org/2000/svg">
<path fill-rule="evenodd" clip-rule="evenodd" d="M8.8501 9.55403C8.57422 9.56624 8.36426 9.62239 8.22266 9.7176C8.14209 9.77131 8.08105 9.84211 8.04199 9.92512C8.00049 10.0179 7.97852 10.1302 7.9834 10.2596C7.99561 10.638 8.19092 11.1336 8.57666 11.7049L8.58154 11.7147L9.8291 13.6922C10.3296 14.4857 10.8521 15.2962 11.5039 15.8919C12.1289 16.4632 12.8882 16.8489 13.8916 16.8538C14.978 16.8563 15.7739 16.4534 16.4185 15.8504C17.0898 15.223 17.6196 14.3612 18.1421 13.5018L19.5435 11.1898C19.8071 10.5941 19.8999 10.1937 19.8389 9.9593C19.8022 9.82014 19.6509 9.74934 19.3872 9.73957C19.3311 9.73713 19.2749 9.73469 19.2163 9.73713C19.1528 9.73958 19.0894 9.74446 19.021 9.74934C18.9819 9.75422 18.9478 9.74934 18.9136 9.74202C18.7891 9.74934 18.6597 9.73957 18.5303 9.72248L19.0112 7.59602C15.4443 8.15754 12.7783 5.50862 9.00879 7.06624L9.27979 9.57356C9.12598 9.57844 8.98193 9.57356 8.8501 9.55403ZM29.8071 22.0076C29.9316 22.2152 30 22.4373 30 22.6693C30 23.89 28.1104 24.8812 25.7812 24.8812C23.4521 24.8812 21.5625 23.89 21.5625 22.6693C21.5625 22.4398 21.6309 22.2176 21.7554 22.0076C22.2925 22.9061 23.8916 23.5579 25.7812 23.5579C27.6733 23.5579 29.2725 22.9061 29.8071 22.0076ZM27.3047 17.4373L27.2559 17.9866L25.1855 17.806C25.3564 18.0233 25.4736 18.2723 25.5396 18.5506L25.0415 18.5067C25.0073 18.3602 24.9316 18.1966 24.8169 18.0184C24.6997 17.8377 24.5581 17.7108 24.3872 17.6326L24.4263 17.1883L27.3047 17.4373ZM25.7812 16.578C27.6953 16.578 29.248 17.1883 29.248 17.9378C29.248 18.6898 27.6953 19.2977 25.7812 19.2977C23.8672 19.2977 22.3145 18.6873 22.3145 17.9378C22.3145 17.1859 23.8672 16.578 25.7812 16.578ZM25.7812 16.1263C28.1104 16.1263 30 17.1175 30 18.3382C30 19.5589 28.1104 20.5501 25.7812 20.5501C23.4521 20.5501 21.5625 19.5589 21.5625 18.3382C21.5625 17.1175 23.4521 16.1263 25.7812 16.1263ZM29.8218 19.8128C29.9365 20.013 30 20.2279 30 20.4476C30 21.6683 28.1104 22.6595 25.7812 22.6595C23.4521 22.6595 21.5625 21.6683 21.5625 20.4476C21.5625 20.2254 21.6235 20.013 21.7407 19.8128C22.2607 20.7235 23.8721 21.39 25.7812 21.39C27.6904 21.39 29.3018 20.7235 29.8218 19.8128ZM29.8022 24.2391C29.9316 24.4515 30 24.6761 30 24.9105C30 26.1312 28.1104 27.1224 25.7812 27.1224C23.4521 27.1224 21.5625 26.1312 21.5625 24.9105C21.5625 24.6761 21.6333 24.4515 21.7603 24.2391C22.3022 25.1326 23.8965 25.7796 25.7812 25.7796C27.666 25.7796 29.2578 25.1326 29.8022 24.2391ZM14.6582 20.2742L15.7568 24.0902C16.6064 22.3031 17.4927 20.5281 17.6929 18.4993C17.356 18.1038 16.9995 17.5814 16.6895 17.1273C16.5967 16.993 16.5112 16.866 16.4282 16.7489C15.7471 17.2469 14.9316 17.5594 13.8867 17.5545C12.7612 17.5521 11.897 17.1517 11.1792 16.5438C11.1743 16.5511 11.1694 16.5584 11.1646 16.5657C11.0474 16.7269 10.918 16.9173 10.7764 17.1248C10.5127 17.513 10.2148 17.9476 9.92432 18.3138C10.3003 20.6649 11.2036 22.3201 12.0215 24.0853L13.1201 20.2694C11.7383 17.9793 15.918 17.8475 14.6582 20.2742ZM16.8652 16.3924C16.9531 16.5169 17.0508 16.661 17.1558 16.8123C17.3486 17.0955 17.561 17.408 17.7734 17.6912C18.1836 18.0452 18.811 18.3211 19.5361 18.5531C19.0625 19.6273 18.7988 20.8114 18.7988 22.0589C18.7988 23.8656 19.3506 25.5452 20.2954 26.9368H13.8916H1.51123C0.563965 26.866 0.0830078 26.3753 0 25.5257L0.327148 24.0609C0.419922 22.8597 0.756836 21.9149 1.30371 21.1898C1.66504 20.7113 2.11426 20.3597 2.6123 20.0838C4.09424 19.2586 7.92725 18.9827 9.56299 17.8768C9.81934 17.5472 10.0806 17.159 10.3198 16.8123C10.4663 16.5975 10.603 16.3973 10.7178 16.241C10.7373 16.2142 10.7593 16.1922 10.7886 16.1727C10.1855 15.5526 9.69971 14.8031 9.23828 14.0682L7.99316 12.0858C7.53662 11.4046 7.30225 10.7869 7.28516 10.2767C7.27783 10.0374 7.31934 9.82014 7.40723 9.62727C7.5 9.42707 7.6416 9.25862 7.83691 9.12922C7.92725 9.06819 8.02734 9.01692 8.13965 8.97541C8.05908 7.9012 8.02979 6.54622 8.08105 5.4134C8.10791 5.14485 8.15918 4.87385 8.23486 4.60774C8.55469 3.47004 9.35303 2.55452 10.3394 1.92707C10.686 1.70491 11.0693 1.5218 11.4722 1.37532C12.1826 1.11409 11.8359 0.0203359 12.6294 0.000804653C14.4897 -0.0406993 17.5366 1.53157 18.7256 2.81819C19.4165 3.5677 19.8511 4.55647 19.9438 5.86995L19.8657 9.10237C20.2124 9.20735 20.4321 9.42463 20.5225 9.78108C20.6226 10.1741 20.5127 10.7283 20.1807 11.4827C20.1733 11.4949 20.1685 11.5096 20.1611 11.5242L18.7402 13.8631C18.1934 14.764 17.6392 15.6673 16.8945 16.3607L16.8652 16.3924Z" fill="#FFC107"/>
</svg>
