<svg width="30" height="27" viewBox="0 0 30 27" fill="none" xmlns="http://www.w3.org/2000/svg">
<path fill-rule="evenodd" clip-rule="evenodd" d="M0.280522 0H29.7202C29.8743 0 30 0.126467 30 0.280522V7.21008C30 7.36487 29.874 7.4906 29.7202 7.4906H0.280522C0.126467 7.4906 0 7.36487 0 7.21008V0.280522C0 0.126467 0.126467 0 0.280522 0ZM1.7637 8.98135H28.237C28.3655 8.98135 28.4719 9.08633 28.4719 9.21597V26.631C28.4719 26.7602 28.3655 26.8659 28.237 26.8659H1.7637C1.63479 26.8659 1.52908 26.7602 1.52908 26.631V9.21621C1.52908 9.08633 1.63455 8.98135 1.7637 8.98135ZM10.9877 11.8474H19.0128C19.8743 11.8474 20.5799 12.5525 20.5799 13.414C20.5799 14.2756 19.8743 14.9805 19.0128 14.9805H10.9877C10.1254 14.9805 9.42056 14.2756 9.42056 13.414C9.42056 12.5525 10.1257 11.8474 10.9877 11.8474Z" fill="#FFC107"/>
</svg>
