<svg width="30" height="22" viewBox="0 0 30 22" fill="none" xmlns="http://www.w3.org/2000/svg">
<path fill-rule="evenodd" clip-rule="evenodd" d="M0.529796 9.15152H5.53233C5.67265 9.15215 5.80703 9.20748 5.90625 9.30547C6.00546 9.40345 6.06149 9.53617 6.06213 9.67474V19.2783C6.06213 19.4173 6.00639 19.5507 5.90711 19.6492C5.80782 19.7477 5.67307 19.8033 5.53233 19.804H0.529796C0.389061 19.8033 0.254311 19.7477 0.155024 19.6492C0.0557381 19.5507 -1.48066e-06 19.4173 0 19.2783L0 9.67715C-1.48066e-06 9.53816 0.0557381 9.40483 0.155024 9.30632C0.254311 9.20782 0.389061 9.15216 0.529796 9.15152ZM7.28286 18.9118V10.0099H11.3381C13.0471 10.3137 14.7757 11.2348 16.4945 12.3029H19.6439C21.0697 12.3873 21.8144 13.8147 20.4301 14.7526C19.3265 15.5507 17.869 15.5073 16.3773 15.3747C15.347 15.3241 15.3006 16.6912 16.3773 16.696C16.7484 16.7249 17.1537 16.6381 17.5101 16.6381C19.3729 16.6381 20.9086 16.2837 21.8486 14.8298L22.3198 13.7327L27.0049 11.4373C29.3487 10.6754 31.0138 13.0986 29.2877 14.7815C26.0215 17.1408 22.527 19.1752 18.8554 20.8552C16.2723 22.408 13.6868 22.355 11.1013 20.8552L7.28286 18.9118ZM23.9507 5.84343C23.922 5.82289 23.8895 5.80825 23.855 5.80039C23.8205 5.79254 23.7848 5.79162 23.7499 5.79769C23.715 5.80377 23.6818 5.81671 23.6521 5.83576C23.6224 5.8548 23.5969 5.87955 23.5771 5.90853L23.333 6.23886C23.2468 6.20278 23.1578 6.17375 23.0669 6.15206C22.9741 6.13036 22.8862 6.11107 22.791 6.0966L22.7177 5.66259C22.7047 5.59434 22.6664 5.53331 22.6103 5.4914C22.5813 5.47104 22.5482 5.45688 22.5134 5.44983C22.4785 5.44277 22.4425 5.44297 22.4077 5.45041L21.8583 5.54686C21.7893 5.55995 21.7276 5.59773 21.685 5.65295C21.6628 5.68088 21.6472 5.7133 21.6392 5.74789C21.6311 5.78249 21.6309 5.8184 21.6386 5.85307L21.7118 6.25815C21.6271 6.29511 21.5455 6.33864 21.4677 6.38835C21.3874 6.435 21.3107 6.48738 21.2382 6.54507L20.8647 6.30396C20.8373 6.28309 20.8057 6.26821 20.772 6.26031C20.7383 6.25241 20.7033 6.25167 20.6693 6.25815C20.6343 6.26403 20.6009 6.2769 20.5711 6.29597C20.5413 6.31504 20.5157 6.33991 20.496 6.36906L20.1786 6.81512C20.1564 6.84305 20.1408 6.87547 20.1328 6.91006C20.1248 6.94466 20.1246 6.98057 20.1322 7.01525C20.1375 7.04973 20.1502 7.08267 20.1696 7.11181C20.189 7.14095 20.2146 7.16559 20.2445 7.18403L20.579 7.42514C20.5417 7.50994 20.5123 7.5979 20.4911 7.68796C20.4657 7.77289 20.4446 7.85898 20.4276 7.94595L19.9882 8.02069C19.9536 8.02625 19.9206 8.03849 19.8908 8.05669C19.8611 8.07489 19.8353 8.09871 19.8148 8.12678C19.7939 8.15482 19.7793 8.18701 19.7721 8.22114C19.765 8.25528 19.7654 8.29054 19.7733 8.3245L19.871 8.86942C19.8833 8.93794 19.9218 8.99919 19.9784 9.04061C20.0072 9.06166 20.04 9.07661 20.0749 9.08449C20.1098 9.09238 20.1459 9.09303 20.1811 9.08642L20.5815 9.0165C20.618 9.10063 20.6621 9.18133 20.7133 9.25761C20.7607 9.34136 20.8138 9.42191 20.872 9.49873L20.6132 9.86281C20.5927 9.89065 20.578 9.92228 20.57 9.95583C20.562 9.98937 20.5609 10.0241 20.5668 10.0581C20.5805 10.1267 20.6208 10.1873 20.6791 10.2269L21.1381 10.5452C21.1667 10.5656 21.1992 10.58 21.2336 10.5875C21.2681 10.595 21.3037 10.5953 21.3383 10.5886C21.4091 10.5766 21.4727 10.5387 21.5165 10.4825L21.7607 10.1449C21.8474 10.1817 21.9373 10.2108 22.0292 10.2317C22.1191 10.256 22.2104 10.2745 22.3027 10.2872L22.3784 10.7212C22.3902 10.7899 22.4288 10.8513 22.4858 10.8924C22.5142 10.9131 22.5468 10.9275 22.5813 10.9346C22.6159 10.9416 22.6516 10.9412 22.686 10.9334L23.2378 10.8369C23.3071 10.8247 23.3692 10.7868 23.4111 10.7308C23.4329 10.7032 23.4484 10.6712 23.4564 10.637C23.4644 10.6029 23.4648 10.5674 23.4575 10.5331L23.3818 10.116C23.4667 10.0803 23.5484 10.0375 23.6259 9.98819C23.7065 9.93997 23.7846 9.88451 23.8701 9.83146L24.2388 10.0726C24.2667 10.0941 24.2992 10.1094 24.3337 10.1173C24.3683 10.1252 24.4042 10.1256 24.439 10.1184C24.474 10.1126 24.5075 10.0998 24.5373 10.0808C24.5671 10.0617 24.5927 10.0367 24.6123 10.0075L24.9346 9.55418C24.9555 9.52615 24.9701 9.49396 24.9773 9.45982C24.9845 9.42569 24.984 9.39043 24.9761 9.35647C24.9644 9.28637 24.926 9.22337 24.8687 9.18045L24.5268 8.9514C24.565 8.86584 24.5952 8.77708 24.6172 8.68617C24.6406 8.59716 24.6593 8.50703 24.6733 8.41612L25.1128 8.34138C25.1819 8.3285 25.2437 8.29068 25.2861 8.23529C25.3071 8.20725 25.3217 8.17506 25.3289 8.14093C25.336 8.10679 25.3356 8.07153 25.3276 8.03757L25.23 7.49265C25.2167 7.42448 25.1785 7.36353 25.1226 7.32146C25.0938 7.30041 25.061 7.28546 25.0261 7.27758C24.9912 7.26969 24.9551 7.26904 24.9199 7.27565L24.5195 7.34316C24.4802 7.26043 24.4361 7.17993 24.3877 7.10205C24.341 7.02242 24.288 6.94662 24.229 6.8754L24.4731 6.50649C24.4947 6.47962 24.5102 6.44851 24.5186 6.41525C24.527 6.38199 24.5282 6.34733 24.522 6.3136C24.5081 6.24443 24.4679 6.18314 24.4097 6.14241L23.9555 5.82896H23.9409L23.9507 5.84343ZM19.0433 1.4021C19.1185 1.44712 19.1833 1.50706 19.2338 1.57811L19.7221 2.25323C19.7719 2.32235 19.8084 2.40002 19.8295 2.48229C19.8478 2.56653 19.8478 2.65364 19.8295 2.73787C19.8157 2.82333 19.785 2.90526 19.7392 2.97899C19.6931 3.05096 19.6314 3.11191 19.5585 3.15741L19.1532 3.44916C19.1521 3.462 19.1521 3.4749 19.1532 3.48774C19.1727 3.55766 19.1874 3.63 19.2045 3.69992C19.2212 3.77469 19.2334 3.85037 19.2411 3.92657V3.95309L19.6659 4.02301C19.7521 4.03571 19.8348 4.06582 19.9087 4.11145C19.9826 4.15708 20.0463 4.21726 20.0956 4.28824C20.1467 4.35634 20.1825 4.43444 20.2006 4.5173C20.2177 4.60084 20.2177 4.68692 20.2006 4.77047L20.0639 5.60231C20.0518 5.68809 20.0219 5.77047 19.9761 5.84432C19.9304 5.91817 19.8696 5.98189 19.7977 6.0315C19.7247 6.08323 19.6416 6.11936 19.5536 6.13759C19.4682 6.15448 19.3802 6.15448 19.2948 6.13759L18.8065 6.05802C18.8065 6.07008 18.7894 6.08454 18.7845 6.09419C18.7455 6.15929 18.704 6.22198 18.66 6.28708C18.6161 6.35218 18.5721 6.41728 18.5282 6.47274L18.5111 6.49444L18.7552 6.83682V6.85129C18.8062 6.92341 18.8403 7.00574 18.8554 7.0924C18.8725 7.17594 18.8725 7.26203 18.8554 7.34557C18.8424 7.43087 18.8125 7.51281 18.7675 7.58669C18.7235 7.66048 18.6654 7.72517 18.5966 7.77717L17.9081 8.2594C17.8348 8.31179 17.7519 8.34948 17.6639 8.37031C17.5771 8.38976 17.487 8.38976 17.4002 8.37031C17.3141 8.35521 17.2314 8.32499 17.1561 8.2811C17.0822 8.2342 17.019 8.17261 16.9705 8.10026L16.6825 7.70242C16.6696 7.70496 16.6563 7.70496 16.6434 7.70242C16.5726 7.7193 16.4969 7.73859 16.4188 7.75306C16.3407 7.76752 16.2674 7.77958 16.1893 7.79164C16.1788 7.79401 16.168 7.79401 16.1575 7.79164L16.0892 8.20876C16.0767 8.29492 16.045 8.37727 15.9964 8.44988C15.9517 8.52262 15.8918 8.58509 15.8206 8.63312C15.7508 8.68219 15.6721 8.7174 15.5887 8.7368C15.504 8.75248 15.417 8.75248 15.3323 8.7368L14.49 8.59937C14.4033 8.58788 14.32 8.55881 14.2452 8.514C14.1704 8.46919 14.1058 8.4096 14.0555 8.33897C14.0031 8.26684 13.9665 8.18472 13.948 8.09785C13.9309 8.0135 13.9309 7.92662 13.948 7.84227L14.031 7.36004C14.018 7.35424 14.0057 7.34696 13.9944 7.33834L13.7991 7.21778C13.7307 7.16956 13.6673 7.12857 13.6111 7.08517L13.5891 7.06829L13.2424 7.30941H13.2278C13.1548 7.35968 13.0714 7.39344 12.9837 7.40826C12.8991 7.42521 12.8119 7.42521 12.7273 7.40826C12.641 7.39516 12.5581 7.36569 12.4832 7.32146C12.4103 7.27739 12.3459 7.22109 12.2927 7.15509L11.8044 6.46551C11.7532 6.39276 11.7167 6.31087 11.697 6.22439C11.6787 6.14016 11.6787 6.05304 11.697 5.96881C11.7111 5.88345 11.7418 5.80158 11.7873 5.72769C11.8375 5.65686 11.8994 5.5949 11.9704 5.54445L12.3733 5.26234C12.371 5.24878 12.371 5.23492 12.3733 5.22135C12.3562 5.15143 12.3367 5.07668 12.322 4.99953C12.3074 4.92237 12.2903 4.85004 12.283 4.77529V4.81146L11.8606 4.74395C11.774 4.73066 11.6909 4.70032 11.6164 4.65473C11.5438 4.60833 11.4808 4.54858 11.4309 4.47872C11.3782 4.40706 11.3423 4.32469 11.3259 4.23761C11.3115 4.15786 11.3115 4.07624 11.3259 3.99649L11.4626 3.16465C11.4751 3.079 11.5052 2.99677 11.5509 2.92298C11.5967 2.84919 11.6572 2.78538 11.7287 2.73546C11.8018 2.68374 11.8849 2.6476 11.9729 2.62937C12.0583 2.61248 12.1463 2.61248 12.2317 2.62937L12.72 2.70894L12.7419 2.67277C12.781 2.60767 12.8225 2.54498 12.8665 2.47988C12.9104 2.41478 12.9544 2.34968 13.0007 2.29422L13.0154 2.27252L12.8054 1.91808C12.7517 1.84642 12.7143 1.76419 12.6956 1.67697C12.6796 1.59737 12.6796 1.51546 12.6956 1.43586C12.7089 1.34991 12.7405 1.26773 12.7883 1.19474C12.8339 1.1205 12.8946 1.05645 12.9666 1.00667L13.6502 0.524442C13.7243 0.474619 13.807 0.438659 13.8943 0.418352C13.9796 0.400231 14.0678 0.400231 14.1531 0.418352C14.2395 0.432312 14.3224 0.462602 14.3973 0.507564C14.4691 0.554383 14.5305 0.615078 14.5779 0.685989L14.8733 1.08865L14.8929 1.04766L15.115 0.994615C15.1907 0.977737 15.2664 0.968093 15.3445 0.956037C15.3445 0.956037 15.3641 0.956037 15.3763 0.956037L15.4446 0.538909C15.4571 0.452749 15.4888 0.370399 15.5374 0.297794C15.583 0.224945 15.6438 0.162486 15.7156 0.114547C15.7857 0.0658991 15.8644 0.0307251 15.9476 0.010868C16.0324 -0.00362268 16.1191 -0.00362268 16.2039 0.010868L17.0487 0.133836C17.1347 0.147777 17.2175 0.177198 17.2928 0.220638C17.3678 0.26498 17.432 0.325072 17.4808 0.396651C17.5342 0.468506 17.5716 0.550663 17.5907 0.637766C17.6063 0.723069 17.6063 0.810456 17.5907 0.895758L17.5101 1.37799L17.5467 1.39728L17.7396 1.52025C17.808 1.56606 17.8714 1.60946 17.93 1.65286L17.9496 1.66733L18.3011 1.42621C18.3734 1.37315 18.4569 1.33688 18.5453 1.32012C18.6307 1.3033 18.7187 1.3033 18.8041 1.32012C18.8911 1.3332 18.9743 1.36443 19.0482 1.41174L19.0433 1.4021ZM16.3089 3.0899C16.2189 3.05647 16.1256 3.03223 16.0306 3.01757C15.9361 3.00275 15.8405 2.9963 15.7449 2.99828C15.6571 3.00296 15.5698 3.01424 15.4837 3.03203H15.4666C15.3758 3.05379 15.2875 3.08448 15.2029 3.12366C15.117 3.1581 15.0351 3.20176 14.9588 3.25386C14.8854 3.30471 14.8182 3.36377 14.7586 3.42987C14.6938 3.49734 14.6358 3.57082 14.5852 3.64929C14.5364 3.72576 14.4947 3.80647 14.4607 3.8904C14.3931 4.06821 14.3624 4.25762 14.3704 4.44738C14.3748 4.53494 14.3862 4.62201 14.4046 4.70778C14.4049 4.7134 14.4049 4.71904 14.4046 4.72466C14.427 4.81497 14.4581 4.90297 14.4974 4.98747C14.533 5.06819 14.5772 5.14497 14.6292 5.21653C14.6807 5.289 14.7405 5.35535 14.8074 5.41425C14.8751 5.47821 14.9496 5.5348 15.0296 5.58303C15.1065 5.63215 15.1883 5.67335 15.2737 5.70599C15.454 5.77197 15.6455 5.80308 15.8377 5.79762C15.9301 5.79764 16.0224 5.79038 16.1136 5.77592C16.1136 5.77592 16.1136 5.77592 16.1282 5.77592C16.3031 5.73133 16.4685 5.65621 16.6165 5.55409C16.6893 5.50253 16.7565 5.44354 16.8167 5.37808C16.8809 5.31072 16.9382 5.23722 16.9876 5.15866C17.0374 5.08271 17.0791 5.00191 17.1122 4.91755C17.1471 4.82899 17.1717 4.73676 17.1854 4.64268C17.2111 4.54017 17.2234 4.43483 17.222 4.32923C17.2172 4.24822 17.2066 4.16764 17.1903 4.08812C17.1903 4.08812 17.1903 4.08812 17.1903 4.07124C17.1664 3.97885 17.1328 3.88915 17.0902 3.8036C17.0535 3.71953 17.0094 3.63884 16.9583 3.56249C16.9055 3.49107 16.8458 3.42486 16.7801 3.36477C16.7111 3.30226 16.6368 3.24579 16.5579 3.19599C16.48 3.14867 16.3984 3.10755 16.3138 3.07302L16.3089 3.0899ZM15.8206 1.99765C16.3007 1.99718 16.7701 2.13718 17.1696 2.39998C17.5692 2.66277 17.8809 3.03658 18.0655 3.47422C18.2501 3.91185 18.2993 4.39368 18.2068 4.85888C18.1143 5.32409 17.8843 5.75181 17.5459 6.08804C17.2075 6.42428 16.7758 6.65395 16.3053 6.74807C15.8348 6.8422 15.3467 6.79654 14.9024 6.61688C14.4582 6.43722 14.0778 6.1316 13.8093 5.73861C13.5408 5.34562 13.3962 4.88287 13.3938 4.4088C13.3912 4.09334 13.4517 3.78048 13.5717 3.48812C13.6917 3.19576 13.8689 2.92965 14.0932 2.70502C14.3175 2.48038 14.5844 2.30164 14.8788 2.17902C15.1731 2.0564 15.489 1.99231 15.8084 1.99042L15.8206 1.99765ZM22.3491 7.12616C22.4925 7.09725 22.6403 7.09725 22.7836 7.12616C22.921 7.15689 23.0511 7.21337 23.167 7.29253C23.282 7.37246 23.3799 7.47407 23.455 7.59151C23.5357 7.71115 23.5882 7.84707 23.6089 7.98935C23.6369 8.13107 23.6369 8.27681 23.6089 8.41853C23.576 8.55702 23.5181 8.68852 23.438 8.80673C23.3548 8.91929 23.2513 9.01574 23.1328 9.09124C23.0124 9.17055 22.8756 9.22244 22.7324 9.24314C22.589 9.27212 22.4412 9.27212 22.2978 9.24314C22.1608 9.21265 22.0308 9.15703 21.9145 9.07919C21.7998 8.99713 21.7013 8.89497 21.624 8.77779C21.5461 8.65763 21.4938 8.5231 21.4701 8.38237C21.4472 8.23728 21.4522 8.08921 21.4848 7.94595C21.5165 7.81049 21.5737 7.68209 21.6533 7.5674C21.7354 7.45416 21.838 7.35688 21.956 7.28047C22.0784 7.20323 22.2155 7.15153 22.3588 7.12857L22.3491 7.12616ZM3.03229 10.7718C3.18773 10.7718 3.3397 10.8172 3.46911 10.9023C3.59851 10.9873 3.69958 11.1083 3.75961 11.2499C3.81964 11.3915 3.83595 11.5474 3.8065 11.6982C3.77705 11.8489 3.70314 11.9877 3.59407 12.0971C3.48501 12.2064 3.34564 12.2815 3.19348 12.3129C3.04132 12.3443 2.88316 12.3306 2.73887 12.2735C2.59458 12.2164 2.47059 12.1185 2.38249 11.992C2.29439 11.8655 2.2461 11.7162 2.2437 11.5627C2.24337 11.4603 2.26355 11.3589 2.30307 11.2643C2.34258 11.1696 2.40066 11.0836 2.47395 11.0113C2.54724 10.9389 2.6343 10.8815 2.73012 10.8425C2.82595 10.8035 2.92864 10.7835 3.03229 10.7839V10.7718Z" fill="#F8F8F8"/>
</svg>
