<svg width="30" height="29" viewBox="0 0 30 29" fill="none" xmlns="http://www.w3.org/2000/svg">
<path fill-rule="evenodd" clip-rule="evenodd" d="M30.0001 22.9266V27.4893C30.0019 28.0898 29.5091 28.5826 28.9062 28.5826H26.3825L26.3837 21.8338L28.9073 21.835C29.5079 21.835 29.9989 22.3277 30.0001 22.9266ZM3.93879 20.441C3.93879 20.4902 3.93469 20.54 3.92648 20.5869L2.7675 21.2133C2.46808 21.085 2.25832 20.7873 2.25832 20.441V5.96016C2.25832 5.56348 2.41769 5.19902 2.67551 4.93418C2.94328 4.66172 3.30715 4.49766 3.70851 4.49766H4.64133C5.10422 4.49766 5.48156 4.87441 5.48156 5.33789C5.48156 5.80078 5.10422 6.17813 4.64133 6.17813H3.93879V20.441ZM11.7517 17.8693C11.2882 17.8693 10.9114 17.4926 10.9114 17.0291C10.9114 16.5662 11.2882 16.1889 11.7517 16.1889H20.6075C21.0704 16.1889 21.4472 16.5662 21.4472 17.0291C21.4472 17.4926 21.0704 17.8693 20.6075 17.8693H11.7517ZM11.7517 13.7537C11.2882 13.7537 10.9114 13.377 10.9114 12.9135C10.9114 12.4506 11.2882 12.0732 11.7517 12.0732H23.2091C23.672 12.0732 24.0487 12.4506 24.0487 12.9135C24.0487 13.377 23.672 13.7537 23.2091 13.7537H11.7517ZM20.4452 0.305859L27.3288 7.54395C27.6728 7.64883 27.923 7.96934 27.923 8.34727V19.8539L26.3837 19.8527L26.2431 19.858V9.33809L19.7966 9.3416C19.3337 9.3416 18.957 8.96426 18.957 8.50137V1.68047H8.52433V19.8949L6.84445 19.8979V1.46133C6.84445 1.06113 7.00969 0.695508 7.27336 0.432422C7.54055 0.165234 7.9091 0 8.30578 0H19.7023L19.7497 0.00117187L19.7966 0C20.0579 0 20.2911 0.118945 20.4452 0.305859ZM25.1286 7.66113L20.6368 2.93848V7.66113H25.1286ZM5.68254 28.616C4.48898 27.985 3.2925 27.3533 2.09719 26.7229C-0.391876 25.2451 -0.761603 25.698 1.50773 24.2115L5.68371 21.8801L25.107 21.835V28.5826L5.68254 28.616ZM5.68371 23.0314V27.4635C4.89914 27.0486 4.11398 26.6338 3.33058 26.2184C0.429022 24.8092 2.8009 24.7295 5.68371 23.0314Z" fill="#FFC107"/>
</svg>
