<svg width="30" height="36" viewBox="0 0 30 36" fill="none" xmlns="http://www.w3.org/2000/svg">
<path fill-rule="evenodd" clip-rule="evenodd" d="M0.168486 27.7116C-0.251474 29.3515 0.12849 31.1999 1.14268 32.7883C2.4397 26.0347 10.3904 28.9058 6.3079 35.1052C9.84185 34.8195 11.7502 32.0912 11.676 28.7316C11.6417 27.1488 11.676 26.2889 11.9245 25.569C12.0406 25.2428 12.2011 24.9342 12.4016 24.6519C12.2324 24.2523 12.144 23.8232 12.1416 23.3892V23.3064C12.1489 22.8107 12.2659 22.3228 12.4845 21.8779L10.3618 19.8124L9.77328 20.5923C9.19626 21.2787 8.55955 21.9125 7.87061 22.4864C7.4622 22.7418 7.02109 22.9408 6.55931 23.0778C3.71386 24.052 1.04269 24.3148 0.168486 27.7116ZM16.784 21.7122L4.21381 9.47338L2.49969 9.17056C2.29421 9.1319 2.10509 9.03236 1.95689 8.88487L0.497026 7.45643C0.299827 7.26367 0.187011 7.00065 0.183264 6.72492C0.179516 6.44918 0.285141 6.18319 0.477028 5.98514L2.23972 4.20531C2.43465 4.01097 2.69868 3.90184 2.97393 3.90184C3.24919 3.90184 3.51322 4.01097 3.70815 4.20531L5.00231 5.48805C5.14731 5.63011 5.24676 5.8121 5.288 6.01086L5.85937 8.09923L18.2839 20.2238L19.5495 18.9496C19.5681 18.9306 19.5903 18.9155 19.6149 18.9052C19.6394 18.8949 19.6657 18.8896 19.6923 18.8896C19.7189 18.8896 19.7453 18.8949 19.7698 18.9052C19.7943 18.9155 19.8166 18.9306 19.8352 18.9496L20.6608 19.7667C20.6959 19.8008 20.7172 19.8465 20.7208 19.8952C20.7551 20.1495 20.7751 20.3552 20.7951 20.5295C20.8379 20.9551 20.8608 21.1694 20.9379 21.2437C21.0151 21.318 21.2236 21.3294 21.6379 21.358C21.815 21.358 22.0293 21.3865 22.3149 21.4151C22.3615 21.4185 22.4052 21.4389 22.4378 21.4722L28.7858 27.8716C29.2986 28.2892 29.6734 28.8519 29.861 29.486C30.0486 30.1202 30.0402 30.7962 29.8371 31.4256C29.6853 31.8953 29.4328 32.3263 29.0972 32.6883C28.7645 33.0503 28.3516 33.3292 27.8916 33.5025C26.8202 33.8996 25.4804 33.6911 24.2148 32.4141L18.1496 26.2832C18.1164 26.249 18.0953 26.2049 18.0896 26.1575C18.0382 25.8118 18.0068 25.5319 17.9811 25.3004C17.9268 24.8405 17.8982 24.6005 17.8068 24.512C17.7154 24.4234 17.4468 24.4062 16.9097 24.3891C16.7241 24.3891 16.5069 24.3891 16.2527 24.3634C16.2033 24.3612 16.1565 24.3409 16.1213 24.3063L15.3099 23.5035C15.2722 23.4655 15.2511 23.4141 15.2511 23.3606C15.2511 23.3071 15.2722 23.2558 15.3099 23.2178L16.7869 21.7265L16.784 21.7122ZM20.0809 25.8947C20.0337 25.8479 19.9963 25.7923 19.9707 25.731C19.9452 25.6697 19.932 25.604 19.932 25.5376C19.932 25.4712 19.9452 25.4054 19.9707 25.3441C19.9963 25.2828 20.0337 25.2272 20.0809 25.1805C20.1762 25.0857 20.3051 25.0326 20.4394 25.0326C20.5738 25.0326 20.7027 25.0857 20.798 25.1805L26.2831 30.7399C26.3786 30.8346 26.4325 30.9634 26.4331 31.0979C26.4336 31.2324 26.3807 31.3615 26.286 31.457C26.1913 31.5525 26.0625 31.6064 25.9281 31.6069C25.7936 31.6075 25.6644 31.5546 25.5689 31.4599L20.0809 25.8947ZM21.5893 24.3691C21.4938 24.2748 21.4398 24.1464 21.4389 24.0122C21.4381 23.878 21.4907 23.7489 21.585 23.6535C21.6793 23.558 21.8077 23.5039 21.942 23.5031C22.0762 23.5023 22.2052 23.5548 22.3007 23.6492L27.8001 29.2144C27.8474 29.2611 27.885 29.3166 27.9108 29.3779C27.9366 29.4391 27.9501 29.5048 27.9505 29.5713C27.9509 29.6378 27.9382 29.7036 27.9131 29.7652C27.8881 29.8267 27.8511 29.8827 27.8044 29.93C27.7577 29.9773 27.7022 30.0149 27.6409 30.0407C27.5797 30.0665 27.5139 30.08 27.4475 30.0804C27.381 30.0808 27.3152 30.0681 27.2536 30.043C27.1921 30.0179 27.1361 29.981 27.0888 29.9343L21.5893 24.3691ZM19.141 15.8156L20.8379 13.5958C22.8806 10.8218 28.2058 12.4531 29.5114 7.38215C29.9285 5.75374 29.5485 3.9082 28.5429 2.31692C27.2459 9.07057 19.2981 6.19941 23.3806 0C19.8466 0.285687 17.9382 3.014 18.0125 6.37368C18.0468 7.84782 18.461 9.05057 17.064 10.919L15.427 13.093L18.4267 16.0156C18.6565 15.9221 18.8961 15.8551 19.141 15.8156Z" fill="#FFC107"/>
</svg>
