<svg width="30" height="27" viewBox="0 0 30 27" fill="none" xmlns="http://www.w3.org/2000/svg">
<path fill-rule="evenodd" clip-rule="evenodd" d="M6.83595 4.44891C6.7976 4.47414 6.76714 4.50968 6.74806 4.55145C6.72622 4.6031 6.71621 4.65899 6.71877 4.71502C6.74944 4.97422 6.85079 5.21999 7.01174 5.42547L7.62453 6.40203C7.85066 6.79822 8.12721 7.16341 8.44728 7.48846C8.76298 7.79341 9.18511 7.96331 9.62404 7.96209C9.85354 7.96694 10.0817 7.9263 10.2954 7.84249C10.5091 7.75868 10.7041 7.63338 10.8692 7.47381C11.2029 7.12601 11.4886 6.73519 11.7188 6.3117L12.4097 5.174C12.4621 5.0571 12.5054 4.93629 12.5391 4.81268C12.6489 4.37322 12.3633 4.47088 12.0313 4.46356C11.9904 4.46191 11.9496 4.45783 11.9092 4.45135L12.1533 3.55047C10.3955 3.82879 9.08205 2.52264 7.22658 3.28924L7.36086 4.37811C7.17287 4.37811 7.01662 4.32684 6.84084 4.44891H6.83595ZM18.2324 2.44207H27.9053C28.114 2.44335 28.3139 2.52685 28.4615 2.67446C28.6091 2.82207 28.6926 3.0219 28.6938 3.23065V9.63933C28.6926 9.84808 28.6091 10.0479 28.4615 10.1955C28.3139 10.3431 28.114 10.4266 27.9053 10.4279H24.3018L24.917 11.9782H28.8086C29.1244 11.9788 29.427 12.1046 29.6503 12.3279C29.8736 12.5512 29.9994 12.8538 30 13.1696V15.8893C30.0007 16.2064 29.8756 16.5108 29.6524 16.736C29.4291 16.9611 29.1257 17.0886 28.8086 17.0905H28.2056V25.2936C28.2056 25.5325 28.1107 25.7617 27.9417 25.9306C27.7728 26.0996 27.5436 26.1945 27.3047 26.1945H2.82961C2.58936 26.1932 2.35936 26.097 2.1897 25.9269C2.02005 25.7568 1.92449 25.5265 1.92385 25.2863V17.0905H1.19143C1.03412 17.0899 0.878487 17.0582 0.733432 16.9973C0.588376 16.9365 0.456749 16.8476 0.346084 16.7358C0.23542 16.624 0.147891 16.4915 0.0885095 16.3458C0.0291275 16.2001 -0.000941918 16.0442 2.24837e-05 15.8869V13.1672C0.000669118 12.8516 0.126477 12.5492 0.349839 12.3263C0.573201 12.1034 0.87587 11.9782 1.19143 11.9782H3.04445C3.04445 11.6486 3.04445 11.4631 3.04445 11.1335C3.04445 9.05828 6.5259 9.2072 7.72707 8.42351C7.84995 8.15562 7.95515 7.87996 8.04201 7.59832L8.05666 7.56902C7.78233 7.26728 7.5371 6.9403 7.32424 6.59246L6.71144 5.6159C6.51608 5.35712 6.39534 5.04978 6.36232 4.72723C6.35804 4.61657 6.37891 4.50639 6.42336 4.40496C6.46939 4.30571 6.54208 4.22119 6.63332 4.16082C6.67921 4.13028 6.72834 4.1049 6.7798 4.08514C6.73802 3.5499 6.72824 3.01265 6.7505 2.47625C6.76864 2.34239 6.79721 2.21015 6.83595 2.08075C6.96704 1.68847 7.19085 1.33361 7.48836 1.04629C7.78588 0.758976 8.14833 0.547685 8.54494 0.430356C8.92824 0.29852 8.78908 -0.0164211 9.16994 0.000668772C10.083 0.0519383 11.4966 0.642758 12.041 1.26532C12.793 2.14422 12.5977 3.07684 12.5708 4.15106C12.6503 4.17043 12.7228 4.21187 12.7798 4.27061C12.8368 4.32936 12.8761 4.40301 12.8931 4.48309C12.9263 4.7727 12.8683 5.06547 12.7271 5.32049C12.7254 5.32822 12.7211 5.33512 12.7149 5.34002L12.0166 6.48992C11.7699 6.93629 11.4635 7.34697 11.106 7.71062L11.0913 7.7326L11.2036 7.89617C11.3257 8.07439 11.4624 8.27703 11.5918 8.43572C12.5537 9.03386 15.94 9.16814 15.9985 10.6647L16.0498 11.9709H21.2402L21.9727 10.4206H18.2324C18.0237 10.4193 17.8238 10.3358 17.6762 10.1882C17.5286 10.0406 17.4451 9.84076 17.4439 9.63201V3.22332C17.4464 3.01565 17.5306 2.81732 17.6781 2.67115C17.8256 2.52498 18.0247 2.4427 18.2324 2.44207ZM1.1426 13.1257C1.13027 13.139 1.12331 13.1564 1.12307 13.1745V15.8869C1.1224 15.8959 1.1236 15.905 1.12661 15.9136C1.12962 15.9222 1.13437 15.93 1.14056 15.9367C1.14675 15.9433 1.15425 15.9486 1.16258 15.9522C1.17091 15.9559 1.1799 15.9577 1.18899 15.9577H28.8086C28.8179 15.9581 28.8271 15.9565 28.8358 15.953C28.8444 15.9495 28.8522 15.9443 28.8586 15.9376C28.8651 15.9309 28.8701 15.9229 28.8732 15.9142C28.8764 15.9055 28.8776 15.8962 28.877 15.8869V13.1672C28.8769 13.1579 28.8749 13.1488 28.8711 13.1404C28.8674 13.132 28.8619 13.1245 28.855 13.1183C28.8422 13.1049 28.8247 13.097 28.8062 13.0964C26.2476 13.0964 1.21828 13.0622 1.14992 13.1183L1.1426 13.1257ZM3.04445 17.0905V25.0812H27.0996V17.0905H3.04445ZM8.52541 9.52215C8.44886 9.45129 8.38778 9.36538 8.34601 9.2698C8.30424 9.17422 8.28268 9.07103 8.28268 8.96673C8.28268 8.86242 8.30424 8.75924 8.34601 8.66366C8.38778 8.56808 8.44886 8.48216 8.52541 8.41131C8.86285 8.51006 9.17678 8.67616 9.44826 8.89959C9.52552 8.86784 9.60909 8.85447 9.6924 8.86053C10.0113 8.65631 10.3489 8.48299 10.7007 8.34295C11.1524 8.7824 11.106 9.19011 10.6616 9.56365C10.4604 9.50644 10.2694 9.41831 10.0952 9.30242C10.0871 9.36849 10.0707 9.43329 10.0464 9.49529L10.5347 11.402C10.9107 10.611 11.3013 9.7907 11.3989 8.76775C11.2242 8.55632 11.0612 8.33545 10.9107 8.10613C10.874 8.05486 10.8423 8.00848 10.813 7.96209C10.4629 8.19489 10.0492 8.31345 9.62892 8.30144C9.15678 8.30637 8.69853 8.14178 8.33742 7.83758C8.24759 8.14332 8.12222 8.43749 7.96388 8.71404C7.95381 8.72816 7.94237 8.74125 7.9297 8.7531C8.10187 9.67759 8.41301 10.5707 8.85255 11.402L9.34083 9.49529C9.27881 9.40182 9.24491 9.29251 9.24318 9.18035C9.02188 9.33573 8.77347 9.44835 8.51076 9.51238L8.52541 9.52215Z" fill="#FFC107"/>
</svg>
