<svg width="30" height="26" viewBox="0 0 30 26" fill="none" xmlns="http://www.w3.org/2000/svg">
<path d="M15.6041 1.36348C13.1619 1.69746 10.8258 2.86641 9.08613 4.6125L9.08379 4.61484C8.71687 4.97998 8.37599 5.37039 8.06367 5.7832H11.5922C12.6135 4.31719 13.9494 2.84473 15.6041 1.36348ZM1.2252 12.1488H17.8846C18.5578 12.1488 19.1098 12.7008 19.1098 13.374V24.3609C19.1098 25.0318 18.5561 25.5861 17.8846 25.5861H1.2252C0.553125 25.5861 0 25.033 0 24.3609V13.374C0 12.7014 0.552539 12.1488 1.2252 12.1488ZM4.04297 22.7098C3.83086 22.7098 3.65918 22.5375 3.65918 22.326C3.65918 22.1145 3.83086 21.9422 4.04297 21.9422H7.9834C8.08514 21.9423 8.18267 21.9828 8.25461 22.0548C8.32655 22.1267 8.36703 22.2242 8.36719 22.326C8.36703 22.4277 8.32655 22.5252 8.25461 22.5972C8.18267 22.6691 8.08514 22.7096 7.9834 22.7098H4.04297ZM4.04297 20.8875C3.83086 20.8875 3.65918 20.7158 3.65918 20.5043C3.65918 20.2928 3.83086 20.1205 4.04297 20.1205H9.88359C9.98533 20.1207 10.0829 20.1611 10.1548 20.2331C10.2267 20.305 10.2672 20.4026 10.2674 20.5043C10.2674 20.7158 10.0951 20.8875 9.88359 20.8875H4.04297ZM12.6562 19.6723C13.2287 19.6723 13.7367 19.9482 14.0543 20.3748C14.3725 19.9482 14.8805 19.6723 15.4529 19.6723C16.4156 19.6723 17.1955 20.4527 17.1955 21.4148C17.1955 22.3775 16.4156 23.158 15.4529 23.158C14.8805 23.158 14.3725 22.8814 14.0543 22.4555C13.7367 22.8814 13.2287 23.158 12.6562 23.158C11.6936 23.158 10.9137 22.3775 10.9137 21.4148C10.9137 20.4527 11.6936 19.6723 12.6562 19.6723ZM0.748242 14.7568H18.3615V13.374C18.3615 13.1133 18.1453 12.8971 17.8846 12.8971H1.2252C0.961523 12.8971 0.748242 13.1104 0.748242 13.374V14.7568ZM18.3615 18.2016H0.748242V24.3609C0.748242 24.6223 0.963867 24.8379 1.2252 24.8379H17.8846C18.1453 24.8379 18.3615 24.6217 18.3615 24.3609V18.2016ZM27.1576 18.491C27.1822 18.491 27.2068 18.4928 27.2309 18.4951C28.1332 16.9096 28.6371 15.2273 28.7297 13.3916H25.3822C25.309 15.1148 24.7986 16.8146 23.8576 18.491H27.1576ZM26.4076 19.7455H23.0707C22.6723 20.3203 22.2234 20.8916 21.723 21.4611V18.491H22.4039C23.4691 16.8023 24.0492 15.1025 24.1318 13.3916H21.723V12.1371H24.1037C23.949 10.4625 23.3227 8.76328 22.217 7.0377H17.8629V9.7582H16.6084V7.0377H12.2543C11.6684 7.95176 11.2178 8.8582 10.8996 9.7582H9.58301C9.86602 8.8541 10.2691 7.94707 10.7936 7.0377H7.23867C6.75059 7.89609 6.36621 8.80371 6.11133 9.7582H4.81816C5.17031 8.28457 5.80723 6.86895 6.65039 5.6127C7.10412 4.93575 7.62321 4.30499 8.2002 3.72949C10.5896 1.33066 13.8469 0 17.2359 0C18.1143 0 18.9686 0.0832031 19.7977 0.249023C23.0449 0.898242 25.9781 2.86641 27.8215 5.6127C29.2611 7.75723 30 10.1725 30 12.7641C30 15.3598 29.26 17.7721 27.8215 19.916C26.4293 21.9891 24.5027 23.5453 22.2129 24.5303C22.0506 24.5994 21.8877 24.665 21.723 24.7271V23.3771C23.5887 22.5715 25.1818 21.3639 26.4076 19.7455ZM25.3582 12.1371H28.7297C28.6371 10.3031 28.1361 8.62676 27.2332 7.0377H23.6777C24.6639 8.74746 25.2217 10.4473 25.3582 12.1371ZM13.1396 5.7832H16.6084V2.1416C15.2197 3.36797 14.0643 4.58145 13.1396 5.7832ZM17.8629 5.7832H21.3322C20.407 4.58145 19.2521 3.36797 17.8629 2.1416V5.7832ZM22.8797 5.7832H26.4082C24.7424 3.58477 22.2586 2.02031 19.5527 1.47891C19.3266 1.43379 19.0986 1.3957 18.8678 1.36406C20.5225 2.84473 21.8578 4.31777 22.8797 5.7832Z" fill="#FFC107"/>
</svg>
