<svg width="30" height="35" viewBox="0 0 30 35" fill="none" xmlns="http://www.w3.org/2000/svg">
<g clip-path="url(#clip0_1467_8077)">
<path fill-rule="evenodd" clip-rule="evenodd" d="M20.4853 26.4041L20.4793 27.4541C20.4767 27.9454 20.0753 28.3447 19.5853 28.3434L18.6107 28.3387C18.466 28.8147 18.2613 29.2647 18.0013 29.6774L18.7193 30.4027C19.0653 30.7521 19.0633 31.3194 18.716 31.6654L17.9707 32.4054C17.62 32.7501 17.0527 32.7481 16.7067 32.3987L15.9333 31.6194C15.5268 31.8408 15.0941 32.0104 14.6453 32.1241L14.6393 33.2447C14.6373 33.7347 14.2347 34.1354 13.7427 34.1327L12.6933 34.1287C12.2033 34.1274 11.8027 33.7227 11.8053 33.2321L11.8093 32.1014C11.3657 31.9808 10.9385 31.8062 10.5373 31.5814L9.74334 32.3687C9.39668 32.7147 8.82868 32.7127 8.48268 32.3634L7.74334 31.6167C7.39734 31.2694 7.39934 30.7021 7.74734 30.3561L8.49934 29.6127C8.24764 29.2001 8.05045 28.7567 7.91268 28.2934L6.90268 28.2887C6.41134 28.2867 6.01068 27.8821 6.01334 27.3921L6.01868 26.3427C6.02134 25.8507 6.42334 25.4501 6.91334 25.4527L7.82868 25.4567C7.94452 24.9489 8.13219 24.4602 8.38601 24.0054L7.77868 23.3934C7.43268 23.0461 7.43534 22.4761 7.78334 22.1301L8.52868 21.3927C8.87868 21.0467 9.44534 21.0487 9.79134 21.3974L10.3447 21.9561C10.808 21.6687 11.3173 21.4514 11.8553 21.3094L11.8593 20.5501C11.8613 20.0601 12.2653 19.6607 12.7553 19.6627L13.8053 19.6674C14.296 19.6687 14.696 20.0727 14.694 20.5634L14.6913 21.3107C15.234 21.4527 15.7453 21.6774 16.2107 21.9661L16.7553 21.4261C17.1027 21.0827 17.67 21.0847 18.016 21.4327L18.7547 22.1781C19.1007 22.5261 19.0987 23.0961 18.7513 23.4407L18.1627 24.0221C18.416 24.4801 18.606 24.9787 18.7213 25.5047L19.5953 25.5087C20.0873 25.5114 20.488 25.9127 20.4853 26.4041ZM9.70534 5.78607C11.8027 5.8514 13.4507 7.60474 13.384 9.70541C13.32 11.8027 11.5653 13.4507 9.46601 13.3867C7.36868 13.3201 5.72001 11.5654 5.78601 9.46607C5.85134 7.36874 7.60468 5.7194 9.70534 5.78607ZM16.124 26.9114C16.1173 28.4974 14.8233 29.7807 13.2373 29.7714C11.648 29.7647 10.3667 28.4734 10.3747 26.8867C10.3807 25.2974 11.6753 24.0174 13.2613 24.0241C14.85 24.0301 16.1313 25.3227 16.124 26.9114ZM23.6453 15.2307C24.9267 14.9941 26.1553 15.8394 26.3927 17.1207C26.6307 18.4007 25.7827 19.6307 24.5027 19.8701C23.2213 20.1061 21.992 19.2601 21.7553 17.9794C21.5193 16.6981 22.3653 15.4667 23.6453 15.2307ZM9.19134 0.000737532L10.5793 0.0454042C11.2267 0.0660709 11.742 0.612738 11.7207 1.26207L11.6813 2.54607C12.3053 2.7554 12.892 3.04474 13.4287 3.40274L14.4147 2.4774C14.888 2.03274 15.6387 2.05607 16.082 2.5294L17.0333 3.5414C17.4793 4.01407 17.454 4.76674 16.9813 5.21074L15.9233 6.20407C16.1973 6.74407 16.4093 7.32207 16.5453 7.9274L18.026 7.97407C18.676 7.99407 19.1893 8.5414 19.1707 9.1914L19.126 10.5794C19.1053 11.2267 18.5587 11.7421 17.9087 11.7207L16.4127 11.6754C16.2373 12.2634 15.99 12.8207 15.682 13.3367L16.694 14.4147C17.138 14.8881 17.1153 15.6387 16.642 16.0821L15.63 17.0334C15.1567 17.4774 14.4047 17.4541 13.96 16.9814L13.0047 15.9634C12.456 16.2774 11.864 16.5247 11.2393 16.6901L11.1973 18.0261C11.1767 18.6761 10.63 19.1894 9.98001 19.1707L8.59401 19.1261C7.94401 19.1054 7.42934 18.5587 7.44934 17.9087L7.48801 16.7021C6.82067 16.5291 6.18089 16.2634 5.58734 15.9127L4.75601 16.6941C4.28468 17.1381 3.53268 17.1154 3.08801 16.6421L2.13801 15.6301C1.69401 15.1567 1.71668 14.4067 2.19001 13.9601L2.94801 13.2481C2.58159 12.6189 2.31191 11.9382 2.14801 11.2287L1.14401 11.1974C0.495343 11.1767 -0.0179902 10.6301 0.000676497 9.98007L0.0453432 8.5914C0.0660098 7.94407 0.612676 7.4294 1.26201 7.4494L2.25068 7.4814C2.45801 6.7674 2.77068 6.09874 3.17001 5.4934L2.47734 4.75607C2.03268 4.28474 2.05601 3.53274 2.52934 3.08807L3.54134 2.13807C4.01401 1.69407 4.76468 1.71674 5.21068 2.19007L5.95801 2.98607C6.57401 2.66807 7.23868 2.43474 7.93801 2.30074L7.97401 1.14407C7.99401 0.495404 8.54134 -0.0179291 9.19134 0.000737532ZM22.5693 11.7921L23.4187 11.6354C23.8147 11.5621 24.1973 11.8261 24.2707 12.2221L24.4153 13.0074C24.8213 13.0514 25.2153 13.1494 25.5887 13.2947L26.0633 12.6027C26.292 12.2721 26.7487 12.1881 27.0813 12.4161L27.792 12.9041C28.1227 13.1327 28.2067 13.5894 27.9807 13.9221L27.4693 14.6641C27.708 14.9554 27.912 15.2781 28.0727 15.6254L28.9773 15.4581C29.3733 15.3847 29.7573 15.6507 29.8307 16.0467L29.988 16.8927C30.0607 17.2887 29.7973 17.6721 29.4013 17.7454L28.4873 17.9154C28.4594 18.2911 28.3842 18.6619 28.2633 19.0187L29.02 19.5387C29.3507 19.7674 29.4367 20.2261 29.208 20.5567L28.72 21.2674C28.492 21.5981 28.0327 21.6834 27.702 21.4561L26.9873 20.9647C26.6967 21.2274 26.3693 21.4527 26.0133 21.6381L26.1647 22.4527C26.2373 22.8487 25.9733 23.2347 25.578 23.3067L24.7293 23.4641C24.336 23.5374 23.95 23.2734 23.8767 22.8754L23.7413 22.1401C23.3142 22.1237 22.8916 22.0469 22.486 21.9121L22.0847 22.4941C21.8573 22.8274 21.3993 22.9107 21.066 22.6834L20.356 22.1954C20.0247 21.9661 19.9387 21.5101 20.1673 21.1767L20.5333 20.6454C20.2285 20.3119 19.975 19.9349 19.7813 19.5267L19.1707 19.6394C18.7747 19.7127 18.3907 19.4487 18.3173 19.0527L18.16 18.2067C18.0873 17.8107 18.3507 17.4254 18.7467 17.3521L19.35 17.2407C19.3813 16.7821 19.484 16.3361 19.6453 15.9167L19.128 15.5607C18.7967 15.3327 18.7113 14.8734 18.94 14.5427L19.428 13.8334C19.656 13.4994 20.1153 13.4161 20.446 13.6441L21.0047 14.0274C21.336 13.7547 21.7087 13.5241 22.1133 13.3507L21.9827 12.6467C21.9093 12.2487 22.1733 11.8661 22.5693 11.7921Z" fill="#FFC107"/>
</g>
<defs>
<clipPath id="clip0_1467_8077">
<rect width="30" height="34.1327" fill="white"/>
</clipPath>
</defs>
</svg>
