<svg width="30" height="28" viewBox="0 0 30 28" fill="none" xmlns="http://www.w3.org/2000/svg">
<path fill-rule="evenodd" clip-rule="evenodd" d="M5.40261 17.562C4.55318 17.5642 3.72305 17.8154 3.01495 18.2846C2.30685 18.7538 1.75188 19.4203 1.41871 20.2016C1.08555 20.983 0.988823 21.8449 1.14051 22.6807C1.29219 23.5165 1.68562 24.2894 2.27211 24.9039C2.56735 24.3915 3.71414 24.2524 4.18262 24.0084C4.71697 23.7205 4.63645 23.4545 4.63401 22.9397H3.87762C1.98176 22.9397 3.19687 23.0129 3.4799 20.9877C3.92154 18.0134 6.91539 18.0158 7.30823 20.9877C7.57175 23.0934 8.84785 22.9397 6.91051 22.9397H6.159C6.159 23.4082 6.07604 23.6912 6.54696 23.9718C7.16427 24.3427 8.25494 24.4012 8.52578 24.9478C9.12781 24.3362 9.53506 23.56 9.69608 22.717C9.8571 21.8741 9.76465 21.0024 9.43043 20.212C9.0962 19.4216 8.53519 18.748 7.81828 18.2763C7.10137 17.8047 6.26074 17.5561 5.40261 17.562ZM8.47942 8.02166L8.23542 7.82402C7.68398 7.49706 6.85439 7.58002 6.31272 7.20426C6.27256 7.14253 6.23825 7.07718 6.21024 7.00907C6.16144 6.89439 6.11508 6.76507 6.0858 6.68211C6.20602 6.53355 6.31607 6.37703 6.4152 6.21363L6.74947 5.68172C6.85532 5.53917 6.92028 5.37045 6.93735 5.19372C6.94124 5.13424 6.93034 5.07473 6.90563 5.02048C6.88076 4.96587 6.84102 4.91937 6.79095 4.88629C6.7657 4.86958 6.7387 4.85567 6.71043 4.84481C6.73374 4.52735 6.73863 4.2088 6.72507 3.89077C6.71715 3.81819 6.70328 3.74637 6.68359 3.67606C6.59115 3.37533 6.39028 3.11967 6.11996 2.9587C5.97325 2.86721 5.81371 2.79813 5.6466 2.75375C5.54168 2.72203 5.73688 2.38531 5.62708 2.37311C5.09761 2.31943 4.24118 2.80254 3.87274 3.2027C3.67115 3.42832 3.55541 3.71769 3.54578 4.02009L3.5653 4.88385C3.52206 4.89531 3.4828 4.91845 3.45181 4.95072C3.42083 4.98299 3.39932 5.02317 3.38962 5.06684C3.37059 5.22417 3.40312 5.38343 3.48234 5.52068C3.48104 5.52464 3.48104 5.52892 3.48234 5.53288L3.86298 6.15995C3.99155 6.39208 4.14806 6.60759 4.32902 6.80167L4.27778 6.87487C4.20627 6.98781 4.1246 7.09398 4.03378 7.19206V7.20426C3.59702 7.5117 2.53075 7.58734 2.12328 7.81426H2.1062L1.8622 8.01434C1.32971 7.38176 0.988981 6.61026 0.880092 5.7906C0.771202 4.97095 0.898686 4.13724 1.24754 3.38758C1.5964 2.63792 2.15212 2.0035 2.84931 1.55896C3.5465 1.11441 4.35615 0.87825 5.18301 0.87825C6.00986 0.87825 6.81952 1.11441 7.51671 1.55896C8.2139 2.0035 8.76961 2.63792 9.11847 3.38758C9.46733 4.13724 9.59481 4.97095 9.48592 5.7906C9.37704 6.61026 9.0363 7.38176 8.50382 8.01434L8.47942 8.02166ZM9.21141 11.3034L7.63275 9.72232C6.55004 10.3303 5.2834 10.5244 4.06831 10.2686C2.85322 10.0128 1.77237 9.32441 1.02672 8.33149C0.281063 7.33858 -0.0786611 6.10867 0.0144257 4.87044C0.107513 3.63221 0.647076 2.46991 1.5328 1.59964C2.44155 0.640581 3.68563 0.0696207 5.00531 0.00595721C6.325 -0.0577063 7.61826 0.390848 8.61511 1.25797C9.61196 2.1251 10.2353 3.34377 10.3551 4.65954C10.4748 5.97532 10.0817 7.2865 9.25777 8.31933L10.3484 9.41C10.4094 9.34412 10.4704 9.28069 10.5339 9.21725C11.0533 8.69735 11.67 8.28491 12.3489 8.00352C13.0277 7.72212 13.7554 7.57728 14.4903 7.57728C15.2252 7.57728 15.9529 7.72212 16.6317 8.00352C17.3106 8.28491 17.9273 8.69735 18.4467 9.21725C18.515 9.28557 18.5809 9.35633 18.6468 9.42708L19.8668 8.2071C19.1817 7.14266 18.9149 5.86231 19.1178 4.61283C19.3207 3.36336 19.9789 2.2332 20.9655 1.44019C21.9522 0.647176 23.1974 0.24745 24.4613 0.318052C25.7252 0.388654 26.9182 0.924587 27.8104 1.82255C28.7025 2.72052 29.2308 3.91695 29.2932 5.18125C29.3557 6.44555 28.9479 7.68822 28.1486 8.66973C27.3492 9.65125 26.2148 10.3021 24.9641 10.4969C23.7133 10.6917 22.4347 10.4167 21.3747 9.72476L19.7716 11.3205C20.2314 12.6408 20.1818 14.0852 19.6326 15.3709L22.0725 17.6913C23.132 16.9987 24.4104 16.7229 25.6612 16.9168C26.912 17.1108 28.0468 17.7608 28.8468 18.7417C29.6468 19.7226 30.0554 20.9649 29.9939 22.2291C29.9325 23.4934 29.4052 24.6902 28.5138 25.5888C27.6224 26.4874 26.4299 27.0243 25.1662 27.096C23.9024 27.1677 22.6569 26.769 21.6696 25.977C20.6823 25.1849 20.0231 24.0554 19.8191 22.8062C19.6151 21.557 19.8806 20.2764 20.5646 19.2114L18.4052 17.1765C17.478 18.0844 16.264 18.642 14.971 18.7537C13.678 18.8654 12.3864 18.5244 11.3171 17.7889L9.79457 19.2285C10.4627 20.2994 10.7121 21.5792 10.4949 22.8226C10.2776 24.066 9.60913 25.1854 8.61748 25.9663C7.62583 26.7473 6.38084 27.1347 5.12117 27.0543C3.86151 26.974 2.67583 26.4315 1.79144 25.5309C0.86213 24.6335 0.306098 23.4182 0.234673 22.1283C0.163247 20.8384 0.5817 19.5691 1.40625 18.5746C2.2308 17.5801 3.40058 16.9338 4.68138 16.765C5.96218 16.5962 7.25947 16.9175 8.3135 17.6644L9.81896 16.2444C9.3433 15.5217 9.04118 14.6988 8.9362 13.8399C8.83123 12.9811 8.92626 12.1097 9.21385 11.2937L9.21141 11.3034ZM21.0648 8.45109C21.3357 7.91186 22.4263 7.8533 23.0436 7.4751C23.5146 7.20182 23.434 6.92855 23.4316 6.44055H22.6996C20.7623 6.44055 22.0384 6.59427 22.3019 4.48857C22.6947 1.51668 25.6886 1.51424 26.1302 4.48857C26.4133 6.51375 27.6259 6.44055 25.7325 6.44055H24.9761C24.9761 6.95783 24.8907 7.22134 25.4275 7.50926C25.8887 7.75326 27.0354 7.90698 27.3331 8.41693C27.921 7.80111 28.3148 7.026 28.4655 6.18807C28.6162 5.35015 28.5172 4.4864 28.1807 3.70432C27.8443 2.92225 27.2853 2.25638 26.5733 1.78958C25.8613 1.32278 25.0278 1.07566 24.1764 1.07898C23.325 1.0823 22.4934 1.33591 21.7851 1.80825C21.0768 2.28059 20.523 2.9508 20.1927 3.73548C19.8623 4.52015 19.7701 5.38465 19.9273 6.22137C20.0845 7.0581 20.4844 7.83011 21.077 8.44133L21.0648 8.45109ZM21.5528 24.7843L21.809 24.5867C22.3605 24.2597 23.19 24.3427 23.7317 23.9669C23.771 23.9051 23.8045 23.8397 23.8318 23.7717C23.883 23.657 23.9294 23.5277 23.9586 23.4448C23.8376 23.2968 23.7275 23.1402 23.6292 22.9763L23.295 22.4444C23.1875 22.3027 23.1224 22.1335 23.1071 21.9564C23.1032 21.8969 23.1141 21.8374 23.1388 21.7831C23.1637 21.7285 23.2034 21.682 23.2535 21.6489C23.2787 21.6322 23.3057 21.6183 23.334 21.6075C23.3107 21.29 23.3058 20.9714 23.3194 20.6534C23.3273 20.5808 23.3412 20.509 23.3608 20.4387C23.4602 20.1364 23.6691 19.8822 23.9464 19.7262C24.0932 19.6337 24.2527 19.563 24.4198 19.5164C24.5247 19.4847 24.3295 19.148 24.4393 19.1358C24.9688 19.0821 25.8252 19.5652 26.1937 19.9653C26.3952 20.191 26.511 20.4803 26.5206 20.7827L26.5011 21.6465C26.5443 21.658 26.5836 21.6811 26.6146 21.7134C26.6456 21.7456 26.6671 21.7858 26.6768 21.8295C26.6958 21.9868 26.6633 22.1461 26.5841 22.2833L26.2034 22.9104C26.0749 23.1425 25.9183 23.358 25.7374 23.5521L25.7886 23.6253C25.8608 23.7378 25.9424 23.8439 26.0326 23.9425C26.4694 24.25 27.5332 24.3256 27.9431 24.5525H27.9602L28.2042 24.7526C28.7367 24.12 29.0774 23.3485 29.1863 22.5289C29.2952 21.7092 29.1677 20.8755 28.8189 20.1258C28.47 19.3762 27.9143 18.7417 27.2171 18.2972C26.5199 17.8527 25.7102 17.6165 24.8834 17.6165C24.0565 17.6165 23.2469 17.8527 22.5497 18.2972C21.8525 18.7417 21.2968 19.3762 20.9479 20.1258C20.5991 20.8755 20.4716 21.7092 20.5805 22.5289C20.6894 23.3485 21.0301 24.12 21.5626 24.7526L21.5528 24.7843ZM11.0926 16.2981C11.8246 16.0004 12.5054 16.0833 13.1129 15.6588C13.1595 15.5806 13.2003 15.499 13.2349 15.4148C13.2959 15.2757 13.3496 15.1244 13.3862 15.0195C13.2397 14.841 13.1067 14.6518 12.9885 14.4534L12.5883 13.8142C12.46 13.6444 12.3807 13.4427 12.359 13.231C12.3567 13.1599 12.37 13.0891 12.398 13.0236C12.4284 12.9579 12.4766 12.9021 12.5371 12.8626C12.5673 12.842 12.6001 12.8256 12.6347 12.8138C12.6061 12.4314 12.5996 12.0477 12.6152 11.6645C12.6246 11.5764 12.6409 11.4891 12.664 11.4035C12.7762 11.042 13.0177 10.7345 13.3423 10.5397C13.5188 10.431 13.7104 10.3487 13.9108 10.2957C14.0401 10.2591 13.8034 9.85164 13.9352 9.837C14.572 9.77112 15.6042 10.3543 16.0482 10.835C16.289 11.1047 16.4287 11.4497 16.4435 11.8109L16.4191 12.8528C16.4709 12.8665 16.518 12.8942 16.555 12.933C16.5921 12.9717 16.6176 13.02 16.6289 13.0724C16.6509 13.2616 16.6125 13.4529 16.5191 13.619V13.6336L16.0629 14.3876C15.9074 14.6669 15.719 14.9266 15.5017 15.161L15.5602 15.2464C15.6482 15.3839 15.7486 15.513 15.8603 15.6319V15.6441C16.4581 16.0663 17.1584 15.9906 17.8831 16.2859C18.4896 15.6262 18.8909 14.8043 19.038 13.9203C19.1852 13.0364 19.0717 12.1287 18.7115 11.3082C18.3513 10.4877 17.76 9.78982 17.0097 9.29981C16.2594 8.8098 15.3827 8.54887 14.4866 8.54887C13.5905 8.54887 12.7138 8.8098 11.9636 9.29981C11.2133 9.78982 10.622 10.4877 10.2618 11.3082C9.90161 12.1287 9.78814 13.0364 9.93524 13.9203C10.0823 14.8043 10.4837 15.6262 11.0902 16.2859L11.0926 16.2981Z" fill="#FFC107"/>
</svg>
