<svg width="30" height="27" viewBox="0 0 30 27" fill="none" xmlns="http://www.w3.org/2000/svg">
<path d="M0.959082 1.91895C0.704718 1.91895 0.460772 1.81791 0.280909 1.63805C0.101046 1.45818 0 1.21424 0 0.959872C0 0.705508 0.101046 0.461561 0.280909 0.281698C0.460772 0.101836 0.704718 0.000789746 0.959082 0.000789746H3.45318H3.54836C4.36707 -0.0146154 5.17423 0.195617 5.8814 0.608453C6.67396 1.11485 7.23577 1.91243 7.4457 2.82923C7.52379 3.17333 7.60677 3.51743 7.68974 3.86152H29.0409C29.1667 3.8612 29.2914 3.88571 29.4078 3.93364C29.5241 3.98157 29.6299 4.05199 29.7189 4.14085C29.808 4.22972 29.8787 4.33529 29.9269 4.45151C29.9752 4.56773 30 4.69233 30 4.81817C30 4.91921 29.9844 5.01965 29.9536 5.1159L27.4595 15.1509C27.4093 15.3591 27.2905 15.5445 27.1224 15.6772C26.9542 15.81 26.7464 15.8824 26.5322 15.883H10.8989C11.2503 17.1545 11.5724 17.8353 12.0459 18.1623C12.5999 18.5333 13.5858 18.5601 15.2184 18.5333H15.2355H26.2588C26.5132 18.5333 26.7572 18.6343 26.937 18.8142C27.1169 18.9941 27.2179 19.238 27.2179 19.4924C27.2179 19.7467 27.1169 19.9907 26.937 20.1705C26.7572 20.3504 26.5132 20.4515 26.2588 20.4515H15.2428C13.2246 20.4881 11.9775 20.4295 10.9819 19.7584C9.98617 19.0873 9.42976 17.9159 8.89043 15.7805L5.59343 3.33439C5.50102 2.8879 5.23844 2.4949 4.8613 2.23865C4.44926 2.01521 3.98509 1.9057 3.51664 1.92139H0.959082V1.91895ZM23.428 21.5594C23.8913 21.5594 24.3443 21.6968 24.7296 21.9542C25.1148 22.2117 25.4151 22.5776 25.5924 23.0056C25.7697 23.4337 25.8161 23.9048 25.7257 24.3593C25.6353 24.8137 25.4122 25.2312 25.0846 25.5588C24.7569 25.8864 24.3395 26.1096 23.885 26.2C23.4306 26.2904 22.9595 26.244 22.5314 26.0667C22.1033 25.8893 21.7374 25.5891 21.48 25.2038C21.2226 24.8185 21.0852 24.3656 21.0852 23.9022C21.0852 23.2808 21.332 22.6849 21.7714 22.2456C22.2107 21.8062 22.8066 21.5594 23.428 21.5594ZM13.1538 21.5594C13.6172 21.5594 14.0701 21.6968 14.4554 21.9542C14.8407 22.2117 15.141 22.5776 15.3183 23.0056C15.4956 23.4337 15.542 23.9048 15.4516 24.3593C15.3612 24.8137 15.1381 25.2312 14.8104 25.5588C14.4828 25.8864 14.0653 26.1096 13.6109 26.2C13.1564 26.2904 12.6854 26.244 12.2573 26.0667C11.8292 25.8893 11.4633 25.5891 11.2059 25.2038C10.9484 24.8185 10.811 24.3656 10.811 23.9022C10.811 23.2808 11.0579 22.6849 11.4972 22.2456C11.9366 21.8062 12.5325 21.5594 13.1538 21.5594ZM19.0352 5.77725V9.27436H26.9544L27.8158 5.78945L19.0352 5.77725ZM19.0352 11.1803V13.9648H25.7927L26.4809 11.1803H19.0352ZM17.1097 13.9648V11.1803H9.67136C9.92679 12.1077 10.1708 13.0359 10.4035 13.9648H17.1097ZM17.1097 9.26216V5.77725H8.18515C8.49264 6.93888 8.81477 8.10052 9.13935 9.26216H17.1097Z" fill="#FFC107"/>
</svg>
