<svg width="30" height="31" viewBox="0 0 30 31" fill="none" xmlns="http://www.w3.org/2000/svg">
<path fill-rule="evenodd" clip-rule="evenodd" d="M15.9024 4.51557V20.2269H23.5976C23.6784 20.2269 23.7455 20.2934 23.7455 20.3749V20.7796H29.1611C29.624 20.7796 30 21.1551 30 21.6186C30 21.797 29.9437 21.9635 29.8485 22.0994C29.2299 23.1335 28.912 24.4455 28.912 25.7647C28.912 27.0742 29.2257 28.3719 29.8689 29.3874C30.115 29.7778 29.9976 30.2946 29.6066 30.5407C29.4677 30.6281 29.3132 30.6695 29.1611 30.6695L4.33413 30.6719C3.14731 30.6719 2.08683 30.0216 1.31198 29.0826C0.506587 28.1072 0 26.7928 0 25.5994C0 24.4066 0.5 23.1749 1.2988 22.2647C2.07784 21.3778 3.14611 20.7796 4.33413 20.7796H6.51437V20.3749C6.51437 20.2934 6.58084 20.2269 6.66228 20.2269H14.3575V4.52275C13.6874 4.29042 13.1563 3.75988 12.9228 3.08982H8.05748V3.82994C8.05748 3.91078 7.99042 3.97784 7.90958 3.97784H6.66108C6.57964 3.97784 6.51317 3.91078 6.51317 3.82994V3.08982H5.27545C5.18084 3.08982 5.10359 3.02335 5.10359 2.94192V1.69341C5.10359 1.61198 5.18084 1.54551 5.27545 1.54551H12.9281C13.2491 0.64491 14.109 0 15.1198 0C16.1299 0 16.9898 0.64491 17.3108 1.54551H24.9838C25.0784 1.54551 25.1563 1.61198 25.1563 1.69341V2.94192C25.1563 3.02335 25.0784 3.08982 24.9838 3.08982H23.5886V3.82994C23.5886 3.91078 23.5222 3.97784 23.4407 3.97784H22.1922C22.1108 3.97784 22.0443 3.91078 22.0443 3.82994V3.08982H17.3162C17.2014 3.41768 17.015 3.71581 16.7704 3.96246C16.5258 4.20911 16.2293 4.39807 15.9024 4.51557ZM27.5186 28.0713H20.0198C19.7772 28.0713 19.5802 27.8748 19.5802 27.6323C19.5802 27.3898 19.7772 27.1928 20.0198 27.1928H27.3407C27.2856 26.8275 27.2515 26.4581 27.2395 26.0874H19.8641C19.6216 26.0874 19.4246 25.8904 19.4246 25.6479C19.4246 25.4054 19.6216 25.2084 19.8641 25.2084H27.2497C27.2683 24.8904 27.3018 24.5725 27.3515 24.2587H21.9635C21.721 24.2587 21.524 24.0617 21.524 23.8192C21.524 23.5766 21.721 23.3802 21.9635 23.3802H27.5329C27.6144 23.0653 27.7114 22.7569 27.8251 22.4575H4.33413C3.66228 22.4575 3.03353 22.8234 2.55748 23.3659C2.01677 23.982 1.67784 24.8072 1.67784 25.5994C1.67784 26.4186 2.03533 27.3323 2.60359 28.0204C3.07784 28.5952 3.69102 28.994 4.33413 28.994H27.812C27.697 28.6946 27.5988 28.3862 27.5186 28.0713ZM23.2563 4.81737L28.2054 13.5617C28.2465 13.6338 28.2671 13.7158 28.2653 13.7988H28.2695C28.2701 13.8102 28.2707 13.821 28.2707 13.8317C28.2707 15.9144 25.8186 17.6036 22.7952 17.6036C19.8048 17.6036 17.3737 15.9509 17.3216 13.8994C17.3059 13.8367 17.3036 13.7713 17.315 13.7076C17.3263 13.644 17.351 13.5834 17.3874 13.5299L22.4485 4.79761C22.5754 4.57725 22.8575 4.5024 23.0772 4.62994C23.1569 4.67545 23.2174 4.74132 23.2563 4.81737ZM23.2754 6.71916V13.3275H27.015L23.2754 6.71916ZM22.3928 13.3275V6.72934L18.5689 13.3275H22.3928ZM7.67844 4.81737L12.6275 13.5617C12.6687 13.6338 12.6892 13.7158 12.6868 13.7988H12.6916C12.6916 13.8102 12.6922 13.821 12.6922 13.8317C12.6922 15.9144 10.2407 17.6036 7.21677 17.6036C4.22635 17.6036 1.79581 15.9509 1.74311 13.8994C1.73414 13.8632 1.72971 13.826 1.72994 13.7886C1.72994 13.6928 1.75868 13.6042 1.80898 13.5299L6.87006 4.79761C6.90036 4.74526 6.94067 4.69939 6.98871 4.66263C7.03674 4.62587 7.09154 4.59893 7.14999 4.58336C7.20843 4.56779 7.26937 4.56389 7.32933 4.57188C7.38928 4.57987 7.44707 4.5996 7.4994 4.62994C7.57844 4.67545 7.63892 4.74132 7.67844 4.81737ZM7.69701 6.71916V13.3275H11.4371L7.69701 6.71916ZM6.81497 13.3275V6.72934L2.99102 13.3275H6.81497ZM15.1198 1.31198C15.679 1.31198 16.1329 1.76587 16.1329 2.32575C16.1329 2.88503 15.679 3.33892 15.1198 3.33892C14.5599 3.33892 14.106 2.88503 14.106 2.32575C14.106 1.76587 14.5599 1.31198 15.1198 1.31198Z" fill="#FFC107"/>
</svg>
