<svg width="30" height="46" viewBox="0 0 30 46" fill="none" xmlns="http://www.w3.org/2000/svg">
<path d="M25.6047 41.3302C24.0266 42.9076 22.1165 44.1131 20.0135 44.8588C17.9105 45.6046 15.6677 45.8717 13.4484 45.6409C11.2291 45.4101 9.08923 44.687 7.18474 43.5245C5.28026 42.3619 3.65911 40.7892 2.43943 38.9208C1.21975 37.0524 0.432253 34.9354 0.134322 32.7241C-0.163609 30.5128 0.0355304 28.2629 0.71723 26.1383C1.39893 24.0137 2.54602 22.068 4.07491 20.4428C5.60381 18.8177 7.476 17.5541 9.55507 16.7442V14.5114H4.57237C3.73882 14.4742 3.15086 14.1989 2.80107 13.6779C1.94519 12.3941 2.96108 11.1289 3.78719 10.2023C6.1576 7.52301 12.119 2.26122 13.3916 0.772734C13.5826 0.53179 13.8255 0.337133 14.1023 0.203319C14.379 0.0695059 14.6825 0 14.9899 0C15.2973 0 15.6008 0.0695059 15.8775 0.203319C16.1543 0.337133 16.3972 0.53179 16.5882 0.772734C17.8236 2.23145 23.4761 7.18438 25.9731 9.92319C26.8513 10.8944 28.1202 12.2713 27.1936 13.6444C26.8513 14.1654 26.2559 14.4407 25.4223 14.478H20.4247V16.7107C22.7516 17.6133 24.8164 19.0822 26.4322 20.9844C28.048 22.8865 29.1636 25.1618 29.678 27.604C30.1923 30.0462 30.0892 32.5781 29.378 34.9704C28.6667 37.3627 27.3698 39.5397 25.6047 41.3042V41.3302ZM20.0414 32.8645C20.0483 33.8233 19.7295 34.7561 19.1372 35.5103C18.4319 36.3561 17.4521 36.9277 16.3686 37.1253L16.2012 38.5579H13.3916L13.0493 38.1858L13.1907 37.2704C12.096 37.155 11.0138 36.9421 9.95696 36.6341L10.6193 32.6896L11.0287 32.3733C11.6643 32.8793 12.3637 33.2997 13.1088 33.6236C13.6906 33.9083 14.3229 34.0752 14.9694 34.1148C15.3416 34.1148 15.5574 33.9846 15.5574 33.7203C15.5524 33.6179 15.5187 33.5189 15.4601 33.4347C15.4016 33.3504 15.3205 33.2844 15.2262 33.244C14.8499 33.0539 14.4621 32.8874 14.0652 32.7454C13.4251 32.5246 12.803 32.2546 12.2046 31.9379C11.676 31.6402 11.2227 31.2252 10.8798 30.7248C10.4855 30.1267 10.289 29.4199 10.3179 28.7042C10.3041 27.7364 10.6338 26.795 11.2482 26.0472C11.924 25.2546 12.8376 24.7012 13.8531 24.4694L13.987 22.8953H16.7407L17.1575 23.2675L17.0459 24.2759C17.9907 24.3643 18.9208 24.5705 19.8144 24.8899L19.1632 28.6521L18.5232 28.8232C17.9663 28.4504 17.3682 28.1433 16.7407 27.9078C16.2852 27.7158 15.8012 27.6001 15.3081 27.5655C14.9657 27.5655 14.7945 27.6697 14.7945 27.8818C14.7994 27.9949 14.8372 28.1041 14.9033 28.196C14.9694 28.2879 15.0609 28.3585 15.1667 28.399C15.5516 28.594 15.948 28.7655 16.3537 28.9125C16.9935 29.1297 17.6156 29.3959 18.2143 29.7089C18.7246 29.9975 19.1614 30.3999 19.4907 30.8848C19.8785 31.4673 20.0713 32.1579 20.0414 32.857V32.8645ZM14.9955 42.5396C17.3342 42.5404 19.6206 41.8474 21.5654 40.5485C23.5102 39.2496 25.0261 37.403 25.9212 35.2424C26.8164 33.0818 27.0506 30.7042 26.5942 28.4105C26.1379 26.1167 25.0115 24.0098 23.3575 22.3564C21.7035 20.7029 19.5963 19.5772 17.3024 19.1216C15.0085 18.6659 12.631 18.9009 10.4707 19.7967C8.31038 20.6926 6.46429 22.209 5.16597 24.1542C3.86765 26.0995 3.17544 28.3861 3.17691 30.7248C3.17691 33.8592 4.42208 36.8653 6.63849 39.0818C8.8549 41.2982 11.861 42.5433 14.9955 42.5433V42.5396Z" fill="#FFC107"/>
</svg>
