<svg width="30" height="31" viewBox="0 0 30 31" fill="none" xmlns="http://www.w3.org/2000/svg">
<path fill-rule="evenodd" clip-rule="evenodd" d="M14.9964 7.8678e-06C16.9627 -0.00200814 18.91 0.383425 20.7273 1.13428C22.5445 1.88514 24.196 2.98671 25.5873 4.37605L25.6044 4.39314L25.624 4.41268C28.4255 7.21757 29.9994 11.0197 30 14.984V15.0036V15.0207C30.0021 18.9844 28.4319 22.7871 25.6337 25.5945L25.6142 25.6116L25.5971 25.6311C22.7849 28.4337 18.9765 30.0073 15.0062 30.0073C11.0359 30.0073 7.22753 28.4337 4.41531 25.6311L4.39822 25.6116L4.37868 25.5945C1.57461 22.782 0 18.9726 0 15.0011C0 11.0297 1.57461 7.22021 4.37868 4.40779L4.38845 4.39558H4.40066C5.79074 3.00181 7.44224 1.89609 9.26048 1.14181C11.0787 0.38753 13.0279 -0.000485414 14.9964 7.8678e-06ZM13.4995 21.0621C13.3576 21.0497 13.2166 21.0294 13.077 21.0011L12.3444 20.8961L11.8878 20.8204C11.7413 20.7935 11.5923 20.7642 11.4458 20.7325C11.2993 20.7007 11.1479 20.6617 11.0209 20.6275L10.8475 20.5811V17.7337L11.6534 17.7996L12.2468 17.8338L12.867 17.8631L13.4971 17.8827H14.11H14.679C14.8524 17.8827 15.0038 17.8827 15.1332 17.8656C15.252 17.8605 15.3703 17.8475 15.4873 17.8265C15.5715 17.8079 15.6534 17.7801 15.7315 17.7435C15.7873 17.7157 15.8391 17.6804 15.8853 17.6385C15.9183 17.6041 15.944 17.5634 15.961 17.5188C15.9799 17.458 15.989 17.3945 15.9879 17.3308V17.1427C15.9934 17.0805 15.983 17.0178 15.9578 16.9606C15.9327 16.9034 15.8934 16.8535 15.8438 16.8155C15.7845 16.7724 15.7185 16.7394 15.6484 16.7178C15.569 16.6954 15.4868 16.6847 15.4042 16.6861H14.5789C14.0158 16.6938 13.4545 16.6231 12.911 16.4761C12.4539 16.3511 12.0286 16.1305 11.6631 15.829C11.3034 15.5133 11.0352 15.1068 10.8866 14.6519C10.711 14.1055 10.6285 13.5334 10.6424 12.9596V12.4541C10.6321 11.9091 10.7257 11.3671 10.9183 10.8571C11.0968 10.4029 11.3875 10.0013 11.7632 9.68981C12.0176 9.47062 12.2991 9.28513 12.6008 9.13792C12.8876 9.00497 13.1918 8.9137 13.5044 8.86686V7.58726H16.132V8.80825C16.5343 8.84434 16.9345 8.9014 17.331 8.97919L17.5508 9.01826C17.7363 9.05245 17.9195 9.08664 18.1026 9.12571C18.2858 9.16478 18.4372 9.19653 18.591 9.2356L18.7717 9.27711V12.1318L18.5275 12.1098C18.2752 12.087 18.0212 12.0675 17.7656 12.0512C17.4873 12.0341 17.2015 12.0195 16.911 12.0073C16.6204 11.995 16.32 11.9828 16.0563 11.9779C15.7925 11.9731 15.5508 11.9779 15.2797 11.9779C15.1356 11.9779 15.0013 11.978 14.8817 11.9926C14.7653 12.0007 14.6496 12.0154 14.5349 12.0366C14.4508 12.0519 14.3688 12.0774 14.2907 12.1123C14.2308 12.1399 14.1762 12.1779 14.1295 12.2246C14.0891 12.2635 14.0596 12.3123 14.0441 12.3662C14.0186 12.445 14.007 12.5277 14.0099 12.6104V12.7692C14.0091 12.8524 14.0231 12.9351 14.0514 13.0134C14.0783 13.0763 14.1202 13.1316 14.1735 13.1745C14.2417 13.2264 14.3198 13.2638 14.403 13.2844C14.5319 13.314 14.6639 13.328 14.7962 13.3259H15.834C16.1895 13.3231 16.5441 13.36 16.8914 13.4358C17.2024 13.5046 17.5019 13.6181 17.7803 13.7728C18.2889 14.0539 18.7033 14.4786 18.972 14.9938C19.1055 15.2534 19.2048 15.5292 19.2675 15.8143C19.3349 16.114 19.3685 16.4204 19.3676 16.7276V17.2453C19.3727 17.7048 19.3269 18.1635 19.2308 18.6128C19.1503 18.9846 19.003 19.3387 18.7962 19.658C18.6136 19.9375 18.381 20.1809 18.11 20.3759C17.8304 20.5739 17.5191 20.7226 17.1893 20.8155L17.1014 20.8399C16.7831 20.9403 16.4561 21.0106 16.1246 21.0499V22.4199H13.4995V21.0621ZM14.9964 4.13673C17.1457 4.13673 19.2467 4.77406 21.0337 5.96812C22.8208 7.16219 24.2136 8.85936 25.0361 10.845C25.8586 12.8307 26.0738 15.0156 25.6545 17.1236C25.2352 19.2315 24.2002 21.1678 22.6805 22.6876C21.1607 24.2073 19.2244 25.2423 17.1165 25.6616C15.0085 26.0809 12.8235 25.8657 10.8379 25.0432C8.85222 24.2207 7.15505 22.8279 5.96099 21.0409C4.76693 19.2538 4.1296 17.1528 4.1296 15.0036C4.1296 12.1215 5.27449 9.35748 7.31242 7.31956C9.35035 5.28163 12.1144 4.13673 14.9964 4.13673ZM15.6484 3.07935C16.2562 3.11446 16.8603 3.1961 17.4555 3.32355L17.9097 1.61416C17.1654 1.4533 16.4091 1.35447 15.6484 1.31868V3.07935ZM18.7131 3.66299C19.2917 3.85268 19.855 4.08616 20.3981 4.3614L21.2772 2.8376C20.6008 2.48257 19.8948 2.1868 19.1673 1.9536L18.7131 3.66299ZM21.5214 5.01341C22.0305 5.33972 22.5138 5.70465 22.9671 6.10497L24.2125 4.862C23.6496 4.34792 23.0443 3.88229 22.403 3.47007L21.5214 4.99631V5.01341ZM23.8902 7.04514C24.2964 7.49776 24.667 7.98108 24.9988 8.49079L26.5251 7.61168C26.1173 6.96587 25.6558 6.35565 25.1453 5.78752L23.9024 7.03293L23.8902 7.04514ZM25.6508 9.61411C25.9261 10.1572 26.1595 10.7205 26.3492 11.2991L28.0586 10.8449C27.8275 10.1181 27.535 9.41225 27.1844 8.73499L25.6606 9.61411H25.6508ZM26.6862 12.5445C26.8137 13.1397 26.8953 13.7438 26.9304 14.3516H28.6911C28.6553 13.5909 28.5565 12.8346 28.3956 12.0903L26.6862 12.5445ZM26.9304 15.6556C26.8953 16.2633 26.8137 16.8674 26.6862 17.4627L28.3956 17.9169C28.5565 17.1726 28.6553 16.4162 28.6911 15.6556H26.9304ZM26.359 18.7203C26.1693 19.2988 25.9358 19.8621 25.6606 20.4052L27.1844 21.2844C27.535 20.6071 27.8275 19.9013 28.0586 19.1745L26.3492 18.7203H26.359ZM25.0086 21.5286C24.6767 22.0389 24.3052 22.5222 23.8975 22.9742L25.1429 24.2196C25.657 23.6559 26.1226 23.0497 26.5348 22.4077L25.0086 21.5286ZM22.9768 23.8948C22.5243 24.3018 22.0409 24.6733 21.5312 25.0059L22.4127 26.5322C23.0535 26.1192 23.6587 25.6536 24.2223 25.1403L22.9768 23.8948ZM20.4079 25.658C19.8648 25.9332 19.3015 26.1667 18.7229 26.3564L19.1771 28.0658C19.9043 27.8357 20.6102 27.5432 21.287 27.1915L20.4079 25.6677V25.658ZM17.4775 26.6934C16.8823 26.8208 16.2781 26.9024 15.6704 26.9376V28.6982C16.4311 28.6624 17.1874 28.5636 17.9317 28.4027L17.4775 26.6934ZM14.3664 26.9376C13.7587 26.9024 13.1546 26.8208 12.5593 26.6934L12.1051 28.4027C12.8494 28.5636 13.6058 28.6624 14.3664 28.6982V26.9376ZM11.3017 26.3661C10.7231 26.1764 10.1599 25.943 9.61674 25.6677L8.73763 27.1915C9.41488 27.5422 10.1207 27.8346 10.8475 28.0658L11.3017 26.3564V26.3661ZM8.49343 25.0157C7.98368 24.6831 7.50036 24.3116 7.04777 23.9046L5.78038 25.1525C6.3433 25.6665 6.94862 26.1322 7.58989 26.5444L8.47145 25.0182L8.49343 25.0157ZM6.09784 22.9742C5.69084 22.5216 5.31937 22.0383 4.98673 21.5286L3.46049 22.4077C3.8727 23.0497 4.33833 23.6559 4.85243 24.2196L6.09784 22.9742ZM4.34205 20.4052C4.07098 19.8618 3.84159 19.2985 3.65585 18.7203L1.94646 19.1745C2.17757 19.9013 2.47004 20.6071 2.82069 21.2844L4.34449 20.4052H4.34205ZM3.30665 17.4749C3.1792 16.8796 3.09756 16.2755 3.06245 15.6678H1.31155C1.34734 16.4284 1.44617 17.1848 1.60703 17.9291L3.31642 17.4749H3.30665ZM3.06245 14.3638C3.09756 13.7561 3.1792 13.1519 3.30665 12.5567L1.59726 12.1025C1.44035 12.8431 1.34479 13.5953 1.31155 14.3516L3.06245 14.3638ZM3.65585 11.2869C3.84554 10.7083 4.07902 10.145 4.35426 9.6019L2.83046 8.72278C2.47646 9.39972 2.18072 10.1056 1.94646 10.8327L3.65585 11.2869ZM5.00383 8.47858C5.33177 7.96998 5.69747 7.48673 6.09784 7.03293L4.85487 5.78752C4.3402 6.35081 3.87453 6.957 3.46294 7.59947L4.98673 8.47858H5.00383ZM7.02579 6.10497C7.47842 5.69875 7.96174 5.3281 8.47145 4.99631L7.58989 3.47007C6.94918 3.88309 6.34393 4.34867 5.78038 4.862L7.02579 6.10497ZM9.59476 4.3443C10.1384 4.0749 10.7017 3.84714 11.2797 3.66299L10.8255 1.9536C10.0983 2.18365 9.39243 2.47615 8.71565 2.82783L9.59476 4.35163V4.3443ZM12.5251 3.3089C13.1204 3.18145 13.7245 3.09981 14.3322 3.0647V1.31868C13.5716 1.35447 12.8152 1.4533 12.0709 1.61416L12.5251 3.32355V3.3089Z" fill="#FFC107"/>
</svg>
