<svg width="30" height="19" viewBox="0 0 30 19" fill="none" xmlns="http://www.w3.org/2000/svg">
<path d="M12.0516 10.4183H16.5117C16.2363 10.6808 15.9621 10.9486 15.6932 11.2205L15.5918 11.3236H12.0516C11.7762 11.3236 11.5254 11.4367 11.3438 11.6183C11.1615 11.8006 11.049 12.0513 11.049 12.3267V16.5929C11.049 16.8595 11.1539 17.1021 11.3244 17.2826L11.3438 17.3007C11.526 17.483 11.7768 17.5961 12.0516 17.5961H12.8338V17.5978H15.4189L15.4201 17.5961H17.9484C18.2232 17.5961 18.474 17.483 18.6562 17.3013C18.8379 17.1191 18.951 16.8683 18.951 16.5929V12.8142C19.2299 12.4838 19.5111 12.1568 19.7924 11.8345C19.8346 11.9916 19.8568 12.1568 19.8568 12.3267V16.5929C19.8568 17.1162 19.6418 17.5931 19.2961 17.9388L19.2943 17.9406C18.948 18.2863 18.4711 18.5019 17.9484 18.5019H12.0516C11.5271 18.5019 11.0496 18.2869 10.7033 17.9406L10.6781 17.9131C10.3477 17.5697 10.1432 17.1039 10.1432 16.5929V12.3267C10.1432 11.8011 10.3576 11.3236 10.7033 10.9785C11.049 10.6328 11.526 10.4183 12.0516 10.4183ZM2.64375 4.55661C2.4791 4.29469 2.1709 3.93903 2.1709 3.632C2.1709 3.45856 2.30742 3.23239 2.50313 3.182C2.4873 2.92243 2.47734 2.65876 2.47734 2.39801C2.47734 2.24391 2.48027 2.08805 2.48613 1.93512C2.49434 1.83844 2.5125 1.74235 2.53828 1.64919C2.6584 1.25661 2.9209 0.923209 3.27363 0.714029C3.39902 0.635513 3.53437 0.57399 3.67324 0.523599C3.92637 0.431021 3.80391 0.00563052 4.08105 0.000357087C4.72852 -0.0166351 5.79375 0.576334 6.20918 1.02575C6.47378 1.31845 6.62435 1.69651 6.6334 2.09098L6.60703 3.22536C6.72246 3.25348 6.85078 3.34313 6.87949 3.45856C6.96797 3.81657 6.59648 4.26247 6.42363 4.54723C6.32344 4.71247 6.04453 5.11149 5.85234 5.38512C5.72461 5.56676 5.59395 5.62536 5.70996 5.79879C6.65508 7.09782 9.04863 6.16969 9.04863 8.75309H0C0 6.16794 2.39414 7.09782 3.33867 5.79879C3.46582 5.61188 3.35977 5.58903 3.21504 5.38102C3.00293 5.07516 2.68535 4.62223 2.64375 4.55661ZM23.5951 4.55661C23.4305 4.29469 23.1223 3.93903 23.1223 3.632C23.1223 3.45856 23.2588 3.23239 23.4545 3.182C23.4387 2.92243 23.4287 2.65876 23.4287 2.39801C23.4287 2.24391 23.4316 2.08805 23.4375 1.93512C23.4457 1.83844 23.4639 1.74235 23.4896 1.64919C23.6098 1.25661 23.8723 0.923209 24.2256 0.714029C24.3504 0.635513 24.4857 0.57399 24.6252 0.523599C24.8777 0.431021 24.7553 0.00563052 25.0324 0.000357087C25.6805 -0.0166351 26.7451 0.576334 27.1605 1.02575C27.4254 1.3183 27.576 1.69646 27.5848 2.09098L27.5584 3.22536C27.6738 3.25348 27.8027 3.34313 27.8309 3.45856C27.9193 3.81657 27.5479 4.26247 27.375 4.54723C27.2748 4.71247 26.9959 5.11149 26.8037 5.38512C26.676 5.56676 26.5453 5.62536 26.6613 5.79879C27.6064 7.09782 30 6.16969 30 8.75309H20.9514C20.9514 6.16794 23.3461 7.09782 24.29 5.79879C24.4172 5.61188 24.3111 5.58903 24.1664 5.38102C23.9543 5.07516 23.6367 4.62223 23.5951 4.55661ZM13.1191 4.55661C12.9551 4.29469 12.6463 3.93903 12.6463 3.632C12.6463 3.45856 12.7834 3.23239 12.9785 3.182C12.9633 2.92243 12.9533 2.65876 12.9533 2.39801C12.9533 2.24391 12.9563 2.08805 12.9615 1.93512C12.9703 1.83844 12.9879 1.74235 13.0137 1.64919C13.1338 1.25661 13.3969 0.923209 13.7496 0.714029C13.875 0.635513 14.0104 0.57399 14.1492 0.523599C14.4018 0.431021 14.2793 0.00563052 14.5564 0.000357087C15.2045 -0.0166351 16.2691 0.576334 16.6846 1.02575C16.9496 1.31825 17.1004 1.6964 17.1094 2.09098L17.083 3.22536C17.1984 3.25348 17.3268 3.34313 17.3555 3.45856C17.4439 3.81657 17.0725 4.26247 16.8996 4.54723C16.7988 4.71247 16.5205 5.11149 16.3277 5.38512C16.2 5.56676 16.0699 5.62536 16.1854 5.79879C17.1305 7.09782 19.524 6.16969 19.524 8.75309H10.476C10.476 6.16794 12.8701 7.09782 13.8146 5.79879C13.9412 5.61188 13.8357 5.58903 13.691 5.38102C13.4789 5.07516 13.1607 4.62223 13.1191 4.55661ZM2.11758 10.4183H6.93047C7.4543 10.4183 7.93125 10.6334 8.27754 10.9797C8.62441 11.3248 8.83945 11.8023 8.83945 12.3267V16.5929C8.83945 17.1173 8.62383 17.5943 8.27754 17.9406L8.25 17.9658C7.90547 18.2968 7.43965 18.5019 6.93047 18.5019H2.11758C1.59551 18.5019 1.11738 18.2863 0.771094 17.94C0.424219 17.5955 0.20918 17.1179 0.20918 16.5929V12.3267C0.20918 11.8011 0.424219 11.3236 0.769336 10.9785C1.11504 10.6328 1.59258 10.4183 2.11758 10.4183ZM6.93047 11.3236H2.11758C1.84219 11.3236 1.59141 11.4367 1.40977 11.6183C1.22812 11.8006 1.11504 12.0513 1.11504 12.3267V16.5929C1.11504 16.8677 1.22871 17.1185 1.41035 17.3002V17.3019C1.59141 17.4836 1.84219 17.5961 2.11758 17.5961H6.93047C7.19648 17.5961 7.43906 17.4906 7.61895 17.3201L7.6377 17.3002C7.81992 17.1179 7.93359 16.8672 7.93359 16.5929V12.3267C7.93359 12.0519 7.81992 11.8011 7.6377 11.6189V11.6172C7.5449 11.5241 7.43467 11.4503 7.31332 11.3999C7.19196 11.3496 7.06186 11.3236 6.93047 11.3236ZM23.0695 10.4183H27.8824C28.4062 10.4183 28.8826 10.6334 29.2289 10.9797C29.5758 11.3248 29.7908 11.8023 29.7908 12.3267V16.5929C29.7908 17.1173 29.5752 17.5943 29.2295 17.9406L29.2014 17.9658C28.8574 18.2968 28.391 18.5019 27.8824 18.5019H23.0695C22.5463 18.5019 22.0693 18.2869 21.723 17.9406H21.7213C21.3762 17.5955 21.1605 17.1179 21.1605 16.5929V12.3267C21.1605 11.8011 21.3756 11.3236 21.7213 10.9785L21.7488 10.9527C22.0922 10.6222 22.558 10.4183 23.0695 10.4183ZM27.8824 11.3236H23.0695C22.8029 11.3236 22.5598 11.4291 22.3793 11.5996L22.3611 11.6183C22.1795 11.8006 22.0664 12.0513 22.0664 12.3267V16.5929C22.0664 16.8677 22.1801 17.1185 22.3617 17.3002C22.5434 17.483 22.7941 17.5961 23.0695 17.5961H27.8824C28.1479 17.5961 28.391 17.4906 28.5703 17.3201L28.5891 17.3002C28.7713 17.1179 28.885 16.8672 28.885 16.5929V12.3267C28.885 12.0519 28.7719 11.8011 28.5896 11.6189V11.6172C28.4086 11.4367 28.1584 11.3236 27.8824 11.3236ZM13.7232 13.3263C14.1621 13.5789 14.448 13.7892 14.7885 14.1648C15.6715 12.7433 16.6682 11.9177 17.9145 10.7998L18.0363 10.7529H19.4004C17.5717 12.7838 16.2123 14.4056 14.8459 16.8543C14.025 15.4703 13.4719 14.5791 12.2783 13.6527L13.7232 13.3263Z" fill="#FFC107"/>
</svg>
