<svg width="30" height="31" viewBox="0 0 30 31" fill="none" xmlns="http://www.w3.org/2000/svg">
<g clip-path="url(#clip0_1467_8080)">
<path d="M15 0.595713H15.3913L13.3724 3.9681C11.0059 4.30068 8.79741 5.34783 7.04217 6.96951C5.28693 8.5912 4.06864 10.7101 3.55021 13.0429C3.03178 15.3757 3.23793 17.8112 4.14108 20.0237C5.04423 22.2361 6.60134 24.1201 8.60418 25.4237L7.70687 28.6939C4.80844 27.0763 2.5284 24.543 1.2239 21.4909C-0.0806038 18.4387 -0.335895 15.04 0.498015 11.8272C1.33193 8.6144 3.20793 5.76893 5.83219 3.73649C8.45645 1.70406 11.6807 0.599458 15 0.595713ZM17.4925 12.4875H20.8524C20.9683 12.4875 21.083 12.5104 21.1901 12.5547C21.2971 12.599 21.3944 12.664 21.4763 12.746C21.5583 12.8279 21.6233 12.9252 21.6676 13.0322C21.712 13.1393 21.7348 13.254 21.7348 13.3699C21.7362 13.5477 21.6832 13.7217 21.5827 13.8684L11.6127 30.6331L9.995 30.0025L13.1431 18.5095L9.15502 18.5768C8.99903 18.5794 8.84516 18.5404 8.70927 18.4638C8.57337 18.3871 8.46037 18.2757 8.3819 18.1408C8.30343 18.006 8.26234 17.8526 8.26285 17.6966C8.26337 17.5406 8.30548 17.3876 8.38483 17.2532L18.7238 0L20.3539 0.570788L17.49 12.4875H17.4925ZM22.4776 2.59472C25.3389 4.24366 27.5762 6.79064 28.8424 9.84066C30.1087 12.8907 30.3333 16.2733 29.4812 19.4639C28.6292 22.6546 26.7482 25.4749 24.1299 27.4876C21.5116 29.5003 18.3024 30.5928 15 30.5957H14.6037L16.5977 27.2233C18.9403 26.9023 21.1312 25.8811 22.8834 24.2935C24.6357 22.7059 25.8675 20.6261 26.4174 18.3264C26.9673 16.0268 26.8097 13.6147 25.9652 11.4062C25.1208 9.19764 23.6288 7.29573 21.6849 5.94965L22.4925 2.59472H22.4776Z" fill="#FFC107"/>
</g>
<defs>
<clipPath id="clip0_1467_8080">
<rect width="30" height="30.6281" fill="white"/>
</clipPath>
</defs>
</svg>
