<svg width="30" height="23" viewBox="0 0 30 23" fill="none" xmlns="http://www.w3.org/2000/svg">
<path fill-rule="evenodd" clip-rule="evenodd" d="M0.529796 9.26656H5.53233C5.67265 9.2672 5.80703 9.32322 5.90625 9.42244C6.00546 9.52166 6.06149 9.65604 6.06213 9.79635V19.5207C6.06213 19.6614 6.00639 19.7964 5.90711 19.8962C5.80782 19.9959 5.67307 20.0523 5.53233 20.0529H0.529796C0.389061 20.0523 0.254311 19.9959 0.155024 19.8962C0.0557381 19.7964 -1.48066e-06 19.6614 0 19.5207L0 9.79879C-1.48066e-06 9.65806 0.0557381 9.52305 0.155024 9.42331C0.254311 9.32356 0.389061 9.2672 0.529796 9.26656ZM7.28286 19.1496V10.1357H11.3381C13.0471 10.4433 14.7757 11.376 16.4945 12.4575H19.6439C21.0697 12.543 21.8144 13.9883 20.4301 14.9381C19.3265 15.7462 17.869 15.7022 16.3773 15.5679C15.347 15.5167 15.3006 16.901 16.3773 16.9059C16.7484 16.9352 17.1537 16.8473 17.5101 16.8473C19.3729 16.8473 20.9086 16.4884 21.8486 15.0162L22.3198 13.9053L27.0049 11.5811C29.3487 10.8096 31.0138 13.2632 29.2877 14.9674C26.0215 17.3562 22.527 19.4163 18.8554 21.1174C16.2723 22.6897 13.6868 22.636 11.1013 21.1174L7.28286 19.1496ZM23.9507 5.91688C23.922 5.89608 23.8895 5.88126 23.855 5.87331C23.8205 5.86535 23.7848 5.86442 23.7499 5.87057C23.715 5.87672 23.6818 5.88983 23.6521 5.90911C23.6224 5.92839 23.5969 5.95345 23.5771 5.9828L23.333 6.31728C23.2468 6.28075 23.1578 6.25135 23.0669 6.22939C22.9741 6.20741 22.8862 6.18788 22.791 6.17323L22.7177 5.73377C22.7047 5.66466 22.6664 5.60287 22.6103 5.56043C22.5813 5.53981 22.5482 5.52548 22.5134 5.51833C22.4785 5.51119 22.4425 5.51139 22.4077 5.51892L21.8583 5.61658C21.7893 5.62984 21.7276 5.66809 21.685 5.72401C21.6628 5.75229 21.6472 5.78512 21.6392 5.82014C21.6311 5.85517 21.6309 5.89154 21.6386 5.92665L21.7118 6.33681C21.6271 6.37424 21.5455 6.41832 21.4677 6.46865C21.3874 6.51589 21.3107 6.56893 21.2382 6.62735L20.8647 6.3832C20.8373 6.36207 20.8057 6.347 20.772 6.339C20.7383 6.33101 20.7033 6.33026 20.6693 6.33681C20.6343 6.34277 20.6009 6.3558 20.5711 6.37511C20.5413 6.39442 20.5157 6.4196 20.496 6.44912L20.1786 6.90079C20.1564 6.92907 20.1408 6.9619 20.1328 6.99692C20.1248 7.03195 20.1246 7.06832 20.1322 7.10343C20.1375 7.13834 20.1502 7.1717 20.1696 7.2012C20.189 7.23071 20.2146 7.25566 20.2445 7.27433L20.579 7.51848C20.5417 7.60434 20.5123 7.69341 20.4911 7.78459C20.4657 7.87059 20.4446 7.95777 20.4276 8.04583L19.9882 8.12152C19.9536 8.12714 19.9206 8.13953 19.8908 8.15796C19.8611 8.1764 19.8353 8.20052 19.8148 8.22894C19.7939 8.25733 19.7793 8.28992 19.7721 8.32448C19.765 8.35905 19.7654 8.39475 19.7733 8.42914L19.871 8.98091C19.8833 9.05029 19.9218 9.11231 19.9784 9.15425C20.0072 9.17557 20.04 9.1907 20.0749 9.19868C20.1098 9.20667 20.1459 9.20733 20.1811 9.20064L20.5815 9.12984C20.618 9.21502 20.6621 9.29674 20.7133 9.37398C20.7607 9.45878 20.8138 9.54034 20.872 9.61813L20.6132 9.98679C20.5927 10.015 20.578 10.047 20.57 10.081C20.562 10.1149 20.5609 10.1502 20.5668 10.1845C20.5805 10.254 20.6208 10.3153 20.6791 10.3554L21.1381 10.6777C21.1667 10.6984 21.1992 10.713 21.2336 10.7206C21.2681 10.7281 21.3037 10.7285 21.3383 10.7217C21.4091 10.7095 21.4727 10.6712 21.5165 10.6142L21.7607 10.2724C21.8474 10.3097 21.9373 10.3392 22.0292 10.3603C22.1191 10.3849 22.2104 10.4036 22.3027 10.4165L22.3784 10.8559C22.3902 10.9255 22.4288 10.9877 22.4858 11.0293C22.5142 11.0503 22.5468 11.0648 22.5813 11.072C22.6159 11.0792 22.6516 11.0788 22.686 11.0708L23.2378 10.9731C23.3071 10.9608 23.3692 10.9223 23.4111 10.8657C23.4329 10.8377 23.4484 10.8053 23.4564 10.7707C23.4644 10.7362 23.4648 10.7002 23.4575 10.6655L23.3818 10.2431C23.4667 10.207 23.5484 10.1637 23.6259 10.1137C23.7065 10.0649 23.7846 10.0088 23.8701 9.95505L24.2388 10.1992C24.2667 10.221 24.2992 10.2365 24.3337 10.2445C24.3683 10.2525 24.4042 10.2529 24.439 10.2456C24.474 10.2398 24.5075 10.2268 24.5373 10.2075C24.5671 10.1881 24.5927 10.1629 24.6123 10.1333L24.9346 9.67428C24.9555 9.64589 24.9701 9.6133 24.9773 9.57873C24.9845 9.54417 24.984 9.50847 24.9761 9.47408C24.9644 9.4031 24.926 9.33931 24.8687 9.29585L24.5268 9.06392C24.565 8.97729 24.5952 8.8874 24.6172 8.79536C24.6406 8.70523 24.6593 8.61396 24.6733 8.52191L25.1128 8.44623C25.1819 8.43319 25.2437 8.39489 25.2861 8.3388C25.3071 8.31042 25.3217 8.27782 25.3289 8.24326C25.336 8.2087 25.3356 8.17299 25.3276 8.13861L25.23 7.58684C25.2167 7.51781 25.1785 7.45609 25.1226 7.41349C25.0938 7.39217 25.061 7.37704 25.0261 7.36906C24.9912 7.36107 24.9551 7.36041 24.9199 7.36711L24.5195 7.43547C24.4802 7.3517 24.4361 7.27019 24.3877 7.19132C24.341 7.11069 24.288 7.03394 24.229 6.96182L24.4731 6.58828C24.4947 6.56107 24.5102 6.52957 24.5186 6.49589C24.527 6.46221 24.5282 6.42712 24.522 6.39297C24.5081 6.32292 24.4679 6.26086 24.4097 6.21962L23.9555 5.90223H23.9409L23.9507 5.91688ZM19.0433 1.41972C19.1185 1.46531 19.1833 1.526 19.2338 1.59795L19.7221 2.28156C19.7719 2.35154 19.8084 2.43019 19.8295 2.51349C19.8478 2.59879 19.8478 2.68699 19.8295 2.77229C19.8157 2.85882 19.785 2.94178 19.7392 3.01643C19.6931 3.08932 19.6314 3.15103 19.5585 3.1971L19.1532 3.49252C19.1521 3.50552 19.1521 3.51858 19.1532 3.53158C19.1727 3.60238 19.1874 3.67563 19.2045 3.74643C19.2212 3.82214 19.2334 3.89877 19.2411 3.97593V4.00278L19.6659 4.07358C19.7521 4.08644 19.8348 4.11692 19.9087 4.16313C19.9826 4.20933 20.0463 4.27027 20.0956 4.34214C20.1467 4.4111 20.1825 4.49018 20.2006 4.57408C20.2177 4.65868 20.2177 4.74584 20.2006 4.83043L20.0639 5.67274C20.0518 5.75959 20.0219 5.84301 19.9761 5.91779C19.9304 5.99256 19.8696 6.05709 19.7977 6.10732C19.7247 6.15969 19.6416 6.19628 19.5536 6.21474C19.4682 6.23184 19.3802 6.23184 19.2948 6.21474L18.8065 6.13417C18.8065 6.14638 18.7894 6.16103 18.7845 6.17079C18.7455 6.23671 18.704 6.30019 18.66 6.36611C18.6161 6.43203 18.5721 6.49795 18.5282 6.5541L18.5111 6.57607L18.7552 6.92276V6.93741C18.8062 7.01044 18.8403 7.0938 18.8554 7.18155C18.8725 7.26614 18.8725 7.35332 18.8554 7.43791C18.8424 7.52428 18.8125 7.60724 18.7675 7.68205C18.7235 7.75678 18.6654 7.82227 18.5966 7.87493L17.9081 8.36322C17.8348 8.41627 17.7519 8.45443 17.6639 8.47552C17.5771 8.49522 17.487 8.49522 17.4002 8.47552C17.3141 8.46023 17.2314 8.42964 17.1561 8.38519C17.0822 8.33771 17.019 8.27534 16.9705 8.20208L16.6825 7.79924C16.6696 7.80181 16.6563 7.80181 16.6434 7.79924C16.5726 7.81633 16.4969 7.83586 16.4188 7.85051C16.3407 7.86516 16.2674 7.87737 16.1893 7.88958C16.1788 7.89198 16.168 7.89198 16.1575 7.88958L16.0892 8.31195C16.0767 8.39919 16.045 8.48258 15.9964 8.55609C15.9517 8.62975 15.8918 8.69301 15.8206 8.74164C15.7508 8.79132 15.6721 8.82698 15.5887 8.84663C15.504 8.8625 15.417 8.8625 15.3323 8.84663L14.49 8.70746C14.4033 8.69583 14.32 8.6664 14.2452 8.62102C14.1704 8.57565 14.1058 8.51531 14.0555 8.44379C14.0031 8.37075 13.9665 8.2876 13.948 8.19964C13.9309 8.11423 13.9309 8.02626 13.948 7.94085L14.031 7.45256C14.018 7.44669 14.0057 7.43931 13.9944 7.43058L13.7991 7.30851C13.7307 7.25968 13.6673 7.21818 13.6111 7.17423L13.5891 7.15714L13.2424 7.40129H13.2278C13.1548 7.4522 13.0714 7.48637 12.9837 7.50139C12.8991 7.51855 12.8119 7.51855 12.7273 7.50139C12.641 7.48812 12.5581 7.45827 12.4832 7.41349C12.4103 7.36887 12.3459 7.31186 12.2927 7.24503L11.8044 6.54678C11.7532 6.47311 11.7167 6.3902 11.697 6.30263C11.6787 6.21734 11.6787 6.12913 11.697 6.04384C11.7111 5.9574 11.7418 5.87451 11.7873 5.79969C11.8375 5.72796 11.8994 5.66523 11.9704 5.61414L12.3733 5.32849C12.371 5.31475 12.371 5.30072 12.3733 5.28699C12.3562 5.21618 12.3367 5.1405 12.322 5.06237C12.3074 4.98425 12.2903 4.911 12.283 4.83532V4.87194L11.8606 4.80358C11.774 4.79012 11.6909 4.75941 11.6164 4.71324C11.5438 4.66626 11.4808 4.60575 11.4309 4.53502C11.3782 4.46246 11.3423 4.37905 11.3259 4.29087C11.3115 4.21013 11.3115 4.12747 11.3259 4.04673L11.4626 3.20443C11.4751 3.11771 11.5052 3.03444 11.5509 2.95972C11.5967 2.885 11.6572 2.82039 11.7287 2.76985C11.8018 2.71747 11.8849 2.68089 11.9729 2.66242C12.0583 2.64532 12.1463 2.64532 12.2317 2.66242L12.72 2.74299L12.7419 2.70637C12.781 2.64045 12.8225 2.57697 12.8665 2.51105C12.9104 2.44513 12.9544 2.37922 13.0007 2.32306L13.0154 2.30109L12.8054 1.94219C12.7517 1.86963 12.7143 1.78636 12.6956 1.69805C12.6796 1.61745 12.6796 1.53451 12.6956 1.4539C12.7089 1.36688 12.7405 1.28367 12.7883 1.20976C12.8339 1.13459 12.8946 1.06973 12.9666 1.01933L13.6502 0.531034C13.7243 0.480585 13.807 0.444173 13.8943 0.42361C13.9796 0.405262 14.0678 0.405262 14.1531 0.42361C14.2395 0.437746 14.3224 0.468417 14.3973 0.513944C14.4691 0.561352 14.5305 0.622809 14.5779 0.694612L14.8733 1.10233L14.8929 1.06083L15.115 1.00712C15.1907 0.990028 15.2664 0.980262 15.3445 0.968055C15.3445 0.968055 15.3641 0.968055 15.3763 0.968055L15.4446 0.545683C15.4571 0.45844 15.4888 0.375055 15.5374 0.301538C15.583 0.227773 15.6438 0.164529 15.7156 0.115987C15.7857 0.0667275 15.8644 0.0311113 15.9476 0.0110046C16.0324 -0.00366821 16.1191 -0.00366821 16.2039 0.0110046L17.0487 0.135519C17.1347 0.149634 17.2175 0.179425 17.2928 0.223411C17.3678 0.268311 17.432 0.329158 17.4808 0.401637C17.5342 0.474395 17.5716 0.557585 17.5907 0.645783C17.6063 0.732158 17.6063 0.820643 17.5907 0.907018L17.5101 1.39531L17.5467 1.41484L17.7396 1.53935C17.808 1.58574 17.8714 1.62969 17.93 1.67363L17.9496 1.68828L18.3011 1.44414C18.3734 1.39041 18.4569 1.35369 18.5453 1.33671C18.6307 1.31968 18.7187 1.31968 18.8041 1.33671C18.8911 1.34996 18.9743 1.38158 19.0482 1.42949L19.0433 1.41972ZM16.3089 3.12874C16.2189 3.09489 16.1256 3.07035 16.0306 3.0555C15.9361 3.0405 15.8405 3.03396 15.7449 3.03597C15.6571 3.04071 15.5698 3.05213 15.4837 3.07015H15.4666C15.3758 3.09218 15.2875 3.12326 15.2029 3.16292C15.117 3.1978 15.0351 3.24201 14.9588 3.29476C14.8854 3.34625 14.8182 3.40605 14.7586 3.47299C14.6938 3.5413 14.6358 3.6157 14.5852 3.69516C14.5364 3.77259 14.4947 3.85431 14.4607 3.9393C14.3931 4.11935 14.3624 4.31113 14.3704 4.50328C14.3748 4.59194 14.3862 4.68011 14.4046 4.76696C14.4049 4.77265 14.4049 4.77835 14.4046 4.78405C14.427 4.87549 14.4581 4.9646 14.4974 5.05017C14.533 5.1319 14.5772 5.20965 14.6292 5.2821C14.6807 5.35549 14.7405 5.42267 14.8074 5.4823C14.8751 5.54707 14.9496 5.60437 15.0296 5.6532C15.1065 5.70294 15.1883 5.74466 15.2737 5.77772C15.454 5.84453 15.6455 5.87603 15.8377 5.87049C15.9301 5.87051 16.0224 5.86317 16.1136 5.84852C16.1136 5.84852 16.1136 5.84852 16.1282 5.84852C16.3031 5.80338 16.4685 5.72731 16.6165 5.62391C16.6893 5.5717 16.7565 5.51196 16.8167 5.44568C16.8809 5.37748 16.9382 5.30305 16.9876 5.22351C17.0374 5.1466 17.0791 5.06479 17.1122 4.97936C17.1471 4.88969 17.1717 4.79631 17.1854 4.70104C17.2111 4.59724 17.2234 4.49058 17.222 4.38365C17.2172 4.30162 17.2066 4.22003 17.1903 4.1395C17.1903 4.1395 17.1903 4.1395 17.1903 4.12241C17.1664 4.02886 17.1328 3.93804 17.0902 3.85141C17.0535 3.76629 17.0094 3.68458 16.9583 3.60727C16.9055 3.53495 16.8458 3.46791 16.7801 3.40707C16.7111 3.34377 16.6368 3.28659 16.5579 3.23617C16.48 3.18825 16.3984 3.14661 16.3138 3.11165L16.3089 3.12874ZM15.8206 2.02276C16.3007 2.02229 16.7701 2.16405 17.1696 2.43015C17.5692 2.69625 17.8809 3.07475 18.0655 3.51789C18.2501 3.96102 18.2993 4.44891 18.2068 4.91996C18.1143 5.39101 17.8843 5.82411 17.5459 6.16457C17.2075 6.50503 16.7758 6.73759 16.3053 6.8329C15.8348 6.9282 15.3467 6.88198 14.9024 6.70006C14.4582 6.51814 14.0778 6.20867 13.8093 5.81074C13.5408 5.41281 13.3962 4.94425 13.3938 4.46422C13.3912 4.14479 13.4517 3.828 13.5717 3.53196C13.6917 3.23593 13.8689 2.96648 14.0932 2.73902C14.3175 2.51156 14.5844 2.33057 14.8788 2.20641C15.1731 2.08225 15.489 2.01735 15.8084 2.01544L15.8206 2.02276ZM22.3491 7.21574C22.4925 7.18647 22.6403 7.18647 22.7836 7.21574C22.921 7.24686 23.0511 7.30404 23.167 7.3842C23.282 7.46513 23.3799 7.56802 23.455 7.68694C23.5357 7.80808 23.5882 7.94571 23.6089 8.08978C23.6369 8.23328 23.6369 8.38085 23.6089 8.52435C23.576 8.66458 23.5181 8.79774 23.438 8.91743C23.3548 9.0314 23.2513 9.12907 23.1328 9.20552C23.0124 9.28583 22.8756 9.33837 22.7324 9.35933C22.589 9.38867 22.4412 9.38867 22.2978 9.35933C22.1608 9.32845 22.0308 9.27214 21.9145 9.19331C21.7998 9.11022 21.7013 9.00678 21.624 8.88813C21.5461 8.76645 21.4938 8.63024 21.4701 8.48773C21.4472 8.34082 21.4522 8.1909 21.4848 8.04583C21.5165 7.90867 21.5737 7.77866 21.6533 7.66252C21.7354 7.54786 21.838 7.44936 21.956 7.37199C22.0784 7.29377 22.2155 7.24143 22.3588 7.21818L22.3491 7.21574ZM3.03229 10.9072C3.18773 10.9072 3.3397 10.9532 3.46911 11.0393C3.59851 11.1254 3.69958 11.2479 3.75961 11.3913C3.81964 11.5347 3.83595 11.6926 3.8065 11.8452C3.77705 11.9978 3.70314 12.1384 3.59407 12.2491C3.48501 12.3599 3.34564 12.4359 3.19348 12.4677C3.04132 12.4995 2.88316 12.4856 2.73887 12.4278C2.59458 12.37 2.47059 12.2708 2.38249 12.1428C2.29439 12.0147 2.2461 11.8634 2.2437 11.708C2.24337 11.6044 2.26355 11.5017 2.30307 11.4058C2.34258 11.31 2.40066 11.223 2.47395 11.1497C2.54724 11.0764 2.6343 11.0183 2.73012 10.9788C2.82595 10.9393 2.92864 10.9191 3.03229 10.9194V10.9072Z" fill="#FFC107"/>
</svg>
