<svg width="30" height="21" viewBox="0 0 30 21" fill="none" xmlns="http://www.w3.org/2000/svg">
<path fill-rule="evenodd" clip-rule="evenodd" d="M0 20.1122C0.246585 16.9139 -0.380865 17.053 2.29739 16.0496C3.6353 15.5491 5.34187 14.9143 6.56992 14.1477L8.86731 20.1122H0ZM21.597 4.31605L22.6468 4.49428C22.7542 4.51137 22.8275 4.61391 22.8079 4.72133L22.3758 7.30926C22.3587 7.41668 22.2562 7.48992 22.1487 7.47039L21.0989 7.29461C20.9915 7.27752 20.9183 7.17498 20.9378 7.06755L21.3699 4.47963C21.387 4.3722 21.4896 4.29896 21.597 4.31605ZM24.6341 2.80968C24.8246 2.30675 25.5936 2.92931 25.5106 3.77649C25.4838 4.03529 25.4081 4.32826 25.2884 4.65297L26.5043 4.85561C27.0072 4.96059 27.3881 5.39517 26.9755 5.93961C27.0023 6.21061 26.9633 6.51579 26.7509 6.60368C26.7069 7.01628 26.5507 7.25066 26.3065 7.41668C26.2577 7.61932 26.1844 7.79266 26.0624 7.91718C25.8597 8.11981 25.7377 8.04413 25.4789 8.00019L23.4256 7.65594C23.1009 7.60223 22.9373 7.4826 22.7689 7.17986L23.1522 4.89223C23.7918 4.82875 24.2582 4.04505 24.5145 3.52502L24.6341 2.80968ZM11.4894 16.9407H11.8092C12.0973 16.9407 12.3342 16.7039 12.3342 16.4158V15.5638C12.3342 15.2757 12.0973 15.0389 11.8092 15.0389H9.90736C9.61927 15.0389 9.38245 15.2757 9.38245 15.5638V16.4158C9.38245 16.7039 9.61927 16.9407 9.90736 16.9407H10.2321L9.60951 20.1122H12.09L11.4894 16.9407ZM21.2063 0.819909C20.9256 0.783288 20.6595 0.797936 20.4153 0.863855C20.1712 0.929774 19.9368 1.04696 19.7146 1.21542C19.4949 1.38388 19.3216 1.5792 19.1922 1.79893C19.0652 2.01866 18.9822 2.27012 18.9431 2.55089L18.3865 6.74773C18.3499 7.02849 18.3645 7.29461 18.4304 7.53875C18.4963 7.7829 18.6135 8.01727 18.782 8.23945C18.9553 8.45918 19.1507 8.63984 19.3704 8.76191C19.5901 8.88887 19.8367 8.97188 20.1175 9.0085L21.9632 9.25264C22.178 9.28194 22.3343 9.48214 22.305 9.69943C22.2977 9.74826 22.283 9.78976 22.2659 9.83126C22.161 10.0803 22.0511 10.3293 21.9315 10.5661C21.8045 10.8176 21.6751 11.0544 21.5335 11.2815C21.4627 11.3987 21.3821 11.5085 21.2967 11.6233C21.6971 11.5061 22.0779 11.3596 22.4368 11.1863C22.8128 11.0056 23.1693 10.7956 23.5013 10.5588C23.8407 10.3196 24.1507 10.0461 24.4413 9.7507C24.5316 9.65792 24.6561 9.6213 24.7757 9.63595L26.3627 9.84591C26.6434 9.88253 26.9022 9.86789 27.1488 9.80197C27.393 9.73605 27.6273 9.61886 27.8544 9.4504C28.0741 9.28194 28.2475 9.08663 28.3769 8.8669C28.5038 8.64717 28.5868 8.3957 28.6259 8.11493L29.1825 3.9181C29.2192 3.63733 29.2045 3.37121 29.1386 3.12707C29.0727 2.88293 28.9555 2.64611 28.787 2.42638C28.6186 2.20665 28.4232 2.0333 28.2035 1.90391C27.9838 1.77695 27.7323 1.69394 27.4516 1.65488L25.5057 1.38876L21.2063 0.819909ZM23.2596 0.290117L27.559 0.858972C27.9374 0.910242 28.2841 1.02743 28.599 1.20566C28.9091 1.38388 29.185 1.62803 29.4194 1.93565C29.6537 2.24083 29.8173 2.57042 29.9101 2.91711C30.0004 3.26379 30.0248 3.63001 29.9736 4.01331L29.4169 8.21015C29.3656 8.59346 29.2485 8.94014 29.0702 9.2502C28.892 9.56026 28.6479 9.83615 28.3402 10.0705C28.0351 10.3049 27.7055 10.4636 27.3588 10.5613C27.0121 10.6516 26.6459 10.676 26.2626 10.6247L24.871 10.4392C24.5877 10.7151 24.285 10.9714 23.9701 11.1985C23.5941 11.467 23.201 11.7014 22.786 11.8967C22.3685 12.0994 21.929 12.2654 21.4676 12.3972C21.011 12.5291 20.5276 12.6243 20.0247 12.6877C19.8806 12.7073 19.7342 12.6438 19.6463 12.5168C19.5218 12.3362 19.5706 12.0896 19.7513 11.9651C20.0052 11.7966 20.2249 11.616 20.408 11.4328C20.5862 11.2522 20.7376 11.0642 20.8572 10.8664V10.8616C20.9891 10.6491 21.1111 10.4294 21.2234 10.2072C21.2601 10.1291 21.2991 10.0461 21.3382 9.96554L20.01 9.78976C19.6316 9.74093 19.2849 9.6213 18.97 9.44308C18.6599 9.26485 18.384 9.02071 18.1497 8.71309C17.9153 8.4079 17.7517 8.07831 17.6589 7.73163C17.5686 7.38006 17.5466 7.01384 17.5955 6.63786L18.157 2.44103C18.2083 2.0626 18.3254 1.71592 18.5037 1.40097C18.6819 1.09091 18.926 0.815026 19.2337 0.580648C19.5388 0.34627 19.8684 0.182693 20.2151 0.0899185C20.5594 -0.000414757 20.9256 -0.0248292 21.3064 0.0264411L23.2596 0.290117ZM8.16173 12.3142C8.22033 11.8235 6.76523 9.94845 6.49911 9.05C5.93026 8.14423 5.72762 6.70378 6.34774 5.74674C6.59433 5.36587 6.48935 4.68959 6.48935 4.16468C6.48935 -1.04779 15.6228 -1.05023 15.6228 4.16468C15.6228 4.82387 15.4714 5.32437 15.8279 5.84439C16.426 6.7111 16.1184 8.24677 15.613 9.05245C15.2907 9.99728 13.7624 11.782 13.8674 12.3167C13.9626 14.99 8.14464 14.9021 8.16173 12.3142ZM15.2492 13.8743C16.3723 14.5921 17.9641 15.1829 19.2361 15.6077C21.7361 16.4402 21.7288 16.555 21.7117 20.1122H12.8786L15.2492 13.8743Z" fill="#FFC107"/>
</svg>
