<svg width="30" height="25" viewBox="0 0 30 25" fill="none" xmlns="http://www.w3.org/2000/svg">
<g clip-path="url(#clip0_1467_8081)">
<path d="M16.1084 13.3301H13.8916C13.855 13.3301 13.8257 13.3447 13.8013 13.3667C13.7769 13.3911 13.7646 13.4229 13.7646 13.457V18.1299C13.7646 18.1665 13.7793 18.1958 13.8013 18.2202C13.8257 18.2446 13.8574 18.2568 13.8916 18.2568H16.106C16.1426 18.2568 16.1719 18.2422 16.1963 18.2202C16.2207 18.1958 16.2329 18.1641 16.2329 18.1299V13.457C16.2329 13.4204 16.2183 13.3911 16.1963 13.3667C16.1743 13.3398 16.1426 13.3301 16.1084 13.3301ZM1.7041 3.41064H9.39209V1.20605C9.39209 0.871582 9.52881 0.571289 9.74609 0.354004C9.96582 0.136719 10.2686 0 10.5981 0H19.4019C19.7363 0 20.0342 0.136719 20.2539 0.354004C20.4712 0.571289 20.6079 0.876465 20.6079 1.20605V3.41064H28.2959C28.7671 3.41064 29.1919 3.60352 29.4971 3.91357C29.8071 4.22363 30 4.64844 30 5.11475V9.23096C28.0737 10.5518 26.0864 11.6772 24.0381 12.5952C21.9775 13.5181 19.8535 14.2334 17.6562 14.7266V13.0811C17.6562 12.7051 17.5024 12.3584 17.2559 12.1094C17.0093 11.8628 16.6626 11.709 16.2842 11.709H13.7134C13.3374 11.709 12.9907 11.8628 12.7417 12.1094C12.4951 12.356 12.3413 12.7026 12.3413 13.0811V14.6899C10.2026 14.1992 8.12988 13.4961 6.12061 12.5952C4.01611 11.6528 1.97754 10.4883 0 9.12109V5.11475C0 4.64355 0.192871 4.21875 0.50293 3.91357C0.810547 3.60352 1.23779 3.41064 1.7041 3.41064ZM30 11.6724V22.8442C30 23.3154 29.8071 23.7402 29.4971 24.0454C29.187 24.3555 28.7622 24.5483 28.2959 24.5483H1.7041C1.23291 24.5483 0.808105 24.3555 0.50293 24.0454C0.192871 23.7354 0 23.3105 0 22.8442V11.5698C1.68213 12.6489 3.41309 13.5913 5.19287 14.3896C7.49023 15.4199 9.87305 16.2085 12.3438 16.7358V18.5059C12.3438 18.8818 12.4976 19.2285 12.7441 19.4775C12.9907 19.7241 13.3398 19.8779 13.7158 19.8779H16.2866C16.6626 19.8779 17.0093 19.7241 17.2583 19.4775C17.5049 19.231 17.6587 18.8843 17.6587 18.5059V16.6504L17.6855 16.7627C20.2026 16.2329 22.6294 15.437 24.9683 14.3872C26.6919 13.6157 28.3691 12.7075 30 11.6724ZM18.4839 1.64307H11.521C11.4795 1.64307 11.4453 1.65771 11.4136 1.68945C11.3892 1.71387 11.3672 1.75537 11.3672 1.79688V3.36426H18.6304V1.79688C18.6304 1.75537 18.6157 1.72119 18.584 1.68945C18.5596 1.66504 18.5181 1.64307 18.4766 1.64307H18.4839Z" fill="#FFC107"/>
</g>
<defs>
<clipPath id="clip0_1467_8081">
<rect width="30" height="24.5459" fill="white"/>
</clipPath>
</defs>
</svg>
