<svg width="31" height="30" viewBox="0 0 31 30" fill="none" xmlns="http://www.w3.org/2000/svg">
<path fill-rule="evenodd" clip-rule="evenodd" d="M10.4102 15.4321C10.2156 15.3985 10.0392 15.2973 9.9121 15.1464C9.78494 14.9954 9.71522 14.8043 9.71522 14.6069C9.71522 14.4095 9.78494 14.2185 9.9121 14.0675C10.0392 13.9165 10.2156 13.8153 10.4102 13.7817H19.5801C19.7746 13.8153 19.951 13.9165 20.0781 14.0675C20.2053 14.2185 20.275 14.4095 20.275 14.6069C20.275 14.8043 20.2053 14.9954 20.0781 15.1464C19.951 15.2973 19.7746 15.3985 19.5801 15.4321H10.4102ZM25.5322 15.4077V16.5063C25.5323 16.552 25.5161 16.5962 25.4866 16.6311C25.4571 16.666 25.4162 16.6893 25.3711 16.6968C25.2832 16.6968 25.1953 16.7236 25.1074 16.7432C24.9423 16.7749 24.7793 16.8164 24.6191 16.8677C24.3185 16.9613 24.0313 17.0934 23.7646 17.2607C23.639 17.3392 23.5191 17.4265 23.4058 17.522C23.2951 17.6142 23.1914 17.7146 23.0957 17.8223C22.9974 17.9308 22.9076 18.0467 22.8271 18.1689C22.4954 18.6762 22.3251 19.272 22.3389 19.8779C22.3387 20.0516 22.3477 20.2252 22.3657 20.398C22.3846 20.5558 22.4132 20.7123 22.4512 20.8667C22.4881 21.0076 22.5354 21.1455 22.5928 21.2793C22.6463 21.4044 22.7109 21.5245 22.7856 21.6382L22.8003 21.6602C22.9546 21.8878 23.1367 22.0953 23.3423 22.2778C23.4504 22.3773 23.5637 22.4711 23.6816 22.5586C23.8035 22.6464 23.9298 22.7279 24.0601 22.8027C24.3262 22.9468 24.6313 23.1226 24.9048 23.2446L25.3711 23.4644L26.0645 23.7695C26.1816 23.8281 26.2793 23.877 26.394 23.9404L26.5381 24.0356C26.5796 24.0649 26.6162 24.0942 26.6479 24.1211C26.6813 24.1504 26.7123 24.1822 26.7407 24.2163L26.8091 24.3042C26.8365 24.3443 26.8602 24.3868 26.8799 24.4312C26.8958 24.4641 26.9089 24.4985 26.9189 24.5337C26.9334 24.5759 26.9449 24.6192 26.9531 24.6631C26.9635 24.7163 26.9701 24.7701 26.9727 24.8242C26.9727 24.8828 26.9727 24.9414 26.9727 25V25.1172C26.9629 25.1897 26.9483 25.2615 26.9287 25.332C26.9076 25.3974 26.8798 25.4604 26.8457 25.52C26.8065 25.5832 26.7579 25.64 26.7017 25.6885L26.6187 25.7495C26.5487 25.79 26.4729 25.8197 26.394 25.8374C26.3056 25.8617 26.2147 25.8757 26.123 25.8789C26.0327 25.8789 25.9692 25.8789 25.8789 25.8618C25.7242 25.8367 25.5753 25.7837 25.4395 25.7056C25.408 25.6854 25.3779 25.6634 25.3491 25.6396L25.2588 25.5591C25.2296 25.5303 25.2026 25.4993 25.1782 25.4663C25.1524 25.4329 25.1288 25.3978 25.1074 25.3613C25.0854 25.3223 25.061 25.2783 25.0415 25.2368C25.0219 25.1947 25.0048 25.1515 24.9902 25.1074C24.9724 25.0588 24.9577 25.009 24.9463 24.9585C24.9325 24.9005 24.9219 24.8418 24.9146 24.7827C24.9146 24.7241 24.8999 24.6582 24.895 24.5898C24.895 24.5166 24.895 24.4458 24.895 24.375C24.8949 24.3466 24.8835 24.3194 24.8633 24.2993C24.8531 24.289 24.8409 24.2809 24.8275 24.2755C24.814 24.27 24.7996 24.2673 24.7852 24.2676H22.0288C22.0004 24.2677 21.9732 24.2791 21.9531 24.2993C21.9429 24.3091 21.9348 24.3208 21.9294 24.3338C21.9239 24.3469 21.9212 24.3609 21.9214 24.375C21.9214 24.563 21.9214 24.7363 21.9434 24.8975C21.9653 25.0586 21.9824 25.2197 22.0117 25.3857C22.0404 25.5314 22.0788 25.6749 22.1265 25.8154C22.1693 25.948 22.2206 26.0777 22.2803 26.2036L22.2949 26.2329C22.3535 26.3525 22.4194 26.4771 22.4902 26.5845C22.5612 26.6942 22.6378 26.8001 22.7197 26.9019C22.8002 27.0006 22.8867 27.0944 22.9785 27.1826C23.0659 27.2699 23.1589 27.3515 23.2568 27.4268L23.2788 27.4438C23.3777 27.5167 23.4804 27.5844 23.5864 27.6465C23.6938 27.7124 23.8037 27.771 23.9185 27.8272C24.0332 27.8833 24.1455 27.9272 24.2651 27.9736C24.3848 28.02 24.5093 28.0542 24.624 28.0884C24.7388 28.1226 24.8169 28.1372 24.9121 28.1567C25.0073 28.1763 25.1123 28.1982 25.2051 28.2129C25.2499 28.2199 25.2908 28.2427 25.3204 28.2771C25.3499 28.3116 25.3662 28.3555 25.3662 28.4009V29.4507C25.3739 29.5505 25.4039 29.6473 25.4541 29.7339C25.4736 29.7705 25.4541 29.7998 25.4761 29.7998H26.7432C26.7577 29.8001 26.7721 29.7975 26.7856 29.7921C26.7991 29.7867 26.8113 29.7786 26.8216 29.7684C26.8319 29.7581 26.8399 29.7459 26.8453 29.7324C26.8507 29.7189 26.8534 29.7045 26.853 29.6899V28.4058C26.853 28.3607 26.8689 28.3171 26.8979 28.2827C26.927 28.2483 26.9673 28.2253 27.0117 28.2178L27.1729 28.1909C27.3376 28.1595 27.5005 28.1195 27.6611 28.0713C27.9595 27.9793 28.2462 27.8532 28.5156 27.6953C28.6374 27.6232 28.7534 27.5416 28.8623 27.4512C28.9747 27.3601 29.08 27.2605 29.1772 27.1533C29.2761 27.0453 29.3659 26.9293 29.4458 26.8066C29.5289 26.6856 29.6008 26.5574 29.6606 26.4233C29.722 26.2873 29.7734 26.1469 29.8145 26.0034C29.8551 25.8527 29.8853 25.6993 29.9048 25.5444C29.9254 25.3825 29.936 25.2194 29.9365 25.0562C29.9371 24.884 29.9273 24.712 29.9072 24.541C29.8878 24.3839 29.8584 24.2281 29.8193 24.0747C29.7815 23.93 29.7317 23.7887 29.6704 23.6523C29.6144 23.5263 29.5474 23.4054 29.4702 23.291C29.3956 23.1771 29.314 23.0678 29.2261 22.9639C29.1331 22.857 29.0336 22.7559 28.9282 22.6611C28.8241 22.5666 28.7149 22.4777 28.6011 22.395C28.4839 22.3096 28.3569 22.2266 28.23 22.1509H28.2129C28.0835 22.0752 27.9468 21.9971 27.8003 21.9067C27.6538 21.8164 27.5317 21.7603 27.3706 21.6797C27.2095 21.5991 27.0752 21.5308 26.9263 21.46C26.6821 21.3525 26.4575 21.2476 26.2256 21.1328L26.0376 21.0303L25.8789 20.9375C25.7837 20.8716 25.7227 20.8301 25.6348 20.7568C25.5693 20.6974 25.5104 20.6311 25.459 20.5591C25.4359 20.5288 25.4163 20.496 25.4004 20.4614C25.3847 20.428 25.3708 20.3938 25.3589 20.3589C25.3464 20.3237 25.3358 20.2878 25.3271 20.2515C25.3189 20.2095 25.3132 20.1671 25.3101 20.1245V19.9927V19.8706C25.3198 19.7924 25.3344 19.715 25.354 19.6387L25.3931 19.5264C25.4055 19.4933 25.4211 19.4614 25.4395 19.4312C25.4572 19.4009 25.4776 19.3723 25.5005 19.3457C25.5464 19.2883 25.6007 19.238 25.6616 19.1968C25.6899 19.1787 25.7192 19.1623 25.7495 19.148L25.8545 19.1138C25.8968 19.1019 25.9401 19.0937 25.9839 19.0894C26.0311 19.0869 26.0783 19.0869 26.1255 19.0894C26.1877 19.089 26.2499 19.0947 26.311 19.1064C26.3661 19.1167 26.4201 19.1322 26.4722 19.1528H26.4844C26.5376 19.1751 26.5883 19.203 26.6357 19.2358C26.6852 19.2683 26.731 19.306 26.7725 19.3481L26.7871 19.3628C26.8355 19.4139 26.8765 19.4714 26.9092 19.5337C26.94 19.5973 26.9653 19.6635 26.9849 19.7314V19.7559C27.0107 19.8568 27.0287 19.9597 27.0386 20.0635C27.0386 20.1709 27.0557 20.293 27.0581 20.4248C27.0579 20.4505 27.0665 20.4755 27.0825 20.4956C27.1026 20.5158 27.1298 20.5272 27.1582 20.5273H29.8975C29.9259 20.5272 29.9531 20.5158 29.9731 20.4956C29.9834 20.4854 29.9915 20.4732 29.997 20.4598C30.0025 20.4464 30.0051 20.432 30.0049 20.4175C30.0056 20.2323 29.995 20.0472 29.9731 19.8633C29.9538 19.6899 29.9236 19.5178 29.8828 19.3481C29.8442 19.1886 29.7945 19.032 29.7339 18.8794C29.6759 18.7346 29.6074 18.5942 29.5288 18.4595L29.5117 18.4277C29.4315 18.2921 29.3418 18.1624 29.2432 18.0396C29.1472 17.9176 29.0419 17.8033 28.9282 17.6978C28.8174 17.5665 28.6957 17.4448 28.5645 17.334C28.4335 17.2432 28.2965 17.1616 28.1543 17.0898C27.8628 16.9431 27.5546 16.8324 27.2363 16.7603H27.1826C27.1382 16.7527 27.0979 16.7297 27.0688 16.6953C27.0398 16.6609 27.0239 16.6173 27.0239 16.5723V15.4248C27.0238 15.3992 27.0152 15.3743 26.9995 15.354C26.9893 15.3437 26.9771 15.3356 26.9637 15.3301C26.9503 15.3247 26.9359 15.322 26.9214 15.3223H25.6348C25.6056 15.3223 25.5776 15.3337 25.5566 15.354C25.5365 15.374 25.525 15.4013 25.5249 15.4297L25.5322 15.4077ZM18.877 27.5586C19.0965 27.5586 19.307 27.6458 19.4622 27.801C19.6174 27.9562 19.7046 28.1667 19.7046 28.3862C19.7046 28.6057 19.6174 28.8162 19.4622 28.9715C19.307 29.1267 19.0965 29.2139 18.877 29.2139H1.92627C1.41539 29.2139 0.925437 29.0109 0.564191 28.6497C0.202946 28.2884 0 27.7985 0 27.2876L0 1.92627C0 1.41539 0.202946 0.925437 0.564191 0.564191C0.925437 0.202946 1.41539 0 1.92627 0L25.5811 0C26.0919 0 26.5819 0.202946 26.9431 0.564191C27.3044 0.925437 27.5073 1.41539 27.5073 1.92627V11.0645C27.5073 11.284 27.4201 11.4945 27.2649 11.6497C27.1097 11.8049 26.8992 11.8921 26.6797 11.8921C26.4602 11.8921 26.2497 11.8049 26.0945 11.6497C25.9392 11.4945 25.8521 11.284 25.8521 11.0645V1.92627C25.8514 1.85464 25.8225 1.78617 25.7715 1.73584C25.7209 1.68531 25.6526 1.65643 25.5811 1.65527H1.92627C1.85454 1.65661 1.78584 1.68444 1.7334 1.7334C1.68483 1.78609 1.65706 1.85463 1.65527 1.92627V27.2852C1.65527 27.357 1.68382 27.426 1.73465 27.4768C1.78547 27.5276 1.8544 27.5562 1.92627 27.5562H18.877V27.5586ZM10.4102 21.5039C10.2157 21.4659 10.0404 21.3615 9.91444 21.2085C9.78846 21.0555 9.71958 20.8635 9.71958 20.6653C9.71958 20.4671 9.78846 20.2751 9.91444 20.1221C10.0404 19.9691 10.2157 19.8647 10.4102 19.8267H17.6196C17.8163 19.862 17.9943 19.9654 18.1226 20.1187C18.2508 20.272 18.321 20.4654 18.321 20.6653C18.321 20.8651 18.2508 21.0586 18.1226 21.2119C17.9943 21.3652 17.8163 21.4686 17.6196 21.5039H10.4102ZM10.4102 9.375C10.2086 9.35579 10.0227 9.25785 9.8929 9.10244C9.76309 8.94703 9.69981 8.7467 9.7168 8.54492C9.70051 8.34381 9.76418 8.14438 9.89398 7.9899C10.0238 7.83542 10.2092 7.73835 10.4102 7.71973H19.5801C19.779 7.74133 19.9616 7.8396 20.0893 7.99367C20.2169 8.14774 20.2794 8.34548 20.2637 8.54492C20.2814 8.7453 20.2197 8.94463 20.0918 9.09992C19.9639 9.25521 19.7801 9.354 19.5801 9.375H10.4102ZM6.43311 19.5313C6.62625 19.5313 6.81506 19.5885 6.97565 19.6958C7.13625 19.8031 7.26142 19.9557 7.33533 20.1341C7.40925 20.3125 7.42858 20.5089 7.3909 20.6983C7.35322 20.8878 7.26021 21.0618 7.12364 21.1983C6.98706 21.3349 6.81306 21.4279 6.62362 21.4656C6.43419 21.5033 6.23783 21.484 6.05939 21.41C5.88095 21.3361 5.72843 21.211 5.62112 21.0504C5.51382 20.8898 5.45654 20.701 5.45654 20.5078C5.45654 20.2488 5.55943 20.0004 5.74257 19.8173C5.92571 19.6341 6.17411 19.5313 6.43311 19.5313ZM6.43311 13.5522C6.62625 13.5522 6.81506 13.6095 6.97565 13.7168C7.13625 13.8241 7.26142 13.9767 7.33533 14.1551C7.40925 14.3335 7.42858 14.5299 7.3909 14.7193C7.35322 14.9088 7.26021 15.0828 7.12364 15.2193C6.98706 15.3559 6.81306 15.4489 6.62362 15.4866C6.43419 15.5243 6.23783 15.5049 6.05939 15.431C5.88095 15.3571 5.72843 15.232 5.62112 15.0714C5.51382 14.9108 5.45654 14.722 5.45654 14.5288C5.45654 14.2698 5.55943 14.0214 5.74257 13.8383C5.92571 13.6551 6.17411 13.5522 6.43311 13.5522ZM6.43311 7.57568C6.62625 7.57568 6.81506 7.63296 6.97565 7.74026C7.13625 7.84757 7.26142 8.00009 7.33533 8.17853C7.40925 8.35698 7.42858 8.55333 7.3909 8.74276C7.35322 8.9322 7.26021 9.10621 7.12364 9.24278C6.98706 9.37936 6.81306 9.47236 6.62362 9.51005C6.43419 9.54773 6.23783 9.52839 6.05939 9.45447C5.88095 9.38056 5.72843 9.25539 5.62112 9.0948C5.51382 8.9342 5.45654 8.74539 5.45654 8.55225C5.45654 8.29325 5.55943 8.04485 5.74257 7.86171C5.92571 7.67857 6.17411 7.57568 6.43311 7.57568Z" fill="#FFC107"/>
</svg>
