<svg width="30" height="27" viewBox="0 0 30 27" fill="none" xmlns="http://www.w3.org/2000/svg">
<path d="M4.64994 17.672C4.28275 17.672 3.98514 17.3744 3.98514 17.007V15.63C3.98514 15.2628 4.28275 14.9652 4.64994 14.9652C5.01713 14.9652 5.31498 15.2628 5.31498 15.63V16.3424H9.59578H16.4999V6.54546C16.1317 5.03031 15.4994 3.83231 14.5914 2.96609L14.5909 2.9656L14.5905 2.96487L14.5897 2.96438L14.589 2.96389L14.5885 2.9634L14.588 2.96291C14.576 2.95144 14.5638 2.93997 14.5519 2.92873L14.5514 2.92825L14.5509 2.92776L14.5502 2.92727L14.5494 2.92678L14.5489 2.92629L14.5482 2.92556L14.5477 2.92507L14.547 2.92458L14.5465 2.9241L14.5106 2.89089L14.5099 2.8904L14.5094 2.88992L14.5087 2.88918L14.5079 2.8887L14.5074 2.88796L14.5067 2.88747L14.5057 2.8865L14.505 2.88601L14.5043 2.88552L14.5035 2.88503L14.503 2.88454L14.5026 2.88406C14.4899 2.87258 14.4772 2.86111 14.4647 2.84963L14.464 2.84914L14.4633 2.84841L14.4618 2.84695L14.4613 2.84646L14.4606 2.84573L14.4598 2.84524L14.4586 2.84402L14.4581 2.84328L14.4576 2.8428L14.4215 2.81081L14.421 2.81033L14.4198 2.8091L14.4193 2.80862L14.4186 2.80813L14.4181 2.80764L14.4161 2.80593L14.4156 2.80544L14.4152 2.80495C14.4034 2.7947 14.3915 2.78469 14.3798 2.77444L14.3793 2.77395L14.3788 2.77346L14.3783 2.77297L14.3776 2.77248L14.3771 2.772L14.3766 2.77151L14.3739 2.76931L14.3734 2.76882L14.3727 2.76833L14.3715 2.76711L14.371 2.76662L14.3702 2.76614L14.3697 2.76565L14.3693 2.76516L14.3336 2.73489L14.3331 2.7344L14.3326 2.73391L14.3312 2.73269L14.3295 2.73122L14.308 2.7134L14.2855 2.69485L14.266 2.67898L14.2626 2.67629L14.2584 2.67287L14.2404 2.65822L14.2167 2.63943L14.192 2.61989L14.1903 2.61867L14.1896 2.61819L14.1847 2.61452L14.1842 2.61403L14.1837 2.61355L14.183 2.61306L14.1466 2.58474L14.1461 2.58449L14.1456 2.58401L14.1451 2.58352L14.1437 2.5823L14.1434 2.58205L14.1154 2.56081L14.1134 2.55935L14.0958 2.54592L14.0953 2.54568L14.0697 2.52639L14.0475 2.51003L14.024 2.49294L13.9994 2.47512L13.9733 2.45656L13.9518 2.44118L13.9156 2.41701L13.9032 2.40822L13.9025 2.40773L13.8685 2.38478L13.8527 2.37404L13.8214 2.35353L13.8019 2.34084L13.7726 2.3218L13.7513 2.30812L13.7198 2.2881L13.7018 2.27687L13.6673 2.25563L13.6634 2.25344L13.652 2.24636L13.6161 2.22414L13.6156 2.22365L13.6151 2.22341L13.5987 2.2134L13.5709 2.19728L13.5697 2.19655L13.5682 2.19582L13.5453 2.18239L13.5445 2.1819L13.5184 2.16677L13.516 2.1653L13.5123 2.16335L13.4947 2.15334L13.4567 2.13185L13.443 2.12428L13.402 2.10182L13.3898 2.09523L13.3885 2.0945L13.3492 2.0735L13.3356 2.06642L13.2992 2.04714L13.2789 2.03664L13.2782 2.03615L13.243 2.01833L13.2262 2.00978L13.1871 1.99025L13.1854 1.98952L13.1717 1.98268L13.1295 1.96217L13.1278 1.96144L13.1178 1.95656L13.1168 1.95607L13.1163 1.95583L13.0763 1.93703L13.0738 1.93605L13.0597 1.92946L13.0201 1.91115L13.003 1.90334L12.961 1.88454L12.9469 1.87843L12.9042 1.85988L12.8893 1.85353L12.8478 1.83595L12.8473 1.83571H12.847L12.8309 1.82887L12.7919 1.81276L12.7901 1.81154L12.7735 1.8047L12.7728 1.80446L12.7721 1.80421L12.7716 1.80397L12.7709 1.80373L12.7701 1.80348L12.7696 1.80324L12.7687 1.80275L12.7679 1.8025L12.7674 1.80226L12.7438 1.79274L12.7433 1.7925L12.7423 1.79201L12.7416 1.79176L12.7411 1.79152L12.7403 1.79127L12.7394 1.79103L12.7389 1.79079L12.7381 1.79054L12.7374 1.7903L12.7369 1.79005L12.7359 1.78957L12.7352 1.78932L12.7345 1.78908L12.7337 1.78883L12.733 1.78859L12.7325 1.78834L12.7318 1.7881L12.7311 1.78786L12.7303 1.78712L12.7296 1.78688L12.7289 1.78664L12.7281 1.78639L12.7171 1.782L12.7164 1.78175L12.7157 1.78151L12.7149 1.78126L12.7142 1.78102L12.7135 1.78078L12.7125 1.78029L12.7118 1.78004L12.711 1.7798L12.7101 1.77931L12.7093 1.77907L12.7086 1.77858L12.7079 1.77833L12.7071 1.77809L12.7064 1.77785L12.7054 1.77736L12.6852 1.7693L12.6844 1.76906L12.6837 1.76881L12.683 1.76857L12.6822 1.76832L12.6813 1.76808L12.6803 1.76759L12.6795 1.76735L12.6788 1.7671L12.6778 1.76686L12.6771 1.76662L12.6764 1.76637L12.6756 1.76588L12.6749 1.76564L12.6742 1.76515L12.6734 1.76491L12.6727 1.76466L12.672 1.76442L12.6712 1.76417L12.6705 1.76369L12.6698 1.76344L12.6686 1.7632L12.6678 1.76271L12.6671 1.76247L12.66 1.75978L12.6593 1.75954L12.6586 1.75929L12.6578 1.75905L12.6571 1.7588L12.6564 1.75856L12.6549 1.75783L12.6542 1.75758L12.6534 1.75709L12.6527 1.75685L12.6517 1.75661L12.651 1.75636L12.6502 1.75612L12.6495 1.75587L12.6481 1.75514L12.6473 1.7549L12.6466 1.75465L12.6158 1.74318L12.6151 1.74269L12.6134 1.7422L12.6127 1.74196L12.6119 1.74171L12.6112 1.74147L12.6105 1.74123L12.6097 1.74074L12.609 1.74049L12.608 1.74025L12.6007 1.73732L12.6 1.73707L12.599 1.73683L12.5982 1.73659L12.597 1.73585L12.5963 1.73561L12.5953 1.73512L12.5946 1.73488L12.5939 1.73463L12.5929 1.73439L12.5921 1.73414L12.5914 1.7339L12.5902 1.73341L12.5895 1.73317L12.5887 1.73292L12.588 1.73268L12.587 1.73244L12.5677 1.72536L12.567 1.72487L12.5663 1.72462L12.5641 1.72365L12.5631 1.7234L12.5624 1.72316L12.5616 1.72291L12.5609 1.72243L12.5602 1.72218L12.5594 1.72194L12.5587 1.72169L12.5575 1.72121L12.5567 1.72096L12.556 1.72072L12.555 1.72047L12.5538 1.71998L12.5531 1.71974L12.5523 1.7195L12.5514 1.71901L12.5506 1.71876L12.5499 1.71852L12.5489 1.71803L12.548 1.71779L12.5472 1.71754L12.5465 1.7173L12.5423 1.71583L12.5416 1.71559L12.5409 1.71535L12.5401 1.7151L12.5394 1.71486L12.5387 1.71461L12.5372 1.71388L12.5365 1.71364L12.5357 1.71339L12.535 1.71315L12.5343 1.7129L12.5336 1.71266L12.5326 1.71242L12.5318 1.71217L12.5306 1.71144L12.5299 1.7112L12.5282 1.71071L12.5274 1.71046L12.5043 1.70216L12.5033 1.70167L12.4991 1.70021L12.4984 1.69996L12.4977 1.69972L12.4969 1.69923L12.4962 1.69899L12.4952 1.69874L12.4945 1.6985L12.4938 1.69826L12.4928 1.69777L12.492 1.69752L12.4913 1.69728L12.4903 1.69704L12.4894 1.69679L12.4784 1.69288L12.4776 1.69264L12.4769 1.6924L12.4759 1.69191L12.475 1.69166L12.4742 1.69142L12.4732 1.69093L12.4725 1.69069L12.4718 1.69044L12.4676 1.68898L12.4669 1.68873L12.4659 1.68849L12.4435 1.68068L12.4427 1.68043L12.4415 1.67995L12.4408 1.6797L12.44 1.67946L12.4391 1.67897L12.4383 1.67872L12.4376 1.67848L12.4366 1.67824L12.4359 1.67799L12.4352 1.67775L12.4342 1.67726L12.4335 1.67702L12.4327 1.67677L12.4317 1.67653L12.431 1.67628L12.4303 1.67604L12.4295 1.67579L12.4288 1.67555L12.4281 1.67531L12.4273 1.67506L12.4266 1.67482L12.4259 1.67457L12.422 1.67335L12.4212 1.67311L12.4205 1.67262L12.4195 1.67238L12.4188 1.67213L12.4181 1.67189L12.4171 1.67164L12.4164 1.6714L12.4156 1.67116L12.4147 1.67091L12.4139 1.67067L12.4125 1.66994L12.4115 1.66969L12.4105 1.66945L12.4098 1.6692L12.4088 1.66896L12.4078 1.66871L12.4073 1.66823L12.4064 1.66798L12.3773 1.65822L12.3763 1.65773L12.3756 1.65748L12.3746 1.65724L12.3739 1.657L12.3731 1.65675L12.3722 1.65651L12.3714 1.65626L12.3707 1.65602L12.3695 1.65529L12.3688 1.65504L12.368 1.6548L12.367 1.65455L12.3658 1.65407L12.3583 1.65162L12.3575 1.65138L12.3568 1.65114L12.3561 1.65089L12.3553 1.65065L12.3543 1.6504L12.3536 1.65016L12.3529 1.64992L12.3522 1.64967L12.3514 1.64943L12.3507 1.64918L12.3497 1.64894L12.349 1.64869L12.3473 1.64796L12.3465 1.64772L12.3458 1.64747L12.3451 1.64723L12.3434 1.64674L12.3426 1.6465L12.3194 1.63893L12.3187 1.63869L12.3172 1.6382L12.3165 1.63795H12.3158L12.315 1.63746L12.3141 1.63722L12.3133 1.63698L12.3121 1.63649L12.3114 1.63624L12.3106 1.636L12.3097 1.63576L12.3089 1.63551L12.308 1.63527L12.3072 1.63502L12.3065 1.63478L12.3055 1.63453L12.3048 1.63429L12.3038 1.63405L12.2984 1.63234L12.2975 1.63209L12.2967 1.63185L12.296 1.63161L12.2945 1.63087L12.2938 1.63063L12.2928 1.63038L12.2918 1.63014L12.2911 1.6299L12.2901 1.62941L12.2892 1.62916L12.2884 1.62892L12.2867 1.62843L12.2857 1.62819L12.256 1.61867L12.255 1.61842L12.2543 1.61818L12.2535 1.61769L12.2525 1.61744L12.2518 1.6172L12.2511 1.61696L12.2501 1.61671L12.2491 1.61622L12.2484 1.61598L12.2474 1.61574L12.2467 1.61549L12.2459 1.61525L12.245 1.615L12.2442 1.61476L12.2433 1.61452L12.2423 1.61427L12.2357 1.61207L12.2347 1.61183L12.234 1.61159L12.2328 1.61134L12.232 1.6111L12.2313 1.61085L12.2303 1.61061H12.2296L12.2289 1.61036L12.2279 1.61012L12.2272 1.60988L12.2262 1.60963L12.2254 1.60939L12.2245 1.60914L12.2237 1.6089L12.223 1.60866L12.222 1.60841L12.2213 1.60817L12.1918 1.59913L12.191 1.59889L12.1903 1.59865L12.1893 1.5984L12.1876 1.59718L12.1866 1.59694L12.1859 1.59669L12.1852 1.59645L12.1842 1.5962L12.1834 1.59596L12.1827 1.59572L12.182 1.59547L12.181 1.59523L12.1803 1.59498L12.1739 1.59303L12.1732 1.59279L12.1722 1.59254L12.1705 1.59205L12.1698 1.59181L12.169 1.59157L12.1681 1.59132L12.1671 1.59108L12.1664 1.59083L12.1654 1.59059L12.1644 1.59034L12.1637 1.5901L12.1627 1.58986H12.1617L12.1607 1.58912L12.16 1.58888L12.159 1.58864L12.128 1.57936L12.1273 1.57911L12.1263 1.57887L12.1256 1.57863L12.1246 1.57838L12.1236 1.57814L12.1227 1.57789L12.1219 1.57765L12.1207 1.57716L12.1197 1.57692L12.1188 1.57667L12.1178 1.57643L12.117 1.57618L12.1161 1.57594L12.1153 1.5757L12.1122 1.57472L12.1114 1.57448L12.1105 1.57423L12.1095 1.57374L12.1085 1.5735L12.1075 1.57325L12.1068 1.57301L12.1058 1.57277H12.1051L12.1039 1.57228L12.1031 1.57203L12.1021 1.57179L12.1014 1.57155L12.1004 1.5713L12.0995 1.57106L12.0973 1.57033L12.0965 1.57008L12.0956 1.56984L12.0929 1.5691L12.0919 1.56886L12.0638 1.5608L12.0628 1.56056L12.0621 1.56007H12.0611L12.0602 1.55983L12.0592 1.55958L12.0582 1.55909L12.0572 1.55885L12.0565 1.55861L12.0555 1.55836L12.0545 1.55812L12.0538 1.55787L12.0528 1.55763L12.0484 1.55641L12.0477 1.55616L12.0467 1.55592L12.046 1.55568L12.0445 1.55519L12.0436 1.55494L12.0426 1.5547L12.0418 1.55446L12.0409 1.55421L12.0399 1.55397L12.0389 1.55372L12.0379 1.55348L11.9996 1.54249L11.9986 1.54225L11.9977 1.542L11.9969 1.54176H11.9959L11.9947 1.54127L11.9938 1.54103L11.9928 1.54078H11.9918L11.9908 1.54054L11.9898 1.5403L11.9889 1.54005L11.9879 1.53981L11.9852 1.53908L11.9842 1.53883L11.9835 1.5381H11.9825L11.9815 1.53785L11.9806 1.53761L11.9796 1.53737L11.9786 1.53712L11.9776 1.53688L11.9767 1.53663L11.9757 1.53639L11.9747 1.53615L11.974 1.53566L11.973 1.53541L11.972 1.53517L11.971 1.53492L11.9703 1.53444L11.9693 1.53419L11.9684 1.53395L11.9674 1.5337L11.9664 1.53346L11.9654 1.53322L11.9645 1.53297L11.9635 1.53273L11.9625 1.53248L11.9605 1.53199L11.9596 1.53175L11.9376 1.52589L11.9366 1.52565L11.9356 1.5254L11.9347 1.52516L11.9337 1.52467L11.9327 1.52443L11.9317 1.52418L11.9308 1.52394L11.9298 1.52369L11.9291 1.52345L11.9281 1.52321L11.9271 1.52296L11.9261 1.52272H11.9251L11.9242 1.52247L11.9208 1.52174L11.92 1.52101L11.919 1.52076L11.9181 1.52052L11.9171 1.52028L11.9161 1.52003L11.9151 1.51979L11.9142 1.51954L11.9132 1.5193L11.9122 1.51906L11.9112 1.51881L11.9103 1.51857L11.9093 1.51832L11.9083 1.51808L11.9073 1.51783L11.9063 1.51759L11.9054 1.51735H11.9044L11.9034 1.5171L11.9024 1.51686L11.9017 1.51613H11.9007L11.8995 1.51564H11.8985L11.8976 1.51539L11.8966 1.51515L11.8956 1.5149L11.8722 1.5088L11.8712 1.50856L11.8695 1.50807L11.8685 1.50782H11.8675L11.8666 1.50758H11.8656L11.8646 1.50734L11.8636 1.50636L11.8626 1.50612L11.8617 1.50587L11.8607 1.50563L11.8597 1.50538L11.8587 1.50514L11.858 1.5049L11.8448 1.50148L11.8419 1.50074C11.8055 1.49147 11.7687 1.48243 11.7318 1.47364L11.7289 1.47316L11.723 1.47169L11.7201 1.4712L11.7171 1.47047L11.7142 1.46974L11.6615 1.45753L11.6585 1.4568L11.6451 1.45387L11.5912 1.44191L11.5777 1.43898L11.5235 1.42701L11.5099 1.42408L11.4688 1.41554L11.4552 1.41285L11.4415 1.40992H11.4408L11.4373 1.40919H11.4366L11.4356 1.40895L11.3998 1.40187H11.3988H11.398L11.3973 1.40162L11.3963 1.40138H11.3956H11.3946L11.3939 1.40113H11.3932H11.3922L11.3915 1.40089H11.3907H11.3897L11.389 1.40065L11.3883 1.4004H11.3873L11.3729 1.3965L11.3172 1.386L11.3033 1.38356L11.2477 1.37355L11.2337 1.37086L11.1776 1.36109L11.1634 1.3589L11.1212 1.35182L11.1068 1.34962L11.0926 1.34742L11.0787 1.34523L11.0501 1.34083L11.036 1.33863L11.0216 1.33644L11.0074 1.33424L10.9786 1.32984C10.0167 1.33595 9.11018 1.58253 8.31696 2.01198C7.48029 2.46486 6.76861 3.11941 6.24883 3.90848C6.04814 4.2139 5.6375 4.29886 5.33208 4.09793C5.02665 3.89725 4.94169 3.48684 5.14238 3.18118C5.78447 2.20656 6.6607 1.39967 7.68854 0.843269C8.68147 0.305667 9.81478 0 11.0147 0H21.8093C24.0625 0 26.1103 0.921394 27.5947 2.40578C29.0786 3.88992 30 5.93779 30 8.19098V17.007C30 17.3744 29.7024 17.672 29.3352 17.672H23.1191V19.581C23.1191 19.8847 22.9941 20.1623 22.7929 20.3649L22.7885 20.3691C22.5859 20.5695 22.3093 20.694 22.0065 20.694H17.0141V26.6374H15.0358V20.694H10.0435C9.73861 20.694 9.46126 20.5688 9.25984 20.3676L9.25862 20.3661L9.2574 20.3676C9.05598 20.1662 8.93123 19.8879 8.93123 19.581V17.672H4.64994ZM0.936531 4.73295H11.9308C12.0565 4.73295 12.1759 4.75858 12.2857 4.80424C12.4 4.8516 12.5028 4.92094 12.5902 5.0059L12.5948 5.01054C12.6808 5.09697 12.7491 5.19926 12.7958 5.31181C12.8419 5.42363 12.8673 5.54497 12.8673 5.66997V13.2252C12.8673 13.3202 12.8526 13.4134 12.8253 13.5018C12.8002 13.5836 12.7638 13.6603 12.7176 13.7308C12.7064 13.7555 12.6932 13.7789 12.6786 13.8009L12.6703 13.8126C12.6529 13.8373 12.6334 13.8607 12.6114 13.8827L12.6107 13.8834C12.5912 13.9029 12.5714 13.9191 12.5509 13.9337C12.5453 13.9379 12.5397 13.9413 12.5336 13.9447L12.516 13.9562C12.4369 14.0206 12.3468 14.0724 12.2496 14.1083C12.1493 14.1451 12.0416 14.1656 11.9308 14.1656H0.936531C0.810553 14.1656 0.691168 14.14 0.581304 14.0944C0.467045 14.047 0.364261 13.9774 0.277102 13.8927L0.274905 13.8905L0.274416 13.891C0.18799 13.8046 0.118653 13.7018 0.0710455 13.5873C0.0251467 13.4759 0 13.3553 0 13.2289V5.67339C0 5.54668 0.0251467 5.42607 0.0712896 5.31498C0.118897 5.20024 0.188234 5.0977 0.27466 5.01127C0.279299 5.00663 0.283938 5.00248 0.288821 4.99833C0.37305 4.91703 0.470951 4.85233 0.578618 4.80766C0.676031 4.76713 0.780768 4.74296 0.890388 4.73759C0.905037 4.73466 0.920662 4.73295 0.936531 4.73295ZM0.993905 12.3834L4.28714 9.08064L0.993905 6.3958V12.3834ZM5.0601 9.7137L1.61598 13.1676H11.2313L7.94294 9.7181L6.85601 10.6434C6.76568 10.7232 6.65142 10.765 6.5357 10.766C6.42364 10.7672 6.30987 10.7303 6.21563 10.6534L5.0601 9.7137ZM8.70271 9.07258L11.87 12.3951V6.37505L8.70271 9.07258ZM1.75001 5.73052L6.52544 9.62459L11.0936 5.73052H1.75001ZM21.7892 17.672H17.1649H10.2606V19.3642H21.7892V17.672ZM17.8295 16.3424H22.4543H28.6704V8.19098C28.6704 6.30474 27.8979 4.58988 26.6543 3.34573C25.4104 2.10182 23.6958 1.32984 21.8093 1.32984H14.6769L14.6905 1.33961L14.7045 1.34913L14.7072 1.35109L14.7318 1.36842L14.7455 1.37819L14.7594 1.38795L14.7599 1.38844L14.7985 1.41603L14.7999 1.417L14.8134 1.42701L14.8141 1.4275L14.8156 1.42872L14.8517 1.45509L14.8531 1.45607L14.8536 1.45655L14.8673 1.46656L14.8807 1.47657L14.8815 1.47706L14.8824 1.47755L14.9071 1.49611L14.9088 1.49757L14.9423 1.52296L14.9427 1.52345L14.9432 1.52369L14.9655 1.54078L15.0035 1.57057L15.0184 1.58229L15.0194 1.58278L15.0199 1.58326L15.0214 1.58424L15.0221 1.58473L15.0228 1.58522L15.025 1.58668L15.0258 1.58717L15.0555 1.61085L15.0563 1.61134L15.057 1.61183L15.0592 1.61354L15.0597 1.61403L15.0604 1.61452L15.0612 1.61622L15.0619 1.61671L15.0626 1.6172L15.0634 1.61769L15.0641 1.61818L15.0763 1.62819L15.0768 1.62843L15.077 1.62868L15.1149 1.65919L15.1305 1.67213L15.131 1.67238L15.1317 1.67287L15.1324 1.6736L15.1332 1.67409L15.1339 1.67482L15.1346 1.67531L15.1351 1.67555L15.1698 1.7046L15.1708 1.70509L15.1713 1.70558L15.1727 1.7068L15.1737 1.70729L15.1742 1.70778L15.1752 1.70827L15.1757 1.70875L15.1766 1.70924L15.1771 1.70973L15.1776 1.70997L15.1786 1.71071L15.1857 1.71681L15.1866 1.71754L15.1871 1.71803L15.1881 1.71876L15.1891 1.71925L15.1896 1.71998L15.1906 1.72047L15.1915 1.72121L15.192 1.72169C15.2059 1.73317 15.2196 1.74489 15.233 1.75661L15.2335 1.75709L15.2345 1.75783L15.2355 1.75856L15.236 1.75905L15.2369 1.75954L15.2384 1.76076L15.2389 1.76149L15.2399 1.76198L15.2408 1.76271L15.2413 1.7632L15.2423 1.76393C15.2548 1.77492 15.2677 1.7859 15.2804 1.79713L15.2809 1.79762L15.2824 1.79884L15.2833 1.79933V1.80202L15.2838 1.80275L15.2848 1.80324L15.2858 1.80373L15.2863 1.80446L15.2872 1.80519L15.2877 1.80592L15.2916 1.80885L15.296 1.81251L15.2965 1.81325L15.2975 1.81374L15.298 1.81422L15.299 1.81471L15.2994 1.8152L15.2999 1.81569L15.3009 1.81618L15.3385 1.84962L15.339 1.85011L15.34 1.8506L15.3405 1.85133L15.3414 1.85182L15.3424 1.85255L15.3429 1.85304L15.3463 1.85573L15.3468 1.85622L15.3492 1.85841L15.3502 1.8589L15.3507 1.85963L15.3898 1.89503L15.3903 1.89552L15.3912 1.89626L15.3927 1.89748L15.3932 1.89821L15.3942 1.8987L15.3947 1.89943L15.3956 1.89992L15.3966 1.90065L15.4005 1.90407L15.4025 1.90602L15.4034 1.90675L15.403 1.9092L15.4039 1.90993L15.4049 1.91066C15.42 1.92482 15.4354 1.93898 15.4506 1.95314L15.4515 1.95387L15.4525 1.95461V1.95485L15.453 1.95509L15.454 1.95583L15.4545 1.95656L15.4554 1.95729L15.4564 1.95802L15.4569 1.95876L15.4579 1.95949L15.4589 1.96022C15.4728 1.97316 15.4865 1.98634 15.5004 1.99953L15.5009 2.00026L15.5018 2.00075L15.5021 2.00197L15.5031 2.0027L15.504 2.00343L15.5045 2.00417L15.5055 2.0049C16.6146 3.06252 17.3747 4.49344 17.8019 6.28032C17.8195 6.34063 17.8295 6.40435 17.8295 6.47051V16.3424Z" fill="#FFC107"/>
</svg>
