<svg width="30" height="27" viewBox="0 0 30 27" fill="none" xmlns="http://www.w3.org/2000/svg">
<g clip-path="url(#clip0_1467_8078)">
<path fill-rule="evenodd" clip-rule="evenodd" d="M0.681152 10.1538L15 0L29.3921 10.1538H0.681152ZM0 24.9707H2.2168V23.4253H2.53906V22.688H3.479V13.8428H1.55762V11.7236H28.4399V13.8428H26.521V22.688H27.4609V23.4253H27.7832V24.9707H30V26.5894H0V24.9707ZM7.95654 23.4253H9.04053V22.688H9.98047V13.8428H7.0166V22.688H7.95654V23.4253ZM14.458 23.4253H15.5444V22.688H16.4819V13.8428H13.5181V22.688H14.458V23.4253ZM20.9595 23.4253H22.0459V22.688H22.9858V13.8428H20.0195V22.688H20.9595V23.4253ZM10.1782 7.59277L15.022 3.87695L19.8926 7.59277H10.1782Z" fill="#FFC107"/>
</g>
<defs>
<clipPath id="clip0_1467_8078">
<rect width="30" height="26.5894" fill="white"/>
</clipPath>
</defs>
</svg>
