<svg width="59" height="40" viewBox="0 0 59 40" fill="none" xmlns="http://www.w3.org/2000/svg">
<path fill-rule="evenodd" clip-rule="evenodd" d="M34.6587 12.2414C34.7385 12.8949 34.9871 13.5148 35.3789 14.0369L36.8864 16.4964C37.4449 17.4914 38.1276 18.4075 38.9172 19.2216C39.7265 19.9971 40.7955 20.4243 41.9035 20.4152C43.0114 20.406 44.0736 19.9611 44.8705 19.1724C45.6879 18.2987 46.3885 17.3178 46.9542 16.2554L48.6538 13.3876C48.914 12.9251 49.039 12.3958 49.0138 11.8626C48.9178 11.2625 47.7992 11.6216 47.4247 11.5675L48.0104 8.93576C43.6895 9.63428 40.4632 6.3483 35.9022 8.28152L36.2287 11.3904C35.6045 11.4199 34.6299 11.2281 34.6587 12.2414ZM12.6027 17.8099V32.1442H14.8832V28.1597C14.8832 28.0781 14.8991 27.9973 14.9298 27.9221C14.9606 27.8468 15.0056 27.7786 15.0624 27.7214C15.1191 27.6641 15.1864 27.6191 15.2604 27.5887C15.3343 27.5584 15.4133 27.5435 15.493 27.5448H39.8486C40.0061 27.5461 40.1568 27.6108 40.2682 27.7249C40.3796 27.839 40.4427 27.9934 40.444 28.1548V32.031H42.2156V26.2904C42.2143 26.1147 42.1456 25.9465 42.0243 25.8223C41.9031 25.698 41.7389 25.6276 41.5674 25.6263H40.8329L41.1113 24.2785C40.9591 24.0434 40.8758 23.7686 40.8713 23.4865C40.2113 23.8827 39.493 24.1667 38.7444 24.3277C37.981 23.4422 37.9186 22.5125 38.7444 21.5287C39.688 21.7762 40.5795 22.1979 41.3754 22.7732C41.5552 22.6935 41.7513 22.6598 41.9467 22.6749C42.7869 22.0698 43.8671 21.8239 44.7841 21.3664C45.898 22.4781 45.7779 23.5013 44.6833 24.4507C44.0767 24.3072 43.4897 24.0875 42.9357 23.7964C42.9182 23.9653 42.8778 24.1309 42.8157 24.2883L44.0304 30.1913C45.1271 27.7405 45.8462 25.1302 46.162 22.4535C45.728 21.923 45.3256 21.3661 44.957 20.7859L44.7169 20.4219C43.8673 21.0102 42.8615 21.3159 41.8363 21.2975C40.6752 21.3089 39.5482 20.8955 38.658 20.1317C38.436 20.9023 38.1267 21.6436 37.7362 22.3404C37.7124 22.3746 37.6832 22.4045 37.6498 22.4289C37.8253 23.506 38.0544 24.5732 38.3363 25.6263H27.2123C27.9087 25.0213 28.6668 24.4952 29.4736 24.0571C31.1011 23.1274 35.2973 22.8126 37.1265 21.5976C37.4417 20.9193 37.7096 20.2191 37.9282 19.502V19.443C37.2704 18.681 36.6837 17.8575 36.1758 16.9834L34.6683 14.5239C34.1874 13.8692 33.8917 13.0914 33.8137 12.2758C33.7993 12.0002 33.8504 11.725 33.9626 11.474C34.0733 11.2217 34.2535 11.008 34.4811 10.8591C34.5932 10.7777 34.716 10.7131 34.846 10.6673C34.7396 9.19417 34.7155 7.71602 34.7739 6.24008C34.8097 5.9074 34.8723 5.57833 34.9612 5.25626C35.5277 3.21482 37.2033 1.75877 39.1381 1.07501C40.0983 0.740508 39.7142 -0.0514706 40.6648 0.00263969C42.9165 0.125618 46.3925 1.61119 47.7272 3.19023C49.5948 5.39891 49.1147 8.10935 49.0522 10.8149C49.2479 10.8661 49.4259 10.9718 49.5665 11.1203C49.7072 11.2687 49.805 11.4541 49.8492 11.656C50.2093 13.1318 48.2985 15.6848 47.6887 16.7178C47.0838 17.8488 46.3328 18.8912 45.4563 19.8169L45.413 19.8611L45.6867 20.2743C45.9844 20.722 46.3253 21.2582 46.6469 21.632C48.5097 22.8224 52.6242 23.1422 54.2278 24.0571C58.2366 26.3494 57.3436 28.2433 57.5885 32.1442H58.4047C58.5622 32.1455 58.7129 32.2101 58.8242 32.3242C58.9356 32.4384 58.9987 32.5928 59 32.7541V40H0.0336073V32.7541C0.0348624 32.5928 0.0979873 32.4384 0.209362 32.3242C0.320737 32.2101 0.471433 32.1455 0.628936 32.1442H8.54105V17.8099H0.772968C0.568353 17.8086 0.372476 17.7247 0.227788 17.5765C0.083101 17.4282 0.00125921 17.2275 0 17.0179L0 6.95336C0 6.74331 0.0814374 6.54187 0.226397 6.39334C0.371357 6.24482 0.567964 6.16138 0.772968 6.16138H19.305C19.5088 6.16395 19.7034 6.24837 19.8471 6.39648C19.9907 6.54459 20.0719 6.74455 20.0732 6.95336V17.0179C20.0719 17.2267 19.9907 17.4266 19.8471 17.5747C19.7034 17.7229 19.5088 17.8073 19.305 17.8099H12.6027ZM3.08707 8.77835H17.0101C17.2134 8.77964 17.4081 8.86298 17.5519 9.0103C17.6957 9.15762 17.777 9.35707 17.7783 9.56541V12.8957C17.7758 13.1041 17.6942 13.3033 17.5508 13.4511C17.4074 13.599 17.2135 13.6838 17.0101 13.6876H3.08707C2.88284 13.6851 2.68768 13.6008 2.54325 13.4528C2.39883 13.3049 2.31659 13.1049 2.3141 12.8957V9.56541C2.31537 9.35622 2.39737 9.15603 2.54219 9.00857C2.68701 8.86111 2.88289 8.77834 3.08707 8.77835Z" fill="#FFC107"/>
</svg>
