<svg width="30" height="37" viewBox="0 0 30 37" fill="none" xmlns="http://www.w3.org/2000/svg">
<path d="M12.3417 31.3634H1.50778C0.675 31.3634 0 30.6884 0 29.8564V1.50708C0 0.672877 0.673585 0 1.50778 0H15.7252C15.9828 0 16.2184 0.117453 16.3726 0.308491L23.7906 7.53184C24.1896 7.9309 24.4005 8.24434 24.4005 8.34057L24.3991 17.9172C23.862 17.6908 23.3002 17.5125 22.7179 17.3873L22.7172 9.34811H15.7252C15.2554 9.34811 14.8804 8.96533 14.8804 8.50259V1.67618H1.68396V29.6795H11.608C11.7991 30.2682 12.0453 30.8314 12.3417 31.3634ZM18.7726 25.7441L19.9429 26.8599L22.413 24.3198C22.6061 24.1238 22.7278 23.966 22.9663 24.2123L23.7396 25.0047C23.9936 25.2559 23.9816 25.4031 23.7417 25.6373L20.3851 28.9797C19.88 29.475 19.9677 29.5054 19.4554 28.9974L17.47 27.0219C17.3632 26.9066 17.3745 26.7899 17.4913 26.6745L18.3899 25.7427C18.5257 25.5991 18.634 25.6118 18.7726 25.7441ZM20.6958 19.3988C22.7186 19.3988 24.5505 20.2189 25.8764 21.5448C27.2031 22.8708 28.0224 24.7026 28.0224 26.7262C28.0224 28.2064 27.5837 29.584 26.8288 30.7366L30 34.1929L27.8137 36.1917L24.755 32.8266C23.5932 33.6014 22.1972 34.0535 20.6958 34.0535C18.6722 34.0535 16.8403 33.2328 15.5151 31.9068C14.1884 30.5809 13.3684 28.7491 13.3684 26.7262C13.3684 24.7026 14.1884 22.8708 15.5144 21.5448C16.8403 20.2189 18.6722 19.3988 20.6958 19.3988ZM24.9142 22.5071C23.8351 21.4274 22.3436 20.7594 20.6958 20.7594C19.0479 20.7594 17.5564 21.4274 16.4774 22.5071C15.3976 23.5868 14.7297 25.0783 14.7297 26.7262C14.7297 28.3733 15.3976 29.8656 16.4774 30.9446C17.5564 32.0243 19.0479 32.6915 20.6958 32.6915C22.3436 32.6915 23.8351 32.0243 24.9142 30.9446C25.9939 29.8649 26.6618 28.3733 26.6618 26.7262C26.6618 25.0783 25.9939 23.5868 24.9142 22.5071ZM4.47665 14.2302H19.9026V13.1448H4.47665V14.2302ZM4.47665 26.1941H11.1573C11.1771 25.8262 11.2189 25.4639 11.279 25.1087H4.47665V26.1941ZM4.47665 22.2064H12.2774C12.4804 21.8285 12.709 21.4656 12.9587 21.121H4.47665V22.2064ZM4.47665 18.2179H16.3465C17.434 17.6611 18.6432 17.3066 19.9238 17.204V17.1333H4.47665V18.2179ZM4.47665 6.25401H9.56391V5.16934H4.47665V6.25401ZM4.47665 10.2425H11.6979V9.15707H4.47665V10.2425Z" fill="#FFC107"/>
</svg>
