<svg width="107" height="22" viewBox="0 0 107 22" fill="none" xmlns="http://www.w3.org/2000/svg">
<path d="M10.03 21L0.85 -1.43051e-06H5.08L13.27 18.99H10.84L19.12 -1.43051e-06H23.02L13.87 21H10.03ZM31.2048 21.21C29.4248 21.21 27.8648 20.86 26.5248 20.16C25.2048 19.44 24.1748 18.46 23.4348 17.22C22.7148 15.98 22.3548 14.57 22.3548 12.99C22.3548 11.39 22.7048 9.98 23.4048 8.76C24.1248 7.52 25.1048 6.55 26.3448 5.85C27.6048 5.15 29.0348 4.8 30.6348 4.8C32.1948 4.8 33.5848 5.14 34.8048 5.82C36.0248 6.5 36.9848 7.46 37.6848 8.7C38.3848 9.94 38.7348 11.4 38.7348 13.08C38.7348 13.24 38.7248 13.42 38.7048 13.62C38.7048 13.82 38.6948 14.01 38.6748 14.19H25.3248V11.7H36.6948L35.2248 12.48C35.2448 11.56 35.0548 10.75 34.6548 10.05C34.2548 9.35 33.7048 8.8 33.0048 8.4C32.3248 8 31.5348 7.8 30.6348 7.8C29.7148 7.8 28.9048 8 28.2048 8.4C27.5248 8.8 26.9848 9.36 26.5848 10.08C26.2048 10.78 26.0148 11.61 26.0148 12.57V13.17C26.0148 14.13 26.2348 14.98 26.6748 15.72C27.1148 16.46 27.7348 17.03 28.5348 17.43C29.3348 17.83 30.2548 18.03 31.2948 18.03C32.1948 18.03 33.0048 17.89 33.7248 17.61C34.4448 17.33 35.0848 16.89 35.6448 16.29L37.6548 18.6C36.9348 19.44 36.0248 20.09 34.9248 20.55C33.8448 20.99 32.6048 21.21 31.2048 21.21ZM51.427 4.8C52.707 4.8 53.847 5.05 54.847 5.55C55.867 6.05 56.667 6.82 57.247 7.86C57.827 8.88 58.117 10.2 58.117 11.82V21H54.367V12.3C54.367 10.88 54.027 9.82 53.347 9.12C52.687 8.42 51.757 8.07 50.557 8.07C49.677 8.07 48.897 8.25 48.217 8.61C47.537 8.97 47.007 9.51 46.627 10.23C46.267 10.93 46.087 11.82 46.087 12.9V21H42.337V4.98H45.907V9.3L45.277 7.98C45.837 6.96 46.647 6.18 47.707 5.64C48.787 5.08 50.027 4.8 51.427 4.8ZM68.9041 21.21C67.1441 21.21 65.7841 20.76 64.8241 19.86C63.8641 18.94 63.3841 17.59 63.3841 15.81V1.44H67.1341V15.72C67.1341 16.48 67.3241 17.07 67.7041 17.49C68.1041 17.91 68.6541 18.12 69.3541 18.12C70.1941 18.12 70.8941 17.9 71.4541 17.46L72.5041 20.13C72.0641 20.49 71.5241 20.76 70.8841 20.94C70.2441 21.12 69.5841 21.21 68.9041 21.21ZM60.7441 8.1V5.1H71.4241V8.1H60.7441ZM85.4589 21V17.76L85.2489 17.07V11.4C85.2489 10.3 84.9189 9.45 84.2589 8.85C83.5989 8.23 82.5989 7.92 81.2589 7.92C80.3589 7.92 79.4689 8.06 78.5889 8.34C77.7289 8.62 76.9989 9.01 76.3989 9.51L74.9289 6.78C75.7889 6.12 76.8089 5.63 77.9889 5.31C79.1889 4.97 80.4289 4.8 81.7089 4.8C84.0289 4.8 85.8189 5.36 87.0789 6.48C88.3589 7.58 88.9989 9.29 88.9989 11.61V21H85.4589ZM80.4189 21.21C79.2189 21.21 78.1689 21.01 77.2689 20.61C76.3689 20.19 75.6689 19.62 75.1689 18.9C74.6889 18.16 74.4489 17.33 74.4489 16.41C74.4489 15.51 74.6589 14.7 75.0789 13.98C75.5189 13.26 76.2289 12.69 77.2089 12.27C78.1889 11.85 79.4889 11.64 81.1089 11.64H85.7589V14.13H81.3789C80.0989 14.13 79.2389 14.34 78.7989 14.76C78.3589 15.16 78.1389 15.66 78.1389 16.26C78.1389 16.94 78.4089 17.48 78.9489 17.88C79.4889 18.28 80.2389 18.48 81.1989 18.48C82.1189 18.48 82.9389 18.27 83.6589 17.85C84.3989 17.43 84.9289 16.81 85.2489 15.99L85.8789 18.24C85.5189 19.18 84.8689 19.91 83.9289 20.43C83.0089 20.95 81.8389 21.21 80.4189 21.21ZM98.7616 21.21C97.4216 21.21 96.1316 21.04 94.8916 20.7C93.6716 20.34 92.7016 19.91 91.9816 19.41L93.4216 16.56C94.1416 17.02 95.0016 17.4 96.0016 17.7C97.0016 18 98.0016 18.15 99.0016 18.15C100.182 18.15 101.032 17.99 101.552 17.67C102.092 17.35 102.362 16.92 102.362 16.38C102.362 15.94 102.182 15.61 101.822 15.39C101.462 15.15 100.992 14.97 100.412 14.85C99.8316 14.73 99.1816 14.62 98.4616 14.52C97.7616 14.42 97.0516 14.29 96.3316 14.13C95.6316 13.95 94.9916 13.7 94.4116 13.38C93.8316 13.04 93.3616 12.59 93.0016 12.03C92.6416 11.47 92.4616 10.73 92.4616 9.81C92.4616 8.79 92.7516 7.91 93.3316 7.17C93.9116 6.41 94.7216 5.83 95.7616 5.43C96.8216 5.01 98.0716 4.8 99.5116 4.8C100.592 4.8 101.682 4.92 102.782 5.16C103.882 5.4 104.792 5.74 105.512 6.18L104.072 9.03C103.312 8.57 102.542 8.26 101.762 8.1C101.002 7.92 100.242 7.83 99.4816 7.83C98.3416 7.83 97.4916 8 96.9316 8.34C96.3916 8.68 96.1216 9.11 96.1216 9.63C96.1216 10.11 96.3016 10.47 96.6616 10.71C97.0216 10.95 97.4916 11.14 98.0716 11.28C98.6516 11.42 99.2916 11.54 99.9916 11.64C100.712 11.72 101.422 11.85 102.122 12.03C102.822 12.21 103.462 12.46 104.042 12.78C104.642 13.08 105.122 13.51 105.482 14.07C105.842 14.63 106.022 15.36 106.022 16.26C106.022 17.26 105.722 18.13 105.122 18.87C104.542 19.61 103.712 20.19 102.632 20.61C101.552 21.01 100.262 21.21 98.7616 21.21Z" fill="#1E1E1E"/>
</svg>
