<svg width="21" height="20" viewBox="0 0 21 20" fill="none" xmlns="http://www.w3.org/2000/svg">
<path d="M10.5155 1.3044C10.4271 1.30887 10.3388 1.29533 10.2558 1.2646C10.1728 1.23386 10.097 1.18657 10.0329 1.12561C9.96873 1.06465 9.91767 0.991279 9.88278 0.909968C9.84789 0.828656 9.82989 0.741099 9.82989 0.652618C9.82989 0.564137 9.84789 0.47658 9.88278 0.395268C9.91767 0.313957 9.96873 0.24059 10.0329 0.179626C10.097 0.118663 10.1728 0.0713758 10.2558 0.04064C10.3388 0.00990418 10.4271 -0.00363867 10.5155 0.000834588C12.7175 0.000672339 14.858 0.727341 16.6047 2.06807C18.3515 3.4088 19.6068 5.2886 20.176 7.41575C20.7452 9.54291 20.5963 11.7984 19.7525 13.8323C18.9087 15.8662 17.4171 17.5647 15.5093 18.6642C13.6014 19.7637 11.384 20.2027 9.20116 19.9131C7.0183 19.6235 4.99207 18.6215 3.43692 17.0626C1.88177 15.5037 0.88467 13.475 0.600364 11.2915C0.316059 9.10794 0.760447 6.8916 1.86456 4.98644L1.15019 5.26017C0.939697 5.34007 0.706086 5.33308 0.500747 5.24074C0.295408 5.1484 0.135161 4.97827 0.0552581 4.76778C-0.0246444 4.55729 -0.017657 4.32368 0.074683 4.11834C0.167023 3.913 0.337152 3.75276 0.547643 3.67285L2.75419 2.8383C2.83824 2.80699 2.92665 2.78897 3.01624 2.78489C3.21816 2.75192 3.42518 2.79352 3.5987 2.90193C3.77221 3.01033 3.90038 3.17815 3.95928 3.37408L4.65196 5.6257C4.68791 5.73303 4.70196 5.84648 4.69329 5.95933C4.68461 6.07219 4.65339 6.18216 4.60146 6.28273C4.54953 6.3833 4.47795 6.47244 4.39095 6.54485C4.30396 6.61727 4.20333 6.6715 4.095 6.70433C3.98668 6.73716 3.87287 6.74793 3.76032 6.736C3.64776 6.72406 3.53874 6.68967 3.43971 6.63485C3.34068 6.58003 3.25365 6.5059 3.18378 6.41685C3.11391 6.3278 3.06262 6.22564 3.03293 6.11642L2.92277 5.75756C1.89911 7.58956 1.57276 9.73005 2.00399 11.7839C2.43521 13.8377 3.59487 15.6662 5.26891 16.9318C6.94295 18.1974 9.01832 18.8146 11.1119 18.6696C13.2055 18.5246 15.1759 17.627 16.6595 16.1427C17.8746 14.9271 18.7022 13.3786 19.0375 11.6928C19.3728 10.007 19.2008 8.25964 18.5432 6.67158C17.8857 5.08352 16.7721 3.72604 15.3432 2.77073C13.9143 1.81541 12.2343 1.30514 10.5155 1.3044ZM8.16208 10.8183C7.61127 10.2257 8.45584 9.34112 9.0684 9.90026C9.28538 10.0972 9.59917 10.386 9.81615 10.5813L11.9342 8.07761C12.5201 7.47339 13.4364 8.36136 12.8656 8.97058L10.3186 11.9199C10.2024 12.0415 10.0436 12.1134 9.87562 12.1205C9.70761 12.1277 9.54334 12.0695 9.41724 11.9583C9.06005 11.6244 8.53595 11.1237 8.16041 10.8133L8.16208 10.8183ZM6.72999 5.61068C6.65562 5.4812 6.63573 5.32748 6.6747 5.18333C6.71367 5.03919 6.80831 4.91643 6.93779 4.84206C7.06727 4.76769 7.22099 4.7478 7.36514 4.78677C7.50928 4.82574 7.63204 4.92038 7.70641 5.04986L7.98515 5.5339C8.05483 5.66286 8.07142 5.81392 8.03138 5.95493C7.99134 6.09593 7.89784 6.21574 7.77079 6.28884C7.64374 6.36194 7.49317 6.38255 7.35115 6.3463C7.20912 6.31004 7.08686 6.21977 7.0104 6.09472L6.72999 5.61068ZM5.06089 7.86897C4.99678 7.83182 4.94061 7.7824 4.89559 7.72354C4.85058 7.66468 4.8176 7.59753 4.79853 7.52593C4.77947 7.45432 4.7747 7.37966 4.78449 7.30621C4.79428 7.23276 4.81844 7.16196 4.85559 7.09785C4.89274 7.03373 4.94216 6.97757 5.00102 6.93255C5.05988 6.88754 5.12703 6.85456 5.19863 6.83549C5.27024 6.81643 5.3449 6.81165 5.41835 6.82144C5.4918 6.83123 5.5626 6.85539 5.62671 6.89255L6.11576 7.17796C6.17987 7.21512 6.23604 7.26453 6.28105 7.32339C6.32607 7.38225 6.35905 7.4494 6.37811 7.52101C6.39718 7.59261 6.40195 7.66727 6.39216 7.74072C6.38237 7.81417 6.35821 7.88497 6.32106 7.94909C6.28391 8.0132 6.23449 8.06937 6.17563 8.11438C6.11677 8.1594 6.04962 8.19238 5.97802 8.21144C5.8334 8.24994 5.67942 8.22942 5.54993 8.15439L5.0659 7.87398L5.06089 7.86897ZM5.87875 13.6107C5.74979 13.6804 5.59872 13.6969 5.45772 13.6569C5.31671 13.6169 5.19691 13.5234 5.12381 13.3963C5.05071 13.2693 5.03009 13.1187 5.06635 12.9767C5.10261 12.8346 5.19288 12.7124 5.31793 12.6359L5.80864 12.3522C5.93813 12.2778 6.09185 12.2579 6.23599 12.2969C6.38014 12.3359 6.5029 12.4305 6.57727 12.56C6.65163 12.6895 6.67152 12.8432 6.63255 12.9873C6.59358 13.1315 6.49894 13.2542 6.36946 13.3286L5.88375 13.6073L5.87875 13.6107ZM4.57852 10.5596C4.42934 10.5596 4.28627 10.5003 4.18078 10.3948C4.07529 10.2893 4.01603 10.1463 4.01603 9.99707C4.01603 9.84789 4.07529 9.70482 4.18078 9.59933C4.28627 9.49385 4.42934 9.43459 4.57852 9.43459H5.13934C5.28852 9.43459 5.43159 9.49385 5.53707 9.59933C5.64256 9.70482 5.70182 9.84789 5.70182 9.99707C5.70182 10.1463 5.64256 10.2893 5.53707 10.3948C5.43159 10.5003 5.28852 10.5596 5.13934 10.5596H4.57852ZM10.8844 15.7338C10.8765 15.8779 10.8138 16.0135 10.709 16.1127C10.6042 16.2119 10.4654 16.2672 10.3211 16.2672C10.1767 16.2672 10.0379 16.2119 9.93313 16.1127C9.82835 16.0135 9.76558 15.8779 9.75773 15.7338V15.1796C9.76558 15.0355 9.82835 14.8999 9.93313 14.8007C10.0379 14.7014 10.1767 14.6461 10.3211 14.6461C10.4654 14.6461 10.6042 14.7014 10.709 14.8007C10.8138 14.8999 10.8765 15.0355 10.8844 15.1796V15.7388V15.7338ZM9.75773 4.25036C9.75357 4.17381 9.76505 4.0972 9.79147 4.02523C9.8179 3.95326 9.85872 3.88743 9.91144 3.83177C9.96416 3.7761 10.0277 3.73176 10.0981 3.70146C10.1685 3.67116 10.2444 3.65553 10.3211 3.65553C10.3977 3.65553 10.4736 3.67116 10.544 3.70146C10.6144 3.73176 10.678 3.7761 10.7307 3.83177C10.7834 3.88743 10.8242 3.95326 10.8506 4.02523C10.8771 4.0972 10.8885 4.17381 10.8844 4.25036V4.80951C10.8765 4.95361 10.8138 5.08922 10.709 5.18846C10.6042 5.28769 10.4654 5.34299 10.3211 5.34299C10.1767 5.34299 10.0379 5.28769 9.93313 5.18846C9.82835 5.08922 9.76558 4.95361 9.75773 4.80951V4.25537V4.25036ZM7.93842 15.2514C7.90365 15.3195 7.85539 15.3799 7.79656 15.4288C7.73774 15.4777 7.66958 15.5142 7.59623 15.5359C7.52288 15.5576 7.44588 15.5642 7.3699 15.5553C7.29393 15.5464 7.22056 15.522 7.15427 15.4839C7.08799 15.4457 7.03016 15.3944 6.9843 15.3332C6.93845 15.2719 6.90553 15.202 6.88754 15.1276C6.86955 15.0533 6.86688 14.9761 6.87968 14.9006C6.89248 14.8252 6.92048 14.7532 6.96199 14.6889L7.2424 14.2049C7.27944 14.1409 7.32873 14.0848 7.38745 14.0398C7.44616 13.9949 7.51316 13.9619 7.58461 13.9429C7.65606 13.9238 7.73057 13.919 7.80387 13.9287C7.87718 13.9385 7.94785 13.9625 8.01186 13.9996C8.07586 14.0366 8.13194 14.0859 8.1769 14.1446C8.22185 14.2033 8.2548 14.2703 8.27387 14.3418C8.29293 14.4132 8.29773 14.4877 8.288 14.561C8.27827 14.6344 8.2542 14.705 8.21716 14.769L7.93842 15.2531V15.2514ZM13.9355 14.6889C13.9723 14.753 13.9962 14.8238 14.0056 14.8971C14.0151 14.9704 14.0101 15.0449 13.9908 15.1163C13.9715 15.1876 13.9383 15.2545 13.8932 15.3131C13.848 15.3716 13.7918 15.4207 13.7277 15.4575C13.6636 15.4944 13.5928 15.5182 13.5195 15.5277C13.4462 15.5372 13.3717 15.5321 13.3003 15.5128C13.229 15.4935 13.1621 15.4604 13.1035 15.4152C13.045 15.3701 12.9959 15.3138 12.9591 15.2497L12.6853 14.7657C12.611 14.6362 12.5911 14.4825 12.6301 14.3383C12.669 14.1942 12.7637 14.0714 12.8931 13.9971C13.0226 13.9227 13.1763 13.9028 13.3205 13.9418C13.4646 13.9808 13.5874 14.0754 13.6618 14.2049L13.9355 14.6889ZM15.5762 12.6359C15.7055 12.7107 15.7997 12.8338 15.8382 12.9781C15.8767 13.1224 15.8563 13.2761 15.7815 13.4054C15.7067 13.5346 15.5836 13.6289 15.4393 13.6674C15.295 13.7059 15.1413 13.6855 15.0121 13.6107L14.5213 13.3319C14.3914 13.2562 14.2969 13.132 14.2585 12.9866C14.2202 12.8412 14.2412 12.6866 14.3169 12.5566C14.3926 12.4267 14.5168 12.3322 14.6622 12.2938C14.8076 12.2555 14.9623 12.2765 15.0922 12.3522L15.5762 12.6326V12.6359ZM15.2691 6.89255C15.3986 6.81818 15.5523 6.79829 15.6965 6.83726C15.8406 6.87623 15.9634 6.97087 16.0377 7.10035C16.1121 7.22983 16.132 7.38355 16.093 7.5277C16.054 7.67184 15.9594 7.7946 15.8299 7.86897L15.3459 8.14938C15.2181 8.21065 15.0718 8.22141 14.9364 8.17952C14.801 8.13762 14.6865 8.04615 14.6156 7.9234C14.5447 7.80065 14.5228 7.65567 14.5542 7.51747C14.5857 7.37926 14.6681 7.25801 14.7851 7.17796L15.2691 6.89755V6.89255ZM13.3029 5.26017C13.3779 5.13069 13.5013 5.03631 13.6459 4.99781C13.7906 4.95931 13.9445 4.97984 14.074 5.05487C14.2035 5.1299 14.2979 5.2533 14.3364 5.39791C14.3749 5.54253 14.3544 5.69651 14.2793 5.82599L13.9989 6.31003C13.9618 6.37436 13.9123 6.43075 13.8534 6.47597C13.7944 6.52118 13.7271 6.55435 13.6554 6.57357C13.5836 6.59279 13.5088 6.59768 13.4351 6.58798C13.3615 6.57827 13.2905 6.55415 13.2261 6.517C13.1618 6.47985 13.1054 6.43039 13.0602 6.37144C13.015 6.3125 12.9818 6.24523 12.9626 6.17347C12.9434 6.10171 12.9385 6.02686 12.9482 5.95321C12.9579 5.87956 12.982 5.80854 13.0192 5.74421L13.2979 5.26017H13.3029ZM16.4492 9.43292C16.5983 9.43292 16.7414 9.49218 16.8469 9.59767C16.9524 9.70315 17.0116 9.84622 17.0116 9.9954C17.0116 10.1446 16.9524 10.2877 16.8469 10.3931C16.7414 10.4986 16.5983 10.5579 16.4492 10.5579H15.8566C15.7074 10.5579 15.5644 10.4986 15.4589 10.3931C15.3534 10.2877 15.2941 10.1446 15.2941 9.9954C15.2941 9.84622 15.3534 9.70315 15.4589 9.59767C15.5644 9.49218 15.7074 9.43292 15.8566 9.43292H16.4492Z" fill="#FFC107"/>
</svg>
