<svg width="32" height="30" viewBox="0 0 32 30" fill="none" xmlns="http://www.w3.org/2000/svg">
<path d="M30.5333 5.59185H1.46667C0.666667 5.59185 0 4.9293 0 4.10775C0 3.31269 0.666667 2.65015 1.46667 2.65015H30.5067C31.3333 2.65015 32 3.31269 32 4.10775C32 4.9293 31.3333 5.59185 30.5333 5.59185Z" fill="#131313"/>
<path d="M30.5333 16.4576H1.46667C0.666667 16.4576 0 15.8216 0 15C0 14.1785 0.666667 13.5424 1.46667 13.5424H30.5067C31.3333 13.5424 31.9733 14.205 31.9733 15C32 15.8216 31.3333 16.4576 30.5333 16.4576Z" fill="#131313"/>
<path d="M30.5333 27.3499H1.46667C0.666667 27.3499 0 26.6873 0 25.8923C0 25.0707 0.666667 24.4347 1.46667 24.4347H30.5067C31.3333 24.4347 31.9733 25.0972 31.9733 25.8923C32 26.6873 31.3333 27.3499 30.5333 27.3499Z" fill="#131313"/>
<path d="M24.24 8.21556C26.5227 8.21556 28.3733 6.37644 28.3733 4.10778C28.3733 1.83911 26.5227 0 24.24 0C21.9572 0 20.1066 1.83911 20.1066 4.10778C20.1066 6.37644 21.9572 8.21556 24.24 8.21556Z" fill="#131313"/>
<path d="M8.77335 19.1078C11.0561 19.1078 12.9067 17.2687 12.9067 15C12.9067 12.7313 11.0561 10.8922 8.77335 10.8922C6.49057 10.8922 4.64001 12.7313 4.64001 15C4.64001 17.2687 6.49057 19.1078 8.77335 19.1078Z" fill="#131313"/>
<path d="M21.8133 30C24.0961 30 25.9467 28.1609 25.9467 25.8922C25.9467 23.6236 24.0961 21.7845 21.8133 21.7845C19.5305 21.7845 17.68 23.6236 17.68 25.8922C17.68 28.1609 19.5305 30 21.8133 30Z" fill="#131313"/>
</svg>
