<svg width="122" height="35" viewBox="0 0 122 35" fill="none" xmlns="http://www.w3.org/2000/svg">
<g clip-path="url(#clip0_1189_7345)">
<path fill-rule="evenodd" clip-rule="evenodd" d="M0 18.1216L0.0421433 18.0654L35 5.40136V0H0V18.1216ZM35 35H0V28.8822L0.0421433 28.9384L35 8.99057V35Z" fill="white"/>
<path fill-rule="evenodd" clip-rule="evenodd" d="M58.2631 13.8581V14.0197C58.2631 15.7616 57.6099 17.1242 56.3034 18.1076C54.997 19.0909 53.1848 19.5826 50.8599 19.5826C48.3454 19.5826 46.4068 18.8521 45.0301 17.3841C43.6534 15.9161 42.9651 13.8441 42.9651 11.168C42.9651 8.21795 43.6605 5.97031 45.0652 4.42506C46.456 2.8798 48.4859 2.10718 51.1549 2.10718C53.3675 2.10718 55.0743 2.5848 56.2753 3.53303C57.4694 4.48125 58.1086 5.86495 58.1788 7.68414H53.6133C53.5712 6.98175 53.3042 6.42686 52.8196 6.01246C52.3349 5.60507 51.6958 5.40138 50.9021 5.40138C49.8204 5.40138 48.9986 5.879 48.4297 6.82723C47.8678 7.77545 47.5868 9.18022 47.5868 11.0486C47.5868 12.7694 47.8678 14.0688 48.4367 14.9468C48.9986 15.8178 49.8344 16.2533 50.9442 16.2533C51.7449 16.2533 52.3841 16.0426 52.8688 15.6141C53.3464 15.1927 53.6133 14.6027 53.6554 13.8511H58.2631V13.8581Z" fill="white"/>
<path fill-rule="evenodd" clip-rule="evenodd" d="M58.1367 19.3157L64.3599 2.35303H69.7893L76.146 19.3157H71.152L70.0422 15.9934H63.7067L62.5969 19.3157H58.1367ZM68.9535 12.7484L66.9096 5.68235L64.6689 12.7554H68.9535V12.7484Z" fill="white"/>
<path fill-rule="evenodd" clip-rule="evenodd" d="M77.4031 19.3156V2.35999H81.8562V16.0425H89.0136V19.3156H77.4031Z" fill="white"/>
<path fill-rule="evenodd" clip-rule="evenodd" d="M104.101 13.8581V14.0197C104.101 15.7616 103.448 17.1242 102.141 18.1076C100.835 19.0909 99.0227 19.5826 96.6978 19.5826C94.1832 19.5826 92.2446 18.8521 90.8609 17.3841C89.4842 15.9161 88.7959 13.8441 88.7959 11.168C88.7959 8.21795 89.4983 5.97031 90.896 4.42506C92.2938 2.8798 94.3237 2.10718 96.9928 2.10718C99.2053 2.10718 100.912 2.5848 102.106 3.53303C103.307 4.48125 103.939 5.86495 104.01 7.68414H99.4441C99.402 6.98175 99.1351 6.42686 98.6504 6.01246C98.1658 5.60507 97.5266 5.40138 96.7329 5.40138C95.6512 5.40138 94.8224 5.879 94.2605 6.82723C93.6986 7.77545 93.4176 9.18022 93.4176 11.0486C93.4176 12.7694 93.6986 14.0688 94.2675 14.9468C94.8294 15.8178 95.6653 16.2533 96.775 16.2533C97.5758 16.2533 98.2149 16.0426 98.6996 15.6141C99.1772 15.1927 99.4441 14.6027 99.4862 13.8511H104.101V13.8581Z" fill="white"/>
<path fill-rule="evenodd" clip-rule="evenodd" d="M105.134 10.8449C105.134 8.0845 105.857 5.94222 107.304 4.40399C108.744 2.87278 110.767 2.10718 113.366 2.10718C115.957 2.10718 117.98 2.87278 119.42 4.40399C120.867 5.93519 121.591 8.0845 121.591 10.8449C121.591 13.5982 120.867 15.7476 119.42 17.2928C117.973 18.8381 115.957 19.6107 113.366 19.6107C110.774 19.6107 108.751 18.8381 107.304 17.2928C105.857 15.7405 105.134 13.5912 105.134 10.8449ZM109.741 10.8168C109.741 12.5657 110.043 13.8792 110.654 14.7642C111.258 15.6492 112.171 16.0847 113.366 16.0847C114.56 16.0847 115.459 15.6422 116.056 14.7642C116.653 13.8792 116.955 12.5657 116.955 10.8168C116.955 9.06082 116.653 7.74033 116.056 6.86235C115.452 5.97734 114.56 5.54186 113.366 5.54186C112.164 5.54186 111.258 5.98436 110.654 6.86937C110.043 7.75438 109.741 9.07487 109.741 10.8168Z" fill="white"/>
<path d="M121.59 21.9215H43.0212V22.5045H121.59V21.9215Z" fill="white"/>
<path fill-rule="evenodd" clip-rule="evenodd" d="M45.5288 26.9998C45.5217 27.2807 45.4164 27.5055 45.2057 27.667C44.995 27.8356 44.714 27.9129 44.3558 27.9129C43.9203 27.9129 43.5902 27.7724 43.3654 27.4914C43.1406 27.2105 43.0212 26.8031 43.0212 26.2763C43.0212 25.7425 43.1406 25.3281 43.3795 25.0401C43.6183 24.7521 43.9554 24.6046 44.3909 24.6046C44.7351 24.6046 45.009 24.6819 45.2057 24.8434C45.4094 24.998 45.5077 25.2157 45.5147 25.4966H45.0582C45.0441 25.3351 44.9739 25.2016 44.8474 25.0963C44.721 24.9909 44.5595 24.9418 44.3768 24.9418C44.0889 24.9418 43.8711 25.0541 43.7166 25.2859C43.5621 25.5177 43.4778 25.8408 43.4778 26.2623C43.4778 26.6696 43.5551 26.9857 43.7026 27.2105C43.8571 27.4352 44.0748 27.5476 44.3488 27.5476C44.5524 27.5476 44.714 27.4985 44.8404 27.4001C44.9598 27.3018 45.0301 27.1683 45.0511 26.9998H45.5288ZM48.6333 26.6696L48.0433 25.0893L47.4252 26.6696H48.6333ZM46.9265 27.8637H46.484L47.8466 24.6538H48.3032L49.5886 27.8637H49.0899L48.7668 27.0349H47.2847L46.9265 27.8637ZM50.7264 27.8637V24.6538H51.1479V27.4774H52.6088V27.8637H50.7264ZM55.9873 27.8637H53.6273V27.4071L55.4746 25.0331H53.7046V24.6538H55.9311V25.1103L54.1049 27.4633H55.9873V27.8637ZM59.0638 26.6696L58.4738 25.0893L57.8557 26.6696H59.0638ZM57.357 27.8637H56.9075L58.2701 24.6538H58.7266L60.012 27.8637H59.5133L59.1902 27.0349H57.7082L57.357 27.8637ZM62.1964 27.8637H61.185V24.6468H62.0841C62.3861 24.6468 62.6179 24.6678 62.7864 24.71C62.948 24.7521 63.0955 24.8224 63.2219 24.9277C63.4045 25.0682 63.538 25.2578 63.6363 25.4966C63.7347 25.7355 63.7768 26.0024 63.7768 26.2974C63.7768 26.5432 63.7417 26.768 63.6785 26.9787C63.6082 27.1824 63.5169 27.351 63.3905 27.4844C63.2641 27.6179 63.1095 27.7162 62.9339 27.7794C62.7583 27.8356 62.5125 27.8637 62.1964 27.8637ZM62.2948 27.4774C62.6389 27.4774 62.8988 27.379 63.0674 27.1824C63.236 26.9857 63.3203 26.6907 63.3203 26.2974C63.3203 25.883 63.2219 25.5599 63.0323 25.3351C62.8426 25.1103 62.5687 24.998 62.2105 24.998H61.5994V27.4704H62.2948V27.4774ZM66.8392 26.6696L66.2492 25.0893L65.6311 26.6696H66.8392ZM65.1324 27.8637H64.6899L66.0525 24.6538H66.5091L67.7945 27.8637H67.2958L66.9727 27.0349H65.4906L65.1324 27.8637ZM74.2916 26.9998C74.2845 27.2807 74.1792 27.5055 73.9685 27.667C73.7577 27.8356 73.4768 27.9129 73.1186 27.9129C72.6831 27.9129 72.353 27.7724 72.1282 27.4914C71.8964 27.2105 71.784 26.8031 71.784 26.2763C71.784 25.7425 71.9034 25.3281 72.1423 25.0401C72.3811 24.7521 72.7182 24.6046 73.1537 24.6046C73.4979 24.6046 73.7718 24.6819 73.9755 24.8434C74.1722 24.998 74.2775 25.2157 74.2845 25.4966H73.828C73.8139 25.3351 73.7437 25.2016 73.6173 25.0963C73.4908 24.9909 73.3293 24.9418 73.1467 24.9418C72.8587 24.9418 72.6409 25.0541 72.4864 25.2859C72.3319 25.5177 72.2476 25.8408 72.2476 26.2623C72.2476 26.6696 72.3249 26.9857 72.4794 27.2105C72.6339 27.4352 72.8446 27.5476 73.1256 27.5476C73.3293 27.5476 73.4908 27.4985 73.6102 27.4001C73.7297 27.3018 73.7999 27.1683 73.821 26.9998H74.2916ZM75.9211 26.2482C75.9211 26.6626 76.0054 26.9857 76.181 27.2105C76.3566 27.4352 76.6024 27.5476 76.9255 27.5476C77.2486 27.5476 77.5015 27.4352 77.67 27.2175C77.8386 26.9927 77.9299 26.6767 77.9299 26.2552C77.9299 25.8338 77.8456 25.5177 77.67 25.293C77.4944 25.0682 77.2486 24.9558 76.9255 24.9558C76.6024 24.9558 76.3566 25.0682 76.181 25.2859C76.0124 25.5107 75.9211 25.8338 75.9211 26.2482ZM75.4645 26.2693C75.4645 25.7355 75.591 25.3281 75.8438 25.0401C76.0967 24.7521 76.4619 24.6116 76.9325 24.6116C77.4031 24.6116 77.7614 24.7521 78.0142 25.0401C78.2671 25.3281 78.3935 25.7355 78.3935 26.2763C78.3935 26.8031 78.2671 27.2105 78.0142 27.4985C77.7614 27.7864 77.4031 27.9269 76.9325 27.9269C76.469 27.9269 76.1107 27.7794 75.8509 27.4914C75.591 27.1964 75.4645 26.789 75.4645 26.2693ZM79.7491 27.8637V24.6538H80.3602L81.8774 27.2667V24.6538H82.2637V27.8637H81.7369L80.1425 25.1455V27.8637H79.7491ZM84.0828 26.9225C84.0899 27.1332 84.1601 27.2877 84.2725 27.3861C84.3919 27.4844 84.5745 27.5336 84.8204 27.5336C85.0592 27.5336 85.2488 27.4844 85.3893 27.3861C85.5298 27.2877 85.6 27.1473 85.6 26.9787C85.6 26.7329 85.3542 26.5502 84.8555 26.4238C84.7993 26.4098 84.7571 26.4027 84.729 26.3887C84.6939 26.3817 84.6448 26.3676 84.5815 26.3536C84.3076 26.2903 84.118 26.2201 84.0056 26.1569C83.8932 26.0867 83.8089 26.0024 83.7527 25.883C83.6895 25.7706 83.6614 25.6442 83.6614 25.5037C83.6614 25.2227 83.7668 25.005 83.9845 24.8434C84.2023 24.6819 84.4973 24.6046 84.8695 24.6046C85.1996 24.6046 85.4595 24.6749 85.6562 24.8153C85.8458 24.9558 85.9442 25.1455 85.9442 25.3913V25.4405H85.5157C85.5087 25.2859 85.4455 25.1595 85.3331 25.0752C85.2137 24.9909 85.0521 24.9488 84.8414 24.9488C84.6237 24.9488 84.4481 24.998 84.3217 25.0893C84.1882 25.1876 84.125 25.314 84.125 25.4686C84.125 25.6793 84.3498 25.8408 84.8133 25.9602C84.8485 25.9672 84.8765 25.9743 84.8976 25.9813C85.3963 26.1077 85.7124 26.2412 85.8529 26.3676C85.9933 26.494 86.0636 26.6767 86.0636 26.9084C86.0636 27.2315 85.9582 27.4774 85.7405 27.646C85.5227 27.8145 85.2137 27.9058 84.8063 27.9058C84.413 27.9058 84.125 27.8286 83.9283 27.6741C83.7317 27.5195 83.6333 27.2807 83.6333 26.9646V26.9155H84.0828V26.9225ZM88.5781 27.8637H88.1497V25.0401H87.082V24.6538H89.6458V25.0401H88.5781V27.8637ZM91.8653 26.0234C92.1182 26.0234 92.2938 25.9813 92.3921 25.9111C92.4975 25.8338 92.5466 25.7003 92.5466 25.5177C92.5466 25.3491 92.4975 25.2368 92.4061 25.1665C92.3078 25.0963 92.1322 25.0612 91.8653 25.0612H91.2402V26.0234H91.8653ZM90.8047 27.8637V24.6538H91.9355C92.2938 24.6538 92.5607 24.724 92.7363 24.8645C92.9189 25.005 93.0032 25.2157 93.0032 25.4896C93.0032 25.6793 92.947 25.8408 92.8487 25.9743C92.7433 26.1077 92.5958 26.199 92.4132 26.2482C92.5537 26.2833 92.659 26.3325 92.7222 26.4027C92.7854 26.473 92.8416 26.5783 92.8697 26.7258C92.8767 26.775 92.9048 26.9295 92.94 27.1894C92.9751 27.4493 93.0172 27.674 93.0734 27.8637H92.6169C92.5747 27.6811 92.5396 27.4704 92.5115 27.2175C92.4834 26.9646 92.4553 26.8101 92.4272 26.7399C92.3851 26.6134 92.3148 26.5292 92.2235 26.487C92.1322 26.4378 91.9847 26.4168 91.774 26.4168H91.2332V27.8637H90.8047ZM94.3869 24.6538H94.8224V26.5502C94.8224 26.8874 94.8926 27.1332 95.0261 27.2948C95.1595 27.4493 95.3772 27.5336 95.6652 27.5336C95.9743 27.5336 96.199 27.4493 96.3395 27.2877C96.48 27.1262 96.5502 26.8593 96.5502 26.487V24.6608H96.9646V26.7539C96.9646 27.1192 96.8452 27.4071 96.6135 27.6108C96.3817 27.8145 96.0515 27.9199 95.6301 27.9199C95.2157 27.9199 94.9067 27.8145 94.6959 27.5968C94.4852 27.3861 94.3869 27.063 94.3869 26.6345V24.6538ZM100.786 26.9998C100.779 27.2807 100.673 27.5055 100.463 27.667C100.252 27.8356 99.9709 27.9129 99.6127 27.9129C99.1772 27.9129 98.847 27.7724 98.6153 27.4914C98.3905 27.2105 98.2711 26.8031 98.2711 26.2763C98.2711 25.7425 98.3905 25.3281 98.6293 25.0401C98.8681 24.7521 99.2053 24.6046 99.6407 24.6046C99.9849 24.6046 100.259 24.6819 100.456 24.8434C100.659 24.998 100.758 25.2157 100.765 25.4966H100.308C100.294 25.3351 100.224 25.2016 100.09 25.0963C99.9638 24.9909 99.8023 24.9418 99.6197 24.9418C99.3387 24.9418 99.114 25.0541 98.9594 25.2859C98.7979 25.5177 98.7206 25.8408 98.7206 26.2623C98.7206 26.6696 98.7979 26.9857 98.9524 27.2105C99.1069 27.4352 99.3176 27.5476 99.5986 27.5476C99.8023 27.5476 99.9638 27.4985 100.083 27.4001C100.203 27.3018 100.273 27.1683 100.294 26.9998H100.786ZM104.466 26.9998C104.459 27.2807 104.354 27.5055 104.143 27.667C103.932 27.8356 103.651 27.9129 103.293 27.9129C102.858 27.9129 102.528 27.7724 102.296 27.4914C102.071 27.2105 101.952 26.8031 101.952 26.2763C101.952 25.7425 102.071 25.3281 102.31 25.0401C102.549 24.7521 102.886 24.6046 103.321 24.6046C103.665 24.6046 103.939 24.6819 104.136 24.8434C104.34 24.998 104.438 25.2157 104.445 25.4966H103.989C103.974 25.3351 103.904 25.2016 103.778 25.0963C103.651 24.9909 103.49 24.9418 103.307 24.9418C103.019 24.9418 102.801 25.0541 102.647 25.2859C102.492 25.5177 102.408 25.8408 102.408 26.2623C102.408 26.6696 102.485 26.9857 102.633 27.2105C102.787 27.4352 103.005 27.5476 103.279 27.5476C103.483 27.5476 103.644 27.4985 103.771 27.4001C103.89 27.3018 103.96 27.1683 103.981 26.9998H104.466ZM106.18 27.8637H105.752V24.6538H106.18V27.8637ZM107.999 26.2482C107.999 26.6626 108.083 26.9857 108.259 27.2105C108.435 27.4352 108.68 27.5476 109.004 27.5476C109.327 27.5476 109.58 27.4352 109.748 27.2175C109.924 26.9927 110.008 26.6767 110.008 26.2552C110.008 25.8338 109.924 25.5177 109.748 25.293C109.573 25.0682 109.327 24.9558 109.004 24.9558C108.68 24.9558 108.435 25.0682 108.259 25.2859C108.083 25.5107 107.999 25.8338 107.999 26.2482ZM107.536 26.2693C107.536 25.7355 107.662 25.3281 107.915 25.0401C108.168 24.7521 108.533 24.6116 108.997 24.6116C109.467 24.6116 109.825 24.7521 110.078 25.0401C110.331 25.3281 110.458 25.7355 110.458 26.2763C110.458 26.8031 110.331 27.2105 110.078 27.4985C109.825 27.7864 109.467 27.9269 108.997 27.9269C108.533 27.9269 108.175 27.7794 107.915 27.4914C107.669 27.1964 107.536 26.789 107.536 26.2693ZM111.82 27.8637V24.6538H112.431L113.948 27.2667V24.6538H114.335V27.8637H113.808L112.213 25.1455V27.8637H111.82ZM115.817 27.8637V24.6538H117.812V25.0331H116.245V26.0094H117.741V26.3887H116.245V27.4774H117.847V27.8637H115.817ZM119.575 26.9225C119.582 27.1332 119.645 27.2877 119.764 27.3861C119.884 27.4844 120.066 27.5336 120.312 27.5336C120.551 27.5336 120.74 27.4844 120.881 27.3861C121.021 27.2877 121.092 27.1473 121.092 26.9787C121.092 26.7329 120.846 26.5502 120.347 26.4238C120.291 26.4098 120.249 26.4027 120.221 26.3887C120.186 26.3817 120.136 26.3676 120.073 26.3536C119.799 26.2903 119.61 26.2201 119.497 26.1569C119.385 26.0867 119.301 26.0024 119.244 25.883C119.181 25.7706 119.153 25.6442 119.153 25.5037C119.153 25.2227 119.258 25.005 119.476 24.8434C119.694 24.6819 119.989 24.6046 120.368 24.6046C120.698 24.6046 120.958 24.6749 121.155 24.8153C121.345 24.9558 121.443 25.1455 121.443 25.3913V25.4405H121.007C121 25.2859 120.937 25.1595 120.825 25.0752C120.705 24.9909 120.544 24.9488 120.333 24.9488C120.115 24.9488 119.94 24.998 119.806 25.0893C119.68 25.1876 119.61 25.314 119.61 25.4686C119.61 25.6793 119.841 25.8408 120.298 25.9602C120.333 25.9672 120.361 25.9743 120.382 25.9813C120.881 26.1077 121.197 26.2412 121.338 26.3676C121.478 26.494 121.548 26.6767 121.548 26.9084C121.548 27.2315 121.443 27.4774 121.225 27.646C121.007 27.8145 120.698 27.9058 120.291 27.9058C119.898 27.9058 119.61 27.8286 119.413 27.6741C119.216 27.5195 119.118 27.2807 119.118 26.9646V26.9155H119.575V26.9225Z" fill="white"/>
<path fill-rule="evenodd" clip-rule="evenodd" d="M92.3499 32.5557H92.8907C93.1436 32.5557 93.3192 32.5206 93.4175 32.4503C93.5159 32.3801 93.565 32.2607 93.565 32.0851C93.565 31.8954 93.5159 31.769 93.4175 31.6917C93.3192 31.6145 93.1436 31.5794 92.8837 31.5794H92.3429V32.5557H92.3499ZM92.3499 34.2414H92.8907C93.2279 34.2414 93.4456 34.1993 93.551 34.122C93.6564 34.0447 93.7055 33.9043 93.7055 33.6935C93.7055 33.4899 93.6493 33.3494 93.5369 33.2721C93.4246 33.1949 93.2068 33.1527 92.8907 33.1527H92.3499V34.2414ZM91.5632 34.8595V30.9964H92.8907C93.4035 30.9964 93.7758 31.0736 94.0075 31.2352C94.2393 31.3967 94.3587 31.6426 94.3587 31.9867C94.3587 32.2045 94.3096 32.3801 94.2042 32.5206C94.0988 32.661 93.9373 32.7594 93.7266 32.8296C93.9865 32.8999 94.1831 33.0193 94.3166 33.1738C94.45 33.3353 94.5133 33.539 94.5133 33.7919C94.5133 33.9464 94.4922 34.0869 94.443 34.2133C94.4009 34.3327 94.3306 34.4451 94.2393 34.5364C94.1199 34.6558 93.9654 34.7401 93.7828 34.7963C93.6002 34.8455 93.2981 34.8736 92.8907 34.8736H91.5632V34.8595ZM97.3369 32.9069C97.3369 33.3775 97.4212 33.7357 97.5897 33.9745C97.7513 34.2203 97.9971 34.3397 98.3202 34.3397C98.6433 34.3397 98.8891 34.2203 99.0507 33.9745C99.2193 33.7287 99.2965 33.3704 99.2965 32.9069C99.2965 32.4433 99.2122 32.0921 99.0437 31.8533C98.8751 31.6075 98.6293 31.4881 98.3132 31.4881C97.9971 31.4881 97.7513 31.6075 97.5897 31.8533C97.4212 32.0991 97.3369 32.4503 97.3369 32.9069ZM96.4729 32.9069C96.4729 32.2958 96.6415 31.8182 96.9716 31.467C97.3017 31.1158 97.7513 30.9402 98.3202 30.9402C98.8891 30.9402 99.3387 31.1158 99.6688 31.467C99.9989 31.8182 100.16 32.3028 100.16 32.9069C100.16 33.539 99.9989 34.0307 99.6758 34.3889C99.3527 34.7471 98.9032 34.9227 98.3202 34.9227C97.7442 34.9227 97.2877 34.7471 96.9646 34.3889C96.6345 34.0307 96.4729 33.539 96.4729 32.9069ZM102.275 34.8595V30.9964H103.096V34.2063H104.838V34.8595H102.275ZM106.805 30.9894H107.627V34.8525H106.805V30.9894ZM111.848 34.8595H110.928L109.523 30.9964H110.422L111.441 34.0166L112.431 30.9964H113.274L111.848 34.8595ZM115.17 30.9894H115.992V34.8525H115.17V30.9894ZM117.861 34.8595L119.265 30.9964H120.242L121.59 34.8595H120.747L120.474 34.0307H118.942L118.64 34.8595H117.861ZM119.153 33.3915H120.27L119.736 31.755L119.153 33.3915Z" fill="white"/>
</g>
<defs>
<clipPath id="clip0_1189_7345">
<rect width="121.59" height="35" fill="white"/>
</clipPath>
</defs>
</svg>
