<svg width="54" height="60" viewBox="0 0 54 60" fill="none" xmlns="http://www.w3.org/2000/svg">
<path fill-rule="evenodd" clip-rule="evenodd" d="M26.7092 0C36.6992 6.336 45.7292 9.33 53.4752 8.622C54.0872 20.97 52.3652 31.032 48.6452 38.982C47.6912 38.202 46.6352 37.554 45.5012 37.062C48.5072 30.408 49.8872 22.038 49.3772 11.82C42.8192 12.42 35.1752 9.88198 26.7152 4.51798C19.3952 10.206 11.8412 11.868 4.14318 11.466C3.80118 24.468 6.08718 34.26 10.5032 41.382C13.7672 38.652 19.3232 39.066 21.9572 35.448C22.1432 35.166 22.2332 35.016 22.2332 34.896C22.2332 34.83 19.3772 31.332 19.1192 30.924C18.4472 29.856 17.1872 28.404 17.1872 27.15C17.1872 26.442 17.7452 25.518 18.5432 25.314C18.4832 24.252 18.4412 23.178 18.4412 22.116C18.4412 21.486 18.4532 20.85 18.4772 20.226C18.5132 19.83 18.5852 19.656 18.6872 19.278C19.1792 17.676 20.2532 16.314 21.6932 15.462C22.2032 15.138 22.7552 14.892 23.3252 14.682C24.3572 14.304 23.8592 12.678 24.9872 12.654C27.6332 12.588 31.9772 14.898 33.6752 16.734C34.7552 17.928 35.3732 19.254 35.4092 20.868L35.3012 25.5C35.7692 25.614 36.2972 25.986 36.4112 26.454C36.7712 27.918 35.2532 29.736 34.5512 30.894C33.9032 31.968 31.4192 34.896 31.4132 34.92C31.4012 35.046 31.4672 35.202 31.6352 35.46C32.2772 36.336 33.0872 36.978 33.9932 37.488C32.7872 38.118 31.6892 38.928 30.7292 39.888C28.3112 42.306 26.8172 45.648 26.8172 49.338C26.8172 52.494 27.9152 55.392 29.7452 57.678C28.7912 58.116 27.8132 58.524 26.8052 58.902C9.51318 52.59 -0.716821 37.122 0.0391794 8.214C9.14118 8.688 18.0632 6.72 26.7092 0Z" fill="#E0E0E0"/>
<path fill-rule="evenodd" clip-rule="evenodd" d="M40.1911 38.652C46.0831 38.652 50.8651 43.434 50.8651 49.326C50.8651 55.224 46.0831 60 40.1911 60C34.2931 60 29.5171 55.218 29.5171 49.326C29.5171 43.434 34.2931 38.652 40.1911 38.652ZM37.5751 49.71C37.8991 49.986 38.2051 50.28 38.4931 50.598C39.3931 49.152 40.3471 47.826 41.3551 46.608C44.2111 43.158 42.9151 43.824 46.8811 43.824L46.3291 44.436C44.6371 46.314 44.0671 47.292 42.6811 49.296C41.3071 51.282 40.0591 53.358 38.9491 55.5L38.6071 56.16L38.2891 55.482C37.7071 54.234 37.0111 53.088 36.1771 52.062C35.3491 51.036 34.6171 50.37 33.4951 49.596C34.0171 47.91 36.4711 48.774 37.5751 49.71Z" fill="#FFC107"/>
</svg>
