<svg width="168" height="179" viewBox="0 0 168 179" fill="none" xmlns="http://www.w3.org/2000/svg">
<path d="M77.5195 63.6699V107H65.9082C64.9642 103.79 63.9258 101.09 62.793 98.9004C57.9974 105.093 50.8984 108.189 41.4961 108.189C31.5273 108.189 23.3333 104.715 16.9141 97.7676C10.4948 90.7819 7.28516 81.3418 7.28516 69.4473C7.28516 57.8926 10.3815 48.1882 16.5742 40.334C22.8047 32.4421 32.056 28.4961 44.3281 28.4961C53.5417 28.4961 60.9616 30.8372 66.5879 35.5195C72.2142 40.2018 75.8581 46.8477 77.5195 55.457L54.5234 57.7227C53.3906 49.6797 49.86 45.6582 43.9316 45.6582C36.153 45.6582 32.2637 53.0592 32.2637 67.8613C32.2637 76.8105 33.5098 82.7201 36.002 85.5898C38.4941 88.4219 41.515 89.8379 45.0645 89.8379C47.9342 89.8379 50.3698 88.9694 52.3711 87.2324C54.4102 85.4954 55.4486 83.1165 55.4863 80.0957H42.6855V63.6699H77.5195ZM155.627 29.6855V107H131.895V76.9238H113.77V107H90.0371V29.6855H113.77V58.1191H131.895V29.6855H155.627Z" fill="white"/>
<path d="M77.5195 63.6699H78.5195V62.6699H77.5195V63.6699ZM77.5195 107V108H78.5195V107H77.5195ZM65.9082 107L64.9488 107.282L65.16 108H65.9082V107ZM62.793 98.9004L63.6812 98.441L62.9615 97.0495L62.0023 98.2881L62.793 98.9004ZM16.9141 97.7676L16.1777 98.4442L16.1796 98.4462L16.9141 97.7676ZM16.5742 40.334L15.7893 39.7143L15.7889 39.7148L16.5742 40.334ZM66.5879 35.5195L67.2276 34.7509L66.5879 35.5195ZM77.5195 55.457L77.6176 56.4522L78.7093 56.3447L78.5014 55.2675L77.5195 55.457ZM54.5234 57.7227L53.5332 57.8621L53.667 58.8119L54.6215 58.7178L54.5234 57.7227ZM36.002 85.5898L35.2469 86.2455L35.2512 86.2505L36.002 85.5898ZM52.3711 87.2324L51.7226 86.4711L51.7156 86.4772L52.3711 87.2324ZM55.4863 80.0957L56.4863 80.1082L56.4989 79.0957H55.4863V80.0957ZM42.6855 80.0957H41.6855V81.0957H42.6855V80.0957ZM42.6855 63.6699V62.6699H41.6855V63.6699H42.6855ZM76.5195 63.6699V107H78.5195V63.6699H76.5195ZM77.5195 106H65.9082V108H77.5195V106ZM66.8676 106.718C65.9115 103.467 64.8516 100.704 63.6812 98.441L61.9048 99.3598C63 101.477 64.0169 104.114 64.9488 107.282L66.8676 106.718ZM62.0023 98.2881C57.4349 104.186 50.6584 107.189 41.4961 107.189V109.189C51.1385 109.189 58.5599 106 63.5836 99.5127L62.0023 98.2881ZM41.4961 107.189C31.7894 107.189 23.8674 103.82 17.6486 97.089L16.1796 98.4462C22.7993 105.611 31.2653 109.189 41.4961 109.189V107.189ZM17.6504 97.091C11.4407 90.3334 8.28516 81.1574 8.28516 69.4473H6.28516C6.28516 81.5262 9.54884 91.2304 16.1777 98.4442L17.6504 97.091ZM8.28516 69.4473C8.28516 58.0807 11.3269 48.6042 17.3595 40.9531L15.7889 39.7148C9.43611 47.7721 6.28516 57.7044 6.28516 69.4473H8.28516ZM17.3591 40.9536C23.358 33.355 32.2873 29.4961 44.3281 29.4961V27.4961C31.8247 27.4961 22.2514 31.5291 15.7893 39.7143L17.3591 40.9536ZM44.3281 29.4961C53.37 29.4961 60.5441 31.7908 65.9482 36.2882L67.2276 34.7509C61.3791 29.8837 53.7133 27.4961 44.3281 27.4961V29.4961ZM65.9482 36.2882C71.3636 40.7949 74.9109 47.2172 76.5377 55.6465L78.5014 55.2675C76.8052 46.4781 73.0648 39.6087 67.2276 34.7509L65.9482 36.2882ZM77.4215 54.4618L54.4254 56.7275L54.6215 58.7178L77.6176 56.4522L77.4215 54.4618ZM55.5137 57.5832C54.9332 53.4619 53.7218 50.2293 51.7774 48.0146C49.8004 45.7627 47.1489 44.6582 43.9316 44.6582V46.6582C46.6428 46.6582 48.7207 47.5644 50.2744 49.3341C51.8606 51.1408 52.9809 53.9405 53.5332 57.8621L55.5137 57.5832ZM43.9316 44.6582C41.8219 44.6582 39.9295 45.1623 38.2913 46.2015C36.6569 47.2381 35.3321 48.7712 34.2955 50.7438C32.2377 54.6595 31.2637 60.4053 31.2637 67.8613H33.2637C33.2637 60.5153 34.2343 55.1596 36.0659 51.6742C36.9739 49.9463 38.0799 48.7039 39.3625 47.8903C40.6413 47.0792 42.1521 46.6582 43.9316 46.6582V44.6582ZM31.2637 67.8613C31.2637 72.3755 31.5774 76.1651 32.2198 79.2117C32.8593 82.2444 33.8422 84.628 35.2469 86.2455L36.757 84.9342C35.6695 83.6819 34.7833 81.6758 34.1767 78.799C33.573 75.9361 33.2637 72.2964 33.2637 67.8613H31.2637ZM35.2512 86.2505C37.9198 89.2829 41.2078 90.8379 45.0645 90.8379V88.8379C41.8222 88.8379 39.0685 87.5609 36.7527 84.9292L35.2512 86.2505ZM45.0645 90.8379C48.1535 90.8379 50.8277 89.8961 53.0266 87.9876L51.7156 86.4772C49.9119 88.0427 47.715 88.8379 45.0645 88.8379V90.8379ZM53.0196 87.9937C55.3078 86.0444 56.4454 83.3765 56.4863 80.1082L54.4864 80.0832C54.4517 82.8566 53.5125 84.9465 51.7226 86.4712L53.0196 87.9937ZM55.4863 79.0957H42.6855V81.0957H55.4863V79.0957ZM43.6855 80.0957V63.6699H41.6855V80.0957H43.6855ZM42.6855 64.6699H77.5195V62.6699H42.6855V64.6699ZM155.627 29.6855H156.627V28.6855H155.627V29.6855ZM155.627 107V108H156.627V107H155.627ZM131.895 107H130.895V108H131.895V107ZM131.895 76.9238H132.895V75.9238H131.895V76.9238ZM113.77 76.9238V75.9238H112.77V76.9238H113.77ZM113.77 107V108H114.77V107H113.77ZM90.0371 107H89.0371V108H90.0371V107ZM90.0371 29.6855V28.6855H89.0371V29.6855H90.0371ZM113.77 29.6855H114.77V28.6855H113.77V29.6855ZM113.77 58.1191H112.77V59.1191H113.77V58.1191ZM131.895 58.1191V59.1191H132.895V58.1191H131.895ZM131.895 29.6855V28.6855H130.895V29.6855H131.895ZM154.627 29.6855V107H156.627V29.6855H154.627ZM155.627 106H131.895V108H155.627V106ZM132.895 107V76.9238H130.895V107H132.895ZM131.895 75.9238H113.77V77.9238H131.895V75.9238ZM112.77 76.9238V107H114.77V76.9238H112.77ZM113.77 106H90.0371V108H113.77V106ZM91.0371 107V29.6855H89.0371V107H91.0371ZM90.0371 30.6855H113.77V28.6855H90.0371V30.6855ZM112.77 29.6855V58.1191H114.77V29.6855H112.77ZM113.77 59.1191H131.895V57.1191H113.77V59.1191ZM132.895 58.1191V29.6855H130.895V58.1191H132.895ZM131.895 30.6855H155.627V28.6855H131.895V30.6855Z" fill="black"/>
<path d="M21.4053 149.318C22.6182 149.318 23.2246 149.64 23.2246 150.284C23.2246 151.153 22.8278 152.156 22.0342 153.294C20.0277 156.124 16.8831 157.539 12.6006 157.539C4.94889 157.539 1.12305 153.751 1.12305 146.174C1.0931 138.417 5.0013 134.539 12.8477 134.539C16.9655 134.539 19.9827 135.864 21.8994 138.515C22.7529 139.653 23.1797 140.723 23.1797 141.727C23.1797 142.415 22.5732 142.76 21.3604 142.76C20.2223 142.76 19.6159 142.445 19.541 141.816C19.0618 138.327 16.8457 136.583 12.8926 136.583C10.1823 136.583 8.15332 137.564 6.80566 139.525C5.45801 141.487 4.78418 143.703 4.78418 146.174C4.78418 148.615 5.45052 150.778 6.7832 152.665C8.11589 154.552 10.1074 155.495 12.7578 155.495C16.681 155.495 18.957 153.743 19.5859 150.239C19.6908 149.625 20.2972 149.318 21.4053 149.318ZM37.2627 134.539C40.7217 134.539 43.5518 135.602 45.7529 137.729C47.9541 139.855 49.0547 142.625 49.0547 146.039C49.0547 149.453 47.9541 152.223 45.7529 154.35C43.5518 156.476 40.7217 157.539 37.2627 157.539C33.8037 157.539 30.9736 156.476 28.7725 154.35C26.5713 152.223 25.4707 149.453 25.4707 146.039C25.4707 142.625 26.5713 139.855 28.7725 137.729C30.9736 135.602 33.8037 134.539 37.2627 134.539ZM37.2627 136.583C34.6423 136.583 32.6283 137.564 31.2207 139.525C29.8281 141.487 29.1318 143.658 29.1318 146.039C29.1318 148.42 29.8281 150.591 31.2207 152.553C32.6283 154.514 34.6423 155.495 37.2627 155.495C39.8831 155.495 41.8896 154.514 43.2822 152.553C44.6898 150.591 45.3936 148.42 45.3936 146.039C45.3936 143.658 44.6898 141.487 43.2822 139.525C41.8896 137.564 39.8831 136.583 37.2627 136.583ZM71.2461 157.562C70.0332 157.562 69.4268 157.217 69.4268 156.528V144.624C69.4268 142.662 68.8952 140.843 67.832 139.166C66.7839 137.474 65.1592 136.628 62.958 136.628C58.376 136.628 56.085 139.51 56.085 145.275V156.528C56.085 157.217 55.4785 157.562 54.2656 157.562C53.0378 157.562 52.4238 157.217 52.4238 156.528V135.572C52.4238 134.883 53.0378 134.539 54.2656 134.539C55.4785 134.539 56.085 134.883 56.085 135.572V138.11C57.4176 135.715 59.8135 134.517 63.2725 134.517C65.6683 134.502 67.8994 135.348 69.9658 137.055C72.0472 138.747 73.0879 141.27 73.0879 144.624V156.528C73.0879 157.217 72.474 157.562 71.2461 157.562ZM96.4023 157.562C95.1895 157.562 94.583 157.217 94.583 156.528V144.624C94.583 142.662 94.0514 140.843 92.9883 139.166C91.9401 137.474 90.3154 136.628 88.1143 136.628C83.5322 136.628 81.2412 139.51 81.2412 145.275V156.528C81.2412 157.217 80.6348 157.562 79.4219 157.562C78.194 157.562 77.5801 157.217 77.5801 156.528V135.572C77.5801 134.883 78.194 134.539 79.4219 134.539C80.6348 134.539 81.2412 134.883 81.2412 135.572V138.11C82.5739 135.715 84.9697 134.517 88.4287 134.517C90.8245 134.502 93.0557 135.348 95.1221 137.055C97.2035 138.747 98.2441 141.27 98.2441 144.624V156.528C98.2441 157.217 97.6302 157.562 96.4023 157.562ZM113.293 157.539C109.924 157.539 107.131 156.513 104.915 154.462C102.714 152.396 101.613 149.648 101.613 146.219C101.613 142.745 102.729 139.93 104.96 137.773C107.206 135.617 110.044 134.539 113.473 134.539C116.692 134.539 119.432 135.415 121.693 137.167C123.969 138.919 125.107 141.494 125.107 144.894C125.107 145.702 124.501 146.106 123.288 146.106H105.252C105.252 148.502 105.941 150.666 107.318 152.598C108.711 154.529 110.71 155.495 113.315 155.495C115.217 155.495 116.917 154.986 118.414 153.968C120.031 152.89 120.907 151.654 121.042 150.262C121.117 149.618 121.716 149.296 122.839 149.296C124.067 149.296 124.681 149.633 124.681 150.307C124.681 150.786 124.516 151.37 124.187 152.059C123.588 153.316 122.599 154.395 121.222 155.293C118.976 156.79 116.333 157.539 113.293 157.539ZM121.424 144.04C121.049 139.069 118.399 136.583 113.473 136.583C109.07 136.583 106.397 139.069 105.454 144.04H121.424ZM147.636 149.318C148.849 149.318 149.455 149.64 149.455 150.284C149.455 151.153 149.058 152.156 148.265 153.294C146.258 156.124 143.114 157.539 138.831 157.539C131.179 157.539 127.354 153.751 127.354 146.174C127.324 138.417 131.232 134.539 139.078 134.539C143.196 134.539 146.213 135.864 148.13 138.515C148.983 139.653 149.41 140.723 149.41 141.727C149.41 142.415 148.804 142.76 147.591 142.76C146.453 142.76 145.846 142.445 145.771 141.816C145.292 138.327 143.076 136.583 139.123 136.583C136.413 136.583 134.384 137.564 133.036 139.525C131.688 141.487 131.015 143.703 131.015 146.174C131.015 148.615 131.681 150.778 133.014 152.665C134.346 154.552 136.338 155.495 138.988 155.495C142.911 155.495 145.188 153.743 145.816 150.239C145.921 149.625 146.528 149.318 147.636 149.318ZM163.021 157.539C158.29 157.509 155.924 155.495 155.924 151.497V136.583H152.959C151.746 136.583 151.14 136.246 151.14 135.572C151.14 134.883 151.746 134.539 152.959 134.539H155.924V127.015C155.924 126.326 156.538 125.981 157.766 125.981C158.979 125.981 159.585 126.326 159.585 127.015V134.539H163.808C165.035 134.539 165.649 134.883 165.649 135.572C165.649 136.246 165.035 136.583 163.808 136.583H159.585V151.497C159.585 154.147 160.73 155.48 163.021 155.495C163.456 155.495 163.868 155.458 164.257 155.383C164.646 155.293 165.035 155.248 165.425 155.248C166.668 155.248 167.289 155.592 167.289 156.281C167.289 156.775 166.765 157.112 165.717 157.292C164.818 157.457 163.92 157.539 163.021 157.539Z" fill="white"/>
</svg>
