<svg width="60" height="60" viewBox="0 0 60 60" fill="none" xmlns="http://www.w3.org/2000/svg">
<path d="M28.5469 21.0586V36H24.543C24.2174 34.8932 23.8594 33.9622 23.4688 33.207C21.8151 35.3424 19.3672 36.4102 16.125 36.4102C12.6875 36.4102 9.86198 35.2122 7.64844 32.8164C5.4349 30.4076 4.32812 27.1523 4.32812 23.0508C4.32812 19.0664 5.39583 15.7201 7.53125 13.0117C9.67969 10.2904 12.8698 8.92969 17.1016 8.92969C20.2786 8.92969 22.8372 9.73698 24.7773 11.3516C26.7174 12.9661 27.974 15.2578 28.5469 18.2266L20.6172 19.0078C20.2266 16.2344 19.0091 14.8477 16.9648 14.8477C14.2826 14.8477 12.9414 17.3997 12.9414 22.5039C12.9414 25.5898 13.3711 27.6276 14.2305 28.6172C15.0898 29.5938 16.1315 30.082 17.3555 30.082C18.3451 30.082 19.1849 29.7826 19.875 29.1836C20.5781 28.5846 20.9362 27.7643 20.9492 26.7227H16.5352V21.0586H28.5469ZM55.4805 9.33984V36H47.2969V25.6289H41.0469V36H32.8633V9.33984H41.0469V19.1445H47.2969V9.33984H55.4805Z" fill="white"/>
<path d="M8.75 49.3281C9.17188 49.3281 9.38281 49.4401 9.38281 49.6641C9.38281 49.9661 9.24479 50.3151 8.96875 50.7109C8.27083 51.6953 7.17708 52.1875 5.6875 52.1875C3.02604 52.1875 1.69531 50.8698 1.69531 48.2344C1.6849 45.5365 3.04427 44.1875 5.77344 44.1875C7.20573 44.1875 8.25521 44.6484 8.92188 45.5703C9.21875 45.9661 9.36719 46.3385 9.36719 46.6875C9.36719 46.9271 9.15625 47.0469 8.73438 47.0469C8.33854 47.0469 8.1276 46.9375 8.10156 46.7188C7.9349 45.5052 7.16406 44.8984 5.78906 44.8984C4.84635 44.8984 4.14062 45.2396 3.67188 45.9219C3.20312 46.6042 2.96875 47.375 2.96875 48.2344C2.96875 49.0833 3.20052 49.8359 3.66406 50.4922C4.1276 51.1484 4.82031 51.4766 5.74219 51.4766C7.10677 51.4766 7.89844 50.8672 8.11719 49.6484C8.15365 49.4349 8.36458 49.3281 8.75 49.3281ZM14.2656 44.1875C15.4688 44.1875 16.4531 44.5573 17.2188 45.2969C17.9844 46.0365 18.3672 47 18.3672 48.1875C18.3672 49.375 17.9844 50.3385 17.2188 51.0781C16.4531 51.8177 15.4688 52.1875 14.2656 52.1875C13.0625 52.1875 12.0781 51.8177 11.3125 51.0781C10.5469 50.3385 10.1641 49.375 10.1641 48.1875C10.1641 47 10.5469 46.0365 11.3125 45.2969C12.0781 44.5573 13.0625 44.1875 14.2656 44.1875ZM14.2656 44.8984C13.3542 44.8984 12.6536 45.2396 12.1641 45.9219C11.6797 46.6042 11.4375 47.3594 11.4375 48.1875C11.4375 49.0156 11.6797 49.7708 12.1641 50.4531C12.6536 51.1354 13.3542 51.4766 14.2656 51.4766C15.1771 51.4766 15.875 51.1354 16.3594 50.4531C16.849 49.7708 17.0938 49.0156 17.0938 48.1875C17.0938 47.3594 16.849 46.6042 16.3594 45.9219C15.875 45.2396 15.1771 44.8984 14.2656 44.8984ZM26.0859 52.1953C25.6641 52.1953 25.4531 52.0755 25.4531 51.8359V47.6953C25.4531 47.013 25.2682 46.3802 24.8984 45.7969C24.5339 45.2083 23.9688 44.9141 23.2031 44.9141C21.6094 44.9141 20.8125 45.9167 20.8125 47.9219V51.8359C20.8125 52.0755 20.6016 52.1953 20.1797 52.1953C19.7526 52.1953 19.5391 52.0755 19.5391 51.8359V44.5469C19.5391 44.3073 19.7526 44.1875 20.1797 44.1875C20.6016 44.1875 20.8125 44.3073 20.8125 44.5469V45.4297C21.276 44.5964 22.1094 44.1797 23.3125 44.1797C24.1458 44.1745 24.9219 44.4688 25.6406 45.0625C26.3646 45.651 26.7266 46.5286 26.7266 47.6953V51.8359C26.7266 52.0755 26.513 52.1953 26.0859 52.1953ZM34.8359 52.1953C34.4141 52.1953 34.2031 52.0755 34.2031 51.8359V47.6953C34.2031 47.013 34.0182 46.3802 33.6484 45.7969C33.2839 45.2083 32.7188 44.9141 31.9531 44.9141C30.3594 44.9141 29.5625 45.9167 29.5625 47.9219V51.8359C29.5625 52.0755 29.3516 52.1953 28.9297 52.1953C28.5026 52.1953 28.2891 52.0755 28.2891 51.8359V44.5469C28.2891 44.3073 28.5026 44.1875 28.9297 44.1875C29.3516 44.1875 29.5625 44.3073 29.5625 44.5469V45.4297C30.026 44.5964 30.8594 44.1797 32.0625 44.1797C32.8958 44.1745 33.6719 44.4688 34.3906 45.0625C35.1146 45.651 35.4766 46.5286 35.4766 47.6953V51.8359C35.4766 52.0755 35.263 52.1953 34.8359 52.1953ZM40.7109 52.1875C39.5391 52.1875 38.5677 51.8307 37.7969 51.1172C37.0312 50.3984 36.6484 49.4427 36.6484 48.25C36.6484 47.0417 37.0365 46.0625 37.8125 45.3125C38.5938 44.5625 39.5807 44.1875 40.7734 44.1875C41.8932 44.1875 42.8464 44.4922 43.6328 45.1016C44.4245 45.7109 44.8203 46.6068 44.8203 47.7891C44.8203 48.0703 44.6094 48.2109 44.1875 48.2109H37.9141C37.9141 49.0443 38.1536 49.7969 38.6328 50.4688C39.1172 51.1406 39.8125 51.4766 40.7188 51.4766C41.3802 51.4766 41.9714 51.2995 42.4922 50.9453C43.0547 50.5703 43.3594 50.1406 43.4062 49.6562C43.4323 49.4323 43.6406 49.3203 44.0312 49.3203C44.4583 49.3203 44.6719 49.4375 44.6719 49.6719C44.6719 49.8385 44.6146 50.0417 44.5 50.2812C44.2917 50.7188 43.9479 51.0938 43.4688 51.4062C42.6875 51.9271 41.7682 52.1875 40.7109 52.1875ZM43.5391 47.4922C43.4089 45.763 42.487 44.8984 40.7734 44.8984C39.2422 44.8984 38.3125 45.763 37.9844 47.4922H43.5391ZM52.6562 49.3281C53.0781 49.3281 53.2891 49.4401 53.2891 49.6641C53.2891 49.9661 53.151 50.3151 52.875 50.7109C52.1771 51.6953 51.0833 52.1875 49.5938 52.1875C46.9323 52.1875 45.6016 50.8698 45.6016 48.2344C45.5911 45.5365 46.9505 44.1875 49.6797 44.1875C51.112 44.1875 52.1615 44.6484 52.8281 45.5703C53.125 45.9661 53.2734 46.3385 53.2734 46.6875C53.2734 46.9271 53.0625 47.0469 52.6406 47.0469C52.2448 47.0469 52.0339 46.9375 52.0078 46.7188C51.8411 45.5052 51.0703 44.8984 49.6953 44.8984C48.7526 44.8984 48.0469 45.2396 47.5781 45.9219C47.1094 46.6042 46.875 47.375 46.875 48.2344C46.875 49.0833 47.1068 49.8359 47.5703 50.4922C48.0339 51.1484 48.7266 51.4766 49.6484 51.4766C51.013 51.4766 51.8047 50.8672 52.0234 49.6484C52.0599 49.4349 52.2708 49.3281 52.6562 49.3281ZM58.0078 52.1875C56.362 52.1771 55.5391 51.4766 55.5391 50.0859V44.8984H54.5078C54.0859 44.8984 53.875 44.7812 53.875 44.5469C53.875 44.3073 54.0859 44.1875 54.5078 44.1875H55.5391V41.5703C55.5391 41.3307 55.7526 41.2109 56.1797 41.2109C56.6016 41.2109 56.8125 41.3307 56.8125 41.5703V44.1875H58.2812C58.7083 44.1875 58.9219 44.3073 58.9219 44.5469C58.9219 44.7812 58.7083 44.8984 58.2812 44.8984H56.8125V50.0859C56.8125 51.0078 57.2109 51.4714 58.0078 51.4766C58.1589 51.4766 58.3021 51.4635 58.4375 51.4375C58.5729 51.4062 58.7083 51.3906 58.8438 51.3906C59.276 51.3906 59.4922 51.5104 59.4922 51.75C59.4922 51.9219 59.3099 52.0391 58.9453 52.1016C58.6328 52.1589 58.3203 52.1875 58.0078 52.1875Z" fill="white"/>
</svg>
