<svg id="Capa_1" data-name="Capa 1" xmlns="http://www.w3.org/2000/svg" viewBox="0 0 30 30"><defs><style>.cls-1{fill:#e40000;fill-rule:evenodd;}</style></defs><path class="cls-1" d="M6,9.76H24.11a1.56,1.56,0,0,1,.43,0,1.23,1.23,0,0,1,.62.34,1.19,1.19,0,0,1,.36.72c0,.11,0,.21,0,.32V27.11h0v.09h0a1.29,1.29,0,0,1,0,.19h0a1.29,1.29,0,0,1-1.19.89H5.84a1.26,1.26,0,0,1-.28-.05,1.3,1.3,0,0,1-.25-.1h0a1.32,1.32,0,0,1-.66-1.06V11.18a2.17,2.17,0,0,1,0-.36A1.23,1.23,0,0,1,5,10.1a1.36,1.36,0,0,1,.65-.34l.39,0ZM4.84,3.62h6.81V3h0V3A1.3,1.3,0,0,1,12,2.09h0A1.3,1.3,0,0,1,13,1.71H17.2A1.31,1.31,0,0,1,18.44,3h0v.61h7a1,1,0,0,1,.93,1V6.82a.56.56,0,0,1-.56.56H4.18a.56.56,0,0,1-.56-.55V4.64h0V4.58h0a1,1,0,0,1,.84-.94A1.62,1.62,0,0,1,4.84,3.62ZM14,15a1,1,0,0,1,1.13-.92A1,1,0,0,1,16,15v8A1,1,0,0,1,14,23Zm5.13,0a1,1,0,0,1,1.08-.88,1,1,0,0,1,1,1h0l-.43,8a1,1,0,0,1-1.08.88,1,1,0,0,1-1-1h0ZM9,15.07a1,1,0,0,1,1-1h0a1,1,0,0,1,1.09.88l.43,8a1,1,0,0,1-1,1h0a1,1,0,0,1-1.08-.88l-.43-8Z"/></svg>