<svg id="Capa_1" data-name="Capa 1" xmlns="http://www.w3.org/2000/svg" viewBox="0 0 30 30"><defs><style>.cls-1{fill:#202124;}</style></defs><path class="cls-1" d="M27.11,7a2.42,2.42,0,0,0-2.42,2.42,2.3,2.3,0,0,0,.14.79l-5.14,5.14a2.3,2.3,0,0,0-.79-.14,2.36,2.36,0,0,0-.8.14l-3.33-3.27a2.25,2.25,0,0,0,.14-.78,2.42,2.42,0,1,0-4.84,0,2.55,2.55,0,0,0,.12.74l-6.46,6.2a2.32,2.32,0,0,0-.84-.16,2.42,2.42,0,1,0,2.42,2.42,2.55,2.55,0,0,0-.12-.74l6.46-6.19a2.32,2.32,0,0,0,.84.16,2.37,2.37,0,0,0,.8-.15l3.33,3.28a2.19,2.19,0,0,0-.14.77,2.42,2.42,0,0,0,4.84,0,2.3,2.3,0,0,0-.14-.79l5.14-5.14a2.3,2.3,0,0,0,.79.14,2.42,2.42,0,1,0,0-4.84Z"/></svg>