<svg width="31" height="31" viewBox="0 0 31 31" fill="none" xmlns="http://www.w3.org/2000/svg">
<path d="M28.3632 0.1875H2.8043C1.40771 0.1875 0.1875 1.19238 0.1875 2.57256V28.1882C0.1875 29.5759 1.40771 30.8125 2.8043 30.8125H28.3557C29.7598 30.8125 30.8125 29.5677 30.8125 28.1882V2.57256C30.8207 1.19238 29.7598 0.1875 28.3632 0.1875ZM9.68057 25.7149H5.29326V12.0738H9.68057V25.7149ZM7.63867 9.9998H7.60723C6.20312 9.9998 5.29395 8.95459 5.29395 7.64619C5.29395 6.31387 6.22705 5.29326 7.6626 5.29326C9.09814 5.29326 9.97656 6.30635 10.008 7.64619C10.0073 8.95459 9.09814 9.9998 7.63867 9.9998ZM25.7149 25.7149H21.3276V18.2563C21.3276 16.4693 20.6892 15.2484 19.1019 15.2484C17.8892 15.2484 17.1714 16.0688 16.8521 16.8679C16.7325 17.155 16.7004 17.546 16.7004 17.9452V25.7149H12.3131V12.0738H16.7004V13.9722C17.3389 13.063 18.3362 11.7546 20.657 11.7546C23.537 11.7546 25.7156 13.6529 25.7156 17.7456L25.7149 25.7149Z" fill="white"/>
</svg>
