<svg width="18" height="23" viewBox="0 0 18 23" fill="none" xmlns="http://www.w3.org/2000/svg">
<path d="M13.5744 0.0187146C13.6034 0.566107 13.5811 1.0859 13.6639 1.58499C13.8921 2.95117 15.0018 3.92636 16.3622 3.98616C16.8835 4.00916 17.407 3.99076 17.9686 3.99076C17.9753 4.15406 17.9865 4.28515 17.9865 4.41855C17.9865 9.82578 17.9686 15.2353 17.9999 20.6425C18.0089 22.103 16.8164 23.0023 15.7223 23C11.2407 22.9908 6.75923 22.9908 2.2777 23C1.1948 23.0023 -0.00668422 22.1168 2.79961e-05 20.6448C0.0291143 14.5361 0.0112145 8.42739 0.0134519 2.31638C0.0134519 1.0123 0.937499 0.0164197 2.20834 0.00951979C5.94705 -0.00657998 9.68575 0.00261315 13.4245 0.00261315C13.4647 0.00261315 13.5117 0.0118147 13.5744 0.0187146ZM2.92208 11.5554C2.91537 12.0062 3.07646 12.3902 3.38075 12.7053C4.26452 13.6184 5.14159 14.543 6.04326 15.4377C6.91361 16.3002 8.18669 16.2864 9.0727 15.4354C9.33 15.187 9.57612 14.9271 9.82447 14.6695C11.3996 13.0503 12.9792 11.4335 14.5499 9.81198C15.2547 9.08519 15.2368 7.99501 14.5253 7.34642C13.863 6.74153 12.9389 6.78752 12.2588 7.47981C10.9007 8.86439 9.55375 10.2582 8.20235 11.6473C7.72802 12.1349 7.37675 12.1303 6.89571 11.6382C6.47284 11.2058 6.06339 10.7596 5.6271 10.341C5.1125 9.84877 4.49721 9.76138 3.86626 10.0443C3.24203 10.3203 2.93326 10.8493 2.92208 11.5554Z" fill="#E0E0E0"/>
<path d="M17.3086 3.39274C16.4047 3.50084 15.5433 3.42033 14.8318 2.72114C14.2076 2.10705 14.0823 1.34347 14.2299 0.38208C15.324 1.38947 16.3488 2.33475 17.3735 3.28233C17.3534 3.31683 17.331 3.35364 17.3086 3.39274Z" fill="#FFC107"/>
</svg>
