<svg width="20" height="20" viewBox="0 0 20 20" fill="none" xmlns="http://www.w3.org/2000/svg">
<path fill-rule="evenodd" clip-rule="evenodd" d="M0 20V16.7664C1.70912 15.9971 6.9423 14.5326 7.18808 12.4159C7.24343 11.9381 6.13006 10.1162 5.8745 9.24317C5.32758 8.36187 5.13225 6.96167 5.72963 6.03095C5.96728 5.66031 5.86636 4.31117 5.86636 3.80216C5.86636 -1.26656 14.6431 -1.26821 14.6431 3.80216C14.6431 4.44296 14.4966 5.62077 14.8417 6.12484C15.4179 6.96826 15.12 8.46235 14.635 9.24317C14.3241 10.1607 13.1407 11.897 13.2416 12.4159C13.6176 14.3498 18.4716 15.6495 20 16.3364V19.9984L0 20Z" fill="#FFC107"/>
</svg>
