<svg width="15" height="15" viewBox="0 0 15 15" fill="none" xmlns="http://www.w3.org/2000/svg">
<path d="M7.5 10.625C9.22344 10.625 10.625 9.22344 10.625 7.5C10.625 5.77656 9.22344 4.375 7.5 4.375C5.77656 4.375 4.375 5.77656 4.375 7.5C4.375 9.22344 5.77656 10.625 7.5 10.625ZM7.5 5.9375C8.34687 5.9375 9.0625 6.65313 9.0625 7.5C9.0625 8.34687 8.34687 9.0625 7.5 9.0625C6.65313 9.0625 5.9375 8.34687 5.9375 7.5C5.9375 6.65313 6.65313 5.9375 7.5 5.9375Z" fill="#FFC107"/>
<path d="M0.213176 10.602L1.00912 11.8995C1.43176 12.5872 2.44897 12.8453 3.18203 12.447L3.60308 12.2175C4.06356 12.5588 4.57127 12.8394 5.11218 13.0515V13.5C5.11218 14.3273 5.82614 15 6.70406 15H8.29594C9.17386 15 9.88782 14.3273 9.88782 13.5V13.0515C10.4285 12.8394 10.9362 12.5591 11.3969 12.2183L11.818 12.4478C12.5526 12.8453 13.5674 12.5887 13.9917 11.8995L14.7868 10.6027C14.9978 10.2583 15.055 9.84899 14.9459 9.4648C14.8368 9.08061 14.5703 8.75294 14.205 8.55375L13.803 8.33475C13.8885 7.78167 13.8885 7.21983 13.803 6.66675L14.205 6.44775C14.5701 6.24842 14.8365 5.92075 14.9456 5.53662C15.0546 5.15249 14.9975 4.74327 14.7868 4.39875L13.9917 3.102C13.569 2.412 12.5526 2.15325 11.818 2.553L11.3969 2.7825C10.9364 2.44118 10.4287 2.1606 9.88782 1.9485V1.5C9.88782 0.67275 9.17386 0 8.29594 0H6.70406C5.82614 0 5.11218 0.67275 5.11218 1.5V1.9485C4.57146 2.16063 4.06379 2.44094 3.60308 2.78175L3.18203 2.55225C2.44658 2.154 1.43096 2.412 1.00832 3.10125L0.213176 4.398C0.0022379 4.74247 -0.0549669 5.15176 0.0541272 5.53595C0.163221 5.92014 0.429693 6.24781 0.795008 6.447L1.19696 6.666C1.11118 7.21881 1.11118 7.78044 1.19696 8.33325L0.795008 8.55225C0.429799 8.75172 0.163453 9.07953 0.0543803 9.46378C-0.0546919 9.84804 0.00241481 10.2574 0.213176 10.602ZM2.86047 8.5335C2.7706 8.19551 2.72489 7.84844 2.72436 7.5C2.72436 7.1535 2.77053 6.8055 2.85967 6.4665C2.90165 6.3085 2.88784 6.14191 2.82034 5.99196C2.75284 5.84201 2.63532 5.71687 2.48558 5.6355L1.59174 5.148L2.38609 3.85125L3.29744 4.34775C3.44606 4.42879 3.61857 4.46221 3.78907 4.44301C3.95956 4.42381 4.11885 4.35301 4.24302 4.24125C4.78149 3.75867 5.43082 3.39961 6.14054 3.192C6.30356 3.1451 6.44631 3.05012 6.54775 2.92105C6.6492 2.79197 6.70399 2.63562 6.70406 2.475V1.5H8.29594V2.475C8.29601 2.63562 8.3508 2.79197 8.45225 2.92105C8.55369 3.05012 8.69644 3.1451 8.85946 3.192C9.56904 3.39991 10.2183 3.75893 10.757 4.24125C10.8813 4.35279 11.0405 4.42344 11.211 4.44264C11.3814 4.46183 11.5539 4.42855 11.7026 4.34775L12.6131 3.852L13.4091 5.14875L12.5144 5.6355C12.3648 5.71697 12.2473 5.84211 12.1798 5.99203C12.1124 6.14195 12.0985 6.3085 12.1403 6.4665C12.2295 6.8055 12.2756 7.1535 12.2756 7.5C12.2756 7.84575 12.2295 8.19375 12.1395 8.5335C12.0978 8.69159 12.1117 8.85819 12.1794 9.00812C12.247 9.15805 12.3646 9.28315 12.5144 9.3645L13.4083 9.85125L12.6139 11.148L11.7026 10.6522C11.554 10.5711 11.3814 10.5376 11.2109 10.5568C11.0404 10.576 10.8811 10.6469 10.757 10.7587C10.2185 11.2413 9.56918 11.6004 8.85946 11.808C8.69644 11.8549 8.55369 11.9499 8.45225 12.079C8.3508 12.208 8.29601 12.3644 8.29594 12.525L8.29753 13.5H6.70406V12.525C6.70399 12.3644 6.6492 12.208 6.54775 12.079C6.44631 11.9499 6.30356 11.8549 6.14054 11.808C5.43096 11.6001 4.78169 11.2411 4.24302 10.7587C4.11909 10.6466 3.9597 10.5755 3.78905 10.5564C3.6184 10.5374 3.44579 10.5713 3.29744 10.653L2.38689 11.1495L1.59095 9.85275L2.48558 9.3645C2.63537 9.28315 2.75298 9.15805 2.82062 9.00812C2.88825 8.85819 2.90224 8.69159 2.86047 8.5335Z" fill="#FFC107"/>
</svg>
