<svg width="24" height="24" viewBox="0 0 24 24" fill="none" xmlns="http://www.w3.org/2000/svg">
<path d="M12 17C14.7575 17 17 14.7575 17 12C17 9.2425 14.7575 7 12 7C9.2425 7 7 9.2425 7 12C7 14.7575 9.2425 17 12 17ZM12 9.5C13.355 9.5 14.5 10.645 14.5 12C14.5 13.355 13.355 14.5 12 14.5C10.645 14.5 9.5 13.355 9.5 12C9.5 10.645 10.645 9.5 12 9.5Z" fill="#FAFAFA"/>
<path d="M0.341082 16.9632L1.61458 19.0392C2.29081 20.1396 3.91835 20.5524 5.09125 19.9152L5.76493 19.548C6.5017 20.0941 7.31403 20.543 8.17949 20.8824V21.6C8.17949 22.9236 9.32182 24 10.7265 24H13.2735C14.6782 24 15.8205 22.9236 15.8205 21.6V20.8824C16.6857 20.543 17.4979 20.0945 18.2351 19.5492L18.9088 19.9164C20.0842 20.5524 21.7079 20.142 22.3867 19.0392L23.6589 16.9644C23.9964 16.4132 24.0879 15.7584 23.9134 15.1437C23.7388 14.529 23.3125 14.0047 22.728 13.686L22.0849 13.3356C22.2216 12.4507 22.2216 11.5517 22.0849 10.6668L22.728 10.3164C23.3122 9.99748 23.7384 9.4732 23.9129 8.85859C24.0874 8.24398 23.9961 7.58923 23.6589 7.038L22.3867 4.9632C21.7105 3.8592 20.0842 3.4452 18.9088 4.0848L18.2351 4.452C17.4983 3.90589 16.686 3.45696 15.8205 3.1176V2.4C15.8205 1.0764 14.6782 0 13.2735 0H10.7265C9.32182 0 8.17949 1.0764 8.17949 2.4V3.1176C7.31433 3.45701 6.50206 3.9055 5.76493 4.4508L5.09125 4.0836C3.91453 3.4464 2.28954 3.8592 1.61331 4.962L0.341082 7.0368C0.00358063 7.58796 -0.0879471 8.24281 0.0866035 8.85752C0.261154 9.47222 0.687508 9.9965 1.27201 10.3152L1.91513 10.6656C1.77789 11.5501 1.77789 12.4487 1.91513 13.3332L1.27201 13.6836C0.687679 14.0028 0.261524 14.5272 0.0870085 15.1421C-0.087507 15.7569 0.00386369 16.4118 0.341082 16.9632ZM4.57675 13.6536C4.43295 13.1128 4.35982 12.5575 4.35898 12C4.35898 11.4456 4.43285 10.8888 4.57548 10.3464C4.64264 10.0936 4.62055 9.82705 4.51255 9.58713C4.40455 9.34722 4.21651 9.147 3.97693 9.0168L2.54679 8.2368L3.81774 6.162L5.27591 6.9564C5.5137 7.08606 5.78971 7.13954 6.06251 7.10881C6.3353 7.07809 6.59016 6.96482 6.78883 6.786C7.65038 6.01387 8.68931 5.43938 9.82486 5.1072C10.0857 5.03216 10.3141 4.88019 10.4764 4.67367C10.6387 4.46715 10.7264 4.21699 10.7265 3.96V2.4H13.2735V3.96C13.2736 4.21699 13.3613 4.46715 13.5236 4.67367C13.6859 4.88019 13.9143 5.03216 14.1751 5.1072C15.3105 5.43985 16.3493 6.01428 17.2112 6.786C17.41 6.96447 17.6649 7.07751 17.9376 7.10822C18.2103 7.13893 18.4862 7.08567 18.7241 6.9564L20.181 6.1632L21.4545 8.238L20.0231 9.0168C19.7836 9.14714 19.5957 9.34738 19.4877 9.58725C19.3798 9.82712 19.3576 10.0936 19.4245 10.3464C19.5672 10.8888 19.641 11.4456 19.641 12C19.641 12.5532 19.5672 13.11 19.4232 13.6536C19.3564 13.9065 19.3788 14.1731 19.487 14.413C19.5952 14.6529 19.7834 14.853 20.0231 14.9832L21.4532 15.762L20.1823 17.8368L18.7241 17.0436C18.4864 16.9137 18.2103 16.8602 17.9375 16.8909C17.6646 16.9216 17.4097 17.035 17.2112 17.214C16.3496 17.9861 15.3107 18.5606 14.1751 18.8928C13.9143 18.9678 13.6859 19.1198 13.5236 19.3263C13.3613 19.5328 13.2736 19.783 13.2735 20.04L13.276 21.6H10.7265V20.04C10.7264 19.783 10.6387 19.5328 10.4764 19.3263C10.3141 19.1198 10.0857 18.9678 9.82486 18.8928C8.68954 18.5601 7.65071 17.9857 6.78883 17.214C6.59055 17.0345 6.33553 16.9209 6.06248 16.8903C5.78943 16.8598 5.51327 16.914 5.27591 17.0448L3.81902 17.8392L2.54552 15.7644L3.97693 14.9832C4.2166 14.853 4.40477 14.6529 4.51299 14.413C4.6212 14.1731 4.64359 13.9065 4.57675 13.6536Z" fill="#FAFAFA"/>
</svg>
