<svg width="56" height="48" viewBox="0 0 56 48" fill="none" xmlns="http://www.w3.org/2000/svg">
<path d="M23.3924 23.4115C23.7011 22.442 24.5636 21.6693 25.8133 20.8822L21.5498 16.0012C21.2606 15.7564 21.3342 15.5549 21.6037 15.3821L23.0199 14.787C23.2503 14.715 23.5002 14.7486 23.706 14.8733L29.8955 17.9306L37.1827 13.8031L27.107 1.53581C26.8473 1.25264 26.8816 1.03667 27.2884 0.892688L29.5671 0L44.7099 9.5844L50.1741 6.98313C52.2568 6.09044 54.0505 5.94646 55.1825 6.61357C55.7265 6.83435 56.0597 7.37668 55.9911 7.95261C56.0156 9.29164 54.8689 10.7363 52.8547 11.9697L47.1749 14.139L46.7192 31.772L44.6855 33.1111C44.3326 33.3558 44.1317 33.2694 44.0386 32.8951L39.3389 17.8586L31.7577 21.4293L30.8462 28.1197C30.8315 28.3645 30.7139 28.59 30.5129 28.734L29.2241 29.5451C28.9301 29.6603 28.7193 29.6075 28.6752 29.2379L26.9698 23.0371C25.6026 23.6082 24.4558 23.8674 23.461 23.5651C23.3728 23.5363 23.363 23.4931 23.3924 23.4115Z" fill="#FFC107"/>
<path d="M21.4763 20.3207C15.4534 23.4451 7.40178 28.5132 4.44182 31.4745C-5.24174 41.2412 2.31497 48.8483 13.6304 45.5175C10.0873 45.004 7.31357 44.3033 5.77478 43.3146C-0.796903 39.0863 20.3491 29.9579 25.2987 27.9613L24.9116 26.5551C24.1324 26.6223 23.3483 26.5455 22.6034 26.3199L22.3241 26.1999C21.5792 25.9312 20.9911 25.36 20.7069 24.6353L20.6481 24.4769C20.403 23.8674 20.3932 23.1907 20.6138 22.5764C20.8441 21.8469 21.2165 21.1702 21.7115 20.5846L21.4861 20.3255H21.4763V20.3207Z" fill="#FFC107"/>
<path d="M38.9518 26.4255H34.0267L34.2962 24.4625H38.349L38.9567 26.4255H38.9518Z" fill="#1E1E1E"/>
<path d="M46.2781 35.4772C45.4107 36.1251 44.2591 36.2931 43.2349 35.9235C43.0192 35.8467 42.8134 35.7507 42.6223 35.6355H38.1187C39.0449 34.0805 39.7701 32.4151 40.2798 30.6826H40.2945L38.9812 26.4591C38.8341 29.5355 37.7707 32.5975 35.7909 35.6355H27.5138V32.1176C26.9257 31.8344 26.4504 31.3785 26.1465 30.8121L25.5094 31.0761V35.6451H17.1932C17.0706 35.458 16.953 35.2708 16.8403 35.0788C15.3309 35.8563 13.8117 36.6818 12.4445 37.5265H16.0905C18.1684 40.3918 20.6187 42.9738 23.3777 45.2151C23.0445 45.172 22.7112 45.1144 22.3878 45.052C21.0891 44.7976 19.8248 44.4184 18.6094 43.9145L18.5506 43.8857C17.3255 43.3722 16.1542 42.7531 15.0467 42.0283C13.9686 41.318 12.9639 40.5069 12.0426 39.6046C11.6751 39.2447 11.3223 38.8703 10.9792 38.4816C10.2588 38.9567 9.56784 39.4703 8.91116 40.027C9.32771 40.5165 9.75406 40.9629 10.2098 41.4092C11.2487 42.4267 12.3857 43.3434 13.6059 44.1497C14.8409 44.9608 16.1542 45.6615 17.5215 46.2326L17.595 46.2614C18.977 46.8325 20.4128 47.2693 21.883 47.5573C24.9312 48.1476 28.0676 48.1476 31.1157 47.5573C32.6104 47.2597 34.0708 46.8085 35.4723 46.2182C36.8396 45.6471 38.153 44.9464 39.3879 44.1353C41.8333 42.5227 43.9356 40.4637 45.5822 38.0736C46.3222 36.989 46.9691 35.8467 47.518 34.6565L46.2781 35.4772ZM25.5094 44.3993C22.9317 42.3739 20.5991 40.0654 18.5653 37.5169H25.5094V44.3993ZM27.504 37.5169H34.4432C32.4095 40.0654 30.0817 42.3739 27.504 44.3993V37.5169ZM40.9365 39.5998C40.0201 40.5021 39.0155 41.3132 37.9324 42.0235C36.8249 42.7483 35.6537 43.3674 34.4285 43.8809C33.1936 44.3944 31.9096 44.7832 30.5914 45.0472C30.263 45.1096 29.9347 45.1672 29.6014 45.2151C32.3605 42.969 34.8108 40.3822 36.8886 37.5217H42.8085C42.24 38.256 41.6128 38.9519 40.9365 39.5998Z" fill="#1E1E1E"/>
<path d="M27.5089 13.3327V6.58957L24.9018 3.40757C24.7793 3.26839 24.6665 3.11961 24.5636 2.96123C23.6668 3.03322 22.7749 3.1532 21.8879 3.32598C20.3932 3.62834 18.9329 4.07469 17.5313 4.66501C16.164 5.23614 14.8507 5.93686 13.6157 6.74795C12.3955 7.54945 11.2585 8.46614 10.2196 9.48841C9.18068 10.5059 8.24468 11.6193 7.42628 12.8096C6.59808 14.0238 5.88259 15.3101 5.29452 16.6491L5.26512 16.7163C4.68195 18.0697 4.23599 19.476 3.94196 20.9158C3.63812 22.4036 3.48621 23.9202 3.48621 25.4368C3.48621 26.3487 3.53522 27.2558 3.64303 28.1629V28.1677C5.24552 26.8478 6.91662 25.6096 8.65143 24.4673H6.11782C6.16192 23.4451 6.28934 22.4276 6.49027 21.4245C6.7451 20.1479 7.13224 18.9 7.65171 17.705L7.68111 17.6474C8.03885 16.8315 8.4407 16.0396 8.89646 15.2765H15.1692C13.8951 17.369 12.9688 19.6487 12.4347 22.0244C13.2531 21.5157 14.0813 21.0214 14.9095 20.5366C15.5515 18.6889 16.4287 16.9275 17.5264 15.2957H18.4673V15.2573C18.482 15.1373 18.5114 15.0173 18.5457 14.9021C18.7025 14.2926 19.0505 13.7503 19.5356 13.3423H18.928C20.8833 10.8802 23.0886 8.61492 25.5045 6.58477V12.5648L29.7975 14.6814L32.1595 13.3423H27.5089V13.3327ZM16.4728 13.3327L10.2343 13.3279C10.793 12.608 11.4006 11.9265 12.0573 11.2882C12.9737 10.3859 13.9784 9.5748 15.0614 8.86449C16.1689 8.13978 17.3402 7.52066 18.5653 7.00712C19.8003 6.48879 21.0891 6.10004 22.4074 5.84087C22.7896 5.76408 23.1768 5.70169 23.5688 5.64889C20.9029 7.93821 18.5212 10.5155 16.4728 13.3327Z" fill="#1E1E1E"/>
</svg>
