<svg width="63" height="55" viewBox="0 0 63 55" fill="none" xmlns="http://www.w3.org/2000/svg">
<path d="M26.2477 26.823C26.5941 25.7122 27.5619 24.8269 28.9641 23.9251L24.1802 18.3329C23.8557 18.0524 23.9382 17.8215 24.2407 17.6235L25.8298 16.9417C26.0882 16.8592 26.3687 16.8977 26.5996 17.0407L33.5446 20.5434L41.7212 15.8144L30.4158 1.7596C30.1243 1.43518 30.1628 1.18773 30.6192 1.02277L33.1762 0L50.1673 10.981L56.2984 8.0007C58.6354 6.97793 60.648 6.81297 61.9182 7.5773C62.5285 7.83024 62.9025 8.45159 62.8255 9.11145C62.853 10.6456 61.5663 12.3007 59.3063 13.7139L52.9332 16.1994L52.4218 36.4018L50.1398 37.936C49.7439 38.2164 49.5185 38.1174 49.414 37.6885L44.1407 20.4609L35.6341 24.552L34.6113 32.2173C34.5948 32.4977 34.4629 32.7561 34.2374 32.9211L32.7967 33.8504C32.4668 33.9824 32.2304 33.9219 32.1809 33.4985L30.2618 26.3941C28.7277 27.0484 27.4409 27.3453 26.3247 26.9989C26.2257 26.9659 26.2147 26.9219 26.2477 26.823Z" fill="#FFC107"/>
<path d="M24.0977 23.2818C17.3397 26.8615 8.30526 32.6682 4.984 36.0609C-5.88155 47.2509 2.59754 55.9664 15.2942 52.1503C11.3186 51.5619 8.20628 50.7591 6.47967 49.6263C-0.894175 44.7819 22.833 34.3233 28.3867 32.0358L27.9523 30.4247C27.078 30.5016 26.1982 30.4137 25.3624 30.1552L25.049 30.0178C24.2132 29.7098 23.5533 29.0555 23.2344 28.2252L23.1684 28.0437C22.8935 27.3454 22.8825 26.57 23.1299 25.8662C23.3884 25.0304 23.8063 24.2551 24.3616 23.5842L24.1087 23.2873H24.0977V23.2818Z" fill="#FFC107"/>
<path d="M43.7063 30.2817H38.1801L38.4825 28.0327H43.0299L43.7118 30.2817H43.7063Z" fill="#E0E0E0"/>
<path d="M51.9269 40.6524C50.9537 41.3947 49.6614 41.5872 48.5122 41.1638C48.2703 41.0758 48.0393 40.9658 47.8249 40.8338H42.7715C43.8108 39.0522 44.6246 37.1442 45.1964 35.1591H45.2129L43.7393 30.3202C43.5743 33.8449 42.3811 37.3531 40.1596 40.8338H30.8722V36.8032C30.2123 36.4788 29.6789 35.9564 29.338 35.3076L28.6232 35.61V40.8448H19.2918C19.1543 40.6304 19.0223 40.4159 18.8959 40.196C17.2022 41.0868 15.4976 42.0326 13.9635 43.0003H18.0546C20.386 46.2831 23.1354 49.2414 26.2312 51.8094C25.8573 51.7599 25.4834 51.6939 25.1205 51.6224C23.6633 51.331 22.2446 50.8966 20.8809 50.3192L20.8149 50.2862C19.4402 49.6978 18.126 48.9885 16.8833 48.1582C15.6736 47.3444 14.5463 46.4151 13.5126 45.3813C13.1002 44.9689 12.7043 44.54 12.3193 44.0946C11.511 44.639 10.7357 45.2273 9.99887 45.8652C10.4663 46.4261 10.9447 46.9374 11.456 47.4488C12.6218 48.6146 13.8975 49.6648 15.2667 50.5886C16.6524 51.5179 18.126 52.3207 19.6602 52.9751L19.7427 53.0081C21.2933 53.6624 22.9045 54.1628 24.5541 54.4927C27.9743 55.1691 31.4935 55.1691 34.9138 54.4927C36.5909 54.1518 38.2295 53.6349 39.8022 52.9586C41.3363 52.3042 42.81 51.5014 44.1957 50.5721C46.9396 48.7246 49.2985 46.3656 51.1461 43.6272C51.9764 42.3845 52.7023 41.0758 53.3181 39.7121L51.9269 40.6524ZM28.6232 50.8746C25.7308 48.5541 23.1134 45.9092 20.8314 42.9893H28.6232V50.8746ZM30.8612 42.9838H38.6474C36.3654 45.9037 33.7535 48.5486 30.8612 50.8691V42.9838ZM45.9333 45.3703C44.905 46.4041 43.7778 47.3334 42.5626 48.1472C41.3198 48.9775 40.0056 49.6868 38.6309 50.2752C37.2452 50.8636 35.8046 51.309 34.3254 51.6114C33.957 51.6829 33.5886 51.7489 33.2147 51.8039C36.3105 49.2304 39.0598 46.2666 41.3913 42.9893H48.0338C47.396 43.8306 46.6921 44.628 45.9333 45.3703Z" fill="#E0E0E0"/>
<path d="M30.8667 15.281V7.55528L27.9413 3.90961C27.8039 3.75014 27.6774 3.57968 27.5619 3.39822C26.5557 3.48071 25.5549 3.61817 24.5596 3.81613C22.8825 4.16255 21.2438 4.67393 19.6712 5.35028C18.137 6.00464 16.6634 6.80745 15.2777 7.73674C13.9085 8.65504 12.6328 9.70531 11.467 10.8765C10.3013 12.0423 9.25105 13.318 8.33275 14.6817C7.40346 16.0729 6.60064 17.5465 5.94079 19.0807L5.9078 19.1577C5.25344 20.7083 4.75305 22.3195 4.42312 23.9691C4.0822 25.6737 3.91174 27.4113 3.91174 29.1489C3.91174 30.1937 3.96673 31.233 4.08771 32.2722V32.2777C5.8858 30.7656 7.76088 29.3469 9.70744 28.0382H6.86458C6.91407 26.8669 7.05704 25.7012 7.28249 24.552C7.56842 23.0893 8.00282 21.6596 8.58569 20.2904L8.61868 20.2244C9.02009 19.2897 9.471 18.3824 9.98238 17.508H17.0208C15.5911 19.9055 14.5519 22.5174 13.9525 25.2393C14.8708 24.6564 15.8001 24.0901 16.7294 23.5347C17.4497 21.4177 18.434 19.3996 19.6657 17.53H20.7215V17.4861C20.738 17.3486 20.771 17.2111 20.8094 17.0791C20.9854 16.3808 21.3758 15.7594 21.9202 15.292H21.2384C23.4324 12.4712 25.9068 9.87577 28.6177 7.54979V14.4013L33.4346 16.8262L36.085 15.292H30.8667V15.281ZM18.4835 15.281L11.4835 15.2756C12.1104 14.4507 12.7922 13.6699 13.5291 12.9386C14.5573 11.9048 15.6846 10.9755 16.8998 10.1617C18.1425 9.33139 19.4567 8.62205 20.8314 8.03368C22.2171 7.43982 23.6633 6.99441 25.1425 6.69748C25.5714 6.6095 26.0058 6.53802 26.4457 6.47753C23.4544 9.10044 20.7819 12.0533 18.4835 15.281Z" fill="#E0E0E0"/>
</svg>
