<svg width="40" height="40" viewBox="0 0 40 40" fill="none" xmlns="http://www.w3.org/2000/svg">
<path d="M8.33333 36.6667H31.6667C33.505 36.6667 35 35.1717 35 33.3333V8.33333C35 6.495 33.505 5 31.6667 5H28.3333C28.3333 4.55797 28.1577 4.13405 27.8452 3.82149C27.5326 3.50893 27.1087 3.33333 26.6667 3.33333H13.3333C12.8913 3.33333 12.4674 3.50893 12.1548 3.82149C11.8423 4.13405 11.6667 4.55797 11.6667 5H8.33333C6.495 5 5 6.495 5 8.33333V33.3333C5 35.1717 6.495 36.6667 8.33333 36.6667ZM8.33333 8.33333H11.6667V11.6667H28.3333V8.33333H31.6667V33.3333H8.33333V8.33333Z" fill="#626065"/>
<path d="M18.3333 22.6433L15.345 19.655L12.9883 22.0117L18.3333 27.3567L27.0117 18.6783L24.655 16.3217L18.3333 22.6433Z" fill="#626065"/>
</svg>