<svg width="33" height="27" viewBox="0 0 33 27" fill="none" xmlns="http://www.w3.org/2000/svg">
<path d="M32.9062 3.48536C31.6754 4.02017 30.3731 4.37252 29.0405 4.53126C30.441 3.71121 31.4942 2.40841 32.0025 0.867199C30.6785 1.64143 29.2323 2.18467 27.726 2.47364C27.0917 1.80887 26.3288 1.28002 25.4837 0.919251C24.6387 0.558478 23.7291 0.373313 22.8103 0.375012C19.0901 0.375012 16.0796 3.34181 16.0796 6.99903C16.077 7.50774 16.1352 8.01493 16.2532 8.50978C13.5856 8.38472 10.9735 7.70422 8.58397 6.51181C6.19444 5.3194 4.08012 3.64133 2.37627 1.58497C1.77852 2.59267 1.46239 3.74242 1.46094 4.91407C1.46094 7.21095 2.65928 9.24122 4.46875 10.4307C3.39669 10.4052 2.3466 10.1215 1.40762 9.60353V9.68556C1.40762 12.8984 3.73184 15.5713 6.80801 16.1797C6.22954 16.3339 5.63344 16.412 5.03477 16.4121C4.60997 16.4129 4.18613 16.3716 3.76943 16.2891C4.62461 18.9209 7.11357 20.835 10.0619 20.8897C7.66618 22.736 4.72484 23.7339 1.7002 23.7266C1.16331 23.7258 0.62693 23.6938 0.09375 23.6309C3.17073 25.5957 6.74747 26.635 10.3982 26.625C22.7959 26.625 29.5689 16.5283 29.5689 7.7715C29.5689 7.48439 29.5614 7.19728 29.5478 6.917C30.8624 5.98189 31.9997 4.81981 32.9062 3.48536Z" fill="white"/>
</svg>
