<svg width="85" height="58" viewBox="0 0 85 58" fill="none" xmlns="http://www.w3.org/2000/svg">
<path d="M59.6568 20.696C57.4056 21.8083 55.3894 23.2453 53.446 24.8301L50.1044 21.0062C52.5639 18.7259 55.4306 16.94 58.5106 15.629C52.2756 4.58149 37.1933 1.69299 27.2508 9.41585C23.6402 12.2123 20.8995 16.3948 19.8454 21.9367L19.5134 23.6693L17.7881 23.9747C16.0966 24.2703 14.5845 24.6774 13.2614 25.196C4.99336 28.3946 2.67432 37.5981 7.73161 44.5843C9.89557 47.5576 12.6556 50.5891 16.276 51.0931H21.3381C21.3042 51.5923 21.2848 52.0915 21.2848 52.5979C21.2848 53.8168 21.3866 55.0091 21.5877 56.1722H16.1936L15.8737 56.1431C10.8043 55.4986 6.64116 51.7256 3.62907 47.5576C-3.38863 37.8962 0.0669112 24.8713 11.444 20.4585C12.6314 19.9957 13.9012 19.608 15.2388 19.2978C16.7582 13.2639 19.9956 8.62102 24.1563 5.39569C36.9728 -4.52989 56.2109 -0.298915 63.5485 14.2914C64.6535 14.1169 65.7585 14.0297 66.8562 14.0418C83.2761 14.163 89.7679 35.1579 81.2478 46.4696C77.8335 51.001 72.5944 54.854 67.2003 56.1068L66.6333 56.1746H63.3449C63.6309 54.4978 63.7133 52.7918 63.5945 51.0955H66.3522C70.3602 50.1311 74.6372 46.8331 77.1816 43.4333C83.2349 35.3711 78.9385 19.1863 66.8199 19.1112C64.4548 19.0894 61.9879 19.6613 59.6568 20.696Z" fill="#1E1E1E"/>
<path d="M38.9703 57.5875H46.0364C47.6891 57.5875 49.0437 56.2329 49.0437 54.5803V44.8461H54.1979C55.2835 44.8001 56.0541 44.4415 56.5 43.763C57.7067 41.9528 56.0589 40.1645 54.9152 38.9044C51.6704 35.3422 46.08 30.0668 44.4783 28.1815C43.2642 26.8391 41.5365 26.8391 40.3224 28.1815C38.6673 30.1129 32.8782 35.7808 29.791 39.2436C28.72 40.4504 27.3969 42.0934 28.5091 43.763C28.9671 44.4415 29.7304 44.7977 30.8161 44.8461H35.9703V54.5803C35.9654 56.2136 37.3176 57.5875 38.9703 57.5875Z" fill="#FFC107"/>
</svg>
